/* XPM */
static char *apply_xpm[] = {
/* columns rows colors chars-per-pixel */
"22 22 55 1",
"  c black",
". c #535353",
"X c gray33",
"o c #565656",
"O c #585858",
"+ c gray35",
"@ c #5B5B5B",
"# c gray37",
"$ c #5F5F5F",
"% c #606060",
"& c #626262",
"* c gray39",
"= c #646464",
"- c #656565",
"; c gray40",
": c #676767",
"> c #686868",
", c DimGray",
"< c #6A6A6A",
"1 c gray42",
"2 c #6C6C6C",
"3 c #6D6D6D",
"4 c gray43",
"5 c #6F6F6F",
"6 c gray44",
"7 c #717171",
"8 c #727272",
"9 c gray45",
"0 c #747474",
"q c #767676",
"w c #797979",
"e c gray48",
"r c #7B7B7B",
"t c #7C7C7C",
"y c gray49",
"u c gray50",
"i c gray51",
"p c #838383",
"a c #848484",
"s c gray52",
"d c gray53",
"f c #898989",
"g c #8B8B8B",
"h c gray55",
"j c #8E8E8E",
"k c gray56",
"l c #909090",
"z c #929292",
"x c gray58",
"c c #989898",
"v c #9B9B9B",
"b c #A4A4A4",
"n c #B1B1B1",
"m c gray100",
"M c None",
/* pixels */
"MMMMMMMMMMMMMMMMMMMMMM",
"MMMMMMMMMMMMMMMMMMMMMM",
"MMMMMMMMMMMMMMMMMMMMMM",
"MMMMMMMMMMMMMMMMMMM600",
"65MMMMMMMMMMMMMMM55566",
"555MMMMMMMMMMMM550555M",
",r,,MMMMMMMMM,,6cj,5MM",
",rv,:MMMMMM:,5lnw,,MMM",
"::bl:$MMM:,,dbb6:MMMMM",
"M$gcd:$:$:rzcj::MMMMMM",
"M$0llr$$wjlzg$$MMMMMMM",
"M$$jjlijjjjr$$MMMMMMMM",
"MM+iggggggw+$MMMMMMMMM",
"MM+6ddddd5++MMMMMMMMMM",
"MMo$diid:ooMMMMMMMMMMM",
"MMM.wir$..MMMMMMMMMMMM",
"MMM.5w$..MMMMMMMMMMMMM",
"MMM.++.MMMMMMMMMMMMMMM",
"MMM...MMMMMMMMMMMMMMMM",
"MMMMMMMMMMMMMMMMMMMMMM",
"MMMMMMMMMMMMMMMMMMMMMM",
"MMMMMMMMMMMMMMMMMMMMMM"
};
