/* XPM */
static char* audio_xpm[]={
"16 16 10 1",
"d c #a0a0a0",
"e c #c3c3c3",
"a c #000000",
"# c #800000",
". c None",
"g c #beffff",
"h c #c00000",
"b c #585858",
"c c #ffffff",
"f c #ff0000",
"..........#....a",
"..........#..aab",
"...aaaaaaa#aacdb",
".aaccccccc#cccda",
"aecccccccc#ccaab",
".ecaaaaaaa#aacdb",
"caaccccccc#cccda",
"aecccccccc#ccaab",
"cecaaaaaaa#aacdb",
"caacccfffc#cccda",
"aecccffgff#ccaab",
"cecaafgffh#aacdb",
"caaccfffhh#cccda",
"aecccchhh#cccaa.",
"cecaaaaaaaaaa...",
"caa............."};
