/* XPM */
static char *back_xpm[] = {
/* columns rows colors chars-per-pixel */
"16 17 55 1",
"  c black",
". c #000203",
"X c #050D1C",
"o c #090F1E",
"O c #061327",
"+ c #061329",
"@ c #06172B",
"# c #07172C",
"$ c #091528",
"% c #071830",
"& c #09203A",
"* c #09213A",
"= c #1F314E",
"- c #103E5F",
"; c #0F4F7C",
": c #12426B",
"> c #12416D",
", c #184069",
"< c #1A4169",
"1 c #1B466E",
"2 c #104873",
"3 c #124875",
"4 c #154A72",
"5 c #144A77",
"6 c #144F79",
"7 c #164C79",
"8 c #13729E",
"9 c #177BAA",
"0 c #127CB3",
"q c #137CB2",
"w c #0D81BE",
"e c #1183B8",
"r c #1586BA",
"t c #2282AF",
"y c #298AB2",
"u c #0D8AC4",
"i c #1C91C1",
"p c #19A0CC",
"a c #22A4CF",
"s c #2BB2D4",
"d c #3BC3E0",
"f c #579FC4",
"g c #58B3D9",
"h c #7FB7DA",
"j c #42C5DD",
"k c #47CCE8",
"l c #70C3DF",
"z c #8097B9",
"x c #9CD5ED",
"c c #CCE6F5",
"v c #DCEBF7",
"b c #E1ECF8",
"n c #FCF9FC",
"m c #FCFBFC",
"M c None",
/* pixels */
"MMMMMMMMMMMMMMMM",
"MMMMMMMM3  MMMMM",
"MMMMMMM>=  MMMMM",
"MMMMMM1z.  MMMMM",
"MMMMM<zv   MMMMM",
"MMMM<zmg-22232  ",
"MMM4zmlpxcmch$  ",
"MM>zvgiuweeef#  ",
"MMo70duwajjsa@  ",
"MM %50kurty98   ",
"MM  O60d;***    ",
"MMM  O3i        ",
"MMMM  +2        ",
"MMMMM  X   MMMMM",
"MMMMMM     MMMMM",
"MMMMMMM    MMMMM",
"MMMMMMMM   MMMMM"
};
