/* XPM */
static char *broken_xpm[] = {
/* columns rows colors chars-per-pixel */
"48 48 116 2",
"   c black",
".  c #848484",
"X  c gray52",
"o  c #868686",
"O  c gray53",
"+  c #888888",
"@  c #898989",
"#  c gray54",
"$  c #8B8B8B",
"%  c gray55",
"&  c #8D8D8D",
"*  c #8E8E8E",
"=  c gray56",
"-  c #909090",
";  c gray57",
":  c #929292",
">  c #939393",
",  c gray58",
"<  c #959595",
"1  c gray59",
"2  c #979797",
"3  c #989898",
"4  c gray60",
"5  c #9A9A9A",
"6  c #9B9B9B",
"7  c gray61",
"8  c #9D9D9D",
"9  c gray62",
"0  c #9F9F9F",
"q  c #A0A0A0",
"w  c gray63",
"e  c #A2A2A2",
"r  c gray64",
"t  c #A4A4A4",
"y  c #A5A5A5",
"u  c gray65",
"i  c #A7A7A7",
"p  c gray66",
"a  c #A9A9A9",
"s  c #AAAAAA",
"d  c gray67",
"f  c #ACACAC",
"g  c gray68",
"h  c #AEAEAE",
"j  c #AFAFAF",
"k  c gray69",
"l  c #B1B1B1",
"z  c #B2B2B2",
"x  c gray70",
"c  c #B4B4B4",
"v  c gray71",
"b  c #B6B6B6",
"n  c gray72",
"m  c #B9B9B9",
"M  c #BBBBBB",
"N  c gray75",
"B  c gray76",
"V  c gray77",
"C  c #C5C5C5",
"Z  c #C6C6C6",
"A  c gray78",
"S  c #C8C8C8",
"D  c gray79",
"F  c #CBCBCB",
"G  c gray80",
"H  c #CDCDCD",
"J  c #CECECE",
"K  c gray81",
"L  c #D0D0D0",
"P  c gray82",
"I  c #D2D2D2",
"U  c LightGray",
"Y  c gray83",
"T  c #D5D5D5",
"R  c gray84",
"E  c #D7D7D7",
"W  c #D8D8D8",
"Q  c gray85",
"!  c #DADADA",
"~  c gray86",
"^  c gainsboro",
"/  c #DDDDDD",
"(  c gray87",
")  c #DFDFDF",
"_  c #E1E1E1",
"`  c #E2E2E2",
"'  c gray89",
"]  c #E4E4E4",
"[  c gray90",
"{  c #E6E6E6",
"}  c #E7E7E7",
"|  c gray91",
" . c #E9E9E9",
".. c #EAEAEA",
"X. c gray92",
"o. c #ECECEC",
"O. c gray93",
"+. c #EEEEEE",
"@. c #EFEFEF",
"#. c gray94",
"$. c #F1F1F1",
"%. c gray95",
"&. c #F3F3F3",
"*. c #F4F4F4",
"=. c gray96",
"-. c #F6F6F6",
";. c gray97",
":. c #F8F8F8",
">. c #F9F9F9",
",. c gray98",
"<. c #FBFBFB",
"1. c gray99",
"2. c #FDFDFD",
"3. c #FEFEFE",
"4. c gray100",
"5. c None",
/* pixels */
"5.5.5.5.x x x x x x x x x x x x x x x x x x x x x x x x x x x x x x x x h h h h h h h s 5.5.5.5.",
"5.5.5.5.x I ;.;.;.;.;.;.;.;.;.;.;.;.;.;.;.;.;.;.;.;.;.$.;.$.$.;.$.$.$.$.$.$.$.o.$.o.X.s 5.5.5.5.",
"5.5.5.5.x Y 4.4.4.4.4.4.4.4.4.4.4.4.4.4.4.4.4.<.<.4.<.<.<.;.<.;.;.;.;.;.;.$.;.;.$.$.X.s 5.5.5.5.",
"5.5.5.5.x Y 4.4.4.4.4.4.4.4.4.4.4.4.4.4.4.4.4.4.<.<.<.<.<.<.;.<.;.;.;.$.;.$.$.$.$.$.o.u 5.5.5.5.",
"5.5.5.5.x Y 4.4.4.4.4.4.4.4.4.4.4.4.4.4.4.4.4.<.<.<.<.<.;.;.;.;.;.;.;.;.;.$.$.;.;.$.X.u 5.5.5.5.",
"5.5.5.5.x Y 4.4.4.4.4.4.4.4.4.4.4.4.4.4.4.4.<.4.<.<.<.<.<.;.<.;.$.;.$.;.$.;.$.$.$.$.X.u 5.5.5.5.",
"5.5.5.5.x Y 4.4.4.4.4.4.4.4.4.4.4.4.4.4.4.<.4.<.<.<.<.;.<.;.;.;.;.;.;.$.$.;.$.$.$.$.X.r 5.5.5.5.",
"5.5.5.5.x Y 4.4.4.4.4.4.4.4.4.4.4.4.4.4.4.<.<.<.<.<.<.;.;.;.;.;.;.;.$.;.$.$.$.$.o.o.X.r 5.5.5.5.",
"5.5.5.5.x Y 4.4.4.4.4.4.4.4.4.4.4.4.4.4.4.<.<.<.<.<.;.<.;.;.;.;.;.$.;.;.$.$.$.$.$.X.{ r 5.5.5.5.",
"5.5.5.5.x Y 4.4.4.4.4.4.4.4.4.4.4.4.4.4.<.4.<.<.;.<.<.;.;.;.;.;.;.$.$.$.$.$.$.$.o.X.X.r 5.5.5.5.",
"5.5.5.5.x Y 4.4.4.4.4.4.4.4.4.4.4.X.<.<.4.<.<.<.<.<.;.<.;.;.$.;.$.;.$.;.;.$.$.$.$.X.o.r 5.5.5.5.",
"5.5.5.5.x Y 4.4.4.4.4.4.4.4.4.4.$.h { 4.<.<.<.;.<.;.;.;.;.$.;.;.;.;.$.$.$.$.$.o.o.o.$.6 5.5.5.5.",
"5.5.5.5.x Y 4.4.4.4.4.4.4.4.4.4.X.x x <.<.<.<.<.;.<.;.;.;.;.$.;.$.$.;.$.$.$.$.$.o.o.o.r 5.5.5.5.",
"5.5.5.5.x Y 4.4.4.4.4.4.4.4.4.<.n h h $.<.<.<.<.<.;.<.;.;.;.;.$.;.$.$.$.$.$.$.o.o.$.$.6 5.5.5.5.",
"5.5.5.5.x Y 4.4.4.4.4.4.4.4.4.$.h 5.h o.<.<.<.<.;.X.;.;.;.;.;.$.$.;.$.$.$.$.$.o.$.o.$.6 5.5.5.5.",
"5.5.5.5.x Y 4.4.4.4.4.4.4.4.4.{ h h h E <.<.<.<.o.u o.$.;.;.$.;.$.;.$.$.$.o.$.o.o.I 6 6 5.5.5.5.",
"5.5.5.5.x Y 4.4.4.4.4.4.4.4.;.h h h s s ;.<.<.<.X.u x $.;.;.$.;.;.$.$.$.$.$.$.o.r 6 5.5.5.5.5.5.",
"5.5.5.5.x Y 4.4.4.4.4.4.4.4.o.h h h s s o.<.;.;.n r u $.;.$.;.$.$.$.$.o.$.o.J 6 6 5.5.5.5.5.5.5.",
"5.5.5.5.x J o.o.X.X.X./ J x h s s <.s s o.<.<.$.u 5.r Y ;.;.$.$.$.$.$.$.o.6 6 5.5.6 6 6 5.5.5.5.",
"5.5.5.5.x x h x h h h h h s s s J 4.s u x <.;.o.r u r r o.$.;.$.;.$.o.Y 6 6 5.5.6 6 6 6 5.5.5.5.",
"5.5.5.5.5.5.5.5.5.5.5.5.5.5.5.h ;.4.J u u $.;.X.r u 5.r X.$.$.$.$.o.r 6 5.5.5.6 r $.A 6 5.5.5.5.",
"5.5.5.5.5.5.5.5.5.5.5.5.5.5.s h <.<.$.u u o.;.s r u r 6 r $.$.$.I 6 6 5.5.6 6 I $.;.A 6 5.5.5.5.",
"5.5.5.5.5.5.5.5.5.h h s s s s o.<.<.;.u r / $.r r $.r 5.6 $.$.6 6 5.5.5.6 6 $.;.;.$.D > 5.5.5.5.",
"5.5.5.5.h h h x n A Y ' X.$.;.<.<.<.;.x r r o.r r ;.J r 6 6 6 6 5.5.6 6 x $.$.$.$.;.A > 5.5.5.5.",
"5.5.5.5.h o.4.4.4.4.4.4.<.4.4.<.<.<.<.E r r r 6 B ;.o.r 5.6 5.5.5.6 6 { $.$.$.;.;.;.D > 5.5.5.5.",
"5.5.5.5.h o.4.4.4.4.<.4.<.<.<.<.<.<.<.$.r r 6 r X.$.;.x 5.5.5.5.6 6 $.$.$.;.;.$.;.;.A > 5.5.5.5.",
"5.5.5.5.h o.4.4.4.4.4.<.4.<.<.<.<.;.<.;.6 6 6 r $.$.;.' 6 5.6 6 A $.$.$.;.$.;.;.;.;.D = 5.5.5.5.",
"5.5.5.5.s o.4.4.4.4.4.4.<.<.<.<.<.;.;.<.B r 6 r $.;.$.$.6 6 6 o.$.$.$.;.$.;.;.;.;.<.D = 5.5.5.5.",
"5.5.5.5.s X.4.4.4.4.4.4.<.<.<.<.<.<.;.;.X.6 6 D ;.;.$.o.6 u $.$.$.;.$.$.$.;.;.;.;.;.A = 5.5.5.5.",
"5.5.5.5.s Y / o.<.4.<.<.<.<.<.<.;.;.;.;.;.6 6 o.$.o.o.o.o.$.$.$.$.$.;.;.;.;.;.<.<.<.A = 5.5.5.5.",
"5.5.5.5.s E E E E X.;.<.<.<.<.<.<.<.;.;.;.r 6 $.o.o.o.$.o.$.$.;.$.;.;.;.;.<.<.;.<.<.A @ 5.5.5.5.",
"5.5.5.5.s E E / / E / / ' { o.o.o.o.o.X.X.u 6 o.o.o.$.$.$.$.;.$.;.$.;.;.;.;.;.<.<.<.A = 5.5.5.5.",
"5.5.5.5.s E E / / / / / ' ' ' ' { { { X.{ / u o.$.$.$.$.$.;.$.$.;.;.;.;.;.<.<.<.<.4.A @ 5.5.5.5.",
"5.5.5.5.u E / / / / / ' ' ' ' { { { X.{ X.o.o.o.o.$.$.$.$.$.;.;.;.;.;.;.<.<.<.<.4.<.A @ 5.5.5.5.",
"5.5.5.5.u E E / / / ' ' ' ' { { { X.X.o.o.o.$.$.$.$.$.;.$.;.;.;.;.<.<.<.<.<.<.4.4.4.B @ 5.5.5.5.",
"5.5.5.5.u / / / / ' ' ' ' { { { { X.o.o.o.o.o.$.$.$.$.$.;.$.;.o.o.$.o.o.$.$.$.;.$.;.h . 5.5.5.5.",
"5.5.5.5.r / / ' / ' ' ' { { { X.X.X.o.o.$.o.o.$.$.;.$.;.$.;.;.I Y Y I I I J J J J D r . 5.5.5.5.",
"5.5.5.5.r / / / ' ' { { { { { X.o.o.o.o.o.$.$.;.$.;.;.$.;.;.<.J 4.4.4.4.4.4.4.4.4./ u 5.5.5.5.5.",
"5.5.5.5.6 / ' ' ' { { { { X.X.X.o.o.o.$.$.$.$.$.$.$.;.;.;.;.<.J 4.<.<.<.4.4.4.4./ x 5.5.5.5.5.5.",
"5.5.5.5.r ' ' ' ' { { { { { X.X.o.o.$.o.$.;.$.;.;.;.;.;.;.<.;.J <.<.;.<.<.<.<.E x 5.5.5.5.5.5.5.",
"5.5.5.5.6 ' ' ' { { { X.X.X.X.o.o.$.$.$.$.;.;.$.$.;.;.;.;.<.<.D <.;.;.;.;.<.E x 5.5.5.5.5.5.5.5.",
"5.5.5.5.6 ' { { { { { X.X.X.o.o.$.o.$.$.$.$.$.;.;.;.;.<.<.<.<.D ;.o.$.$.$.Y h 5.5.5.5.5.5.5.5.5.",
"5.5.5.5.6 { { { { { X.X.o.o.o.$.$.$.$.$.;.;.;.$.;.<.<.;.<.<.<.D ;.X.X.o.Y h 5.5.5.5.5.5.5.5.5.5.",
"5.5.5.5.6 { { { { X.X.X.o.$.o.$.$.$.;.$.;.$.;.;.;.;.;.<.<.<.<.A $.X.X.I h 5.5.5.5.5.5.5.5.5.5.5.",
"5.5.5.5.6 { { { X.o.o.o.o.$.$.$.$.$.;.;.$.;.;.;.<.;.<.<.<.4.4.A $.' J h 5.5.5.5.5.5.5.5.5.5.5.5.",
"5.5.5.5.6 { { X.o.o.o.o.$.$.$.$.$.;.$.;.;.;.;.<.<.<.<.<.<.4.4.A $.J s 5.5.5.5.5.5.5.5.5.5.5.5.5.",
"5.5.5.5.> X.X.o.X.o.o.$.o.$.$.$.$.$.$.;.;.;.<.<.<.<.<.<.4.4.4.N I s 5.5.5.5.5.5.5.5.5.5.5.5.5.5.",
"5.5.5.5.6 > > > > = > > = = = = = = = = @ @ @ @ . @ . . . . . = > 5.5.5.5.5.5.5.5.5.5.5.5.5.5.5."
};
