/* XPM */
static char * camera_xpm[] = {
"20 20 185 2",
"  	c None",
". 	c #FBFBFB",
"+ 	c #FCFCFC",
"@ 	c #F8F8F8",
"# 	c #F9F9F9",
"$ 	c #F2F1F1",
"% 	c #E8E7E6",
"& 	c #C1C0BF",
"* 	c #EBE9E9",
"= 	c #E0DFDF",
"- 	c #F0F0F0",
"; 	c #EEEDED",
"> 	c #DEDCDB",
", 	c #D4D3D3",
"' 	c #D3D1D1",
") 	c #C6C4C4",
"! 	c #B3B1B1",
"~ 	c #CFCECE",
"{ 	c #DCDBDA",
"] 	c #BCB9B7",
"^ 	c #DBD8D7",
"/ 	c #CDCBCB",
"( 	c #A9A7A2",
"_ 	c #E9E8E8",
": 	c #C4C2C3",
"< 	c #C8C5C5",
"[ 	c #F5F5F5",
"} 	c #C5C3C2",
"| 	c #AFACAC",
"1 	c #979393",
"2 	c #9B9898",
"3 	c #9F9D9C",
"4 	c #898786",
"5 	c #8A8989",
"6 	c #AEADAD",
"7 	c #D8D8D8",
"8 	c #B2AFAF",
"9 	c #ADA9A8",
"0 	c #A49F9F",
"a 	c #555454",
"b 	c #65635C",
"c 	c #D7D7D7",
"d 	c #B4B4B3",
"e 	c #A2A09F",
"f 	c #C1C0C0",
"g 	c #CAC6C6",
"h 	c #A3A09E",
"i 	c #A5A2A1",
"j 	c #7F7D7C",
"k 	c #7E7E7D",
"l 	c #8A8A8A",
"m 	c #8E8E8E",
"n 	c #A1A1A0",
"o 	c #959594",
"p 	c #26241D",
"q 	c #2C291F",
"r 	c #58564F",
"s 	c #C6C5C3",
"t 	c #4F4D45",
"u 	c #302D25",
"v 	c #A9A5A4",
"w 	c #8D8983",
"x 	c #E2E1D9",
"y 	c #C5C5C2",
"z 	c #969590",
"A 	c #52514F",
"B 	c #4A4946",
"C 	c #383832",
"D 	c #2B291F",
"E 	c #2E2C24",
"F 	c #2B2925",
"G 	c #716F68",
"H 	c #17140D",
"I 	c #1F1C11",
"J 	c #605E57",
"K 	c #BFBEBE",
"L 	c #A5A4A0",
"M 	c #4C4945",
"N 	c #898683",
"O 	c #D0CFCE",
"P 	c #44413C",
"Q 	c #0C0805",
"R 	c #0D0C06",
"S 	c #7A7873",
"T 	c #494844",
"U 	c #24241A",
"V 	c #2E2B23",
"W 	c #2D2B22",
"X 	c #333029",
"Y 	c #2E2C29",
"Z 	c #15120C",
"` 	c #18160D",
" .	c #56534B",
"..	c #B2B1B1",
"+.	c #57554E",
"@.	c #2C2A23",
"#.	c #C9C8C7",
"$.	c #343128",
"%.	c #0C0803",
"&.	c #090804",
"*.	c #77766E",
"=.	c #262521",
"-.	c #797976",
";.	c #8D8D89",
">.	c #BDBCBA",
",.	c #2F2F2C",
"'.	c #717069",
").	c #18150D",
"!.	c #4A4943",
"~.	c #989894",
"{.	c #484642",
"].	c #3A3732",
"^.	c #BBBAB6",
"/.	c #060503",
"(.	c #1B180E",
"_.	c #363328",
":.	c #18140C",
"<.	c #7B7A72",
"[.	c #121210",
"}.	c #030303",
"|.	c #2A2824",
"1.	c #58554F",
"2.	c #34322F",
"3.	c #65615A",
"4.	c #4A463D",
"5.	c #989896",
"6.	c #42413B",
"7.	c #82807B",
"8.	c #0E0C0B",
"9.	c #0C0903",
"0.	c #1E1A11",
"a.	c #433E35",
"b.	c #302D26",
"c.	c #111009",
"d.	c #26241B",
"e.	c #25231A",
"f.	c #343230",
"g.	c #46443A",
"h.	c #8D8D8B",
"i.	c #42413A",
"j.	c #272521",
"k.	c #454343",
"l.	c #82817B",
"m.	c #29271E",
"n.	c #3D382D",
"o.	c #312F26",
"p.	c #6D6C66",
"q.	c #43423E",
"r.	c #0B0B07",
"s.	c #0D0D09",
"t.	c #232117",
"u.	c #28251C",
"v.	c #3D3B32",
"w.	c #64635E",
"x.	c #423F39",
"y.	c #26251F",
"z.	c #474642",
"A.	c #686761",
"B.	c #696862",
"C.	c #62625A",
"D.	c #3A3937",
"E.	c #14110B",
"F.	c #12100A",
"G.	c #0F0D09",
"H.	c #1B1810",
"I.	c #211E14",
"J.	c #2D2B23",
"K.	c #3F3C34",
"L.	c #1C1810",
"M.	c #7F7F7F",
"N.	c #29261C",
"O.	c #322F29",
"P.	c #252218",
"Q.	c #1F1D14",
"R.	c #1A180F",
"S.	c #18170F",
"T.	c #101008",
"U.	c #100F09",
"V.	c #29251D",
"W.	c #1D1A11",
"X.	c #12110C",
"Y.	c #12110B",
"Z.	c #14110C",
"`.	c #17150D",
" +	c #1E1B11",
"                                        ",
"                                        ",
"                                        ",
"            . + @ # $ %                 ",
"  & # * = - ; > , ' ) ! ~ { @ ] ^ /     ",
"( @ _ : < [ } | 1 2 3 4 5 6 7 8 9 0 a   ",
"b c d e f g h i 1 2 3 j k l m n o p q   ",
"r s t u v w x y z A B C D E E F G H I   ",
"J K L M N O P Q R S T U V W X Y G Z `   ",
" ...+.@.#.$.%.%.&.I *.=.-.;.>.,.'.Z ).  ",
"!.~.{.].^./.%.(._.:.<.[.}.|.1.2.3.Z ).  ",
"4.5.6.W 7.8.9.0.a.b.'.[.c.d.e.f.3.Z ).  ",
"g.h.i.j.k.l.m.n.o.p.q.r.s.t.u.2.3.Z ).  ",
"v.w.x.y.y.z.A.B.C.D.E.F.G.H.I.J.K.E.L.M.",
"N.O.u.P.P.P.Q.R.S.c.T.U.G.` I V.Q.W.M.M.",
"              H.X.Y.X.Z.`. +I I.I M.    ",
"                    M.M.M.M.            ",
"                                        ",
"                                        ",
"                                        "};
