/* XPM */
static char * cancel_xpm[] = {
"20 20 93 2",
"  	c None",
". 	c #FAC4BF",
"+ 	c #E5756A",
"@ 	c #F8E6E3",
"# 	c #F68984",
"$ 	c #A01000",
"% 	c #FFCFC9",
"& 	c #FFBAAF",
"* 	c #FB9B92",
"= 	c #F48783",
"- 	c #D2251E",
"; 	c #FF290D",
"> 	c #FF5A41",
", 	c #FF9A8E",
"' 	c #FFD2CD",
") 	c #FA938B",
"! 	c #F61D0A",
"~ 	c #DD2A12",
"{ 	c #FE7C6A",
"] 	c #FEC5BF",
"^ 	c #FF9F91",
"/ 	c #FD9A8F",
"( 	c #FA2F17",
"_ 	c #CA1804",
": 	c #A81A07",
"< 	c #F05D49",
"[ 	c #FEA39E",
"} 	c #FF8F8A",
"| 	c #FD695B",
"1 	c #EF1B00",
"2 	c #891002",
"3 	c #9A1200",
"4 	c #FE4E3A",
"5 	c #FF8B89",
"6 	c #FD361B",
"7 	c #A81100",
"8 	c #F96350",
"9 	c #FB3419",
"0 	c #FF8F81",
"a 	c #DC6F62",
"b 	c #FD482E",
"c 	c #F31E01",
"d 	c #DE2107",
"e 	c #E64D36",
"f 	c #FE6956",
"g 	c #F35B47",
"h 	c #FF654E",
"i 	c #FD1F02",
"j 	c #EC1B02",
"k 	c #8B0D00",
"l 	c #A81705",
"m 	c #FB4D33",
"n 	c #FF7E6D",
"o 	c #F53821",
"p 	c #7F7F7F",
"q 	c #FF9383",
"r 	c #FF624D",
"s 	c #FA1C00",
"t 	c #841103",
"u 	c #7E0D00",
"v 	c #A01E0F",
"w 	c #FA4A32",
"x 	c #FB8777",
"y 	c #DA301D",
"z 	c #F8B8B1",
"A 	c #F88475",
"B 	c #FF3014",
"C 	c #810D00",
"D 	c #7D0D00",
"E 	c #A82F1F",
"F 	c #F4432C",
"G 	c #F89B8F",
"H 	c #CF3D2C",
"I 	c #808080",
"J 	c #F9BEB9",
"K 	c #F88A7E",
"L 	c #FB492F",
"M 	c #830D00",
"N 	c #CC4130",
"O 	c #F8705F",
"P 	c #F48070",
"Q 	c #998481",
"R 	c #F97465",
"S 	c #F73E28",
"T 	c #880E00",
"U 	c #84261A",
"V 	c #DB4F39",
"W 	c #EC4E3D",
"X 	c #977A77",
"Y 	c #F91C00",
"Z 	c #891103",
"` 	c #903D34",
" .	c #95736F",
"                                        ",
"                                        ",
"                            . +         ",
"                          @ # $         ",
"        % &             * = -           ",
"        ; > , '         ) ! $           ",
"            ~ { ] ^   / ( _             ",
"              : < [ } | 1 2             ",
"                3 4 5 6 7               ",
"                  8 9 0 a               ",
"                b c d e f g             ",
"              h i j k l m n o     p p   ",
"            q r s t p u v w x y p p     ",
"          z A B C     p D E F G H I     ",
"        J K L M   p p p p D N O P Q     ",
"        R S T p p p p       U V W X p   ",
"        Y Z p p               `  .p     ",
"                                        ",
"                                        ",
"                                        "};
