/* XPM */
static char *chooser_xpm[] = {
/* columns rows colors chars-per-pixel */
"22 22 183 2",
"   c black",
".  c #001DB5",
"X  c #001FBC",
"o  c #0025B7",
"O  c #0024BA",
"+  c #002ABD",
"@  c #0731B6",
"#  c #123BB7",
"$  c #143DBA",
"%  c #0015C8",
"&  c #001AC3",
"*  c #001FC8",
"=  c #0026C0",
"-  c #0024CD",
";  c #002EC0",
":  c #0028CB",
">  c #0039C7",
",  c #003BC8",
"<  c #0232D4",
"1  c #043CDD",
"2  c #1F3CC6",
"3  c #1039D3",
"4  c #1944BE",
"5  c #084BD0",
"6  c #0D52D3",
"7  c #1D46C0",
"8  c #1E4BC2",
"9  c #1142DC",
"0  c #1353D2",
"q  c #1B5AD4",
"w  c #0342E4",
"e  c #1A52E7",
"r  c #1C5BEE",
"t  c #1F61D7",
"y  c #1D6BF0",
"u  c #234CC3",
"i  c #2553C9",
"p  c #2857CB",
"a  c #2C5BCF",
"s  c #2057D0",
"d  c #2258D1",
"f  c #344FCB",
"g  c #3D59D1",
"h  c #2460D6",
"j  c #2765D9",
"k  c #2F60D1",
"l  c #2966DA",
"z  c #2D6ADA",
"x  c #3365D4",
"c  c #366AD6",
"v  c #316DDB",
"b  c #3670DC",
"n  c #3B75DD",
"m  c #2261EE",
"M  c #2964E9",
"N  c #2462F0",
"B  c #3273F4",
"V  c #3976F4",
"C  c #397DF6",
"Z  c #4459BE",
"A  c #5B66BF",
"S  c #4160D7",
"D  c #4771D2",
"F  c #436AE0",
"G  c #4571E7",
"H  c #4C7BE4",
"J  c #427FF6",
"K  c #636DC2",
"L  c #6075CA",
"P  c #6B74C4",
"I  c #757DC8",
"U  c #4684E4",
"Y  c #478CFC",
"T  c #4884F6",
"R  c #4595FF",
"E  c #4C9AFF",
"W  c #5788E3",
"Q  c #518FE9",
"!  c #508AF8",
"~  c #5C94EB",
"^  c #5792FA",
"/  c #5C9AFD",
"(  c #6184DC",
")  c #6689DE",
"_  c #7781C9",
"`  c #7A83C9",
"'  c #7F88CB",
"]  c #7788D0",
"[  c #658DED",
"{  c #6796E7",
"}  c #6493EA",
"|  c #649AEC",
" . c #6C92E4",
".. c #6D9FED",
"X. c #659EFB",
"o. c #6F9CF1",
"O. c #7397E6",
"+. c #759AE7",
"@. c #779EE8",
"#. c #6FA1ED",
"$. c #6CA6FD",
"%. c #6DABFF",
"&. c #74A0EF",
"*. c #7CA3EC",
"=. c #74A0F1",
"-. c #73ABFE",
";. c #7EA4F5",
":. c #7AB1F2",
">. c #7AB2FD",
",. c #828BD1",
"<. c #8990D1",
"1. c #939DD6",
"2. c #979EDA",
"3. c #9FA4DB",
"4. c #82ACF5",
"5. c #85B1F6",
"6. c #85BBF6",
"7. c #81BBFF",
"8. c #8CB5FA",
"9. c #8DBAF6",
"0. c #89BDFD",
"q. c #97AEE4",
"w. c #95BBF8",
"e. c #98BAF3",
"r. c #A4A7CB",
"t. c #ABACCF",
"y. c #A3AADC",
"u. c #B0B1D1",
"i. c #B3B3DA",
"p. c #B8BAD6",
"a. c #BABADD",
"s. c #A0B8E8",
"d. c #BEBEE0",
"f. c #96C1F6",
"g. c #99CCFF",
"h. c #94D2FF",
"j. c #9CD2FF",
"k. c #A1C7F9",
"l. c #A2CAFE",
"z. c #ACC1F1",
"x. c #AACDF9",
"c. c #A1D2FE",
"v. c #A6DDFF",
"b. c #AED0F6",
"n. c #BDC0E8",
"m. c #B0C8F6",
"M. c #B2D0F1",
"N. c #B3D3FA",
"B. c #B2DAFF",
"V. c #BDD5FB",
"C. c #B2E4FF",
"Z. c #BBE5FF",
"A. c #BDEBFF",
"S. c #C0C1DD",
"D. c #C3C3E2",
"F. c #C2C8ED",
"G. c #C9CAE5",
"H. c #CCCDEB",
"J. c #CDD2EF",
"K. c #D3D4EA",
"L. c #DADBEF",
"P. c #D6DAF5",
"I. c #DDDEF3",
"U. c #DADFF9",
"Y. c #C4EEFF",
"T. c #CBEEFF",
"R. c #C6F1FF",
"E. c #CCF4FF",
"W. c #D4E0FA",
"Q. c #DFE1F6",
"!. c #D7F2FF",
"~. c #D9F6FF",
"^. c #E5E5F4",
"/. c #E5E5F9",
"(. c #ECECFC",
"). c #E5F4FF",
"_. c #E3FDFF",
"`. c #EFF0FA",
"'. c #EFFEFF",
"]. c #F2F3FE",
"[. c #F0FEFF",
"{. c #FEFEFF",
"}. c None",
/* pixels */
"}.}.}.}.}.}.}.}.}.}.}.}.}.}.}.}.}.}.}.}.}.}.",
"}.}.}.}.}.}.}.}.}.}.}.}.}.}.}.}.}.}.}.}.}.}.",
"}.}.}.}.}.}.}.}.}.}.}.}.` I ` P }.}.}.}.}.}.",
"}.}.}.}.}.}.}.}.}.}.}.` <.P.I.P }.}.}.}.}.}.",
"}.}.}.}.}.}.}.}.}.` ` n.].(.(.2.K }.}.}.}.}.",
"t #.#.| | ~ 5 }.,.y./.].`.(./.(.P K }.}.}.}.",
"n E.R.A.A.C.w.' H.{.].`.(.(././.F.Z ; }.}.}.",
"n E.R.Y.C.q.3.[.{.{.{.`.(.(././.(.,.Z }.}.}.",
"n E.R.b.1.Q.{.{.{.{.].`.`.(.P.[ ) ( 4 ; ; ; ",
"b E.R.s.J.{.{.{.{.].{.`.`.U.i } 5.4.4.@.o.O ",
"v E.R.c.D *.*.*.@.+.O.O. .d @.>.R R E y : ; ",
"v E.R.Q { z.V.N.x.k.w.9.5.0.>.E R E C < = O ",
"z E.R.6 ).U.).~.E.Z.g.7.%./ Y B M 3 - % O O ",
"l E.6.U '.~.M.Y.l.>.X.! V m e 9 - * % % O }.",
"h E.U e._.Y.j.0.0.-./ T B r 9 < < - % X O }.",
"h A.q [.Y.v.h.-.>.%.^ C m w w 1 < - % X O }.",
"h :.W !.T.Z.B.l.9.8.4.[ H G S S g f 2 . }.}.",
"q n m.{.{.{.{.].`.^.I.K.K.G.D.d.a.i.L . }.}.",
"0 q {.{.{.{.{.].`.(.^.L.K.H.G.D.d.i.u . }.}.",
",  .{.{.{.{.{.].`.^.L.K.G.D.p.u.t.r.O }.}.}.",
", h c c x x x a a p i u 8 4 4 $ # @ . }.}.}.",
"}.}.}.}.}.}.}.}.}.}.}.}.}.}.}.}.}.}.}.}.}.}."
};
