/* XPM */
static char *cut_xpm[] = {
/* columns rows colors chars-per-pixel */
"22 22 190 2",
"   c #00120006000E",
".  c #098505F00234",
"X  c #10A20AFB06BB",
"o  c #14BE0C9F0B47",
"O  c #1AD90E6C066F",
"+  c #22B7160A0ACB",
"@  c #2BFB1B1F0C23",
"#  c #289A173411E7",
"$  c #3AE222900E57",
"%  c #342D205614BD",
"&  c #3B1C24381028",
"*  c #228D22AD2CD7",
"=  c #259E259E32AE",
"-  c #2C912C91381D",
";  c #336033603DA0",
":  c #3CAB3CAB45D1",
">  c #414C27800EF8",
",  c #414629F50FF4",
"<  c #441728F21249",
"1  c #44142A0B1831",
"2  c #49982CD51A60",
"3  c #5EBA3B9F1B24",
"4  c #483E38D62EBF",
"5  c #63EB3FFF173D",
"6  c #662E3EE61D4E",
"7  c #7CE837A71F66",
"8  c #680D3F27277A",
"9  c #794E3B7026B9",
"0  c #6700457F148C",
"q  c #75804E591987",
"w  c #7A404F921AB6",
"e  c #7B2C53F119D2",
"r  c #6B4F40EF2043",
"t  c #748F47D42574",
"y  c #7492497E28D5",
"u  c #46BE46BE558D",
"i  c #484048405923",
"p  c #4C654C65535E",
"a  c #4E484E4858F1",
"s  c #545F545F5DC0",
"d  c #647F647F6B5D",
"f  c #64A164617C01",
"g  c #79F568D16C6C",
"h  c #6FE76FE78799",
"j  c #69EC6AB78ADD",
"k  c #73796FEE89EE",
"l  c #73AE73AD8C50",
"z  c #7B1E754D8817",
"x  c #7FCD7FCD8808",
"c  c #7AD67AD49615",
"v  c #7DCB7DCB98AC",
"b  c #9E59389A1BEB",
"n  c #8A3C357B20BD",
"m  c #833650DB1C2D",
"M  c #87F25C631AAE",
"N  c #8FA0560819AA",
"B  c #8C1959A11B43",
"V  c #93D2590A1CAB",
"C  c #86FD55E723A2",
"Z  c #8C0956092583",
"A  c #8FA95AFF28E4",
"S  c #93A15C9F256E",
"D  c #932B65111F79",
"F  c #9C746A4F1E85",
"G  c #9DBE651E242A",
"H  c #A16140B51D0D",
"J  c #A92659781FC5",
"K  c #AAA55632209C",
"L  c #AAB25A5F2069",
"P  c #A44666F01CFD",
"I  c #A23A6A3B1E3F",
"U  c #AC70676119CC",
"Y  c #A5C771DB1F5B",
"T  c #B2A56A7A18AD",
"R  c #BA116F2D1761",
"E  c #B7C873911D89",
"W  c #C0A37128172D",
"Q  c #BC47748B1BED",
"!  c #A5336BCD23A7",
"~  c #A23B6889283A",
"^  c #A48373EB2180",
"/  c #AF1074E82466",
"(  c #AF8D76442965",
")  c #AD8D7D962237",
"_  c #AF4F78E6294C",
"`  c #B2FC73B220FA",
"'  c #B26471F128A4",
"]  c #B32C7A4524B6",
"[  c #BADD7C922256",
"{  c #898377206318",
"}  c #C9EA761015E9",
"|  c #B65382132949",
" . c #BB2C83EA25DF",
".. c #BCDA89253498",
"X. c #C70D81A11C29",
"o. c #CF558A4A1F54",
"O. c #D50D86391869",
"+. c #D9E185E91518",
"@. c #DC038F881AA2",
"#. c #DF5796C91CF6",
"$. c #C5BF900F26C2",
"%. c #C4708E022AA5",
"&. c #CA3387DA2099",
"*. c #C5A191D52696",
"=. c #C8B59B1F2D4E",
"-. c #D039918C232A",
";. c #CAD49698293D",
":. c #CE3E9DE82EE5",
">. c #D589855C28E8",
",. c #D60897032255",
"<. c #D9099F8B263C",
"1. c #D6ECA5C12D1D",
"2. c #DC87A3C82684",
"3. c #DAC8A77D2912",
"4. c #DBF9AC942C8B",
"5. c #D5F0AC1E3209",
"6. c #DE99B27D2CBA",
"7. c #DA63B13032B3",
"8. c #DF0CB82F384B",
"9. c #DE35BAE730CC",
"0. c #E8428DBA1286",
"q. c #EA858D7710E2",
"w. c #E633928E16D3",
"e. c #E2AC91E81860",
"r. c #E4229B491BE8",
"t. c #F0E793D210B9",
"y. c #F13890590E72",
"u. c #F17090BB0E9F",
"i. c #EBB5AADE1FD6",
"p. c #F2ADA358178B",
"a. c #E5F4A54D213B",
"s. c #E8B3AFA525C6",
"d. c #E0F6AE4328DD",
"f. c #E327B1FF2DC9",
"g. c #E5EBBA712D3C",
"h. c #EB99B2B925DD",
"j. c #EC82B70528EC",
"k. c #EDC9B9372736",
"l. c #EE35BC602AF4",
"z. c #E568BE323317",
"x. c #FCE9A3FE3758",
"c. c #CCE2BB1F622D",
"v. c #E7D6C67B32ED",
"b. c #E5FBC90A3637",
"n. c #EC60C3F03223",
"m. c #ED97CB4232F5",
"M. c #ED93D1FE3782",
"N. c #F2F5CA7E2F2D",
"B. c #FBE1C7FB278B",
"V. c #FAA5CC772B17",
"C. c #F561CE5C3095",
"Z. c #FD9BD98C2FAA",
"A. c #F45DD489339B",
"S. c #F15FDB8C3997",
"D. c #FBB0D867310E",
"F. c #FC12DD693304",
"G. c #F501E1FE3AC8",
"H. c #FA1EE1CE36C8",
"J. c #FFFFFFFF74D4",
"K. c #853585358F88",
"L. c #82E282E2948B",
"P. c #866F866F9F86",
"I. c #895B895B9E67",
"U. c #91E391E39F05",
"Y. c #8CF98CFBA516",
"T. c #93FF93FFA53D",
"R. c #952F952FAB15",
"E. c #9C0A9C0AACBB",
"W. c #9E749E74B292",
"Q. c #AA0B99B68743",
"!. c #B203A2BE8A38",
"~. c #A3BFA3C1B608",
"^. c #A7E8A7E8B998",
"/. c #A9A9A9A9B82B",
"(. c #AC7BAC7BBD1C",
"). c #B472B472C030",
"_. c #B4A2B4B4C416",
"`. c #BE5ABE5AC82B",
"'. c #BFF3BFF3CC89",
"]. c #C57EC57ECF67",
"[. c #C6B6C6B6D27B",
"{. c #CCADCCADD674",
"}. c #D503D503DD4A",
"|. c #DCFDDCFDE41B",
" X c #E191E191E7F9",
".X c #E7EFE7EFED04",
"XX c #EED3EED3F24E",
"oX c #F4F7F4F7F76B",
"OX c gray100",
"+X c None",
/* pixels */
"+X+X+X+X+X+X+X+X+X+X+X_.{.].K.  +X+X+X+X+X+X",
"+X+X+X+X+X+X+X+X+X+XR.'..X{.d   +X+X_.(.U.+X",
"+X+X+X+X+X+X+X+X+X+XW.{.oX].s   +X~.'.`.K.  ",
"+X+X+X+X+X+X+X+X+X+X~.{.oX`.a   Y._.|.}.d   ",
"+X+X+X+X+X+X+X+X+X+XR.'..X_.u u ~.}.oX[.p   ",
"+X+X+X+X+X+X+X+X+X+XY._.|./.i I.[.oX|.U.*   ",
"+X+X+X+X+X+X+X+X+X+Xv (.}.W.h _.|.{.U.:     ",
"+X+X+X+X+X+X+X+X+X+Xl ~.[.T.~.}.].L.;       ",
"+X+X+X+X+Xb J J J +Xj Y.W.~.[._.z -       +X",
"+X+X+X+X/ %.5.7.:.[ g z T._.^.f =       +X+X",
"+X+X9 ( :.b.S.G.m.1...Q._.Y.f *       +X+X+X",
"+X+XG =.m.m.9.b.H.m.z.c.!.{ 4     +X+X+X+X+X",
"+X9 | g.6.^ 0 Y g.Z.Z.n.8.5.| %. .S +X+X+X+X",
"+XA $.j.| @   G 2.B.k.f.F.A.A.m.1.] $ +X+X+X",
"+X/ ,.a.G # t [ i.a. .4.F.D.C.A.N.;.q   +X+X",
"+XG X.p.} P E @.r.Y q 3.V.3.) *.l.d.D     +X",
"+X8 G +.t.0.0.O.I & e 2.h.Y O w <.s.!     +X",
"+X  r V T R U m $   ^ ,.a.M   C -.a.^     +X",
"+X+X. % < > @ X     A o.r.I 1 A o.r.B     +X",
"+X+X+X            +Xy ` e.O.P Q w.X.5     +X",
"+X+X+X+X+X+X+X+X+X+X+XZ } 0.u.u.+.B +     +X",
"+X+X+X+X+X+X+X+X+X+X+X2 C U } W N &     +X+X"
};
