/* XPM */
static char *delete_xpm[] = {
/* columns rows colors chars-per-pixel */
"22 22 145 2",
"   c #000100000008",
".  c #03AE00000865",
"X  c #0A41005B0C14",
"o  c #121F0000121F",
"O  c #1CDB0372194A",
"+  c #1DDC0B5110A6",
"@  c #1EC327303E6C",
"#  c #1FB529083FAE",
"$  c #29F10C551E52",
"%  c #2FB00D002136",
"&  c #332D0E0822F9",
"*  c #3234104E2343",
"=  c #39361E643776",
"-  c #24FF276E3DA3",
";  c #1E3D21F0431C",
":  c #1F8021F44985",
">  c #214B240C4C02",
",  c #2BC72C965420",
"<  c #2F3C327F5CB8",
"1  c #4B771B1E2CEE",
"2  c #52651E0C2FA1",
"3  c #547C25322D20",
"4  c #573723C934C5",
"5  c #412C2C9943F0",
"6  c #6D752F2C4158",
"7  c #71E22DDA4296",
"8  c #760B3487471A",
"9  c #7BA736884958",
"0  c #5558537475DE",
"q  c #6BDD5ABB77A6",
"w  c #5449623A9016",
"e  c #56A4747CAC4C",
"r  c #5DA17FEDBC56",
"t  c #63EF6CAD93B0",
"y  c #70368CBCB426",
"u  c #71A88CB4B3B2",
"i  c #5D6695E9D038",
"p  c #624C9736CF17",
"a  c #642C9993D09A",
"s  c #64D99A05D122",
"d  c #6AF49D3DD0EF",
"f  c #7691973BC105",
"g  c #6E0CA484E0A3",
"h  c #726CA1CBD1BA",
"j  c #7BFAA6CFD30F",
"k  c #658AA422E4AD",
"l  c #6AB6A6E4E4E7",
"z  c #6E5DA8FCE578",
"x  c #7482AC34E56E",
"c  c #7CC4B13DE64A",
"v  c #84A23442490E",
"b  c #93333BD24DB7",
"n  c #9027450A5786",
"m  c #965342EC54C8",
"M  c #9AF24AA75078",
"N  c #9FAE4AFD5BCE",
"B  c #9688573F6A28",
"V  c #A716492458D3",
"C  c #A44B50685ED9",
"Z  c #AB2251805FDD",
"A  c #AC5054DC629E",
"S  c #B6915981655F",
"D  c #BE0B5651638F",
"F  c #BEF15E5D6A37",
"G  c #AAC56E117D13",
"H  c #B5D874387EA0",
"J  c #C0FC5EDF6AC1",
"K  c #C71C63DA6AFA",
"L  c #CF4968CF6C39",
"P  c #C6DC72CD7501",
"I  c #C84F78EA8012",
"U  c #DFDD6D1A6D1A",
"Y  c #D4D26F617532",
"T  c #DE056EB572BC",
"R  c #D40E7BDA7BBF",
"E  c #DC5F720174C9",
"W  c #DB89761079B0",
"Q  c #DF857D738013",
"!  c #E43975F275FB",
"~  c #E5D77DE47DE0",
"^  c #F5ED7B777F9A",
"/  c #DDA67E6B81A2",
"(  c #A07284B39636",
")  c #89C7872DA3B6",
"_  c #8A73961DBBE4",
"`  c #94729421B0B2",
"'  c #9AC99E58BB28",
"]  c #8549AC7BD538",
"[  c #8A3CB027D727",
"{  c #967DB20DDB86",
"}  c #839EB4DBE733",
"|  c #8C4DB86FE660",
" . c #944CBE83EA17",
".. c #A5BDC47AE4CC",
"X. c #A500C49AE97E",
"o. c #ADAAC93FE568",
"O. c #AF0EC905E987",
"+. c #BBD0D760F635",
"@. c #BF19D8E7F674",
"#. c #C80188D18AA0",
"$. c #C99182B98BEB",
"%. c #D7B29AAC9B75",
"&. c #E09A93269326",
"*. c #D9879C1B9C1B",
"=. c #DE8CA58BA58B",
"-. c #E5FC822E822E",
";. c #E7CA8C1E8C19",
":. c #E21093A293A2",
">. c #E1EB9C399C39",
",. c #EA1D96849683",
"<. c #EA6D9B2A9B22",
"1. c #E335A529A5BA",
"2. c #E400ADD6ADD6",
"3. c #E8ABB5ADB5B5",
"4. c #C48FCAAADDC5",
"5. c #D0EBC4ECC6C7",
"6. c #E055CCE1CCE1",
"7. c #D180D0A5DC53",
"8. c #D398D1AADC95",
"9. c #D93FD207D974",
"0. c #C88CD595E6E7",
"q. c #C89FD952EA9D",
"w. c #CC1EDC06EC6A",
"e. c #C2B4DB25F764",
"r. c #D1ECE081EF52",
"t. c #CF2FE132F858",
"y. c #D427E215F02D",
"u. c #D797E55AF379",
"i. c #DA23E641F2E7",
"p. c #DFB0E9F7F48C",
"a. c #E6C0C5C0C5C0",
"s. c #E7D3CE7ECE7E",
"d. c #E8B9D148D148",
"f. c #E665DCC1DCC0",
"g. c #E743E4E5E618",
"h. c #EB21E510E566",
"j. c #ED64ED62ED3E",
"k. c #E540ED23F542",
"l. c #EFF3F33DF662",
"z. c #F1E2F15DF0B9",
"x. c #F3C8F3B6F392",
"c. c #F9A4F8D8F806",
"v. c #F9F4F915F82F",
"b. c gray100",
"n. c None",
/* pixels */
"n.] ..o.O.o.o.O.O.o.O.o.o.X.f   n.n.n.n.n.n.",
"n.[ i.l.l.l.l.l.l.l.l.l.l.k.X.y   n.n.n.n.n.",
"n.] p.v.v.c.v.v.c.c.c.v.v.k.e.O.y   n.n.n.n.",
"n.j i.c.x.c.x.x.c.l.l.l.v.k.e.t.O.u   n.n.n.",
"n.j y.x.x.x.x.x.x.x.x.l.l.k.+.@.+.{ w n.n.n.",
"n.h y.x.x.x.x.x.x.x.x.l.x.x.k.p.p.4.t   n.n.",
"n.d u.x.x.j.x.x.x.x.z.z.z.x.z.x.x.7.t   n.n.",
"n.s w.x.x.x.x.j.z.x.z.z.z.z.z.z.x.7.t   n.n.",
"n.d r.z.z.z.j.j.d.a.s.g.z.z.z.z.x.9.( P V * ",
"n.i w.z.j.z.l.j.*.-.<.2.f.z.z.j.h.3.<./ A % ",
"n.i w.z.j.z.j.j.:.! ;.<.=.f.j.g.3.<.;.E V % ",
"n.i w.j.j.j.j.j.=.U ~ ;.,.1.6.2.,.;.W D b X ",
"n.i q.j.j.j.j.j.f.%.E -.;.;.;.;.;.Q J b 2 n.",
"n.i q.j.j.g.g.j.j.g.*.~ -.-.~ ~ -.Y n 1 n.n.",
"n.i q.j.j.j.j.j.j.j.g.&.! ! ! ! ! H 0   n.n.",
"n.i q.j.j.j.g.j.j.j.f.:.! ! U ! ! I q   n.n.",
"n.a w.j.j.j.j.j.j.f.:.! ! ! ! ! ! ! L M n.n.",
"n.a q.j.j.j.j.j.f.:.! ! ! ! R ! ! ! ! L m n.",
"n.i 0.g.g.g.g.g.1.! ! W E #.5.*.! ! ! E A O ",
"n.e _ ' ' ' ' ' $.! E K B ) ' ` G W ! E Z % ",
"n., > ; : : : ; A F F n = > > : 5 S F F N * ",
"n.n.n.n.n.n.n.3 9 9 8 4 n.n.n.n.n.6 8 8 6 $ "
};
