/* XPM */
static char *dirs_xpm[] = {
/* columns rows colors chars-per-pixel */
"22 22 231 2",
"   c None",
".  c #005D005D0105",
"X  c #032303230323",
"o  c #052205220522",
"O  c #068806880688",
"+  c #0A3D0A3D0A6A",
"@  c #0B950B950C5A",
"#  c #0DE60DE60ED2",
"$  c #0F6D0F6D0F62",
"%  c #0FB70FB710C1",
"&  c #10CE10CE10CE",
"*  c #129812981298",
"=  c #147614761462",
"-  c #155B155B155B",
";  c #16961696168C",
":  c #183718371837",
">  c #1BE81BE81C15",
",  c #1CCC1CCC1CCC",
"<  c #1DD21DD21DD2",
"1  c #1E1C1E1C1E5F",
"2  c #1E671E671E67",
"3  c #1F491F491F49",
"4  c #1ECF1ECF21D4",
"5  c #207C207C207C",
"6  c #221722172217",
"7  c #226722672254",
"8  c #23D923D923D9",
"9  c #22022202249C",
"0  c #22EC22EC259D",
"q  c #24BB24BB24BB",
"w  c #267D267D267D",
"e  c #27B327B327B3",
"r  c #28842884287D",
"t  c #2A772A772A77",
"y  c #2ABE2ABE2BEA",
"u  c #2D722D722D11",
"i  c #2DB32DB32DB3",
"p  c #2EAA2EAA2EAA",
"a  c #2FB42FB42FB4",
"s  c #307F307F30ED",
"d  c #331F331F331F",
"f  c #333933393339",
"g  c #35B835B835B8",
"h  c #3794379437FD",
"j  c #373E373E3C25",
"k  c #39B539B539B5",
"l  c #38FC38FC3FF6",
"z  c #3D373D373D38",
"x  c #3F693F693F69",
"c  c #3E5F3E5F43C3",
"v  c #428E428E42A6",
"b  c #44A044A04490",
"n  c #468146814681",
"m  c #4BDD4BDD4BDD",
"M  c #48D948D94C84",
"N  c #50405040502F",
"B  c #5043504351B8",
"V  c #528752875289",
"C  c #540E540E5420",
"Z  c #550E550E550E",
"A  c #5251525158E0",
"S  c #509550955BF4",
"D  c #5B3B5B3B5B22",
"F  c #5C2F5C2F5C2D",
"G  c #5B4C5B4C5D80",
"H  c #5CA25CA25CA2",
"J  c #5FA05FA05FA0",
"K  c #5C395C3964FA",
"L  c #611461146114",
"P  c #620062006200",
"I  c #62EB62EB62EB",
"U  c #638763876387",
"Y  c #652565256525",
"T  c #65D965D965D9",
"R  c #66E366E366F5",
"E  c #680768076B63",
"W  c #6A746A746A74",
"Q  c #688D688D6EE4",
"!  c #6D196D196D19",
"~  c #6DBB6DBB6E98",
"^  c #6F1B6F1B6F1B",
"/  c #701470147014",
"(  c #69A569A57196",
")  c #72A872A872A8",
"_  c #73967396739B",
"`  c #747A747A747A",
"'  c #75B575B575B5",
"]  c #780178017819",
"[  c #7A207A207A20",
"{  c #7C077C077C0F",
"}  c #7AD07AD07D86",
"|  c #7CF97CF97CF9",
" . c #7E0F7E0F7E0F",
".. c #764976498409",
"X. c #7E687E688B22",
"o. c #811A811A811A",
"O. c #823C823C823C",
"+. c #83E983E983E7",
"@. c #865786578657",
"#. c #86E386E386E3",
"$. c #893289328932",
"%. c #8A868A868A86",
"&. c #88DE88DE8AB7",
"*. c #8C598C598C58",
"=. c #8CDE8CDE8CDE",
"-. c #8DD58DD58DD5",
";. c #8F658F658F65",
":. c #8FD78FD78FD7",
">. c #882A882A91C3",
",. c #8C228C22923A",
"<. c #8ACF8ACF9B6C",
"1. c #930E930E930E",
"2. c #94D994D994D9",
"3. c #960D960D960D",
"4. c #969D969D9692",
"5. c #993699369936",
"6. c #99E899E89A24",
"7. c #9B179B179B17",
"8. c #9E579E579E57",
"9. c #9F699F699F69",
"0. c #A044A044A044",
"q. c #90C090C0A323",
"w. c #95A195A1A222",
"e. c #9C909C90A21C",
"r. c #A253A253A253",
"t. c #A3FAA3FAA3F6",
"y. c #A5C1A5C1A5C1",
"u. c #A755A755A755",
"i. c #A3F2A3F2B020",
"p. c #A908A908A908",
"a. c #AA46AA46AA46",
"s. c #AB3CAB3CAB3C",
"d. c #AC3AAC3AAC3A",
"f. c #AAE3AAE3AD5B",
"g. c #ACDAACDAACDA",
"h. c #AEA9AEA9AEA9",
"j. c #B0AEB0AEB0AE",
"k. c #AE68AE68B1A1",
"l. c #AFCDAFCDB826",
"z. c #B130B130B134",
"x. c #B26CB26CB26C",
"c. c #B388B388B388",
"v. c #B478B478B477",
"b. c #B3C9B3C9B4DF",
"n. c #B500B500B500",
"m. c #B6DCB6DCB6DC",
"M. c #B875B875BFBD",
"N. c #B8E5B8E5B8E5",
"B. c #BA42BA42BA42",
"V. c #BADDBADDBADD",
"C. c #BC1ABC1ABC1A",
"Z. c #BD8CBD8CBD8C",
"A. c #BE2CBE2CBE2C",
"S. c #BF3FBF3FBF3E",
"D. c #C057C057C057",
"F. c #B36BB36BC6F1",
"G. c #B598B598C323",
"H. c #B56BB56BC50D",
"J. c #BBB4BBB4CFEA",
"K. c #BCFFBCFFCE94",
"L. c #C04FC04FD20E",
"P. c #C1A1C1A1C1A1",
"I. c #C248C248C24D",
"U. c #C350C350C350",
"Y. c #C482C482C482",
"T. c #C4E3C4E3C4E3",
"R. c #C552C552C60D",
"E. c #C635C635C635",
"W. c #C71DC71DC71D",
"Q. c #C83DC83DC83D",
"!. c #C8D5C8D5C8D5",
"~. c #CA50CA50CA50",
"^. c #CB71CB71CB71",
"/. c #CD6ACD6ACD6A",
"(. c #CE32CE32CE32",
"). c #CF04CF04CF04",
"_. c #D07CD07CD07C",
"`. c #CA3CCA3CD76D",
"'. c #CE90CE90D0D6",
"]. c #CF07CF07D2E7",
"[. c #CD8CCD8CD71F",
"{. c #CF1FCF1FD762",
"}. c #C9C8C9C8D963",
"|. c #D0D5D0D5D1BF",
" X c #D292D292D292",
".X c #D30FD30FD30F",
"XX c #D3E5D3E5D3E5",
"oX c #D548D548D548",
"OX c #D664D664D663",
"+X c #D734D734D734",
"@X c #D81ED81ED81E",
"#X c #D20FD20FDF1F",
"$X c #D597D597E0C6",
"%X c #D931D931D931",
"&X c #DA80DA80DA80",
"*X c #DB4ADB4ADB4A",
"=X c #DC65DC65DC65",
"-X c #DD83DD83DD83",
";X c #DED8DED8DED8",
":X c #DF07DF07DF07",
">X c #E081E081E081",
",X c #D7CFD7CFE318",
"<X c #E157E157E157",
"1X c #E2BFE2BFE2BF",
"2X c #E362E362E362",
"3X c #E532E532E532",
"4X c #E671E671E671",
"5X c #E53CE53CE807",
"6X c #E853E853E853",
"7X c #E24DE24DEAC4",
"8X c #E313E313EA0D",
"9X c #E919E919E919",
"0X c #EA58EA58EA58",
"qX c #E96CE96CEC92",
"wX c #EB5EEB5EEB75",
"eX c #EC3BEC3BEC3B",
"rX c #E9DBE9DBF0B3",
"tX c #EDB0EDB0EDB0",
"yX c #EE5BEE5BEF47",
"uX c #F044F044F044",
"iX c #EE0DEE0DF342",
"pX c #EF37EF37F431",
"aX c #F4D8F4D8F4D8",
"sX c #F8ADF8ADF8AD",
"dX c #F90AF90AFBCB",
"fX c #FA5BFA5BFB91",
"gX c #FB38FB38FBE6",
"hX c #FEF8FEF8FEF6",
"jX c #FFCAFFCAFFCC",
"kX c gray100",
"lX c None",
/* pixels */
"lXlXlXlXlXlXlXlXlXlXlXlXlX  b { U # i < lXlX",
"lXlXlXlXlXlXlXlXlXlXlX  s ` p.D.%./ Y e lXlX",
"lXlXlXlXlXlXlXlXlXlXi ` 0.T.Z.0.2. .m 6 lXlX",
"lXlXlXO b b q lX: U 0.D.^.h.0.9.%.F k 6   lX",
"lX  F 1.D.D.o./ 2.T.).C.p.h.9.#.o.Y s <   lX",
"  o.Z.4X9X1X^.D.XXT.c.v.v.0.;.#.#./ s 6 * lX",
"i Z.uX4X1X*X*X*XT.Z.T.C.p.5.;.#.o.U s q * lX",
"6 D.tX1X:X:X*XXXC..XD.c.u.5.;.#.` Z x e * lX",
"U T.tX1X>X:X*X^.Z..XZ.c.u.5.;.{ U V v u < lX",
";.1X9X1X>X*XQ.Z..X).Z.h.0.2.o.W F N B ( A   ",
"U Q.eX1XXXY.^.:XXX^.C.h.9.%.{ Y F E q.F.X.< ",
"  0.9X=XT.1X9X>XXXQ.C.u.5.#.) / ,.G.L.J.<.j ",
"lXY @X*X.XaX9X:XXXT.v.p.2.#.&.l.`.`.K.q.S 9 ",
"lXe p.1X^.uX6X:X.XD.v.0.7.k.[.,X#XH...c +   ",
"lX   .XXT.9X6X*X).Z.j.c.'.7X7X,Xi.K 4   lXlX",
"lXlXk c.).*X9X*X^.D._.rXpXrX[.>.c #   lXlXlX",
"lXlX  ` T.).4XXXXX9XkXsXpXM.Q 9   lXlXlXlXlX",
"lXlXlXt 5.T.1XtXsXkXkX5Xe.M %   lXlXlXlXlXlX",
"lXlXlXlXU 0.1XkXkXfX'.{ t   lXlXlXlXlXlXlXlX",
"lXlXlXlX< Y v.kXpXf.G %   lXlXlXlXlXlXlXlXlX",
"lXlXlXlXlXt { T.%.s   lXlXlXlXlXlXlXlXlXlXlX",
"lXlXlXlXlX  v C 6   lXlXlXlXlXlXlXlXlXlXlXlX"
};
