/* XPM */
static char *done_xpm[] = {
/* columns rows colors chars-per-pixel */
"20 20 131 2",
"   c black",
".  c #0000513B0000",
"X  c #000053E40000",
"o  c #000054590000",
"O  c #000055D20000",
"+  c #000056C90000",
"@  c #000058C70000",
"#  c #000059C70000",
"$  c #00005B2F0000",
"%  c #00005B850000",
"&  c #00005CFC0000",
"*  c #00005DEB0000",
"=  c #00005F160000",
"-  c #000060EA0000",
";  c #000061DF0000",
":  c #000062D60000",
">  c #0000636A0000",
",  c #000066E70000",
"<  c #000068210000",
"1  c #000069FB0000",
"2  c #00006B8D0000",
"3  c #00006DE90000",
"4  c #000070700000",
"5  c #000071CE0000",
"6  c #000074720000",
"7  c #000075F30000",
"8  c #000077BE0000",
"9  c #000078FD0000",
"0  c #000079CE0000",
"q  c #00007B090000",
"w  c #00007BE50000",
"e  c #00007C830000",
"r  c #00007E3A0000",
"t  c #00007EC90000",
"y  c #000081410000",
"u  c #0000833E0000",
"i  c #000084810000",
"p  c #000084F30000",
"a  c #003B85FF003B",
"s  c #000086FD0000",
"d  c #001D8837001D",
"f  c #000089220000",
"g  c #00008A4D0000",
"h  c #00008AF00000",
"j  c #00088BE90008",
"k  c #015E8AC4015E",
"l  c #000C8D3C000C",
"z  c #00008DEC0000",
"x  c #00008F180000",
"c  c #02688D070268",
"v  c #000090AF0000",
"b  c #000091C50000",
"n  c #0006933A0006",
"m  c #0000947F0000",
"M  c #0000953D0000",
"N  c #000095ED0000",
"B  c #000096EB0000",
"V  c #034C94F5034C",
"C  c #028897FB0288",
"Z  c #06DB978306DB",
"A  c #0637987D0637",
"S  c #0000993E0000",
"D  c #00009A270000",
"F  c #00009B110000",
"G  c #00029BC20000",
"H  c #02429AB40242",
"J  c #00749E780000",
"K  c #00009FFA0000",
"L  c #01CB9F3E01D6",
"P  c #01319FA10000",
"I  c #04BB9D2C04BB",
"U  c #0B269A910B26",
"Y  c #0B3C9E060B3C",
"T  c #0B17A0410B17",
"R  c #0000A2000000",
"E  c #011EA2350000",
"W  c #001CA3D20000",
"Q  c #0202A1300000",
"!  c #0034A7C30034",
"~  c #0469A4310000",
"^  c #0000AC510000",
"/  c #0000AEB30000",
"(  c #0000AFBB0000",
")  c #0B1FA7C60000",
"_  c #0A9EA0C90A9E",
"`  c #0F01A56D0F01",
"'  c #0B80AEC30B80",
"]  c #0000B7010000",
"[  c #003DB82D003D",
"{  c #0000BB130000",
"}  c #0000BC850000",
"|  c #001EC0BD001E",
" . c #149CADA30000",
".. c #160DAE970000",
"X. c #1828AFB60000",
"o. c #1577A7591577",
"O. c #1903ABA11903",
"+. c #1A76AF631A76",
"@. c #1CA0A8EA1CA0",
"#. c #1067BF6F1067",
"$. c #1B60B38E1B60",
"%. c #27FFBD770000",
"&. c #28A2BDFE0000",
"*. c #2546B52B2546",
"=. c #0000CB9E0000",
"-. c #0025CF510025",
";. c #0000D2420000",
":. c #0000D8530000",
">. c #0000D92D0000",
",. c #0000DAAA0000",
"<. c #0000DC690000",
"1. c #0011DDA50011",
"2. c #0B9ED58E0B9E",
"3. c #0000E23D0000",
"4. c #0000E37D0000",
"5. c #03B1E19B03B1",
"6. c #0000E5F90000",
"7. c #05FEE69105FE",
"8. c #0000EC4C0000",
"9. c #0000ED280000",
"0. c #0009EF150009",
"q. c #0A3EE5BD0A3E",
"w. c #007BF268007B",
"e. c #0051F8BC0051",
"r. c #0854F2270854",
"t. c #2828C4852828",
"y. c #2FD2C6032FD2",
"u. c #27DED96827DE",
"i. c #21DAE19F21DA",
"p. c #2769E3FB2769",
"a. c None",
/* pixels */
"a.a.a.a.a.a.a.a.a.a.a.a.a.a.a.a.a.a.a.a.",
"a.a.a.a.a.a.a.a.a.a.a.a.a.a.a.a.a.a.a.a.",
"a.a.a.a.a.a.a.a.a.a.a.a.a.a.a.a.a.%...X.",
"W W W a.a.a.a.a.a.a.a.a.a.a.a.l W ~ ) ..",
"J F J a.a.a.a.a.a.a.a.a.a.J n I J W J W ",
"F T n N a.a.a.a.a.a.a.n l n O.*.Y F F F ",
"Z +.$.k l a.a.a.a.l p k Y t.y.@.U n a.a.",
"k ` p.' p p a.y p k l 2.u.u.o.l p a.a.a.",
"w N q.7.! t t y l ] 5.r.2.Z p y a.a.a.a.",
"3 k | e.,.W p ^ ,.0.w.-.l w t a.a.a.a.a.",
"1 7 F 0.0.,.,.4.0.4.] p 7 w a.a.a.a.a.a.",
"a.; k ;.3.3.3.3.:.^ 7 5 7 a.a.a.a.a.a.a.",
"a.% w / ,.,.,.=.N 3 1 1 a.a.a.a.a.a.a.a.",
"a.# ; l -.-.{ k < % a.a.a.a.a.a.a.a.a.a.",
"a.a.. w { / t % X a.a.a.a.a.a.a.a.a.a.a.",
"a.a.. 3 k w % X a.a.a.a.a.a.a.a.a.a.a.a.",
"a.a.X ; ; % X a.a.a.a.a.a.a.a.a.a.a.a.a.",
"a.a.a.# # X a.a.a.a.a.a.a.a.a.a.a.a.a.a.",
"a.a.a.a.a.a.a.a.a.a.a.a.a.a.a.a.a.a.a.a.",
"a.a.a.a.a.a.a.a.a.a.a.a.a.a.a.a.a.a.a.a."
};
