/* XPM */
static char *eclipse_xpm[] = {
/* columns rows colors chars-per-pixel */
"61 64 191 2",
"   c #000200000000",
".  c #0DD8019500A1",
"X  c #121A02BB01A7",
"o  c #1AA706040355",
"O  c #1EE8090C04D8",
"+  c #1DA30E780B37",
"@  c #20B806EB028D",
"#  c #23620B5305E2",
"$  c #25AB0DC20893",
"%  c #2A370E4006E8",
"&  c #29550F9F0982",
"*  c #254D11AF0C65",
"=  c #2BC010E607E4",
"-  c #2D5112850A7F",
";  c #252612C311AC",
":  c #2C29181114B5",
">  c #2F701A36153F",
",  c #2CD61AC71982",
"<  c #330B169C0C5F",
"1  c #35BA193F0E8B",
"2  c #3AEA1BD70EAC",
"3  c #316D16681B8D",
"4  c #37311AD11127",
"5  c #31791E6A1D5F",
"6  c #3C321E2212C0",
"7  c #34D621BD1F97",
"8  c #3E152178151B",
"9  c #3E2C2B1D2644",
"0  c #3B662B8A2868",
"q  c #431C153309C1",
"w  c #4C9719820BB7",
"e  c #4C1B1907165C",
"r  c #51E71CAD0D27",
"t  c #421A226D14CF",
"y  c #450E262C1A3C",
"u  c #470C28F41CED",
"i  c #4AC5275D166B",
"p  c #4A1828BC1740",
"a  c #4C3D2B911C61",
"s  c #524A2EBC1E47",
"d  c #58BE32751FFD",
"f  c #41CA2B062A90",
"g  c #4CD62E1D225D",
"h  c #452730582DC1",
"j  c #4DCA305F21D4",
"k  c #4CD232F13409",
"l  c #4B82391F34DF",
"z  c #51A02F1D2148",
"x  c #541F337B244E",
"c  c #573D36112983",
"v  c #58113AC62FB9",
"b  c #5AEF363C23DC",
"n  c #5CFD3630282A",
"m  c #5E0F39D6259A",
"M  c #5CFF3A6C2B17",
"N  c #5857303D331E",
"B  c #53893B4F324D",
"V  c #56423BFB3C73",
"C  c #5CE534373496",
"Z  c #5D0D3D79310B",
"A  c #63E03DB527D3",
"S  c #63CA3E4B2C66",
"D  c #62753DAE33C3",
"F  c #7C343F41358F",
"G  c #5B18380940E1",
"H  c #667542922EDA",
"J  c #652741BA33B9",
"K  c #66E045943AD3",
"L  c #6D2E45A33370",
"P  c #6CAF4811392C",
"I  c #6E0148EC39A3",
"U  c #70BE479033C3",
"Y  c #73714C60382F",
"T  c #738A4DBD3C1D",
"R  c #79E94EF23D4D",
"E  c #766452213F32",
"W  c #7BA753BD3CC1",
"Q  c #5A2141454261",
"!  c #5FC34F7645E1",
"~  c #62D4438449DF",
"^  c #6EC74D8042AB",
"/  c #6B374F4D4ED9",
"(  c #6EB0538D5540",
")  c #6DD85CE0539D",
"_  c #78BF4D7C4147",
"`  c #75DB4FE0581D",
"'  c #74FB532F460B",
"]  c #7C9C55AC4443",
"[  c #7C5555C64D72",
"{  c #7DBC5AAF4CFE",
"}  c #76985C705BA7",
"|  c #7E14562450EF",
" . c #7AE564B95EE8",
".. c #80CA3B1E238B",
"X. c #994352613D47",
"o. c #81EE599E42CC",
"O. c #843C5CA54AB1",
"+. c #85945E455581",
"@. c #8A1D5E7556BE",
"#. c #8E055AC65BDD",
"$. c #894061E348A7",
"%. c #81C661875641",
"&. c #881A658E5CEF",
"*. c #8DD063F853CF",
"=. c #8D88687756FA",
"-. c #8DCE698B5D18",
";. c #927064264FE6",
":. c #9106632551EE",
">. c #90F8670B5E6A",
",. c #93836BE75646",
"<. c #9693690D5B0C",
"1. c #9A87691454D6",
"2. c #9AD56C7059E2",
"3. c #9B6173806010",
"4. c #84E1679169DB",
"5. c #89FD654E68C5",
"6. c #83CC72A3682C",
"7. c #82B471F16947",
"8. c #963767F869F0",
"9. c #94EC6C2C63F9",
"0. c #9AD16F356816",
"q. c #9D9274A36361",
"w. c #9F0A72766A65",
"e. c #9E2E79E96956",
"r. c #96AA78F177E9",
"t. c #A7C9605141F6",
"y. c #B0A86A8B4C3A",
"u. c #B41C6F195A0D",
"i. c #A3D27DC46C45",
"p. c #A38E7B637396",
"a. c #9C848B687EA6",
"s. c #A5BA816A6FA7",
"d. c #A5F583C8741B",
"f. c #A477811C7E0A",
"g. c #AB1A83EB7310",
"h. c #AB7185B77AD3",
"j. c #B33C837774F8",
"k. c #B1A689EE76BF",
"l. c #AC0487288D66",
"z. c #AE7D89CE8622",
"x. c #AE218EA48DAC",
"c. c #A2E5931E87DD",
"v. c #ADDA96C7903D",
"b. c #B23E8E7284D7",
"n. c #B2058B3F9458",
"m. c #B6E794128377",
"M. c #B75792A58C96",
"N. c #BB26988C86F8",
"B. c #BA32969A8BE5",
"V. c #BD039C9C8D35",
"C. c #B3FA95159467",
"Z. c #B9F593719377",
"A. c #BDBD9F779399",
"S. c #BC1F9A859AF4",
"D. c #B9009F67A2AB",
"F. c #BFA4A21095AE",
"G. c #BA6CAA449DF3",
"H. c #C33197248688",
"J. c #C6BB95238C20",
"K. c #C82B9D788C63",
"L. c #C83D9E0F94C5",
"P. c #C0EA9F319CDA",
"I. c #C7F9A8879E20",
"U. c #C582A936A065",
"Y. c #D9C2AE6D95FE",
"T. c #C4D3A3D8A396",
"R. c #C213AF07A618",
"E. c #CE9CAA63A547",
"W. c #CD7FAB13AF33",
"Q. c #CC55A8F6B1A3",
"!. c #CCB9B2CCA311",
"~. c #CEFDB56FABB6",
"^. c #CF39BA15ADFC",
"/. c #CF6DB367B22F",
"(. c #CDFDBACCB0BB",
"). c #D155AF1BA5E7",
"_. c #D139B7DEAC1F",
"`. c #D36DBB79AE61",
"'. c #DCD6BE60AE83",
"]. c #D656BC62B54F",
"[. c #D68BB8DCB90B",
"{. c #DB59BC5BB2C6",
"}. c #DF5FC27AAD4A",
"|. c #D5B6C54FBB84",
" X c #DBF9C761BCB0",
".X c #DC73CAF7C026",
"XX c #DD95CC5CC609",
"oX c #E0DECD4DCBDA",
"OX c #E035D52BCC17",
"+X c #E249D61FCD6A",
"@X c None",
/* pixels */
"@X@X@X@X@X@X@X@X@X@X@X@X@X@X@X@X@X@X@X@X@X@X@XX . . . X . X . . X . X X X . @X@X@X@X@X@X@X@X@X@X@X@X@X@X@X@X@X@X@X@X@X@X@X",
"@X@X@X@X@X@X@X@X@X@X@X@X@X@X@X@X@X@X@X@X. X . X . X X . X X X X X X X X X o o o o @X@X@X@X@X@X@X@X@X@X@X@X@X@X@X@X@X@X@X@X",
"@X@X@X@X@X@X@X@X@X@X@X@X@X@X@X@X@X@XX X . . X . X X X . X X X X X X o o o o o o @ o o @X@X@X@X@X@X@X@X@X@X@X@X@X@X@X@X@X@X",
"@X@X@X@X@X@X@X@X@X@X@X@X@X@X@X@XX . X X X X X . X X X X X X o o o o o @ @ @ # @ # # % # # @X@X@X@X@X@X@X@X@X@X@X@X@X@X@X@X",
"@X@X@X@X@X@X@X@X@X@X@X@X@X@XX X X X X X X X X X X o o o o o o o # # = - 1 1 1 q 2 1 < - % < < @X@X@X@X@X@X@X@X@X@X@X@X@X@X",
"@X@X@X@X@X@X@X@X@X@X@X@X@XX X X X X o X o X o o o o @ # % % - - < 1 2 4 1 - = - $ $ # * = - < 4 @X@X@X@X@X@X@X@X@X@X@X@X@X",
"@X@X@X@X@X@X@X@X@X@X@XX X X X X X X o o o o o @ @ # % < 2 t q 4 $ O X . .   . . .   . . . X X X X . @X@X@X@X@X@X@X@X@X@X@X",
"@X@X@X@X@X@X@X@X@X@XX X X X X o o o o o @ @ # < < < 2 a s 8 + X . . . . . . . . . . . . . .   . . . . @X@X@X@X@X@X@X@X@X@X",
"@X@X@X@X@X@X@X@X@X. X X X X o o o O # # = = < q a b x 7 + . . . . . . . . . . . . . . . . . . . . . . . @X@X@X@X@X@X@X@X@X",
"@X@X@X@X@X@X@X@X. X X X X o o o # $ = = 1 2 i d U v * .   . . . . . . . .   . . .   . . . . . . . . . . . @X@X@X@X@X@X@X@X",
"@X@X@X@X@X@X@XX X X X X o o @ # = - < 2 i d W ] j X . . . . . . . .   . . . . . . . . . . . . . . . . . . . @X@X@X@X@X@X@X",
"@X@X@X@X@X@XX . . X X X o @ # < < 2 w s U ;.3.9 . . . . . . . . . . . . . . . .   . . .   . . . . . . . . .   @X@X@X@X@X@X",
"@X@X@X@X@X@X. . X X X o o # < 2 i s A W q.9.7   . . . . . . .   . . . . .   . . . . . . . . . . . . . . . . . @X@X@X@X@X@X",
"@X@X@X@X@X. X X X X o o @ = 2 p b U $.s.z., . . . . . . . . . .   . . . . .   . . . . . . . . . .   . .   . . . @X@X@X@X@X",
"@X@X@X@X. X X X X X o o # 1 p H o.,.g.x.0   . . .   . . . .   . . . . . . . . . . . .   .   . . . . . . . . . . . @X@X@X@X",
"@X@X@X@XX . X X X o o # - 2 b o.i.N.F.l . . . . . . . . . . . . . . . . . . . . . . . . . . . .   . . . . . . . . @X@X@X@X",
"@X@X@X. X . X X X o # $ 1 p W 3.V.`.) . .   . . . . . . . . . . . .   . .   . . . . . . . . . . . . . . . . . . . . @X@X@X",
"@X@X@XX X X X X X o $ < t d $.N.`.v.+ . . . . . . . . . . . . . . . . . . . . .   . . . . . . . . . . . . .   . . . @X@X@X",
"@X@XX X X X o X o # - 2 d Y s.!.^.l . . . . . .   . . . . . . . . . . . . . . . . . . . . . . . . . . . . . . . . . . @X@X",
"@X@X. . X X o o O $ < a H ,.k.|.6.X . .   . . . . . . . .   . . . . . . . . . . . . . .   . . . . . . . . . . . . . . @X@X",
"@XX . X X o o o O = 8 m { s.R.R.,   . . . . . . . . . . . . .   . . . . . .   . . . . . . . .   . . .   . . . . . . X   @X",
"@X. . X X X o # = < p E s.B.}. .. . . . . . . . .   . . . . . . .   . . . . . . . . . . . . . . . . . . . . . . . . . . @X",
"@X. . X X o # # < 2 x $.V.^.|.0 . . . .   . . . . . . . . . . . . . . . . . . . . . . . . . . . . . . . . . . . . . . . @X",
"X . X X X X # = < t H e._.+Xc.X . . . . . . . . . . . . . . . . . . . . . . . . . .   . . . . . . . . . . . . . . . . X @X",
". X . X X o # - 2 a W F.XXOX) . . . . . . . . .   . . . . . . . .   . .   . . . . . . .   . . . . . . . . . . . . . . . . ",
". X X X o o $ - t H q.^.OX|.0 . . .   . . . . . . . . . . . . . . . . . . . . . .   . . . . . . . . . . . . . . . . . . . ",
". X X X X O $ < 2 Z d. X+XG.+ . . . . . . . . . . . . . . . . . . . . . . . . . . + . . . . . . . + . . . . . . . . . . . ",
"X X X X X o # - 8 m d..X+Xa.. . . . . . . . .   . . . .   . . . . . . . . . . . . . . . . . . . . . . . . . . . . . . . . ",
"X X o X o o # - t H d.|.+X .. . . . . . . . . . . . . . . . . . . . . . . .   . . . . . . . . . . . . . X . . . . . X X . ",
"X X X X o o # < a Y h.|.OX!   . . . . . . . . . . . . . . . . . . . . . . . . . . .   . . . . . . . . . . . X X . . . . . ",
"X X X o o o @ = 8 L i.~..Xl . . . . . . . . . . . . . . . . . . . . . . . . . . . . . . . + . . . X . . . . X . . . . . . ",
". X X X o o # = 8 Z *.N.^.h . . . .   . . . . .   . . . . . . . . . . . . . . . . . . . .   . . . . . . . . . . . X . X . ",
"X X X X o o O - 8 b ] h.R.0 . . . . . . . . . . . . . . . . . . . . . . . . . . . . . . . . . . . . . . . X . . X . . . X ",
"X X o o o o O - 6 x ] d.S.0 . . . . . . . . . . X . . . . . . . . . . . . . . . . . . . . . . . . . . . X . X . . . X . . ",
"X X o X X O # - 8 x T =.B.V . . . . . . . . . . . X . . . . . . . . . . . . . .   . . . . . . . . X X . . X X X X . . X X ",
"X X X X X O O = 4 a S O.B./ . . . . . . . . . . . . . . . . X . . . . . . . . . + . . . . + . . . . . X . X . . . . X . X ",
"X X X X O o # - 4 u b ] b. .. X . . . . . . . . . . . . . X . . . . . X . . . . X . . . . X . . . . X . . . X . . . . X . ",
"X X X o X o O * < 8 j P h.r.X . . . . . X . . X . X . . . . . . . . . . . . . .   . . . . . X X . . . . . X . X X . X . X ",
"X X X X o o # # - 4 u L w.C.; . . . . . . . . . . . . X X . . X . . . X . . X . . . . . . . X . X X . X X . X . . . X X . ",
"X X X X X o O # * < y J 9.T.f . . . . . . . X . . . X . . . . . + . . . X . X . . + . . . X . X X . X . . X . X X . . . X ",
"X X X X o X o # $ < t v +.T.} . +   . X . . X . . . . . . . . X . . . . . . . . . . . . . . . . . X . . X . X . X . X . @X",
"@XX X X o o o o & - 6 c ] Z.n.o . . . . X . . X X . X . . . X . . . . . X . . X X . . . X . X . X . X X X X . X . X . X @X",
"@XX X X o X o o # & 4 g T p.[.k + . . . . X . X . . . . X X . . . X . . X . X . . X . . . X X . . X X X X . X . X . . . @X",
"@XX X X X o o o @ & < y D 0.[.D., . X X X . X . X . X X . . X X . . . . . . . X X .   + . X . X . X . X . X . X . X X . @X",
"@X@XX X X X o o O & : 6 c @.Q.XXV o X X X . X . . . . . . X X . X . . . . . X . . X X . . X X . X X . X X . X . X X X @X@X",
"@X@XX X X X o o o # < 6 a _ Z.oXl.e % o X X . X X . X . X . . X X . . + . . . X . . . X X . . X . X X . . . . X . . X @X@X",
"@X@X@XX X X X o O # & 4 y D w.[.XXJ.X.w # X X X . X X . . . . . . X . . . . . . X . X . . . . . X X . . . X X . . . @X@X@X",
"@X@X@XX X X X o o @ $ - e A :.).OXOX}.y.r + X X X X . . . X X . X . . . X X X . . X . X . + . . . . X X X . X . X X @X@X@X",
"@X@X@X@XX X o o o + $ & 4 z O.J.XX+X+X}.y.2 o o X . . X . X X X . X . . . . . . . X X . . X X . . . X X . X X X X @X@X@X@X",
"@X@X@X@XX X X X o o # $ 4 g o.p.'.OXOX+XY.F @ X X X X . X . . . . . X X . X X X X . X . X . X X X X . X X X X X . @X@X@X@X",
"@X@X@X@X@XX X o X o + $ - e D ;.H. XOXOX}.u.q o X . . X . X . X X . . . +   X . . X . X . X X X X . X X X . X X @X@X@X@X@X",
"@X@X@X@X@X@XX X o o o # & 2 a F 2.K. XOX+X'.F o X X . X X . X . . X X . X X . X . X X X . X X X X X X X X X X @X@X@X@X@X@X",
"@X@X@X@X@X@XX X X o o o $ : 6 z U 1.H.{.+X+X#.o X X . X X . . X X . X X X . X X X X . X X X . X . X X X X X X @X@X@X@X@X@X",
"@X@X@X@X@X@X@Xo o X X o o & & 6 s P :.j.).[.T.k X . X X . X X X . X X . . X X . X . X X . X X X X . . . . + @X@X@X@X@X@X@X",
"@X@X@X@X@X@X@X@XX o o o o @ $ - 6 g M R <.h.T.T.V X . . . X X . X . . X X X X X . . . . X X X . X X X X . @X@X@X@X@X@X@X@X",
"@X@X@X@X@X@X@X@X@XX X o o @ # $ = 4 e s M _ >.z.S.4.5 X . X . X . X . X X X . . . . + . . X X X X . . X @X@X@X@X@X@X@X@X@X",
"@X@X@X@X@X@X@X@X@X@Xo o o o o # $ $ - 3 6 a M [ 9.M.S.( ; . . . X X X . X X . X X . X X X . . X X . . @X@X@X@X@X@X@X@X@X@X",
"@X@X@X@X@X@X@X@X@X@X@Xo X o o o o # # $ % 1 y x D { p.S.C.( : X . . X . . X . X X . X . X X X X . X @X@X@X@X@X@X@X@X@X@X@X",
"@X@X@X@X@X@X@X@X@X@X@X@X@XX X o o o o # # & < 4 y x P -.z.S.l.5.! , X . . . . X . . X . . . X . @X@X@X@X@X@X@X@X@X@X@X@X@X",
"@X@X@X@X@X@X@X@X@X@X@X@X@X@Xo X X o o o @ # # & - 6 a J ' { [ 8.Q.n.` ~ k 5 , , ; * : > * o X @X@X@X@X@X@X@X@X@X@X@X@X@X@X",
"@X@X@X@X@X@X@X@X@X@X@X@X@X@X@X@Xo X o X o o O O $ - 4 y a g g g N C D | } &.&.%.^ K K J J @X@X@X@X@X@X@X@X@X@X@X@X@X@X@X@X",
"@X@X@X@X@X@X@X@X@X@X@X@X@X@X@X@X@X@XX o o o o o O # - - < 3 < < & < 6 g x M Z M x x x @X@X@X@X@X@X@X@X@X@X@X@X@X@X@X@X@X@X",
"@X@X@X@X@X@X@X@X@X@X@X@X@X@X@X@X@X@X@X@XX o o o o O O $ $ $ $ $ & & < 4 6 y u y 1 @X@X@X@X@X@X@X@X@X@X@X@X@X@X@X@X@X@X@X@X",
"@X@X@X@X@X@X@X@X@X@X@X@X@X@X@X@X@X@X@X@X@X@X@Xo o o o O O O # # $ $ & : < X @X@X@X@X@X@X@X@X@X@X@X@X@X@X@X@X@X@X@X@X@X@X@X"
};
