/* XPM */
static char *exec_xpm[] = {
/* columns rows colors chars-per-pixel */
"22 22 58 1",
"  c black",
". c #0CE30C310CEC",
"X c #148B14931493",
"o c #1B6F1B6E1B75",
"O c #20AD1C381CB9",
"+ c #2046201D2029",
"@ c #235822351F72",
"# c #23F223F8240B",
"$ c #2C3D2C562C63",
"% c #340833F533FB",
"& c #3C6A3C3C3C6A",
"* c #41C9402E4012",
"= c #4507451C451E",
"- c #47C148114873",
"; c #484A4840487C",
": c #4C604C514C6D",
"> c #4F2450CF4FF0",
", c #502C50C25099",
"< c #543E54525450",
"1 c #584E57D25877",
"2 c #5C855C555C94",
"3 c #60395FF4607E",
"4 c #5E79609A5F86",
"5 c #651164F8650C",
"6 c #683C686D6828",
"7 c #682069CB68EC",
"8 c #6C776C656C7C",
"9 c #74437468745F",
"0 c #7C237C5C7C4F",
"q c #7F6A80EC807E",
"w c #83B883B983D1",
"e c #88D0887788C2",
"r c #88A988A0886A",
"t c #8BCF8BD78BC6",
"y c #90B790DB9065",
"u c #93F593F69446",
"i c #988098A8987F",
"p c #9C439C559C41",
"a c #9FCD9EEDA0DD",
"s c #A4A7A4BEA509",
"d c #A8ABA8A5A8E0",
"f c #ABF5AC1AABF0",
"g c #B463B48AB4A2",
"h c #BD68BD5FBD43",
"j c #C54BC529C4FA",
"k c #CCA4CCBACC60",
"l c #D0E1D09AD051",
"z c #D3F6D422D410",
"x c #D7D1D8B9D92F",
"c c #D8B9D8F3D903",
"v c #D8FAD918D8A1",
"b c #DCBBDCEEDCBD",
"n c #E0D3E0FADF6C",
"m c #E096E101E123",
"M c #E3BFE43AE3D4",
"N c #ED5DEDC3EDD2",
"B c #FF01FEFDFEBF",
"V c None",
/* pixels */
"VVVVVVV71=9=$=:qVVVVVV",
"VVVVky=$###ooo#1VVVVVV",
"VVkvNf#X9i;OXoo<VVVVVV",
"VVxbNx=#jbz0oXX%5=2kVV",
"V@0tccdpkjj8XXXX$o&wVV",
"kh19xxkkjhh9o%&XXXo-rV",
"bMzzkkjjhhgdwfwoXXX$5V",
"bbxkkjhggfdsapu>XX$1OV",
"dsjjhhgdupppiut0%X+3VV",
"6:phhgs1$=rittw<oXX%%0",
"Bydgfft$oo8ur00%XXXX%5",
"jxhfds0%3#-p009=XXX+=4",
"zkdsppr;<##p0975;%$=<7",
"bzdpiut0&X$i87522===<p",
"nh09tertu5ut5211,*%:wV",
"Vy5,8w090uw521<;&#o$BV",
"VVVgr0988321<,:%oX#=VV",
"VVVct886311<:;&$XO;iVV",
"VVVf51<:<<,:*&&%%1iVVV",
"VVVVt5%1,;=&##%&5zVVVV",
"VVVVBx=h:&&%o#&8gVVVVV",
"VVVVVVVV;&%%&;tVVVVVVV"
};
