/* XPM */
static char *exit_xpm[] = {
/* columns rows colors chars-per-pixel */
"32 32 84 1",
"  c black",
". c #A5801F0B0F5E",
"X c #A5D01FDD1035",
"o c #A67721A011B5",
"O c #A8CE280D177B",
"+ c #A97C29D916AE",
"@ c #AD60346A1D91",
"# c #AD9F354C216F",
"$ c #AFA13AA92371",
"% c #B0FF3E97258A",
"& c #B0E23D552B2A",
"* c #B296421327B5",
"= c #B27242F62B24",
"- c #B6994D0E3617",
"; c #B7924F193992",
": c #BA3154E02FDA",
"> c #B898515C3158",
", c #B84B51773C22",
"< c #BAFD57A832F2",
"1 c #B92353593EB7",
"2 c #BC525CB3371A",
"3 c #BD6C5F103B30",
"4 c #BE66639F3D65",
"5 c #BC4C5F29411E",
"6 c #BFC765E0433D",
"7 c #C0A069D3439A",
"8 c #C1D96C7B45FB",
"9 c #C2DE6EAD4AEB",
"0 c #C35E70B6482C",
"q c #C48E73F04D18",
"w c #C5A176E1518B",
"e c #C6EA7B88549B",
"r c #C8037FDB58BF",
"t c #C9207CAE57E4",
"y c #C9EF7D895A15",
"u c #C6AB777860C4",
"i c #C866816B5A92",
"p c #C9A9846F5DE2",
"a c #CB6A87766219",
"s c #CCA58A5C65A9",
"d c #CE8D8DEF6B1D",
"f c #CFD48FC77286",
"g c #CF7B91766DB7",
"h c #D06B92A2713C",
"j c #D28294E8754C",
"k c #D2DB97737ADF",
"l c #D3549A487830",
"z c #D5239C4D7C60",
"x c #D5BFA0498117",
"c c #D7A3A24D8473",
"v c #D988A51486E4",
"b c #DA53A6378B7C",
"n c #DA3BA9C68EC2",
"m c #DD61AB649256",
"M c #E0C3B2349B76",
"N c #E4A1B57F9EF9",
"B c #E2D2B48DA0A5",
"V c #E50DBA8EA3EF",
"C c #E5D5BFD0AB34",
"Z c #E74AC29AAD97",
"A c #E9E6C1BDAE93",
"S c #E84FC4BFB2B8",
"D c #EAFAC796B456",
"F c #EA05CB6DBC7A",
"G c #EE97D14CBEA0",
"H c #EF84D0A9C26C",
"J c #EF08D313C3DB",
"K c #EE9DD836CBB4",
"L c #EF09D977CCCA",
"P c #F15FD705C70D",
"I c #F2CADAF1CE5C",
"U c #F2E3DE88D301",
"Y c #F66AE209D70D",
"T c #F7AFE5F1DD20",
"R c #F7D1E9A5E0DC",
"E c #FA3CE8B2DF57",
"W c #F8EEEB0BE444",
"Q c #FA52ED57E62C",
"! c #FAAFF007E9C9",
"~ c #FB27F34CEEB5",
"^ c #FCDCF7C4F50C",
"/ c #FD9FF9C2F7C6",
"( c #FFC6FF18FEB0",
") c None",
/* pixels */
"))))))))))))))))))))))))))))))))",
"))))))))))))))))))))))))))))))))",
")))))XX.XX..X...XXXX..ooo.o)))))",
"))))oXO$&55,55;;;;;;---=#O.o))))",
")))Xo&ukjjjffddddddsssaau6#oo)))",
")).X&ff96886899999qqwwweipw#o.))",
"))XOuf3><<23334677889qqweep5Oo))",
"))X&k9>2<323wzVCAVlt9qweeerw@o))",
"))o;j6<222qmW/((((/Ubteeiiie$o))",
")).1f6222qH((/!EW~((/Dpriiie=.))",
"))X1j822qH((KvyttaNW((Daippe*o))",
")).1f824B((Ct8yCVtqjI(^nippq*o))",
")).1f82y!(He88x(WhqelW(Udaaq$o))",
")).,d83m(^j888b(QjwrrC(^vaaq*o))",
"))o,f94F(Ut9q0b(Qjeril^(Zss0$o))",
")).,d94F(Hw9q0b(Qjriig!(Gss0$o))",
"))o;d07F(Heqq9n(!zypph~(Ggs0$o))",
")).;dq7F(Yrqewn(!zippz^(Dgg7$.))",
")).-d07N(^lqewn(!zppsZ(^Mlg7$o))",
"))o-dq7d~(Jieen(!zpszW(Ezlg7@o))",
"))o-sq0wA((FarjFAgpzY((Zzzj6@o))",
")).-swqqsU((InssdjVR((Pzzzj6@o))",
"))o-swqwehU((^!IY!(((Pczzvk4@o))",
"))o=aeqweedA~(((/(/!Zzzzcbk4@o))",
"))o#ptweiiipzVJLLJBczzzzbnh>Oo))",
")).O6peteiippassggllzzbbnc0$oo))",
"))..&7piiipppassddhhlhkkh7=+oX))",
")))oo#6weeeqwqq077777663>$+Oo)))",
"))))oXO#$==*$*$$*$@@@@@@+ooo))))",
")))))oXXoo.ooooooo.Oooooooo)))))",
"))))))))))))))))))))))))))))))))",
"))))))))))))))))))))))))))))))))"
};
