/* XPM */
static char *expand_xpm[] = {
/* columns rows colors chars-per-pixel */
"12 8 78 1",
"  c black",
". c #000030E86A50",
"X c #00C333826C30",
"o c #024237046EA1",
"O c #028B373B6EE1",
"+ c #046738BA6FEF",
"@ c #09FB3BA67222",
"# c #0A6A3B4071C2",
"$ c #0AFA3DC8738E",
"% c #0B633C8772BF",
"& c #0B353DA57378",
"* c #0F9E419D7663",
"= c #10B7427B7708",
"- c #115542CF771D",
"; c #12B9441D7811",
": c #133C42C87729",
"> c #22F74FCF80B7",
", c #22F850DD8174",
"< c #2477519C8212",
"1 c #27CA5490841D",
"2 c #31DC5BEB8996",
"3 c #35D15EC98B60",
"4 c #3C7765268FEA",
"5 c #3DD7661990C9",
"6 c #402D68059219",
"7 c #4061681D924A",
"8 c #42B76997931B",
"9 c #45316C1A94F2",
"0 c #46FC6D4595E5",
"q c #4DBB72D399D0",
"w c #4E8973809A87",
"e c #533A76CF9CDF",
"r c #5CD87F0BA28E",
"t c #5D237F03A2B2",
"y c #6222830DA57F",
"u c #61E482F7A5A9",
"i c #62FE83D6A649",
"p c #65AD857CA7AC",
"a c #65F185D4A7BE",
"s c #68C5884AA987",
"d c #7D21986FB521",
"f c #7D3B989FB554",
"g c #81C39C38B7E8",
"h c #85D79F11B9C4",
"j c #8761A037BAE6",
"k c #87B8A0C6BAFE",
"l c #89BCA226BCAF",
"z c #8C88A465BE49",
"x c #8D0EA4EFBDE0",
"c c #9165A852C044",
"v c #9428AA33C245",
"b c #945BAB6CC254",
"n c #94ABAB23C28D",
"m c #99E0AF18C5AD",
"M c #9DEAB2B4C7E8",
"N c #A373B66BCAAC",
"B c #A694B930CD21",
"V c #A741B974CCDB",
"C c #A8A2BAB1CDFE",
"Z c #A907BB38CE35",
"A c #AB9ABD29D006",
"S c #AC85BE1ED037",
"D c #AE5EBF3DD13E",
"F c #B15AC1DED2CE",
"G c #B722C64DD638",
"H c #B920C809D7D4",
"J c #BA79C914D7F3",
"K c #BD8ACB8FD9F2",
"L c #BECFCC66DA99",
"P c #CC42D742E27D",
"I c #E58CEB64F173",
"U c #E860ED96F2C0",
"Y c #EE62F235F605",
"T c #EF7EF334F6D2",
"R c #F172F478F764",
"E c #F406F67BF8C8",
"W c gray100",
"Q c None",
/* pixels */
"QQQQQQQQQQQQ",
"Wuo-Vg*okWQQ",
"Wd4#0nq$3xIQ",
"QQZe$2jp:>px",
"QQWH1XuP6X9G",
"QEZ7$rKr#8AY",
"YDw>0Ls;5MWQ",
"PVjmKDcmFQQQ"
};
