/* XPM */
static char *file_xpm[] = {
/* columns rows colors chars-per-pixel */
"22 22 182 2",
"   c black",
".  c #04F604F60491",
"X  c #06160616062C",
"o  c #073C073C076B",
"O  c #0895089508CA",
"+  c #0A4A0A4A08A6",
"@  c #0AC60AC60997",
"#  c #0B300B3009F6",
"$  c #0C240C240A5F",
"%  c #0DB50DB50BB9",
"&  c #0E0E0E0E0C0C",
"*  c #0FAD0FAD0D8E",
"=  c #0F1C0F1C0EAE",
"-  c #104110410EA2",
";  c #109A109A0FA5",
":  c #11EA11EA10C2",
">  c #128A128A11A6",
",  c #13D313D31208",
"<  c #13EE13EE12A0",
"1  c #19791979161A",
"2  c #1A871A8717F1",
"3  c #1BE71BE7194E",
"4  c #1CBE1CBE18DE",
"5  c #1CF41CF4193A",
"6  c #1E101E101B26",
"7  c #1F1F1F1F1C1C",
"8  c #202020201C1C",
"9  c #21C421C41DF5",
"0  c #23F123F11F9C",
"q  c #26AE26AE22CB",
"w  c #26B726B723EA",
"e  c #287428742467",
"r  c #2B042B04263F",
"t  c #2BE72BE727D9",
"y  c #2C2E2C2E2800",
"u  c #2D5E2D5E28E6",
"i  c #2DD42DD4293D",
"p  c #2E4E2E4E29E4",
"a  c #2FE52FE52ACE",
"s  c #301B301B2C4C",
"d  c #2EB42EB42ED8",
"f  c #306730672C14",
"g  c #32D332D32E41",
"h  c #3325332530AF",
"j  c #37783778322B",
"k  c #370037003236",
"l  c #38E938E9330C",
"z  c #392039203455",
"x  c #396439643465",
"c  c #39D239D236DE",
"v  c #3BB43BB43682",
"b  c #3E0E3E0E372B",
"n  c #3E453E4537BB",
"m  c #3AF53AF53A1F",
"M  c #3CB83CB8397E",
"N  c #3F323F32392D",
"B  c #3F5A3F5A3951",
"V  c #42B142B13BD6",
"C  c #459D459D3E34",
"Z  c #476147614027",
"A  c #48414841412A",
"S  c #476F476F42EB",
"D  c #4D574D5744D7",
"F  c #4DDE4DDE4559",
"G  c #4E904E9046B7",
"H  c #511051104900",
"J  c #51F751F74A21",
"K  c #554055404D67",
"L  c #59EC59EC50FC",
"P  c #5A8C5A8C521D",
"I  c #5D095D095304",
"U  c #5C015C015C2C",
"Y  c #615A615A5816",
"T  c #6317631758A3",
"R  c #6366636659F4",
"E  c #63F263F25AB4",
"W  c #647C647C5A0C",
"Q  c #64EE64EE5AA4",
"!  c #665F665F5BCA",
"~  c #66B766B75C1B",
"^  c #66EF66EF5C75",
"/  c #68BA68BA5D8B",
"(  c #69B269B25EC1",
")  c #6B236B236005",
"_  c #6A166A166210",
"`  c #703970396503",
"'  c #6D2A6D2A6955",
"]  c #721572156723",
"[  c #793A793A6C9B",
"{  c #78AA78AA6E0C",
"}  c #73B173B1709A",
"|  c #738A738A7300",
" . c #7DF77DF771D6",
".. c #7FB47FB471F8",
"X. c #830583057758",
"o. c #81E281E27912",
"O. c #87B287B27A1D",
"+. c #8B2A8B2A8A5C",
"@. c #90C690C686BE",
"#. c #938093808563",
"$. c #95E195E1861D",
"%. c #92F192F18B4F",
"&. c #98F698F688D9",
"*. c #99C699C68ADA",
"=. c #9B2F9B2F8AE3",
"-. c #9C219C218E1B",
";. c #9D659D658CA0",
":. c #9AB89AB89471",
">. c #9C559C559720",
",. c #A26FA26F916C",
"<. c #A9A6A9A6981E",
"1. c #AB0EAB0E99D2",
"2. c #ABB8ABB899D6",
"3. c #AD86AD869A91",
"4. c #AE91AE919CF8",
"5. c #B053B0539E0D",
"6. c #B36BB36BA111",
"7. c #B6A3B6A3A418",
"8. c #BC1EBC1EA8BA",
"9. c #BC58BC58AB2A",
"0. c #BD8ABD8AAA2C",
"q. c #BF10BF10AB48",
"w. c #B978B978B763",
"e. c #C194C194AD8E",
"r. c #C2F6C2F6AE30",
"t. c #C448C448B092",
"y. c #C600C600B057",
"u. c #C655C655B1D9",
"i. c #C73EC73EB38D",
"p. c #C8C4C8C4B2E3",
"a. c #D1BFD1BFBB01",
"s. c #D3FDD3FDBDF4",
"d. c #D51FD51FBD0C",
"f. c #D52BD52BBE2D",
"g. c #D591D591BEFE",
"h. c #D677D677BF72",
"j. c #D60CD60CBFCF",
"k. c #D6F0D6F0C04C",
"l. c #CEA6CEA6C924",
"z. c #D801D801C17D",
"x. c #D8C4D8C4C266",
"c. c #DA02DA02C291",
"v. c #DA77DA77C33C",
"b. c #DB58DB58C3F6",
"n. c #DC2EDC2EC46E",
"m. c #DCC8DCC8C5C6",
"M. c #DD8ADD8AC5C7",
"N. c #DE28DE28C5F8",
"B. c #DE26DE26C6F4",
"V. c #DF12DF12C6FD",
"C. c #DF83DF83C831",
"Z. c #E066E066C854",
"A. c #E13EE13EC97C",
"S. c #E1ADE1ADCA5F",
"D. c #E2BFE2BFCAA5",
"F. c #E352E352CB37",
"G. c #E4A1E4A1CC8A",
"H. c #E5A3E5A3CD88",
"J. c #E627E627CDEA",
"K. c #E738E738CF1A",
"L. c #E8A0E8A0D053",
"P. c #E9C2E9C2D173",
"I. c #EA0AEA0AD0F9",
"U. c #EADEEADED284",
"Y. c #EB33EB33D2A0",
"T. c #EC31EC31D352",
"R. c #EC73EC73D400",
"E. c #EDADEDADD491",
"W. c #EE93EE93D585",
"Q. c #EF78EF78D67E",
"!. c #F041F041D725",
"~. c #F16BF16BD84B",
"^. c #F267F267D959",
"/. c #F2EFF2EFDA18",
"(. c #F313F313D9B2",
"). c #F35EF35EDA45",
"_. c #F4A0F4A0DB83",
"`. c #F596F596DC66",
"'. c #F64FF64FDD21",
"]. c #F81AF81ADE84",
"[. c #F9C0F9C0E017",
"{. c None",
/* pixels */
"{.{.{.{.{.{.{.{.{.{.{.{.{.{.{.{.{.{.{.{.{.{.",
"{.{.{.{.{.{.{.{.{.{.$ - g b {.{.{.{.{.{.{.{.",
"{.{.{.{.{.{.{.{.{.{.$ $ f l {.{.{.{.{.{.{.{.",
"{.{.{.{.{.{.{.{.  O F ) ] w   {.{.{.{.{.{.{.",
"{.{.{.{.{.{.  - C ! *.e.q.K d {.{.{.{.{.{.{.",
"{.{.{.{.o > V / &.i.f.M.M.1.! a {.{.{.{.{.{.",
"{.{.{.  d m { f.n.n.n.M.A.A.O.L {.{.{.{.{.{.",
"{.{.{.  U +.@.p.f.f.n.A.G.P.i.*.F {.{.{.{.{.",
"{.{.{.  | w.%.-.a.n.Z.G.L.P.).5.^   {.{.{.{.",
"{.{.{.  | l.:. .y.n.A.P.E.E.Q.Q.{ O   {.{.{.",
"{.{.{.  ` :.o.3.d.A.G.P.Q.~.).'.s.^ o > - {.",
"{.{.{.  = E 8.j.M.A.P.E.Q.).'.).~.i.I = < {.",
"{.{.{.  j -.n.M.A.G.P.W.~.).).].'.W.1.F H {.",
"{.{.{.  l @.A.C.G.L.P.W.).).).'.~.e.T a a {.",
"{.{.{.{.o ` A.A.G.P.E.Q.~.'.].].5./ C 1 6 {.",
"{.{.{.{.  _ q.P.P.P.W.~.'.[.M.=.T a {.{.{.{.",
"{.{.{.{.{.M o.P.E.E.Q.).E.5.1.I 8 {.{.{.{.{.",
"{.{.{.{.{.O L 7.Q.Q.W.f.,./ A {.{.{.{.{.{.{.",
"{.{.{.{.{.{.a ! Z.L.0.X.F b {.{.{.{.{.{.{.{.",
"{.{.{.{.{.{.> V $.3.` 0 1 {.{.{.{.{.{.{.{.{.",
"{.{.{.{.{.{.{.q y V V 4 6 {.{.{.{.{.{.{.{.{.",
"{.{.{.{.{.{.{.q a M b {.{.{.{.{.{.{.{.{.{.{."
};
