/* XPM */
static char *folder_xpm[] = {
/* columns rows colors chars-per-pixel */
"22 22 199 2",
"   c None",
".  c #00030A",
"X  c #03090E",
"o  c #00071B",
"O  c #030B14",
"+  c #020B1B",
"@  c #020C22",
"#  c #020E2B",
"$  c #041121",
"%  c #05132C",
"&  c #071831",
"*  c #081A31",
"=  c #0F2235",
"-  c #0E263B",
";  c #11263B",
":  c #041647",
">  c #0E1F47",
",  c #0C1E4A",
"<  c #051F69",
"1  c #0E234A",
"2  c #13284F",
"3  c #162E51",
"4  c #142D5C",
"5  c #12304A",
"6  c #173550",
"7  c #183357",
"8  c #1B3F5E",
"9  c #19386B",
"0  c #203F5E",
"q  c #263D78",
"w  c #2A427C",
"e  c #2B4C74",
"r  c #2D5077",
"t  c #29507B",
"y  c #30467E",
"u  c #06278F",
"i  c #103D9F",
"p  c #0C30B2",
"a  c #0F3CB2",
"s  c #0F37CD",
"d  c #0F34D5",
"f  c #103BC3",
"g  c #1035DE",
"h  c #1339E6",
"j  c #21468D",
"k  c #215296",
"l  c #334D82",
"z  c #30578A",
"x  c #3D5B8C",
"c  c #376695",
"v  c #356C9D",
"b  c #3B649E",
"n  c #3C6C96",
"m  c #3663AF",
"M  c #0B50DE",
"N  c #1A48EF",
"B  c #1C4BF0",
"V  c #1553E4",
"C  c #1F56EB",
"Z  c #2051EE",
"A  c #2055F4",
"S  c #245AF5",
"D  c #305FF1",
"F  c #336EDF",
"G  c #2662F8",
"H  c #2A65F8",
"J  c #2C6EFB",
"K  c #2673FC",
"L  c #2872F6",
"P  c #2B7BFE",
"I  c #306EFB",
"U  c #3273FB",
"Y  c #3B7EFE",
"T  c #455E9E",
"R  c #4B619D",
"E  c #4269A3",
"W  c #4677BD",
"Q  c #4C74BA",
"!  c #546AA5",
"~  c #6279B0",
"^  c #4A78C6",
"/  c #4562E5",
"(  c #697DC9",
")  c #3585FE",
"_  c #3F83FE",
"`  c #4A82B3",
"'  c #5E89BF",
"]  c #608DB7",
"[  c #6E8FBE",
"{  c #728DBD",
"}  c #5F93C2",
"|  c #428DFE",
" . c #4A86FC",
".. c #488CFF",
"X. c #4592FE",
"o. c #4A94FF",
"O. c #5681F2",
"+. c #5197FF",
"@. c #559EFF",
"#. c #5A9CFD",
"$. c #57A0FF",
"%. c #5BA2FF",
"&. c #6F9FD3",
"*. c #6A9DDE",
"=. c #6595E9",
"-. c #619AE9",
";. c #7389E3",
":. c #7AA3CE",
">. c #76A4D9",
",. c #6AA8ED",
"<. c #65A9F5",
"1. c #66ABFF",
"2. c #6BADFE",
"3. c #6EB0FF",
"4. c #72A6EF",
"5. c #7AABE6",
"6. c #76A7FC",
"7. c #73ACF6",
"8. c #75ADF8",
"9. c #7CB1EF",
"0. c #71B3FF",
"q. c #78B2FF",
"w. c #79B8F3",
"e. c #7BBAFF",
"r. c #7EC0F9",
"t. c #8291BF",
"y. c #93A2CD",
"u. c #8AA8F2",
"i. c #85BCF2",
"p. c #8CBEF7",
"a. c #A4AACA",
"s. c #A9BADD",
"d. c #B4B6CD",
"f. c #B3B7D0",
"g. c #B4B8D5",
"h. c #A5B2E4",
"j. c #82C0FF",
"k. c #89C5FE",
"l. c #8EC9FF",
"z. c #94C4E8",
"x. c #9DC4E6",
"c. c #9FC1EE",
"v. c #91C7FD",
"b. c #94CBF7",
"n. c #91CBFB",
"m. c #9CCAF5",
"M. c #9ACEFC",
"N. c #9BD3FE",
"B. c #B9C0DB",
"V. c #A1CBEF",
"C. c #A4CCF2",
"Z. c #A2CEFF",
"A. c #ACCBFD",
"S. c #ADD0EE",
"D. c #A5D0F7",
"F. c #A2D5FA",
"G. c #A5DAFF",
"H. c #A9D0F0",
"J. c #A9D6F9",
"K. c #AED8F7",
"L. c #ABDBFD",
"P. c #B0C5E6",
"I. c #BECEF3",
"U. c #B3DCFA",
"Y. c #B8D7F1",
"T. c #AEE0FF",
"R. c #B9E4FD",
"E. c #BBE9FE",
"W. c #C6C6D6",
"Q. c #CBCBDB",
"!. c #CBD0E6",
"~. c #D5D5E1",
"^. c #D1D8ED",
"/. c #DFDEE8",
"(. c #C6E0F7",
"). c #C2E4FA",
"_. c #C2ECFE",
"`. c #CDE7FF",
"'. c #CDECFD",
"]. c #C5F0FF",
"[. c #CEF3FE",
"{. c #D2EFFC",
"}. c #DFE7F7",
"|. c #DBEAFC",
" X c #D1F3FE",
".X c #D4F9FF",
"XX c #DBFBFF",
"oX c #E3E3EC",
"OX c #E4E5F0",
"+X c #E4E9F7",
"@X c #EDEDF3",
"#X c #E0F1FE",
"$X c #E4FDFF",
"%X c #EBF7FF",
"&X c #EBFEFE",
"*X c #F6F5FA",
"=X c #F5FBFE",
"-X c #FBFDFE",
";X c None",
/* pixels */
";X;X;X;X;X;X;X;X;X;X;X;X;XX 9 ^ 4 @ % ;X;X;X",
";X;X;X;X;X;X;X;X;X;X;XX 1 E 5.7.m Q j   ;X;X",
";X;X;X;X;X;X;X;X;X;X* b 5.k.<.-.=.F i . ;X;X",
";X;X;XO ; = X ;X* z >.M.w.,.4.+.L M a o ;X;X",
";X. 8 } H.z.c t &.F.N.w.i.7.X.P K V f % ;X;X",
"X n C.$X&XXXR.L.R.b.i.p.2.o.) P K C s : ;X;X",
"5 V.-X&X$XXX[.].b.m.l.0.%.o.) P K Z d <   ;X",
"- x.-X&X$XXX XE.m.F.e.3.%.o.) P H B g u . ;X",
"c Y.-X&X$XXX[.F.C.M.e.2.$.X.) K S N h p + ;X",
"` XX=X&X$X XF.m.L.l.e.2.@._ U H A N / ( > ;X",
"5 H.-X&X_.D.R.R.F.k.e.1.+._ U G D ;.g.f.y . ",
"O ] &X[.K. X].T.M.k.0.%.o.Y I O.h.Q.W.d.T o ",
";X0 (.{.)..X_.T.N.j.0.#... .u.!.~.Q.a.T > . ",
";X$ :.|.L..XE.L.n.e.2.#.6.!.}./.Q.t.q @   ;X",
";X;Xt ).K.'.E.G.l.e.q.A.+X@XoXg.! > .   ;X;X",
";X;X$ :.U.E.E.F.l.Z.|.=X*XOXy.w @   ;X;X;X;X",
";X;X;Xe C.K.R.L.`.-X-X-X^.~ , .   ;X;X;X;X;X",
";X;X;X$ ' m.'.%X-X-X*Xs.l +   ;X;X;X;X;X;X;X",
";X;X;X;X7 ,.|.-X-X}.{ 2 .   ;X;X;X;X;X;X;X;X",
";X;X;X;X. k h.-XB.T $   ;X;X;X;X;X;X;X;X;X;X",
";X;X;X;X;X% W } 3 .   ;X;X;X;X;X;X;X;X;X;X;X",
";X;X;X;X;X  * $   ;X;X;X;X;X;X;X;X;X;X;X;X;X"
};
