/* XPM */
static char *forward_xpm[] = {
/* columns rows colors chars-per-pixel */
"16 17 50 1",
"  c black",
". c #02040B",
"X c #040911",
"o c #050C18",
"O c #04111D",
"+ c #05101C",
"@ c #05101E",
"# c #06121F",
"$ c #0A223D",
"% c #0C2A4B",
"& c #0C2E51",
"* c #133858",
"= c #103B5F",
"- c #173A5E",
"; c #0E4C73",
": c #12416D",
"> c #244263",
", c #105687",
"< c #105A8D",
"1 c #0E7CB5",
"2 c #32739D",
"3 c #0D82B8",
"4 c #0D81BE",
"5 c #1184B9",
"6 c #1E86B1",
"7 c #2684AF",
"8 c #2B83AC",
"9 c #0E88C1",
"0 c #0F8DC2",
"q c #0D97CA",
"w c #1492C7",
"e c #1C91C1",
"r c #14ADD8",
"t c #1BA8D0",
"y c #3FBFDA",
"u c #6399BC",
"i c #53AFD6",
"p c #5EB3D7",
"a c #46C9E5",
"s c #47CCE8",
"d c #9FC4DE",
"f c #8EC3E1",
"g c #A6D3EB",
"h c #BED9ED",
"j c #D2E1EF",
"k c #DEECF7",
"l c #DFEDFA",
"z c #EEF1FB",
"x c gray100",
"c c None",
/* pixels */
"cccccccccccccccc",
"cccccccccccccccc",
"cccccccc&  ccccc",
"cccccccc:&  cccc",
"cccccccc:2&  ccc",
"cccccccc>k2&  cc",
"ccc::::>>gx2&  c",
"ccc:dlzlhi9x2&  ",
"ccc:zpq4314wk<& ",
"ccc>jfyat40se,. ",
"ccc-u8765rse,o  ",
"ccc%#oOO;se,X   ",
"ccc     =e,X    ",
"ccc     *,o    c",
"cccccccc$.    cc",
"cccccccc     ccc",
"cccccccc    cccc"
};
