/* XPM */
static char *genesis_xpm[] = {
/* columns rows colors chars-per-pixel */
"59 60 257 2",
"   c None",
".  c #070D0F",
"X  c #102D34",
"o  c #1F5763",
"O  c #235A66",
"+  c #256377",
"@  c #2D748A",
"#  c #1F61D4",
"$  c #2265D6",
"%  c #236DD8",
"&  c #2A6CD8",
"*  c #2573DB",
"=  c #2679DC",
"-  c #2974DA",
";  c #2A7BDD",
":  c #316DD8",
">  c #327CDD",
",  c #3879DB",
"<  c #6B7289",
"1  c #2F8EA6",
"2  c #2B81DE",
"3  c #3281DE",
"4  c #3D83DE",
"5  c #3D9DC3",
"6  c #2B83E0",
"7  c #2D8BE2",
"8  c #2D91E5",
"9  c #2F99E9",
"0  c #3385E0",
"q  c #338BE2",
"w  c #3B8CE1",
"e  c #3C85E0",
"r  c #3392E4",
"t  c #3499E6",
"y  c #349BE8",
"u  c #3B93E4",
"i  c #3C9AE6",
"p  c #399DE8",
"a  c #3CB0D7",
"s  c #34A2EB",
"d  c #35AAEE",
"f  c #3AA3EA",
"g  c #3CABED",
"h  c #3CB2EE",
"j  c #39B4E3",
"k  c #36B2F1",
"l  c #3CB4F1",
"z  c #3DBBF3",
"x  c #37B9F3",
"c  c #3DC3F7",
"v  c #43A5B7",
"b  c #4484DE",
"n  c #4B83DE",
"m  c #4589DF",
"M  c #5485DE",
"N  c #5488DF",
"B  c #5B89DE",
"V  c #448CE1",
"C  c #4C86E0",
"Z  c #4C8BE1",
"A  c #4687E0",
"S  c #4293E3",
"D  c #439BE5",
"F  c #449DE8",
"G  c #4B93E3",
"H  c #4B9BE5",
"J  c #538AE0",
"K  c #5B8CE0",
"L  c #5087E0",
"P  c #5293E3",
"I  c #539BE5",
"U  c #5B92E2",
"Y  c #5B9BE5",
"T  c #47BAD1",
"R  c #43A4EA",
"E  c #41ABED",
"W  c #4BA1E6",
"Q  c #4BA4E9",
"!  c #4BABEB",
"~  c #46A0E7",
"^  c #44B3EE",
"/  c #4BB1EE",
"(  c #4CB8EF",
")  c #43B4F0",
"_  c #43BBF2",
"`  c #4AB5F0",
"'  c #4BBBF1",
"]  c #52A0E7",
"[  c #52A3E8",
"{  c #53ABEB",
"}  c #5BA6E8",
"|  c #53B2EE",
" . c #5BB4ED",
".. c #58B8EF",
"X. c #53BBF1",
"o. c #5BBBF1",
"O. c #54B6F0",
"+. c #628BDF",
"@. c #628DE0",
"#. c #698EE0",
"$. c #6492E2",
"%. c #639BE5",
"&. c #6B92E2",
"*. c #6B9AE4",
"=. c #7294E2",
"-. c #739AE4",
";. c #7B9BE4",
":. c #7997E3",
">. c #63A3E6",
",. c #64A4E8",
"<. c #63ABEA",
"1. c #6BA3E6",
"2. c #6CABE9",
"3. c #69A3E8",
"4. c #63B3ED",
"5. c #6BB3ED",
"6. c #6CB9EF",
"7. c #65BAF0",
"8. c #73A1E7",
"9. c #74A4E8",
"0. c #73ACE9",
"q. c #7DA1E6",
"w. c #7AA3E8",
"e. c #7AABE9",
"r. c #72A8E7",
"t. c #7AB9EE",
"y. c #77B3EC",
"u. c #73BDF1",
"i. c #44C2F4",
"p. c #43CBF9",
"a. c #4BC3F3",
"s. c #4BC9F6",
"d. c #4CCCF8",
"f. c #40C7F8",
"g. c #4CD2F9",
"h. c #47D4FA",
"j. c #53C4F4",
"k. c #53CBF5",
"l. c #52CDF8",
"z. c #5BC3F4",
"x. c #5BCAF5",
"c. c #5ECEF8",
"v. c #52D4F9",
"b. c #54DBFB",
"n. c #5BD1F6",
"m. c #5AD4F8",
"M. c #5BDBFA",
"N. c #57D2F7",
"B. c #5BE3FC",
"V. c #59E4FD",
"C. c #64C4F3",
"Z. c #64C9F5",
"A. c #6CC3F3",
"S. c #6ACCF6",
"D. c #66CEF8",
"F. c #63D1F6",
"G. c #63DBF9",
"H. c #6BD4F7",
"J. c #6BD5F8",
"K. c #67D8F9",
"L. c #73C3F2",
"P. c #7CC4F2",
"I. c #7CCDF5",
"U. c #72CBF5",
"Y. c #73DCF9",
"T. c #78D4F7",
"R. c #63E4FB",
"E. c #63EBFD",
"W. c #6BE3FA",
"Q. c #6BEBFC",
"!. c #6CF2FE",
"~. c #66F1FE",
"^. c #73E4FA",
"/. c #73EBFB",
"(. c #7BE2FA",
"). c #7BEBFB",
"_. c #73F4FE",
"`. c #7BF4FE",
"'. c #7BF9FE",
"]. c #848BA7",
"[. c #829DE4",
"{. c #889BE3",
"}. c #84A1E5",
"|. c #83AAE9",
" X c #8BA4E6",
".X c #89A6E8",
"XX c #8BABE9",
"oX c #84A5E8",
"OX c #83B3EB",
"+X c #8AB4EB",
"@X c #8CBAED",
"#X c #84B9EC",
"$X c #90A6E7",
"%X c #92A8E7",
"&X c #93ACE9",
"*X c #99ADE8",
"=X c #99ACE7",
"-X c #95B1EA",
";X c #93BAEC",
":X c #9CB2EA",
">X c #9ABBED",
",X c #A6AFD3",
"<X c #ACB6D8",
"1X c #A2B5EA",
"2X c #A5B9EC",
"3X c #AABBEC",
"4X c #A8B7E7",
"5X c #B1BEED",
"6X c #83CBF4",
"7X c #84C9F3",
"8X c #84D1F6",
"9X c #8AD3F5",
"0X c #86DBF8",
"qX c #9BC1EF",
"wX c #94C0EF",
"eX c #90CAF4",
"rX c #99D6F6",
"tX c #86EAFB",
"yX c #8BF0FC",
"uX c #82F5FE",
"iX c #9BE4FA",
"pX c #95E8FB",
"aX c #9AF0FC",
"sX c #A3C1EE",
"dX c #ACC1EE",
"fX c #A4C4F0",
"gX c #A8C8F1",
"hX c #ACD3F3",
"jX c #A3D9F6",
"kX c #B4C2EE",
"lX c #BAC5EE",
"zX c #BCC8EF",
"xX c #B8C1E2",
"cX c #B2C5F0",
"vX c #B3CBF1",
"bX c #B9C6F0",
"nX c #BDCAF0",
"mX c #B7D7F4",
"MX c #A4F0FC",
"NX c #B8E2F8",
"BX c #A4E9FB",
"VX c #C5CDED",
"CX c #C1CCF0",
"ZX c #C4D1F2",
"AX c #CAD4F2",
"SX c #CDD9F4",
"DX c #C0DBF5",
"FX c #D1DBF4",
"GX c #D5DCF5",
"HX c #C7D0ED",
"JX c #C6E6F8",
"KX c #DCE1F6",
"LX c #D9E6F8",
"PX c #E3EAF9",
"IX c #E4E8F8",
"UX c #E7F2FB",
"YX c None",
/* pixels */
"YXYXYXYXYX  ,XVXGXIXGXGXIXGXGXKXKXKXKXKXKXKXKXKXKXKXKXKXKXKXKXKXKXKXKXKXKXKXKXKXKXKXKXKXKXKXKXKXKXIXKXVX,X  YXYXYXYXYX",
"YXYXYX    VXGXFXCXCXAXCXCXCXCXCXCXCXCXAXAXCXCXCXCXCXCXCXzXCXCXzXCXCXCXCXCXCXCXCXzXCXCXCXCXCXAXCXCXAXAXAXKXCX    YXYXYX",
"YXYX  ].AXSXCXnXCXCXCXCXCXCXCXCXCXCXAXAXCXzXzXCXCXCXCXlXzXzXzXzXCXCXCXCXCXCXlXCXzXzXzXzXCXCXAXCXCXCXCXCXCXAXGX].  YXYX",
"YX    VXVXlXlXlXbXCXCXbXbXbX5XCXzXCXAXzXzXzXlXCXlX5XlXlXlXlXlXlX5XCX5XCXzXlXlXlXzXzXlXlXCXCXAXZXCXAXCXzXCXCXVXHX    YX",
"    5XCXkXkXkXkX5XCXnXbX5XbXbXbXCXAXCX5XCX5X5X5X5XlX5X5X5XlXlX5X5X5X5XCXCXCX5X5XlX5XbXbXbXbXCXAXAXCXbXbX5XbX5XZX<X    ",
"  < VX5X5X5X5X5X5XCXbX5XbXbX5XnXGXCX5X5X5X5X5X5X5X5X5X5X5X5X5X5X5X5X5XZX5X5X5X5X5X5X5X5XbXbXbXAXGXCXbXbX5X5X5X5XVX<   ",
"  <X5X3X3X5X5X5X5XCX5X5X5X5X5XAXAX5X5X5X5X5X3X3X5X5X5X5X4X5X5X5X5X5X5XCX5X5X5X3X5X5X5X5X5XbXCXGXFXAXbX5X5X5X5X5X5X<X  ",
"  4X4X4X4X3X4X4X5XnX5X3X5X3XCXSX5X5X5X3X5X3X3X3X1X1X4X4X4X4X4X4X3X3X3X5X3X5X3X3X5X5X1X5X5XbXAXCXCXAXbX5X5X3X5X5X5X4X  ",
"  4X1X1X1X4X1X4X5XlX3X3X3X5XSXCX3X3X3X3X1X3X2X2X3X3X4X4X3X3X4X1X2X2X3X5X3X2X2X2X5X2X3X3XbXSXnX5XbXSXZXbXcXkX5X3X4X4X  ",
"  4X*X*X*X1X*X1XkXbX2X2X2XZXSX5X3X5X1X1X1X1X1X1X1X1X1X1X1X1X1X3X3X3X5XbX2X2X2X2X2X2X2XnXAXcXcXcX5XCXFXCXbX5X3X1X1X1X  ",
"  =X=X=X=X*X*X*XkXcX1X3XcXFXnX2X1X1X1X*X*X*X*X*X=X=X=X=X*X*X*X1X:X1X3X5X2X3X3X3X2X5XCXZX5X2X3XcXZXAXFXnX1X1X1X*X*X=X  ",
"  %X%X=X&X&X=X:XbXcX2X3XZXAX2X:X*X%X%X=X%X%X$X$X%X%X%X=X=X=X*X*X:X:X3XcX1X:X:X2XvXAXCX2X2X>XcXZXCX5XnXnX1X:X=X&X&X&X  ",
"  $X X$X$X&X-X:XnX3X>XdXFXcX*X&X%X$X$X$X$X X$X$X$X$X$X$X$X*X*X*X:X:X2XcX:X>X3XZXCX2X2X2X2XnXAXbX>X2X3XnX2X&X&X%X$X X  ",
"  {. X X$X&X-X:XnX3X:XCXAX:X*XXX$X$X X{. XoX{..X{. X X X{.%X&X&X:X>X2XcXcXnXZX3X&X-X*X>XnXCX3X>X:X*X*XbX2XXX X.X{.{.  ",
"  [.{. X XXX&X:XnXdX3XFXcX:X&XXX.X}.{..X[.{.[.[.oX{.{.oX.X$X$X&X:X3XZXSXZX3X-X-X&X&X:XnXnX:XXX&X-X*X&X2X5X{..X{.}.{.  ",
"  }.}.[.}.$XXX:XnXgXmXFX>X:XXX.X}.[.[.[.[.[.[.[.[.oXoXoXoX.X&X3XmXGXGXZX>X-XXXXXXX&XvXcXXXXX{.oXoX.XXX&X5X.X;.;.;.:.  ",
"  [. X.X.X.X-XsXAXmXLXnX>X-XXXoX[.[.;.;.;.;.;.;.;.;.oXXX:XcXbXbXfXfXfXvX;XXXXXXXXXcXdX.X[.[.[.;.;.[.q.}.3X=X;.:.:.=.  ",
"  =.;..X-X2XcXZXKXKXLXvX>X;X|.oX;.;.;.;.oXoX$X:X1X2XcX3X2X:XXX|.XX&X-X3X>XXXXXXXcXcX}.;.:.[.;.:.-.:.;.:.-X*X;.-.=.=.  ",
"  &.=.=.q.:XbXSXKXPXUXKXAXCXkXdX2XcX3X3X3X3X2X1X-X&XoX-.-.w.w.w.|.XXXXsX>XXX|.gX5Xq.-.-.=.=.:.=.=.=.=.-.}.*X:.=.#.#.  ",
"  #.#.=.;.+XsXmXKXPXPXDXvXcXsX>X-XXX|.|.w.:.&.&.&.&.&.-.=.-.-.w.w.|.XX>X>XXXfXbXXX-.-.*.#.#.#.#.+.+.&.&.=.-X:.&.#.#.  ",
"  +.#.&.-.e.qXhXKXPXJXgX;X+Xq.-.*.*.&.&.&.@.#.#.$.@.@.$.&.&.*.-.9.|.|.;XsX>XmX-X9.*.&.$.$.@.@.+.+.+.=.&.$.XX;.+.#.@.  ",
"  B K @.&.9.;XgXFXLXhXqX+X|.1.&.$.$.@.@.@.@.@.@.@.@.@.@.K $.*.*.q.w.@XhXmXAXdXe.-.*.$.@.@.K B @.+.+.+.+.@.}.;.+.@.K   ",
"  B B K $.*.e.;XSXSXwX#XOX9.%.%.$.@.K K K K K M K J K K K K $.*.9.#XjXNXUXKX;Xe.8.$.U K L K B B B B B B B -.[.B B B   ",
"  : N K $.$.1.+XmXnXOXe.e.1.U U J J J J L M M M M M L K J K U %.1.@XhXJXUXLXwX9.*.%.U J L L M M B B N B K $.}.K L :   ",
"  $ : n K $.>.+XvXvXOXr.r.%.N N L n n n n n n n n n C C L J U %.1.#XjXUXUXDX@X1.%.U J N M n n n M N M M N K q.N : #   ",
"  $ : - b U %.>XsXdX#X1.1.Y P N n n n b n n n n n n C C L J U %.1.0.gXLXmXvX0.>.%.P Z N n n n n n N L L L n $., $ $   ",
"  $ & , , b P >X>X>X;X1.%.%.P N C n b n n n b n n n A C Z J P Y >.r.vXvX#X;Xe.>.U P L n n n m b C L L n , & N , % $   ",
"  % % - 4 V P -Xe.e.qX>.>.Y P m A C n n n , b b n b A A Z Z P Y >.#XvXy.2.y.e.Y P J m n b b b b , , - - - - N b % %   ",
"  % * - > V >.>X0.,.;X} H G V V A V b b A A A A A A A V S G I I } qXqX,.>.3.e.Y G V V b ; - - % * - > - - ; N m * %   ",
"  * - ; 3 4 >.>X0.0.qXe.G G V 3 ; > ; > > 0 0 e e e V G G I [ Y 2.gX0.] I H >.G 4 2 = - * * - * * - > ; ; > Z A - -   ",
"  * = ; 3 w %.@X] >.@XqX,.Y S 0 2 ; ; ; ; = ; ; = 6 0 0 w S F G #XwXD S u r G I 2 2 ; = = = = = * = 3 3 0 3 G J ; =   ",
"  = ; ; 3 w ,.+XI ] >.;X2.,.,.I V 0 6 ; = ; ; 6 6 7 q u D F Q [ fX0.H i u r u I w 2 6 ; = = 2 ; ; ; 3 0 0 0 G P 6 ;   ",
"  = ; 6 0 w 3.OXH H [ OX0.F I H I I G V w 0 6 0 q w i H W } } y.gX} W ~ u r 3 H I 2 2 3 6 2 2 6 6 6 w w q u I Y 6 6   ",
"  2 6 6 7 w 2.y.F H H 2.#XH H D q q w D I I H H H F H [  .P.9XmXqX .W ~ D u t u ] S r 3 7 7 2 7 q 7 u u u S I Y w 0   ",
"  6 6 6 7 r 5.0.F D F F OX<.D u r q 7 7 7 r D H } <.5.t.jXNXNXLXhX2.{ W ~ i u r H ] u u u r r i u i F I I I ,.,.D w   ",
"  6 7 7 7 r 0.0.i F D i <.y.D D r r r 8 7 8 8 t u F { 6.BXNXUXUXmXP.6.5. .} [ [ } 2.<.] I [ W ] I [ H [ [ F <.<.D r   ",
"  7 7 7 8 t 5.5.p i i p F t.} D i r r 7 8 8 r y p R {  .9XBXPXLX9X . .Q W ~ ~ ~ F [ <.F i i i t y y D Q Q R <.5.F u   ",
"  8 8 8 r t y.5.F p p p y 4.t.R F t t t t t t y f R Q ..L.9XLXmXA. .{ R f s t t y p Q } p i i t p p f Q Q Q <.<.F y   ",
"  8 9 r 9 y 5.5.p p p p p f t.4.~ p t t t t y y f R ! | 4.L.mX7X . .! R i f t p p p p { Q p f p f f E ! ! ! 5.<.F p   ",
"  9 9 9 y y 6.6.f f f p f p  .t.{ R f s s y y s f R ! |  .P.hXC. .T ! g f f f t p s f R  .{ f E R E E { { { 6.4.{ R   ",
"  9 9 9 s s 6.u.g f f p f f g u.u.! g f f f f f f E ! / | 7XjX..| / E E g f f s s f f g / 7./ ! ! / / O. .4.u.4.! R   ",
"  s s s s f 7.u.g g g g g g g ! P.6.! g g E f g g E ^ / ( eXeXX.( / E g g f d s f d f E E  .7.o.` O.o.u.u.7.u.O.E g   ",
"  d s s d g 7.P.E g g g g g E E o.7Xo./ ^ ^ g ^ ^ ^ ( ( X.rX7XX.( ( ^ ^ g d h g d d E ) ` ' 7.A.7.I.6XL.7.o.u.` E g   ",
"  d d d g g o.6X) E l g g k E ) ^ L.I.X.` ^ _ ^ ^ ` ( X.o.jXA.X.X.^ ^ l ) g g h l ) ) ` ' X.o.6XrX6XC.o.o.o.A.` ) g   ",
"  d d k d l O.9X) ) l l l l l ) _ ( I.I.X.( ( ' ' ' ' X.A.jXZ.j.' ' _ ^ ) ) l ) ) _ ' ' ' o.8X9XI.U.C.z.X.C.A.` E l   ",
"  k k k l l ' 8XX._ ) _ ) l ) ) ' _ z.8XI.j.j.j.j.j.j.x.U.BXZ.j.j.a.a._ _ _ _ _ _ _ ' ' C.8X8XZ.z.Z.A.S.z.A.C.' l l   ",
"  k k x z z _ 8XZ._ _ _ _ z _ _ a.a.a.x.0XT.x.j.j.x.x.x.T.jXx.x.j.j.a.a.a.a.' ' i.' i.C.8XI.z.j.j.j.z.S.D.U.z._ ) x   ",
"  k x x z z i.I.D.i.i.i._ z i.i.a.a.j.j.H.9XT.x.F.F.H.F.9XiXn.n.k.k.k.j.a.s.s.s.j.l.D.8XJ.j.j.s.j.j.j.j.z.T.c.' z x   ",
"  j z z z _ i.H.T.i.i.i.i.i.i.a.s.s.k.k.n.H.0X0XH.J.J.Y.rXiXF.F.n.n.N.k.k.k.k.k.k.F.0XH.j.l.s.s.a.l.l.z.c.S.j.s._ a   ",
"  5 c c c f.f.c.T.d.d.d.d.d.p.d.d.d.d.N.n.m.H.pX0XT.Y.Y.pXiXY.G.G.G.n.n.N.n.N.N.K.T.J.N.l.l.d.d.s.l.l.l.D.D.s.i._ T   ",
"  @ f.c f.p.p.l.T.l.d.d.d.d.d.d.g.v.N.m.M.G.K.Y.pXtXtX(.pXiX(.Y.J.G.M.M.M.m.M.G.(.T.m.v.N.v.d.d.d.d.v.l.J.c.i.p.f.@   ",
"  . j f.p.p.p.d.Y.M.v.v.v.v.v.v.v.M.m.M.G.G.K.W.Y.pXiXpXpXpX(.^.^.W.G.G.G.G.G.(.(.M.M.m.v.v.v.v.v.g.v.l.K.l.d.p.j .   ",
"    + c p.p.h.h.G.G.v.v.v.v.b.M.M.M.M.B.B.R.W.W.^.(.aXMXMXpX(.).^.^.W.W.W.W.^.(.W.M.M.M.b.m.v.v.v.v.v.m.K.d.h.p.+     ",
"      1 h.h.h.h.M.G.b.b.b.b.V.B.B.B.B.B.G.Q.W././.).yXaXaXaXtX)././././.Q./.tX/.W.R.R.M.V.b.b.b.v.b.v.G.v.h.p.1       ",
"      . @ p.h.b.b.G.V.b.V.V.V.V.B.B.B.Q.R.Q.Q.Q./.).uXyXyXyXyXuX`.)./././.).).W.E.R.E.B.V.V.B.V.V.b.b.R.v.h.@ .       ",
"          X a b.b.R.B.V.V.V.V.V.E.E.E.Q.~.Q.!._._._.`.uXuXuX'.uXuX`.)._._.`._.Q.Q.Q.E.B.B.B.B.V.V.V.B.B.a X           ",
"              O 1 T E.V.V.E.E.E.E.~.~.!.!.!.!._._.'._.'.'.uX'.'.'.'.'.'.'.`._.!.!.!.E.E.E.E.V.V.V.T v O               ",
"YX              .                                                                                                   YX",
"YXYX                                                                                                              YXYX",
"YXYXYXYX                                                                                                      YXYXYXYX"
};
