/* XPM */
static char *hardisk_xpm[] = {
/* columns rows colors chars-per-pixel */
"48 48 234 2",
"   c #000000",
".  c #05040B",
"X  c #000C00",
"o  c #08080B",
"O  c #0B0A12",
"+  c #011100",
"@  c #121216",
"#  c #11111A",
"$  c #171721",
"%  c #15152A",
"&  c #1B1A24",
"*  c #1E1E2B",
"=  c #002200",
"-  c #042A00",
";  c #013300",
":  c #1D202C",
">  c #22212B",
",  c #2F2F2E",
"<  c #252532",
"1  c #282933",
"2  c #2B2C3A",
"3  c #2E313B",
"4  c #30303D",
"5  c #383837",
"6  c #3C3C3C",
"7  c #313146",
"8  c #36374A",
"9  c #363843",
"0  c #393945",
"q  c #39394B",
"w  c #3C3C52",
"e  c #005200",
"r  c #005C00",
"t  c #0A5100",
"y  c #134302",
"u  c #1B4902",
"i  c #046F00",
"p  c #0B6A00",
"a  c #037100",
"s  c #0C7400",
"d  c #147000",
"f  c #214E02",
"g  c #434343",
"h  c #42434E",
"j  c #494A4B",
"k  c #424356",
"l  c #4D4E54",
"z  c #4D4E5C",
"x  c #4F515A",
"c  c #504F4F",
"v  c #50504F",
"b  c #535354",
"n  c #53545D",
"m  c #56585B",
"M  c #5A5A5B",
"N  c #4D4D63",
"B  c #4F5165",
"V  c #525463",
"C  c #585760",
"Z  c #595A62",
"A  c #5C5D69",
"S  c #575A70",
"D  c #5B5D72",
"F  c #5D5F78",
"G  c #5F616D",
"H  c #5F6276",
"J  c #626263",
"K  c #63646B",
"L  c #6B6B6C",
"P  c #636472",
"I  c #62657A",
"U  c #676976",
"Y  c #65697D",
"T  c #6C6D72",
"R  c #696B7C",
"E  c #72717D",
"W  c #6A6C80",
"Q  c #6B7084",
"!  c #737382",
"~  c #72768A",
"^  c #787884",
"/  c #7A7A8B",
"(  c #757A90",
")  c #7B7F94",
"_  c #058200",
"`  c #1D8700",
"'  c #1E8B00",
"]  c #13930F",
"[  c #1C9A19",
"{  c #239203",
"}  c #2C9E1E",
"|  c #289921",
" . c #2F9C2A",
".. c #26A005",
"X. c #29A301",
"o. c #32AD03",
"O. c #30A11A",
"+. c #34AB33",
"@. c #39B120",
"#. c #2CE02A",
"$. c #47B91D",
"%. c #56B759",
"&. c #6B8F6F",
"*. c #719479",
"=. c #46CB00",
"-. c #5CCE0A",
";. c #5AC71D",
":. c #53D401",
">. c #5AD300",
",. c #65DF01",
"<. c #64D12F",
"1. c #6EE301",
"2. c #76EA00",
"3. c #7CEB03",
"4. c #6DC76F",
"5. c #7E8389",
"6. c #748494",
"7. c #7B8194",
"8. c #7F8398",
"9. c #82EC0A",
"0. c #88F600",
"q. c #8DFA00",
"w. c #88DD50",
"e. c #A0E769",
"r. c #A7ED68",
"t. c #81818E",
"y. c #838393",
"u. c #848498",
"i. c #848E97",
"p. c #84899D",
"a. c #8C8B91",
"s. c #8B8C9E",
"d. c #92939C",
"f. c #979B9F",
"g. c #868DA0",
"h. c #8F8FA2",
"j. c #8692A2",
"k. c #8994A4",
"l. c #8B96A8",
"z. c #8E9CAA",
"x. c #9395A5",
"c. c #9396AA",
"v. c #959BA6",
"b. c #959BAC",
"n. c #9B9BA5",
"m. c #9899AA",
"M. c #959BB1",
"N. c #9B9EB3",
"B. c #87BE85",
"V. c #93A0AE",
"C. c #95A2B1",
"Z. c #9BA4B4",
"A. c #9DA4B9",
"S. c #9CA8B6",
"D. c #9DA8B9",
"F. c #A2A2AD",
"G. c #A1A1B3",
"H. c #A4A4BA",
"J. c #A3A8B6",
"K. c #A2ABBB",
"L. c #AAACB3",
"P. c #AAACBB",
"I. c #A6B1BE",
"U. c #A9B3BE",
"Y. c #A6AEC3",
"T. c #AEAEC2",
"R. c #A4B0C0",
"E. c #AAB4C2",
"W. c #ABB4C8",
"Q. c #ADB9C7",
"!. c #B3B6C5",
"~. c #B3B5C8",
"^. c #B2B9C3",
"/. c #B3BCCA",
"(. c #B9BACC",
"). c #B5BED2",
"_. c #B8BFD0",
"`. c #A5DF9C",
"'. c #A1C5AC",
"]. c #A1CCA9",
"[. c #ACE698",
"{. c #B5ED82",
"}. c #B2ED8B",
"|. c #B2E89B",
" X c #AFE5B0",
".X c #B4E7A9",
"XX c #BBE9A3",
"oX c #B6C0CE",
"OX c #BAC2CD",
"+X c #B6C0D2",
"@X c #BAC4D4",
"#X c #BCC6D8",
"$X c #BDC8D7",
"%X c #BEC9D9",
"&X c #C7ECBB",
"*X c #C1C5D2",
"=X c #C4C3D9",
"-X c #C2CAD4",
";X c #C2CCDB",
":X c #C8C9D5",
">X c #C9CCDA",
",X c #C5D0DD",
"<X c #CAD1DD",
"1X c #D6D6DE",
"2X c #D4D8DE",
"3X c #C5CFE1",
"4X c #C5D2E0",
"5X c #CBD4E1",
"6X c #CED8E3",
"7X c #D1D6E2",
"8X c #D3DAE4",
"9X c #D6DDE8",
"0X c #D8DCE6",
"qX c #D8DDE8",
"wX c #C8EDC5",
"eX c #D6E0E8",
"rX c #DBE2EA",
"tX c #DEE9F2",
"yX c #E0E5ED",
"uX c #E3E9EE",
"iX c #E8EBEE",
"pX c #E2E5F3",
"aX c #E6E3F8",
"sX c #E4EAF1",
"dX c #E6E8F8",
"fX c #E8E7FA",
"gX c #EAEEF2",
"hX c #EAECFB",
"jX c #EDF1F5",
"kX c #F0F3F7",
"lX c #F3F5F8",
"zX c #F7F8FC",
"xX c #FAFBFC",
"cX c None",
/* pixels */
"cXcXcXcXcXcXcXcXcXcXcXcXcXcXcXcXcXcXcXcXcXcXcXcXcXcXcXcXcXcXcXcXcXcXcXcXcXcXcXcXcXcXcXcXcXcXcXcX",
"cXcXcXcX% 7 F I R R W R Y W R R R W W W R R R W W W W R W W W ! ! R I F 8   cXcXcXcXcXcXcXcXcXcX",
"cXcXcXcXq l.+X@X@XOX;X6X6X7X7X7X7X8X9X9X0X0X0XeXrXrXrXrXrXrXpXrX<X>X$X#XN.2   cXcXcXcXcXcXcXcXcX",
"cXcXcX  ~ 3X#X_.s.k.K.9X5X6X7X8X8X6X9X8X0X0XeXrXrXrXqXrXrXrXgX*Xx.m.>X#X%XW . cXcXcXcXcXcXcXcXcX",
"cXcXcX  8.;X).#X^.(.;X8X7X7X8X8X0X0XeXeXqXrXeXeX0XqX0XrXrXrX>X1X*X>X7X+X3X) o cXcXcXcXcXcXcXcXcX",
"cXcXcX  p.%X@X@XoXoXoX^./.oXoX(.(._.OX@X*X*X-X>X0X0XeXeXrX0XL.OXpXiX0X+X%Xp.. cXcXcXcXcXcXcXcXcX",
"cXcXcXo k.%X@XY.Q.5.j m m M M J K J L L T T L.OX7XqXqXqXrXrX-X^.rXpXqX@X%Xl.O cXcXcXcXcXcXcXcXcX",
"cXcXcX% M.#X#XE.+Xl , 5 6 6 g g j j v b b v f.$X<XqX0X0X0XrX<X^.rXyXqX#X#XA.# cXcXcXcXcXcXcXcXcX",
"cXcXcX& A.#X+X;X#Xm c b M M M J J J L L L L L.,X8X0XqX8XqXrX<XU.rXrXrX$X#XE.&   cXcXcXcXcXcXcXcX",
"cXcXcX: H.#X+X9XrXiXiXiXiXgXiXkXkXkXiXgXkXjXiXyX8X8X8X0XqXqX8XU.0XrXrX=X@X/.<   cXcXcXcXcXcXcXcX",
"cXcXcX> Y.#X@X7X9X9XqXqXqXqXrXrXrXrXrXuXrXrXuXuXqX0X8X0X0XeX8XU.0XrXrX;X@X).1   cXcXcXcXcXcXcXcX",
"cXcXcX2 W.@X@X-X%X;X>X>X4X,X>X/./.(.OXOX*XOX@X*X$X5X8X0X0X0X7XU.0XqXrX;X).@X2   cXcXcXcXcXcXcXcX",
"cXcXcXw W.#X#X%X;X;X,X,X%XP.V.E.-X<X>X;X<X<X<X<X<X7X8X8X8X0X8XU.8X0XrX>X@X#X9   cXcXcXcXcXcXcXcX",
"cXcX  k ).@X#X%X%X>X;XC.D./.;X5X<X<X5X<X6X7X<X7X7X7X8X8X8XqX8XU.8XqXqX>X_.@Xk   cXcXcXcXcXcXcXcX",
"cXcX  N ).@X#X%X;X@Xz.D.>X5X4X;X,X,X<X7X<X7X7X6X7X7X8X7X8X0X8XE.5XqXrX,X).%XV   cXcXcXcXcXcXcXcX",
"cXcX  S ).@X@X;X;XM.W.4X;X;X>X3X<X5X>X;X;X;X<X8X7X7X7X7X7X8XeX/.7XqXrX,X).#XD   cXcXcXcXcXcXcXcX",
"cXcX  W #X@X#X%XS.I.,X;X,X,X,X<X#XC.E./././.Q.I.>X9X7X8X8X8X8X<X^.0XqX7X+X#XY   cXcXcXcXcXcXcXcX",
"cXcX. ~ %X@X@X_.S.;X,X,X,X,X,XoXz.E.,X<X5X6X,X/.S.;X8X7X8X8X8XeXOX<XqX8X@X#X~   cXcXcXcXcXcXcXcX",
"cXcX. ) %X).#X/.oX;X,X,X,X<X%X6.@X5X<X<X<X<X<X6X+Xz.6X8X8XeX8XqX<X<XqX8X@X%X( . cXcXcXcXcXcXcXcX",
"cXcXo g.%X#X@X%X;X;X,X<X,X<X%XK.3X>X5X,X<X<X6X<X<XS.6X8X8XeXqXqX7X7X9X8X#X%X) O   cXcXcXcXcXcXcX",
"cXcXO c.%X#X@X;X7X;X4X5X,X6X,X6X9X<X6X6X6X6X8XeXeX<X8X9XeX8XeXeXqXqX9X9X%X%Xg.#   cXcXcXcXcXcXcX",
"cXcX# A.%X#X#X4XhX6X,X5X,X6X6X6XsXgXrXrXtXrXrXjXsX8XeXeXeXeXeXeXsXqX7X9X3X%XM.$   cXcXcXcXcXcXcX",
"cXcX* W.%X#X%X$XgXjX5X5X6X6X6X6X8XeXrXrXtXrXtXrXeXeXeXeXrXeXeXsXkX9X8XqX4X%XD.*   cXcXcXcXcXcXcX",
"cXcX< @X$X#X%X$X;XkXtX6X6X6X6X6X9X6X9X9X8XeX8XeXeXeXeXrXeXrXsXzXrX7X9X9X<X%XE.2   cXcXcXcXcXcXcX",
"cXcX2 %X%X%X%X%X$X6XlXjX8X6X6XeX2XeXeXeXeXeXeXeXeXeXqXrXrXjXxXuX6X9X8X9X<X%X+X8   cXcXcXcXcXcXcX",
"cXcX3 %X%X%X%X%X%X%X6XjXkXuXeXeXeXeXeXeXeXrXrXrXrXrXtXsXlXlXrX7X8X8XeXeX6X%X%Xk   cXcXcXcXcXcXcX",
"cXcX8 ;X;X;X%X;X%X%X$X$XeXkXxXkXuXrXrXrXrXuXtXrXsXjXxXxXrX6X6X8X8X9X7XeX9X%X%XB   cXcXcXcXcXcXcX",
"cXcXB ;X,XK.Z.V.$X%X4X4X$X,X2XrXuXjXkXlXlXlXkXjXsXuXrX6X6X6X8X8XeX^.J.v.Q.4X;XH   cXcXcXcXcXcXcX",
"cXcXD 4X,XS.V.Z.$X,X%X4X,X,X,X%X%X,X6X6X6X6X6X6X4X5X6X6X8X8X6XeXeXI.k.m.I.6X4XW   cXcXcXcXcXcXcX",
"cX  H 4X%X%X$X-X%X%X%X%X%X%X,X%X,X,X,X,X,X,X,X6X6X5X5X5X6X6X6X6X8X6X7X8X8X%X6X)   cXcXcXcXcXcXcX",
"cX  Q rXuXiXsXsXuXuXuXuXgXtXuXgXtXgXuXgXgXgXiXiXsXgXgXgXgXjXjXjXjXjXjXjXjXuXtXg.. cXcXcXcXcXcXcX",
"cX  5.iX8X0X2X2XeX2X2X2X2XeXeX2X2X2X2X2X2X2X8X8X8X6X8X2X2X2X2X2X2X2X8X2X2X7XgXP.O cXcXcXcXcXcXcX",
"cX# ~ C.l.j.j.k.k.k.k.j.j.j.j.j.h.j.k.k.j.l.j.l.j.l.l.j.k.k.l.l.l.l.l.l.l.l.z.x.# cXcXcXcXcXcXcX",
"cX* ( P.5.z V V S A A P U U U U R E n n U x ! l K x Z P C n.D.S.S.D.D.D.S.D.D.l.& cXcXcXcXcXcXcX",
"cX& 8.+Xh.N A D K U R ! / / / y.u.d.C n t.b x.j E l G ! J ^.E.E.E.Z.i.C.E.U.W.N.&   cXcXcXe   cX",
"cXX ( %XG.h A / u.p.s.h.x.m.m.m.G.H.t.t.G.^ ~.E n.^ y.m.a.>X/./.(.*.B.&.P.(.#Xb.@   cXcXcXs ; cX",
"cX  ~ ,X(.0 0 n P ^ s.x.N.G.H.H.T.(.x.m.(.m.>Xs.T.x.G.T.L.yX=X=X=X%.#.+.~.>X3Xh.o cXcXr a _ - cX",
"cX  P qX5Xd.d.n.F.F.L.(.=X:X:X>X<X1X:X:X0X:XqX:X7X:X>X1X1XiX7X7XqX'.4.].qX8X9X/   cX; a [ ] = cX",
"cXcX> ~.fXhXhXhXhXhXhXdXdXdXfXfXdXdXdXdXaXfXdXfXfXdXdXfXfXpXpXpXpXaXaXaXaXaXT.7     a [  X .= cX",
"cXcX  > V G G A A A A A A A A G A A A A A A A A A A A A A A A A A A A A A V >   + a @.`.wX| = cX",
"cXcXcX                                                                        X p $.}.&X.X} = cX",
"cXcXcXcXcXcXcXcXcXcXcXcXcXcXcXcXcXcXcXcXcXcXcXcXcXcXcXcXcXcXcXcXcXcXcXcXcXcX; s ;.}.&X.X[.} = cX",
"cXcXcXcXcXcXcXcXcXcXcXcXcXcXcXcXcXcXcXcXcXcXcXcXcXcXcXcXcXcXcXcXcXcXcXcXcXe ' -.r.{.e.w.<...= cX",
"cXcXcXcXcXcXcXcXcXcXcXcXcXcXcXcXcXcXcXcXcXcXcXcXcXcXcXcXcXcXcXcXcXcXcXcXd ` >.3.9.9.1.>.=.X.= cX",
"cXcXcXcXcXcXcXcXcXcXcXcXcXcXcXcXcXcXcXcXcXcXcXcXcXcXcXcXcXcXcXcXcXcXcXt { :.1.3.q.0.2.,.:.o.- cX",
"cXcXcXcXcXcXcXcXcXcXcXcXcXcXcXcXcXcXcXcXcXcXcXcXcXcXcXcXcXcXcXcXcXcXcX- y u u f f u u u u y + cX",
"cXcXcXcXcXcXcXcXcXcXcXcXcXcXcXcXcXcXcXcXcXcXcXcXcXcXcXcXcXcXcXcXcXcXcX                        cX",
"cXcXcXcXcXcXcXcXcXcXcXcXcXcXcXcXcXcXcXcXcXcXcXcXcXcXcXcXcXcXcXcXcXcXcXcXcXcXcXcXcXcXcXcXcXcXcXcX"
};
