/* XPM */
static char *help_xpm[] = {
/* columns rows colors chars-per-pixel */
"16 16 130 2",
"   c black",
".  c #1A64F9",
"X  c #1A64FA",
"o  c #1A64FC",
"O  c #1A64FD",
"+  c #1B65FC",
"@  c #1A65FE",
"#  c #1A66FE",
"$  c #1D67FF",
"%  c #2268F8",
"&  c #226BFF",
"*  c #236BFF",
"=  c #256DFF",
"-  c #266DFF",
";  c #276EFF",
":  c #286DFB",
">  c #2B70FD",
",  c #2A70FF",
"<  c #2E73FF",
"1  c #3175FF",
"2  c #3276FF",
"3  c #3376FF",
"4  c #3577FF",
"5  c #3578FE",
"6  c #3678FF",
"7  c #3778FF",
"8  c #3879FF",
"9  c #397AFF",
"0  c #3B7CFF",
"q  c #3E7CFA",
"w  c #3C7CFF",
"e  c #3D7DFF",
"r  c #3D7EFF",
"t  c #407FFF",
"y  c #4180FF",
"u  c #4880F0",
"i  c #4B82F3",
"p  c #4E85F5",
"a  c #4883FE",
"s  c #4984FC",
"d  c #4A85FD",
"f  c #4E87FC",
"g  c #4F88FE",
"h  c #548AF7",
"j  c #538BFE",
"k  c #568CFB",
"l  c #548DFF",
"z  c #558EFF",
"x  c #568CFC",
"c  c #568EFE",
"v  c #598CF4",
"b  c #5F90F6",
"n  c #5B91FD",
"m  c #5A90FE",
"M  c #5A91FF",
"N  c #5B91FF",
"B  c #5C90FA",
"V  c #5D90FA",
"C  c #5C91FE",
"Z  c #5D92FF",
"A  c #5E93FF",
"S  c #5F94FD",
"D  c #5E94FE",
"F  c #6094FF",
"G  c #6396FE",
"H  c #699AFC",
"J  c #6D9CFC",
"K  c #6C9DFF",
"L  c #6D9DFF",
"P  c #6E9EFF",
"I  c #709FFF",
"U  c #77A0F4",
"Y  c #79A3F9",
"T  c #7EA7F9",
"R  c #7CA8FF",
"E  c #86ACF7",
"W  c #87ACF8",
"Q  c #87ADFA",
"!  c #84AEFF",
"~  c #87AEFD",
"^  c #88B0FF",
"/  c #8CB2FF",
"(  c #94B7FE",
")  c #9AB9F9",
"_  c #9ABCFF",
"`  c #A0BFFE",
"'  c #A6C3FF",
"]  c #A9C5FD",
"[  c #AAC5FD",
"{  c #AAC6FE",
"}  c #ACC7FF",
"|  c #B0CAFF",
" . c #B7CDFA",
".. c #B5CEFF",
"X. c #B6CDFC",
"o. c #BFD0F4",
"O. c #BBD0F9",
"+. c #BED2FB",
"@. c #BCD2FE",
"#. c #C5D4F2",
"$. c #C2D6FE",
"%. c #C7D7F8",
"&. c #C8D8FA",
"*. c #CADAF9",
"=. c #CFDEFC",
"-. c #D0DFFE",
";. c #D4E0F8",
":. c #D7E3FD",
">. c #D6E4FE",
",. c #DCE4F6",
"<. c #DDE6F7",
"1. c #D8E2F8",
"2. c #DAE4F8",
"3. c #D9E5FD",
"4. c #DCE6F8",
"5. c #DDE7FB",
"6. c #DEE9FF",
"7. c #DEEAFF",
"8. c #E2EBFE",
"9. c #E2ECFF",
"0. c #EBEFF8",
"q. c #EAF1FF",
"w. c #EDF2FB",
"e. c #EEF2FC",
"r. c #F0F5FF",
"t. c #F8FAFF",
"y. c #FCFDFF",
"u. c #FDFEFF",
"i. c gray100",
"p. c None",
/* pixels */
"p.p.p.p.p.p.9 9 7 3 p.p.p.p.p.p.",
"p.p.p.p.0 e t B B e 3 < p.p.p.p.",
"p.p.e 0 j ] 8.2.;.5.+.k , - p.p.",
"p.p.0 H =.*.<.i.i.e.=.3.U - p.p.",
"p.0 j @.+.w.i.q.8.i.i.=.$.g * p.",
"p.e ! |  .i.r.| | %.i.6.] T * p.",
"9 t ( _ _ 8..._ ) 2.i.] c l < $ ",
"7 d ! ! ! ! ! E <.i.3.n l l 7 # ",
"3 s K P P H P #.i.:.A c c l 3 # ",
"3 e A A A A n 0.t.G n n n n : # ",
"p.3 n A A G A  .{ G A F G n # p.",
"p.< s P P P P o.*.P P P P q X p.",
"p.p., v R R Y i.i.^ R R h X p.p.",
"p.p., : h W / ' { / W p X X p.p.",
"p.p.p.p.* : i x k u % X p.p.p.p.",
"p.p.p.p.p.p.$ # + # p.p.p.p.p.p."
};
