/* XPM */
static char * hidden_xpm[] = {
"16 16 82 1",
" 	c None",
".	c #CB1B1B",
"+	c #000000",
"@	c #060000",
"#	c #410808",
"$	c #0F0F0F",
"%	c #6F6D6F",
"&	c #032703",
"*	c #006B00",
"=	c #002F00",
"-	c #068B00",
";	c #412D08",
">	c #9C1514",
",	c #B41818",
"'	c #BB1818",
")	c #5E0C0C",
"!	c #1B1B1B",
"~	c #A8A4A8",
"{	c #043C04",
"]	c #00AB00",
"^	c #002100",
"/	c #275705",
"(	c #9B3F14",
"_	c #B42718",
":	c #BC1A19",
"<	c #762424",
"[	c #231B1B",
"}	c #064B00",
"|	c #4F1C0A",
"1	c #AF2B17",
"2	c #BC2419",
"3	c #883935",
"4	c #E2D9D9",
"5	c #767676",
"6	c #464646",
"7	c #171717",
"8	c #CAC8CA",
"9	c #5B6E5B",
"0	c #067200",
"a	c #417F08",
"b	c #A03415",
"c	c #BF2319",
"d	c #863418",
"e	c #BAA8A6",
"f	c #FFFFFF",
"g	c #FAFAFA",
"h	c #D7D7D7",
"i	c #4F4F4F",
"j	c #656565",
"k	c #9F9699",
"l	c #463A0D",
"m	c #9C3514",
"n	c #B42818",
"o	c #BB2118",
"p	c #6C3A31",
"q	c #F6F4F4",
"r	c #F0F0F0",
"s	c #606060",
"t	c #313131",
"u	c #CAA6A7",
"v	c #BC3736",
"w	c #B52018",
"x	c #BB1E18",
"y	c #7D3D2B",
"z	c #DCD2D3",
"A	c #F7F7F7",
"B	c #A7A7A7",
"C	c #0A0A0A",
"D	c #4E0A0A",
"E	c #853131",
"F	c #CA3939",
"G	c #C72525",
"H	c #A85556",
"I	c #C7BEBE",
"J	c #5F5F5F",
"K	c #242424",
"L	c #792A2A",
"M	c #6C3939",
"N	c #4C4343",
"O	c #3B3B3B",
"P	c #070707",
"Q	c #160202",
"                ",
"             .  ",
"++++++      ..  ",
"+++++++++  ...  ",
"++++++++@#...   ",
" +$%&*=-;>,')   ",
"  !~{]^/(_:<[+  ",
"  !~{]}|123456+ ",
"  7890abcdefghi+",
"  +jklmnopqffrs+",
"  +tuvwxyzgAB%C ",
"   DEFGHIhjJK+  ",
"  ..'LMNOtP++   ",
"  ...Q+++++     ",
"                ",
"                "};
