/* XPM */
static char *home_xpm[] = {
/* columns rows colors chars-per-pixel */
"16 16 146 2",
"   c #0009000A0008",
".  c #00DD0179009C",
"X  c #012001AF00E6",
"o  c #019101AA015B",
"O  c #01DC022801C5",
"+  c #031703640221",
"@  c #039B03E00392",
"#  c #050103EF046D",
"$  c #047C04E5035D",
"%  c #04E805200471",
"&  c #051A05610485",
"*  c #059E05C50568",
"=  c #05A8062804A8",
"-  c #05A006170510",
";  c #06DD071406E3",
":  c #0713072106BE",
">  c #08C6089E08A3",
",  c #091D08D008CF",
"<  c #09C808B80962",
"1  c #0997099D094A",
"2  c #0A860AAA0A00",
"3  c #0A7F0A680A1F",
"4  c #0B580B7C0AC3",
"5  c #0BA50BA40B3A",
"6  c #0C640C870BEC",
"7  c #0CC10CD50C23",
"8  c #0D120C960CB5",
"9  c #0D360D3A0CA7",
"0  c #0F590F670E79",
"q  c #0F3511600E5D",
"w  c #10110F650F8B",
"e  c #11701185108A",
"r  c #13F9141212F9",
"t  c #1534144714B6",
"y  c #171115FE168C",
"u  c #1A991DF2187C",
"i  c #205621BB1F02",
"p  c #216323722039",
"a  c #23482552221B",
"s  c #29882A5E2741",
"d  c #2E0D2DDF2CFE",
"f  c #366D37683414",
"g  c #366A371B34F1",
"h  c #3687391833C0",
"j  c #392D3B13369A",
"k  c #3A253B4F37A3",
"l  c #3B153C153835",
"z  c #3A893D0E37B4",
"x  c #3B973D363851",
"c  c #3D333FD73C35",
"v  c #408C40DC3E77",
"b  c #415543143FF7",
"n  c #445C445E4324",
"m  c #456C45A644B5",
"M  c #46224672455B",
"N  c #493349484874",
"B  c #4AE94B104A2A",
"V  c #4B594B2F49A0",
"C  c #4B784BF74A70",
"Z  c #4D45506149E7",
"A  c #527857304E7B",
"S  c #533252F65214",
"D  c #5827581354A2",
"F  c #59265B4D54A4",
"G  c #5AA35A6D56A9",
"H  c #5C0C5E2D5779",
"J  c #5FE460B15B98",
"K  c #604762385BD3",
"L  c #60EF60865D42",
"P  c #615762225CBC",
"I  c #60BD60795EA1",
"U  c #6A266B446558",
"Y  c #6AB86AF06633",
"T  c #6B146B5D66BF",
"R  c #6B616C2469B2",
"E  c #703370346B78",
"W  c #739576107083",
"Q  c #73AB749B72D7",
"!  c #7578768872DD",
"~  c #775678057593",
"^  c #75F678CD7289",
"/  c #7A597C2F7698",
"(  c #790B7C8575B0",
")  c #7D4B7D707C61",
"_  c #7F237F3779AC",
"`  c #7DEE7E207D70",
"'  c #7EC77EDF7DE5",
"]  c #7FA6800A7F34",
"[  c #831D830E7DC3",
"{  c #839282F17DC8",
"}  c #86E086F48101",
"|  c #8AB98A2A8516",
" . c #8EAF8E3E8859",
".. c #9F329F4E9908",
"X. c #A7FEA812A052",
"o. c #A9DEAA23A249",
"O. c #AAD8AB90A76C",
"+. c #ADB6AE77A836",
"@. c #B74AB6FDAF63",
"#. c #BD73BCFAB5B8",
"$. c #BBACBC84BB63",
"%. c #BBDDBCAABB6A",
"&. c #BC13BCCCBBA5",
"*. c #BCDFBD88BC71",
"=. c #BE8FBF93BC4B",
"-. c #BEA5BFBBBE0E",
";. c #C24BC258BCDF",
":. c #C6A1C654BE01",
">. c #C737CA67C264",
",. c #CB27CABFC238",
"<. c #CB7ACCECC358",
"1. c #CCA8CD78C485",
"2. c #CD82CC9DC4B1",
"3. c #CD4FCE68C4FA",
"4. c #CDE9CD6BC4D5",
"5. c #CDE2CE53C592",
"6. c #CE86CEB0C62D",
"7. c #CE9FCF0DC63B",
"8. c #CEF0CE44C645",
"9. c #CFE8CF7AC73A",
"0. c #D086D001C7BE",
"q. c #D0ADD00FC7D5",
"w. c #D15ED08EC890",
"e. c #D12CD117C868",
"r. c #D19FD16DC8D5",
"t. c #D250D173C946",
"y. c #D2A4D238C9BA",
"u. c #D32BD27ECA57",
"i. c #D424D372CB1F",
"p. c #D391D51ECE20",
"a. c #D49AD685CF1E",
"s. c #DBCADDC7D7C9",
"d. c #DE28DFA8D9FB",
"f. c #DDFDE05FDAC7",
"g. c #E573E6FAE25D",
"h. c #E573E79DE328",
"j. c #E5B1E819E362",
"k. c #E8AFE95AE7C4",
"l. c #EC2DED0DEBEC",
"z. c #F09EF310F083",
"x. c #F0FDF246F0B4",
"c. c #F223F3F1F1EE",
"v. c #F29DF3DCF258",
"b. c #F299F48CF257",
"n. c #F2FEF4A2F297",
"m. c None",
/* pixels */
"m.m.m.m.m.m.m.    1 = 1 y m.m.m.",
"m.m.m.m.m.m.$ = = q c b a m.m.m.",
"m.m.m.m.m.  1 C S i / / h m.m.m.",
"m.m.m.m.  1 C &.;.L W ! f m.m.m.",
"m.m.m.  = M %.h.i.#.+.! d m.m.m.",
"m.m.  1 M *.n.f.w.w.8.E 1   m.m.",
"m.8 6 N %.n.j.a.w.8.w.X.k = = m.",
"  8 n &.c.h.p.<.8.8.8.w.o.b =   ",
"  r U *.z.s.1.9.1.8.e.e.@.J 4   ",
"  O 8 ` n.f.w.w.e.8.e.i.} e     ",
"    1 ` c.O.U U ..8.0.i.[ 8     ",
"m.  > ) l.Q D G U 8.0.w.[ 8   m.",
"m.  1 ` k.R |  .U 8.e.i.{ 8   m.",
"m.  1 ~ <.Z [ } P :.<.1._ 8   m.",
"m.  O f A u z z s F J J x =   m.",
"m.    = =             =       m."
};
