/* XPM */
static char *icons_xpm[] = {
/* columns rows colors chars-per-pixel */
"16 16 190 2",
"   c black",
".  c #543A543A543A",
"X  c #5C3D5C3D5C3D",
"o  c #623A623A623A",
"O  c #627262726272",
"+  c #664766476647",
"@  c #677067706770",
"#  c #6A3A6A3A6A3A",
"$  c #6F2A6F2A6F2A",
"%  c #73F873F873F8",
"&  c #752D752D752D",
"*  c #762B762B762B",
"=  c #76FB76FB76FB",
"-  c #786778677867",
";  c #7A517A517A51",
":  c #7B3D7B3D7B3D",
">  c #7D107D107D10",
",  c #3D6A94C2BE27",
"<  c #4A8A84DF9F57",
"1  c #559F883B9F1C",
"2  c #4E218C9DA881",
"3  c #5B218D29A44E",
"4  c #58AB8F0BA735",
"5  c #5A838E09A58F",
"6  c #5ED6A000BEC1",
"7  c #743B8C6598CB",
"8  c #7F498F6E97E4",
"9  c #7D5092099CB7",
"0  c #6D4E9127A172",
"q  c #6FB29257A254",
"w  c #6AB8A3D7BEB7",
"e  c #43DC9963C1FC",
"r  c #48E19D7EC5F2",
"t  c #5152A298C9AA",
"y  c #6BA8AA0AC83F",
"u  c #6728B1E5D5F2",
"i  c #67F5B23ED653",
"p  c #6C5DB274D59B",
"a  c #6CC0B29AD5EF",
"s  c #765BAD02C76A",
"d  c #77A8AF36C88A",
"f  c #7ACEB0E1C9DE",
"g  c #76E3B79ED88E",
"h  c #785EB88BD901",
"j  c #78EABA8DDAEF",
"k  c #7991BACBDAD9",
"l  c #81A580467FA7",
"z  c #810E810E810E",
"x  c #81ED81ED81ED",
"c  c #859E8426837F",
"v  c #862686268626",
"b  c #87078675862B",
"n  c #86D486D486D4",
"m  c #87E18780874E",
"M  c #894A856E8396",
"N  c #8C95889886B8",
"B  c #89BB89C289C6",
"V  c #8C5E8A7F8986",
"C  c #8C378AAC89F3",
"Z  c #8B2D8B2D8B2D",
"A  c #8C128C128C12",
"S  c #8CB78B708AC5",
"D  c #8CA88BD68B68",
"F  c #8E038E038E03",
"G  c #903F903F903F",
"H  c #8836960A9D53",
"J  c #91EB8DFB8C11",
"K  c #922892289228",
"L  c #93E891E190D7",
"P  c #944792CD9216",
"I  c #976C939C91B9",
"U  c #952795279527",
"Y  c #962396239623",
"T  c #975797579757",
"R  c #993C9774968A",
"E  c #98DC98DC98DC",
"W  c #9A0D9A0D9A0D",
"Q  c #9BEF9BEF9BEF",
"!  c #9D449C4F9BCD",
"~  c #9E849C9F9BA1",
"^  c #9CE99CE99CE9",
"/  c #9E989DE69D8A",
"(  c #9DFF9DFF9DFF",
")  c #A0FEA108A10E",
"_  c #A263A263A263",
"`  c #A52FA3E3A334",
"'  c #A762A768A76B",
"]  c #A8ACA834A7F4",
"[  c #AA0EAA0EAA0E",
"{  c #ACA0ACA0ACA0",
"}  c #AF2AADFCAD5F",
"|  c #AF88AF88AF88",
" . c #B0D8B0D8B0D8",
".. c #B5ECB3EFB2EC",
"X. c #B61DB61DB61D",
"o. c #B742B742B742",
"O. c #B811B811B811",
"+. c #BADFB91EB836",
"@. c #BBE9BBE9BBE9",
"#. c #BDA6BCFBBCA1",
"$. c #BF68BF68BF68",
"%. c #C068C068C068",
"&. c #8CF2B33AC4D3",
"*. c #8D4EB4B0C689",
"=. c #987BB6B8C64C",
"-. c #A00CBB31C915",
";. c #9A85CA77E356",
":. c #9DECCC20E423",
">. c #A560C332D274",
",. c #ACC0C767D522",
"<. c #B52DC131C78E",
"1. c #B8F7CA40D360",
"2. c #BD70CBACD330",
"3. c #BA29D1CADE03",
"4. c #BE0BD3B5DEC9",
"5. c #A0D4CDADE4D6",
"6. c #A41DCDBDE324",
"7. c #A52BCFD0E5E9",
"8. c #A69AD101E6CB",
"9. c #ADD7D323E6D1",
"0. c #B5ECD329E264",
"q. c #B11ED6D4EAB3",
"w. c #C07FD9F5E73D",
"e. c #C095DE7FEDE0",
"r. c #C12AC12EC130",
"t. c #C24AC24AC24A",
"y. c #C319C319C319",
"u. c #C42FC42FC42F",
"i. c #C52CC52CC52C",
"p. c #C72AC72AC72A",
"a. c #C8B0C8B6C8B9",
"s. c #C9C7C9C7C9C7",
"d. c #CB56CB56CB56",
"f. c #CD1FCD25CD29",
"g. c #CE11CE11CE11",
"h. c #CF80CE7CCDF6",
"j. c #D0BDCE8CCD8C",
"k. c #CFD7CF09CE9C",
"l. c #CF1DCF31CF3C",
"z. c #CFEFD924DE12",
"x. c #D139D01DCF89",
"c. c #D328D0C2CFAA",
"v. c #D45FD475D481",
"b. c #D655D434D339",
"n. c #D6FCD61DD5A9",
"m. c #D959D866D7E7",
"M. c #DAD8D884D771",
"N. c #D954D95CD95F",
"B. c #DC5CDB9FDB3C",
"V. c #DD91DD91DD91",
"C. c #DEB2DE16DDC4",
"Z. c #DE10DE24DE2F",
"A. c #C122D899E4A0",
"S. c #C428D958E442",
"D. c #C166DEF5EE28",
"F. c #D212DBEEE125",
"G. c #D341DE53E42C",
"H. c #D180DEC4E5D7",
"J. c #C676E1CDF03B",
"K. c #C723E210F04B",
"L. c #D272E656F0C4",
"P. c #D5D0E71EF035",
"I. c #E056E7FAEC06",
"U. c #E15ADED0DDA5",
"Y. c #E3EAE3EAE3EA",
"T. c #E4E9E297E185",
"R. c #E61EE61EE61E",
"E. c #E7DAE7DAE7DA",
"W. c #E905E6A3E58D",
"Q. c #E9C2E727E5F7",
"!. c #E9E2E938E8DE",
"~. c #E9C3E9C3E9C3",
"^. c #EBDBEB8CEB62",
"/. c #EE42EE42EE42",
"(. c #EFF6EFF6EFF6",
"). c #F232F23EF243",
"_. c #F446F309F264",
"`. c #F35AF362F366",
"'. c #F47AF3E9F39C",
"]. c #F681F4B5F3C8",
"[. c #F547F547F547",
"{. c #F62DF5B4F574",
"}. c #FA27F887F7AB",
"|. c #FCACFB98FB08",
" X c #FF4EFD7AFC8A",
".X c #FEABFE27FDE1",
"XX c #FFE5FFE5FFE5",
"oX c #FFFFFFFFFFBD",
"OX c gray100",
"+X c None",
/* pixels */
"G U U G V b x > ; & $ # + o X . ",
"( | | ' _ ( U G A b x > & % $ X ",
"[ i.$.$.+...} ' _ ! R G C C b @ ",
"@.!.!.z.,.>.1.B.V.2.-.=.<.l.l.C ",
"i.OXOXJ.:.j d R.OXq.7.u *.R.{.( ",
"i.OXOXe.a r 3 b.OX7.p , 0 M.).! ",
"i.OXOXP.s 4 9 n.|.w.w 1 H M.(.W ",
"y.OX).` I N V l.V.~ J b C b./.W ",
"%.OXOXI.S.w.G._.].G.q.0.F.^.^.R ",
"%.OXOXJ.:.j f U.}.9.5.i *.U.!.U ",
"%.OXOXD.g t 4 x.].6.j 2 0 x.!.U ",
"%.OXOXL.y 2 7 l._.0.6 < H x.R.U ",
"$.OX).] G b b s.N.( C x b d.R.U ",
"} R.V.i.i.y.y.s.s.O.o.O...y.i.n ",
"A W U G A C b x > ; = = = & % O ",
"+X+X+X+X+X+X+X+X+X+X+X+X+X+X+X+X"
};
