/* XPM */
static char *image_xpm[] = {
/* columns rows colors chars-per-pixel */
"22 21 198 2",
"   c #03D503D503D5",
".  c #09520E2F073C",
"X  c #0C970BB80CF6",
"o  c #11140DB9127E",
"O  c #11BC1CC50D1A",
"+  c #134913491349",
"@  c #10A61577198C",
"#  c #138D190D113F",
"$  c #1B641BE81C51",
"%  c #0DA92C2E00D0",
"&  c #19FD2D751194",
"*  c #202D25551E01",
"=  c #203F2C1F1B4F",
"-  c #22AF23C1239B",
";  c #2C9A28022983",
":  c #2F632F6F2F78",
">  c #2F692D573049",
",  c #2FEA34F42DC7",
"<  c #2BEC3B96254C",
"1  c #326E3B8F2E89",
"2  c #3481346D3489",
"3  c #39653D8B37A7",
"4  c #3CAC3D2C3C39",
"5  c #0DC13B3F5E40",
"6  c #22D93D1C534F",
"7  c #31E83AA74194",
"8  c #1B7046C2093D",
"9  c #1B6755D402BF",
"0  c #1C2E5BBF0195",
"q  c #1E8B65960198",
"w  c #1CF36C910000",
"e  c #210956B70A64",
"r  c #270260420EC6",
"t  c #277A581512DE",
"y  c #2B0B58E615C7",
"u  c #38384316339E",
"i  c #23D462960904",
"p  c #2DBB6346171B",
"a  c #2DC56F0D11D2",
"s  c #24FC758E0344",
"d  c #291271D60A31",
"f  c #361473B91B01",
"g  c #313F7ABB18C7",
"h  c #3A007D761CCA",
"j  c #3D0080382058",
"k  c #190F49186E3F",
"l  c #17444D697645",
"z  c #1A154CE17363",
"x  c #1C62515C795C",
"c  c #22BA55F77D54",
"v  c #2ABD5AF87F54",
"b  c #31455C23801A",
"n  c #314668934276",
"m  c #4338437E4295",
"M  c #4870480D4899",
"N  c #4D7B4D3E4D09",
"B  c #430D51615EF7",
"V  c #544B544D544A",
"C  c #57335CBE54DB",
"Z  c #5B475B0A5C4D",
"A  c #44605A8D7168",
"S  c #56057BF3464B",
"D  c #5A637EC54AFD",
"F  c #613D66055F32",
"G  c #657C65F8655D",
"H  c #683F66C368E0",
"J  c #64AD69D0627F",
"K  c #6D586DCB6CF6",
"L  c #73CA73C873C7",
"P  c #7A4E7A487A50",
"I  c #264E59CC836B",
"U  c #27075F2B899E",
"Y  c #2DC75FBF890E",
"T  c #329860358274",
"R  c #2ABC66EA94BD",
"E  c #2DF56A259769",
"W  c #3B3D65FD85E4",
"Q  c #3F7968DC879B",
"!  c #32E66B3A965C",
"~  c #32EC6F699F2B",
"^  c #35547560A6B0",
"/  c #3BC07B6EAD97",
"(  c #36D27CEDB367",
")  c #39977E08B32A",
"_  c #42286AB788B8",
"`  c #551F76599193",
"'  c #44997E88B040",
"]  c #4D0B7C95A332",
"[  c #494E7DA8A91A",
"{  c #418D7D8BB223",
"}  c #273A80A8014A",
"|  c #283581AC0233",
" . c #2E7D84AB0A00",
".. c #2CFF8C88044B",
"X. c #33B98FB20C72",
"o. c #359F81591573",
"O. c #393B843B1984",
"+. c #4CA181E76F98",
"@. c #5AE88B1975F6",
"#. c #704999825D0D",
"$. c #4E7A81C9A971",
"%. c #471782ADB342",
"&. c #493484EBB4CE",
"*. c #4D648B58BC8F",
"=. c #582C857BA9CA",
"-. c #5A1E878CAB48",
";. c #5C5888DBAE99",
":. c #527B8612B241",
">. c #51958E3FBD3B",
",. c #5C058874B215",
"<. c #5C1E8C83B287",
"1. c #5A0A8CC4BDEB",
"2. c #7D7A81CA8570",
"3. c #7C3A829488A4",
"4. c #670F9018AE62",
"5. c #61F4905DB59F",
"6. c #606A90D5BA0C",
"7. c #75A69826B3B5",
"8. c #7D829EA3B722",
"9. c #55B49441CB2E",
"0. c #5A0094DDC3B8",
"q. c #675C9CBACCCC",
"w. c #6FDDA0D2C5F7",
"e. c #6E5AA19BCC97",
"r. c #6BFBA203D3BA",
"t. c #7403A413CC5C",
"y. c #8024ACECCFE1",
"u. c #8004AD47D1C5",
"i. c #8D03AFC67E31",
"p. c #816DB3676C21",
"a. c #937CC6177DEE",
"s. c #85E185E185E1",
"d. c #8C058C708CC3",
"f. c #8FB98DBF90A6",
"g. c #8DA4962F8A07",
"h. c #957694BC959E",
"j. c #996799679967",
"k. c #82E499FAAB9A",
"l. c #889D9E24AEE0",
"z. c #8BC5A85F948D",
"x. c #97A5B5B68A22",
"c. c #9EDCB7D393D4",
"v. c #8880A10BB39A",
"b. c #8C97A471B6AE",
"n. c #8E55A7D7BB29",
"m. c #95A7AC72BDEB",
"M. c #A974A815A906",
"N. c #ACFEAB08AC58",
"B. c #B5B1B453B54D",
"V. c #BA43B87ABB08",
"C. c #BD37BB91BC8D",
"Z. c #865FAFC6CEE1",
"A. c #890FACB8C946",
"S. c #826EADC3D644",
"D. c #854FB1B1D64E",
"F. c #8C3CB5F6D9F0",
"G. c #92DCB326CBDE",
"H. c #9C4BB220C4AB",
"J. c #98A4B2A0CAA4",
"K. c #9CF2B9AAD02C",
"L. c #9753BAC4D546",
"P. c #96FFBCA5DAD5",
"I. c #9E49BC4ED5F0",
"U. c #9A08BDF3DA0A",
"Y. c #AE5CBF89CDFC",
"T. c #A2E1BE99D44E",
"R. c #9941C6328624",
"E. c #9BF2C82E8941",
"W. c #9D49CF328818",
"Q. c #9CF8CB9C8944",
"!. c #9DF7D1E387C9",
"~. c #9EBBD20088D8",
"^. c #A50BC6F29685",
"/. c #A679C36EDCAE",
"(. c #A9CFC788DE71",
"). c #AC89C9C3E081",
"_. c #BD66CDBFDAF9",
"`. c #AE3BCBC1E37C",
"'. c #B563CF0FE376",
"]. c #BF10D51CE64D",
"[. c #C436C418C400",
"{. c #CCBDCBE1CCA2",
"}. c #C4BBCFDED86F",
"|. c #C86FD61EE05E",
" X c #CF24D458D8FA",
".X c #D7B4D953DAAB",
"XX c #DF24DE12DD93",
"oX c #C429D917E964",
"OX c #CF4BE09FEE1C",
"+X c #D788E099E809",
"@X c #D7A1E32CD2A9",
"#X c #DE5AE275E5BC",
"$X c #D8CAE683F139",
"%X c #DEDBEABDF3F9",
"&X c #E287E220E2B3",
"*X c #EEDEEE53EF19",
"=X c #ED6FF3F7F91A",
"-X c None",
/* pixels */
"P P P P P P P L P P P P P P P P P P P P P P ",
"P C.XXXXXXXXXXXXXXXXXXXXXXXX.XXXXXXX.XXX[.P ",
"P XX}.l.b.b.b.n.b.n.n.n.n.m.m.m.m.n.b.|.{.4 ",
"P XX7.5 k z z l x x x x x W A _ W v l n.C.. ",
"P XXv.k U R R R R E E E $.4.8.8.7.=.! G.C.. ",
"P XXv.c E ^ ^ ^ ^ ^ ^ &.w.L.'.].(.Z.$.K.C.  ",
"P XXb.c ~ / ( / &.*.>.0.y.(.$X=XoXU.;.Y.C.  ",
"P XXn.v ~ / U.5.^ *.0.0.u.(.OX%X].U.<./.C.  ",
"P XXm.Y [ m.XX/.-.^ *.&.q.U.'.'.`.S.:.I.C.  ",
"P XXH.b ` XXC.XXY.$.{ -.6.t.F.F.S.r.' L.C.  ",
"P XXH.6 $ G f.j.[._.=.$X7.:.q.r.q.9.{ T.C.  ",
"P XX2.@ 4 L K H K C 4 s. XJ.;.q.r.r.0.T.B.  ",
"P &XL * L Z N N > $ N j.N.` Z A S.+.n z.M.  ",
"P &XP > H * $ 2 2 2 K s.N 4 ; - @.g w #.f.  ",
"P XXg.< 3 X X 2 V Z F 4 X # = & y O.O.S Z + ",
"P XXx.0 t 1 , 4 M M 3 * . % e p C G K 4 - Z ",
"P XXx.f O.a r & o O 8 e i d  .O.F {.*XV.P P ",
"P XXc.f X...s q 9 e q s s ....o.J &XXXj.L s.",
"P XX@X^.~.~.~.W.Q.E.R.E.W.a.p.D 4 B.j.H N V ",
"P [.{.V.C.C.C.Y.V.V.C.C.B.N.h.Z - P L N -X-X",
"P P 4                         o N P s.-X-X-X"
};
