/* XPM */
static char *info_xpm[] = {
/* columns rows colors chars-per-pixel */
"34 30 65 1",
"  c black",
". c #38E338E34103",
"X c #49244D344924",
"o c #49244D345144",
"O c #71C679E779E7",
"+ c #0820AAAAFFFF",
"@ c #1861AAAAFFFF",
"# c #28A2AEBAFFFF",
"$ c #30C2B2CAFFFF",
"% c #38E3B2CAF7DE",
"& c #38E3B2CAFFFF",
"* c #38E3BAEAFFFF",
"= c #4103B6DAF7DE",
"- c #4103BAEAFFFF",
"; c #4924B6DAF7DE",
": c #5144BEFBF7DE",
"> c #5965BAEAF7DE",
", c #5965BEFBFFFF",
"< c #6185BEFBF7DE",
"1 c #69A6C30BF7DE",
"2 c #69A6C71BFFFF",
"3 c #79E7CB2BF7DE",
"4 c #9E79A289AEBA",
"5 c #AEBABAEAC71B",
"6 c #B6DABEFBC71B",
"7 c #9658CF3CEFBE",
"8 c #9E79CF3CEFBE",
"9 c #BEFBD34CDF7D",
"0 c #A699CB2BE79D",
"q c #AEBACF3CE79D",
"w c #AEBAD34CEFBE",
"e c #BEFBDB6CFFFF",
"r c #AEBAE38DFFFF",
"t c #BEFBE38DFFFF",
"y c #BEFBEBADFFFF",
"u c #C71BD34CDF7D",
"i c #CF3CD34CDF7D",
"p c #D75CD34CD75C",
"a c #D75CD34CDF7D",
"s c #DF7DDB6CD75C",
"d c #DF7DDB6CDF7D",
"f c #C71BDB6CFFFF",
"g c #C71BE38DFFFF",
"h c #C71BEBADFFFF",
"j c #CF3CE38DFFFF",
"k c #CF3CEBADFFFF",
"l c #CF3CF3CEFFFF",
"z c #D75CE38DFFFF",
"x c #D75CEBADFFFF",
"c c #DF7DE38DF7DE",
"v c #DF7DEBADFFFF",
"b c #D75CF3CEFFFF",
"n c #DF7DF3CEFFFF",
"m c #E79DEBADF7DE",
"M c #E79DEBADFFFF",
"N c #E79DF7DEF7DE",
"B c #E79DF3CEFFFF",
"V c #E79DFBEEFFFF",
"C c #EFBEF3CEFFFF",
"Z c #EFBEFBEEFFFF",
"A c #F7DEF3CEFFFF",
"S c #F7DEFBEEFFFF",
"D c #FFFFFBEEFFFF",
"F c gray100",
"G c None",
/* pixels */
"GGGGGGGGGGGGGGGGGGGGGGGGGGGGGGGGGG",
"GGGGGGGGGGGGGGGGGGGGGGGGGGGGGGGGGG",
"GGGGGGGGGGGGGa81;=++&=>7iGGGGGGGGG",
"GGGGGGGGGGGq,-7lZZDDZVh7&>qGGGGGGG",
"GGGGGGGGGa,3nDDDDSSZAAASSh2;iGGGGG",
"GGGGGGGGw&nDDDDDDSDSCBBnMBZh$0GGGG",
"GGGGGGGq2DDDDDDDp. omBCBvvxnV,0GGG",
"GGGGGGa-SDDDDDDDO   6CBnvxxzjB&9GG",
"GGGGGG>NDDDDDDDDNOoOZCCnvvxkjky;GG",
"GGGGGw,DDDDDDDDDDSSACBnMvxzjjgB:qG",
"GGGGd1kDDDDDDDD4X.  6BnMvxkjggkw>d",
"GGGGG%ZSDDDSDDSSp   6BMvvzjjjggl$s",
"GGGGG@DDSDSSDSDSZ   5MvvxkjggftB@d",
"GGGGG@DSSSSDSSZZA   5nvxzzjjgfen@G",
"GGGGG&ZAZSAZAAAZC   6vvxzkjggegx#G",
"GGGGG1hSCZCCCCCCB   5vxxkjjtfehw>G",
"GGGGGw,DCCCBCBCBc   4xzjjggteen:0G",
"GGGGGG:nZBBBBBB5OXX.X4jjgggeegy=GG",
"GGGGGGu*SBnMnnvvvvvxxjjgjgteen&uGG",
"GGGGGGGw<Zvvvvxvxxxzkjgggeegn:7GGG",
"GGGGGGGGq<Zvxvxxzxzjjjggtjbr$0GGGG",
"GGGGGGGGd&NvzkzbvxjjkkxbBr<;uGGGGG",
"GGGGGGGGG;lvkjnlbbZZnxr3$:0GGGGGGG",
"GGGGGGGGG=xxjvr==%++#%>3udGGGGGGGG",
"GGGGGGGGd#nkB8>aGdGdGGGdGGGGGGGGGG",
"GGGGGGGG72Bb2<GGGGGGGGGGGGGGGGGGGG",
"GGGGGGGp$r2$8GGGGGGGGGGGGGGGGGGGGG",
"GGGGGGG<&,8pGGGGGGGGGGGGGGGGGGGGGG",
"GGGGGGGGGGGGGGGGGGGGGGGGGGGGGGGGGG",
"GGGGGGGGGGGGGGGGGGGGGGGGGGGGGGGGGG"
};
