/* XPM */
static char *item_xpm[] = {
/* columns rows colors chars-per-pixel */
"19 22 81 1",
"  c black",
". c #0DF50AC20A77",
"X c #191718F918D6",
"o c #1E721FAE21A2",
"O c #343A2D552A2A",
"+ c #31C939AE3E6E",
"@ c #389D389D389D",
"# c #3C733C063D15",
"$ c #468D46FF47B5",
"% c #4BEE4A33496C",
"& c #5DEB5DA25D5F",
"* c #5C825FD96287",
"= c #421D60C96F06",
"- c #42B0666276C1",
"; c #43E167057728",
": c #4389673E77A2",
"> c #43B8676F77D4",
", c #4474687E7903",
"< c #451568DC7984",
"1 c #48786C557D2A",
"2 c #57836AA07369",
"3 c #546E6C8C7835",
"4 c #6DBA70237129",
"5 c #503B747F8616",
"6 c #513F756B873C",
"7 c #527F76D288B2",
"8 c #5F397D078ABC",
"9 c #626285009476",
"0 c #649E8736961D",
"q c #672A9127A45E",
"w c #6C1F97BFAC47",
"e c #6B949F76B84E",
"r c #7822AC29BDB0",
"t c #76E4AC3CBF59",
"y c #7C6AABE9B84A",
"u c #8060ABABB33E",
"i c #8041ABB4B3C1",
"p c #7E2BABD0B621",
"a c #7DA4ABD1B6C9",
"s c #7E9CABCBB5BE",
"d c #79F5AC0FBB78",
"f c #7B14ABFDBA01",
"g c #7BF3ABEEB8F0",
"h c #78EAAC1EBCC1",
"j c #6E1EA937C465",
"k c #6EA6AA8BC609",
"l c #6F49AC5EC868",
"z c #6FDCACA6C83F",
"x c #6F76ACACC8C4",
"c c #6E34ACBFCA57",
"v c #6F32ACB3C91A",
"b c #6E91ACB9C9DF",
"n c #6F70ACAEC8CA",
"m c #6FA9ADEECA85",
"M c #6582AD40D554",
"N c #7372AC71C3C1",
"B c #730AAC76C43E",
"V c #73F2AC69C315",
"C c #7267AC80C514",
"Z c #7179AC8DC631",
"A c #70B7AC98C728",
"S c #7278AC7FC4EB",
"D c #7489AC61C263",
"F c #75A2AC4FC0DF",
"G c #901FAAC59F91",
"H c #93CBAA889B11",
"J c #9113AAB09E33",
"K c #91DAAAAC9D6C",
"L c #83E7AB7AAF12",
"P c #85E4AB5FAC99",
"I c #8849AB38A966",
"U c #86ACAB52AB8C",
"Y c #84A0AB72AE2F",
"T c #85ABAB62ACDE",
"R c #8944AB2BA846",
"E c #8E86AAD9A178",
"W c #8D26AAECA32B",
"Q c #8ED8AAD8A13C",
"! c #811DABA1B253",
"~ c #8262AB92B0ED",
"^ c None",
/* pixels */
"^nnnnnnnnnnnk2O^^^^",
"^nnnnnnnnnnnn8% ^^^",
"^nnnnnnnnnnnn9&$ ^^",
"^nnnnnnnnnnnn04*# ^",
"^nnnnnnnnnnnnewq3+ ",
"^nnnnnnnnnnnnnmmj= ",
"^nnnnnnnnnnnnnnnz, ",
"^nnnnnnnnnnnnnnnm1 ",
"^nnnnnnnnnnnnnnnm5 ",
"^nnnnnnnnnnmntfnm6 ",
"^nnnnnAnnnnnntgnn5 ",
"^nnttAyAnnALigAnn< ",
"^MAIWGJLidHRWItnv; ",
"^nnd!LIAVIWAgptnn; ",
"^nntdntydA!AtJrnn; ",
"^nndILIyVAymApmnn; ",
"^nnF!Vnnnnnnnnnnv; ",
"^nnnnnnnnnnnnnnnv: ",
"^nnnnnnnnnnnnnnnv; ",
"^nnnnnnnnnnnnnnnv; ",
"^nnnnnnnnnnnnnnnn; ",
"^^^^^^^^^^^^^^^^^^^"
};
