/* XPM */
static char *java_xpm[] = {
/* columns rows colors chars-per-pixel */
"22 22 257 2",
"   c #00AB00770088",
".  c #038B039508F8",
"X  c #0B7103EA0432",
"o  c #09DF07F20915",
"O  c #0F1F08D40729",
"+  c #0BDA0A880B43",
"@  c #06170644144B",
"#  c #074807E11AF6",
"$  c #0FF2082311D7",
"%  c #17AC07AE087C",
"&  c #13CB0D240D98",
"*  c #11B90FB9148D",
"=  c #132913301451",
"-  c #1D2C17D11A2F",
";  c #1C6B19DC1BD7",
":  c #1C7E157E170D",
">  c #0CB50D77254F",
",  c #120F0FCF21E8",
"<  c #19270F1E2137",
"1  c #20111F8322BA",
"2  c #1DF11D352DB6",
"3  c #1316126A3A96",
"4  c #18A316B9383A",
"5  c #1C9C1BB13E24",
"6  c #1D88135E30A6",
"7  c #27CB1A4B1ACF",
"8  c #28C1159E174D",
"9  c #331407CD082D",
"0  c #3D3112A7135B",
"q  c #24D406ED071B",
"w  c #20E81F072EE4",
"e  c #20DC1EB23B16",
"r  c #2FC226452CF9",
"t  c #2D702AD22D09",
"y  c #22C323582540",
"u  c #2401246D3D1F",
"i  c #28CE23BB3280",
"p  c #2D5528E03094",
"a  c #293028323B18",
"s  c #23A3218B334A",
"d  c #32FF2DD13624",
"f  c #38CC353D2F5D",
"g  c #356A354F374F",
"h  c #357E33F53BE1",
"j  c #161D15CB48C2",
"k  c #17D71880459F",
"l  c #191818734570",
"z  c #292028104311",
"x  c #26AE261A519C",
"c  c #2803247F5F7A",
"v  c #2C932BE555D3",
"b  c #2E6B2B4259E1",
"n  c #3DBE24FB437B",
"m  c #3646383849F4",
"M  c #375035985AD3",
"N  c #25D026B46D8F",
"B  c #2A1D290A764D",
"V  c #31222FF1797B",
"C  c #367C347961D9",
"Z  c #395B38126EB0",
"A  c #3B5638D36836",
"S  c #3BC0390B677B",
"D  c #304C30567CDE",
"F  c #3EE73F3F7290",
"G  c #43600FF40F81",
"H  c #4868189E16BE",
"J  c #4448193D193A",
"K  c #552011A51298",
"L  c #4C79274F28A3",
"P  c #454624532638",
"I  c #4045366E3C8E",
"U  c #486E35823A2C",
"Y  c #507622923305",
"T  c #5D2733F43855",
"R  c #596626AE2664",
"E  c #6EE42F692F3A",
"W  c #7D9E32503225",
"Q  c #41D0399D4603",
"!  c #4B74361C4CA7",
"~  c #4F1D395B4449",
"^  c #4C05359346AD",
"/  c #45093D666CFF",
"(  c #4A753F306961",
")  c #441C3EC7709B",
"_  c #45DF3DE07979",
"`  c #7C353F635DA6",
"'  c #459640BD4C5E",
"]  c #4D4943E34E92",
"[  c #481944CB5967",
"{  c #5243472F4D81",
"}  c #56844C265A10",
"|  c #5D964E6455B0",
" . c #5A8D524B5DCF",
".. c #4EB445DB6D75",
"X. c #44314158752E",
"o. c #4984481179C1",
"O. c #4203418A7D11",
"+. c #552E4FE56452",
"@. c #5E285A0A6571",
"#. c #5F0E58A56F83",
"$. c #59B95423620A",
"%. c #7AA24D455D2A",
"&. c #624F55266572",
"*. c #656F60726380",
"=. c #6992679B7697",
"-. c #761E681B77C0",
";. c #70A6693878A0",
":. c #7FA66A7872DD",
">. c #7AFD71637E09",
",. c #2D672C2691DE",
"<. c #37BD34AB903D",
"1. c #3F173E218562",
"2. c #3DA83E369013",
"3. c #36CB35C99F4F",
"4. c #3EDB3F3A9D4C",
"5. c #3EBE3EBF93B3",
"6. c #3EAA3CBEAFBF",
"7. c #41093F32A451",
"8. c #484645FE821A",
"9. c #4C5649D585CC",
"0. c #483845459301",
"q. c #468D461E9AB7",
"w. c #4C12466E9F83",
"e. c #4C744A419E45",
"r. c #52724E568E57",
"t. c #577C526C864F",
"y. c #59FC57FF87EE",
"u. c #5559519A957A",
"i. c #5A2B536E96EA",
"p. c #4D3949CAB50F",
"a. c #57CF46A1A163",
"s. c #545C4C28A811",
"d. c #597654A8ADB4",
"f. c #561C50E5B352",
"g. c #65D24FA780D2",
"h. c #76255B3F9BED",
"j. c #6C035423A86C",
"k. c #68F5539FAA9A",
"l. c #62DA5726B69C",
"z. c #656D5BB1B816",
"x. c #6F9B65849BA3",
"c. c #774C6E5A842A",
"v. c #7FB8749C81A1",
"b. c #747A734D982D",
"n. c #7BBD7933AFCA",
"m. c #4C984C37CAD5",
"M. c #46DA45BDD729",
"N. c #4B0649B1DB09",
"B. c #5D54575AC7A3",
"V. c #5D9B5A74C625",
"C. c #53B451B9DADB",
"Z. c #5B495815D343",
"A. c #5D8E5AE2D955",
"S. c #5D055C53E183",
"D. c #494A4944E6F0",
"F. c #61DD5BF2D4FA",
"G. c #697364FBCCBC",
"H. c #621960A2DA07",
"J. c #79E87353D0CF",
"K. c #64B764C3E3BE",
"L. c #97801ECE1CE8",
"P. c #88072B962D0A",
"I. c #891230662D92",
"U. c #A6AD320B2F27",
"Y. c #ABE73E193D23",
"T. c #A53240643F5A",
"R. c #82214D8A54BD",
"E. c #9117411346AF",
"W. c #9C7040894458",
"Q. c #8328547F76D7",
"!. c #AC3E47C8472C",
"~. c #A4B5455844FC",
"^. c #A83553D15440",
"/. c #B1634A7D4976",
"(. c #B9D859FA5BC7",
"). c #A77C61396997",
"_. c #C53030CA2D48",
"`. c #DE8C375B36F5",
"'. c #DD5139903926",
"]. c #C9D9427641AF",
"[. c #C1524E2B5140",
"{. c #D3F94B6D4B52",
"}. c #DD315AE25BCF",
"|. c #D32C6EB56FAB",
" X c #D6CC74CD77FE",
".X c #D83276D87A6A",
"XX c #DFC47111731E",
"oX c #E36F54EC5546",
"OX c #E26C6819697C",
"+X c #81AD76638986",
"@X c #85657B22902F",
"#X c #864E7C5A9DFF",
"$X c #A4D969D188BF",
"%X c #818E7B98D8DF",
"&X c #DE807E7F80D5",
"*X c #E2217E1781BC",
"=X c #8DBC81DB9A03",
"-X c #8994808FA65F",
";X c #8E458524B851",
":X c #94BE86A9A1D6",
">X c #976B8D0AA5DB",
",X c #9B798F13ABA0",
"<X c #96828B45AA0C",
"1X c #90BE8947B527",
"2X c #B3A68F7198F2",
"3X c #A0B397A7A356",
"4X c #B203A393B7D1",
"5X c #90338A1EC0F3",
"6X c #85B98441E81F",
"7X c #8E8E8E8EEFEF",
"8X c #8E7D8F15F365",
"9X c #AAFF9F37DF95",
"0X c #A767AAFEFFFF",
"qX c #B274A625EA61",
"wX c #B6DBB1E2FFFF",
"eX c #BF16C255D6D4",
"rX c #BFA6C78DFFFF",
"tX c #C5EB84DD8CA2",
"yX c #C5978DA495F3",
"uX c #C45B91109B65",
"iX c #DCE38A5A8E4D",
"pX c #DE5E980B9B5F",
"aX c #DB2A9BB99EB4",
"sX c #D8F1932394E5",
"dX c #C480994EA894",
"fX c #CA059FF0AB6D",
"gX c #D5419E0FA321",
"hX c #DD669F66A1AD",
"jX c #D1CA9C94ACDE",
"kX c #CD11A63FADC5",
"lX c #CB6BB325BD29",
"zX c #D8A6A24EA8C1",
"xX c #D760AE64AF45",
"cX c #DD67A4CBA61E",
"vX c #DB36A7E8AB3C",
"bX c #DAEDAC48ADA4",
"nX c #D533AD9DB292",
"mX c #D829B520B354",
"MX c #DA61B0CBB516",
"NX c #E3878ACC8BD1",
"BX c #E2718EA791B8",
"VX c #E52E966A9860",
"CX c #E111971798D8",
"ZX c #E74D9E6D9F38",
"AX c #EA959F4995E2",
"SX c #FFFFA31497E0",
"DX c #E107A94CA41C",
"FX c #E151B4E3B2F2",
"GX c #C52AAE1CCE12",
"HX c #D8CFC026C6AE",
"JX c #C61AB7BAD991",
"KX c #D83DC7E1FFFF",
"LX c #DDE9D197FFFF",
"PX c #DFDFE581E985",
"IX c #E5D5C5C2C4AE",
"UX c gray100",
"YX c None",
/* pixels */
"YXYXYXYX X&XNXcXhXnXYXYXkXgXIXYXYXYXYXYXYXYX",
"YXYXYXbXOXOXsXgXgXlXYXYXlXbXxXYXYXYXYXYXYXYX",
"YXYXMXpXBXNXzXhXgXkXmXYXcXcXmXxXYXYXYXYXYXYX",
"YXYXcXhXpXHXvXnXaXiXaXeXCXVXVXMXwXGX3X=.#X#X",
"YXYXcXxXgXYXnXsXOXoX*XuX XXX).g ] ] h y r  .",
"YXYXgXkXyX2XtXoX}.}.(.E.Y.~.- o .       & { ",
"$.t U %.U L P.`.{./.!.W 0 R X           p @X",
"m X X G G X K '.].~.^.7   P 8         . h qX",
"' O     q 9 G L._.U.E O   % J o       o } YX",
";.w     . $ < Y [.W.I.H O . w l 3 @   ; &.YX",
":Xd   # V u.r.#.$XQ.` n ! N m.F.M.,.@ ] :XYX",
"9XQ . > 3.C.B.l.a.k.j.h.i.f.) 5.p.4.C $.LXYX",
"YX$.+   l p.G.u.! %.T Q Z M a X.O.F [ =.YXYX",
"YX#.-   @ <.B.8.( ..M C Z i e 8.9.m h @XYXYX",
"YX+Xh   . V F.e.1.0.u.r.y.a z o.z : @.GXYXYX",
"YXJX .o   j N.D.C.A.K.S.r.2 2 +   : -.YXYXYX",
"YXKXx.b e = D 5.q.6.0.t.i @ 5 . @ t :.YXYXYX",
"YX7X6Xf.N l 3 4 u 5 3 3 j B 1.x C $.KXYXYXYX",
"YX7XJ.s.6.m.s.z.J.G.Z.H.C.N.e.X...n.0XYXYXYX",
"YXYX4X .2 b C / _ / X./ A v i = ] 1XYXYXYXYX",
"YXYXYXc.a &     .             . h UXYXYXYXYX",
"YXYXYX5Xv.] Q y +             * @.YXYXYXYXYX"
};
