/* XPM */
static char *lock_xpm[] = {
/* columns rows colors chars-per-pixel */
"32 32 78 1",
"  c #004800480047",
". c #0BC40BBC0B9C",
"X c #1515150D14EE",
"o c #181818131810",
"O c #1827181F180B",
"+ c #1CA51CB91CA5",
"@ c #1FFC1FFC2023",
"# c #208620811F54",
"$ c #248224972493",
"% c #2867283E27FA",
"& c #2C832CA52CA4",
"* c #2F2C2FA1306B",
"= c #302F309130CD",
"- c #307330882FB1",
"; c #333733503354",
": c #3C1D3C383C02",
"> c #458C45C045D5",
", c #47D348984907",
"< c #4CC34CE84CE3",
"1 c #4F8752105484",
"2 c #50854FCB4D23",
"3 c #51AB516A5021",
"4 c #543A546E549A",
"5 c #5655582C59B6",
"6 c #5C8B5CB15CD1",
"7 c #5DD25FBF625A",
"8 c #5F4D611E61EE",
"9 c #6445646F6494",
"0 c #6497666D68D4",
"q c #683F6869684A",
"w c #67B66A426C88",
"e c #68B068BF67C8",
"r c #6AE96B346B7F",
"t c #6EA46F9970E9",
"y c #6EEA70C0721F",
"u c #73B8743274BA",
"i c #72DC778D7BF8",
"p c #76C0792C7B51",
"a c #7C0C7C817CCA",
"s c #7E5980298207",
"d c #7EB281138354",
"f c #84F985238554",
"g c #829586058961",
"h c #86A9897C8C3B",
"j c #8C5E8C898C5E",
"k c #8C468FC19421",
"l c #8F1A918A946D",
"z c #94E095149530",
"x c #97C99A8C9E36",
"c c #9BAE9C259CA7",
"v c #97E89B9DA0CF",
"b c #9EE7A297A758",
"n c #A43AA4DAA577",
"m c #A364A756ABA0",
"M c #A5B4AA34AE93",
"N c #ABFFABFFABFF",
"B c #A891ACB5B1B2",
"V c #AB71AEDCB326",
"C c #AE5CB21FB691",
"Z c #B5D9B5D9B5D9",
"A c #B29FB621BAC8",
"S c #B6B0BA5FBF17",
"D c #BB5BBB5BBB5A",
"F c #BBBBBF38C43A",
"G c #BDDFC113C605",
"H c #C2CDC2CDC2CD",
"J c #C366C797CC9F",
"K c #C71DCAD4D03A",
"L c #CCAFCCAECCAD",
"P c #C875CB97D198",
"I c #C921CBB3D187",
"U c #D5A4D5A4D5A3",
"Y c #DE10DE0FDE0E",
"T c #E5ACE5ACE5AC",
"R c #ECE2ECE2ECE2",
"E c #F42DF42DF42D",
"W c #FED6FED6FED6",
"Q c None",
/* pixels */
"QQQQQQQQQQQQQQQQQQQQQQQQQQQQQQQQ",
"QQQQQ                      QQQQQ",
"QQQQ                        QQQQ",
"QQQ  >jnAFJKIIIIIIIPIJFNza3  QQQ",
"QQ  3lcxnVFFGFHHGGFFFSVcdrq4  QQ",
"Q   flr66679eeeeqrqq98666646   Q",
"QQ :xu45699eeerrqrrqe986559y: QQ",
"QQ :nr35669eqeazzpqe998654rh: QQ",
"Q  ;Vt<56999rnYERYcr996643pc;  Q",
"Q  ;Au<55699nRETRERz996643dm;  Q",
"Q  ;Au,4566pYRZffDRUt6654<dm&  Q",
"Q  ;Au,4456cEHr89tLRz6643<ab&  Q",
"Q  ;Cy><346DRj6686zRZ443<,px&  Q",
"Q  ;Ar:><3jYTZNNNnDRUc5,>:yl&  Q",
"Q  ;Cw&;:>ZRTTTTTTTTRU4::;wg%  Q",
"Q  &V0&;-:ZTnuupauujYL,;;&0p$  Q",
"Q  =B9$&&:NTs-;;---8YL>&&%7w@  Q",
"Q  =M7@$$-nTa&&---%6UL:%%#47@  Q",
"Q  &m7+@#&nYu$%$%%#6UH:##@44+  Q",
"Q  &v5X++$cYt#####+2LH;OOO<<O  Q",
"Q  &v1XXX+cUu+#####2LD-Xoo,,O  Q",
"Q  &k<...+zUNzzczzznUD&...>>O  Q",
"Q  $p:...XsDDDDDDDDZZc#...><+  Q",
"Q  +4- . .+$$$%%%%$$$#....4q+  Q",
"QQ .:%.                  .ruO QQ",
"QQ  +%+XXXOOO+OO+OO+OooXo,j<. QQ",
"Q   X#%;<9ruuuuuuyryrrq9qu<%+  Q",
"QQ  +%;:4tflccnccccczjar6,>2< QQ",
"QQQ 698rfnDLUYYYYYYYULZnjfzNcQQQ",
"QQQQnLLLUUTRRRERERERRRTYYYRRWQQQ",
"QQQQWEWWWWWWWWWWWWWWWWWWWWWWQQQQ",
"QQQQQWWWWWWWWWWWWWWWWWWWWWWWQQQQ"
};
