/* XPM */
static char * logo_xpm[] = {
"30 15 350 2",
"  	c None",
". 	c #977168",
"+ 	c #977067",
"@ 	c #9A7369",
"# 	c #9A746C",
"$ 	c #A27B75",
"% 	c #A38078",
"& 	c #A5867B",
"* 	c #9E7E73",
"= 	c #97756A",
"- 	c #97746C",
"; 	c #9C7C6F",
"> 	c #A38072",
", 	c #9E776A",
"' 	c #9B7265",
") 	c #90665A",
"! 	c #875D50",
"~ 	c #97766E",
"{ 	c #8F6C65",
"] 	c #8F6963",
"^ 	c #9B766E",
"/ 	c #9D7C73",
"( 	c #A08278",
"_ 	c #9A7C77",
": 	c #A28784",
"< 	c #A58F88",
"[ 	c #9D897F",
"} 	c #9A857E",
"| 	c #937672",
"1 	c #8B6A64",
"2 	c #8B6B62",
"3 	c #906F64",
"4 	c #8E695E",
"5 	c #906C5F",
"6 	c #8D6A5B",
"7 	c #836151",
"8 	c #825F50",
"9 	c #866258",
"0 	c #B18D81",
"a 	c #A58277",
"b 	c #9A7671",
"c 	c #97736A",
"d 	c #9F7B71",
"e 	c #A5877E",
"f 	c #9E867F",
"g 	c #91817A",
"h 	c #786B67",
"i 	c #6B6362",
"j 	c #776D6F",
"k 	c #776869",
"l 	c #6B5E5E",
"m 	c #705F60",
"n 	c #755E5C",
"o 	c #806863",
"p 	c #886B64",
"q 	c #836259",
"r 	c #7F5F55",
"s 	c #7E6256",
"t 	c #7D6254",
"u 	c #7F5F53",
"v 	c #805C53",
"w 	c #7D5C52",
"x 	c #B38674",
"y 	c #A87F6F",
"z 	c #9F786B",
"A 	c #966F64",
"B 	c #947067",
"C 	c #977369",
"D 	c #99746A",
"E 	c #A2857D",
"F 	c #897571",
"G 	c #706060",
"H 	c #594E4F",
"I 	c #6F6565",
"J 	c #4A3F41",
"K 	c #44363B",
"L 	c #413135",
"M 	c #3E3033",
"N 	c #483D3E",
"O 	c #4C3D3D",
"P 	c #574949",
"Q 	c #645250",
"R 	c #725A56",
"S 	c #7C625D",
"T 	c #786059",
"U 	c #6F564B",
"V 	c #77584F",
"W 	c #7E5C52",
"X 	c #79584E",
"Y 	c #AD7C6D",
"Z 	c #A87667",
"` 	c #A37568",
" .	c #9C7266",
"..	c #9A7368",
"+.	c #9D7A6E",
"@.	c #9C7B6E",
"#.	c #7C5E53",
"$.	c #6A544F",
"%.	c #514343",
"&.	c #453436",
"*.	c #48373E",
"=.	c #5A4C56",
"-.	c #5A4850",
";.	c #483034",
">.	c #442E31",
",.	c #413032",
"'.	c #4D4342",
").	c #746E6E",
"!.	c #6A6267",
"~.	c #55474C",
"{.	c #4E393B",
"].	c #583E41",
"^.	c #6D5453",
"/.	c #6A524C",
"(.	c #604842",
"_.	c #71564F",
":.	c #775851",
"<.	c #72564C",
"[.	c #B18172",
"}.	c #AE7B6C",
"|.	c #AC796C",
"1.	c #A57669",
"2.	c #A17768",
"3.	c #A47E6D",
"4.	c #9C796D",
"5.	c #856E64",
"6.	c #7D6B63",
"7.	c #807172",
"8.	c #4E3D42",
"9.	c #584546",
"0.	c #989392",
"a.	c #ADA9AB",
"b.	c #837E7F",
"c.	c #776F70",
"d.	c #504041",
"e.	c #453231",
"f.	c #4B423F",
"g.	c #7D827F",
"h.	c #A2A5A7",
"i.	c #A0999A",
"j.	c #716162",
"k.	c #493437",
"l.	c #4A3335",
"m.	c #56403E",
"n.	c #513E39",
"o.	c #664F49",
"p.	c #775B53",
"q.	c #75584F",
"r.	c #BB8C7B",
"s.	c #B48272",
"t.	c #B48273",
"u.	c #AB7B6D",
"v.	c #AA7D6E",
"w.	c #9E7164",
"x.	c #926C68",
"y.	c #938282",
"z.	c #B0AAA9",
"A.	c #A39CA1",
"B.	c #4D3E43",
"C.	c #51403E",
"D.	c #4B4944",
"E.	c #43413B",
"F.	c #4B4943",
"G.	c #282622",
"H.	c #31211E",
"I.	c #462F2C",
"J.	c #4D3F3C",
"K.	c #81827E",
"L.	c #A9ABAB",
"M.	c #ABA7A6",
"N.	c #968989",
"O.	c #715D60",
"P.	c #5B4245",
"Q.	c #4C3331",
"R.	c #442D2A",
"S.	c #644A44",
"T.	c #795851",
"U.	c #73534C",
"V.	c #BF9080",
"W.	c #BD8A78",
"X.	c #B27D6F",
"Y.	c #A67166",
"Z.	c #9D685F",
"`.	c #9E6C65",
" +	c #B19090",
".+	c #C6B9B9",
"++	c #CECDCE",
"@+	c #B8B7BB",
"#+	c #5A4C50",
"$+	c #4F3B3A",
"%+	c #493C3C",
"&+	c #4B4543",
"*+	c #1F1D17",
"=+	c #26231C",
"-+	c #483532",
";+	c #4E3532",
">+	c #554745",
",+	c #949292",
"'+	c #ACA6A6",
")+	c #A89D9C",
"!+	c #948180",
"~+	c #806565",
"{+	c #7A5C5C",
"]+	c #614744",
"^+	c #49342E",
"/+	c #5E4940",
"(+	c #6C5049",
"_+	c #684A44",
":+	c #C2967F",
"<+	c #C5927F",
"[+	c #A46D63",
"}+	c #A9716D",
"|+	c #B47C7A",
"1+	c #A67371",
"2+	c #A47C7F",
"3+	c #AE9697",
"4+	c #BBAEAF",
"5+	c #B7AEB1",
"6+	c #7C6A6E",
"7+	c #573D40",
"8+	c #583B3F",
"9+	c #543A40",
"0+	c #493034",
"a+	c #4B322F",
"b+	c #4D342D",
"c+	c #4E3935",
"d+	c #736665",
"e+	c #AAA3A4",
"f+	c #B1A0A1",
"g+	c #A1898A",
"h+	c #8C706F",
"i+	c #826361",
"j+	c #7B5D5A",
"k+	c #624843",
"l+	c #4B382F",
"m+	c #584538",
"n+	c #6A5245",
"o+	c #765A50",
"p+	c #C59B84",
"q+	c #BB8B7B",
"r+	c #A67267",
"s+	c #9A655B",
"t+	c #A16B66",
"u+	c #9D6667",
"v+	c #9B6669",
"w+	c #9E6F70",
"x+	c #9F7977",
"y+	c #9A7B7B",
"z+	c #8D6E71",
"A+	c #7D5C5D",
"B+	c #775652",
"C+	c #866765",
"D+	c #7D6060",
"E+	c #664A47",
"F+	c #674E49",
"G+	c #725D59",
"H+	c #8D7D7A",
"I+	c #9C8C8D",
"J+	c #997F81",
"K+	c #8B6B6A",
"L+	c #7E5C59",
"M+	c #76544F",
"N+	c #6F4E46",
"O+	c #63453D",
"P+	c #573F33",
"Q+	c #5F493A",
"R+	c #7A5E50",
"S+	c #C39889",
"T+	c #BC8E80",
"U+	c #BB897C",
"V+	c #B88776",
"W+	c #B07D71",
"X+	c #AB7570",
"Y+	c #A7736F",
"Z+	c #A87571",
"`+	c #A87873",
" @	c #A07570",
".@	c #A47C78",
"+@	c #98716B",
"@@	c #957068",
"#@	c #97756D",
"$@	c #94756F",
"%@	c #91726F",
"&@	c #896C6A",
"*@	c #8D6F6E",
"=@	c #927674",
"-@	c #8C6E6E",
";@	c #906C6C",
">@	c #916966",
",@	c #8B625C",
"'@	c #7E544D",
")@	c #7C544A",
"!@	c #724E43",
"~@	c #674A3D",
"{@	c #6C5043",
"]@	c #7F5F54",
"^@	c #CA9D8D",
"/@	c #C49583",
"(@	c #BA897B",
"_@	c #B78278",
":@	c #B4857A",
"<@	c #B08078",
"[@	c #AE7D76",
"}@	c #A87872",
"|@	c #A77A74",
"1@	c #A67B75",
"2@	c #A0736E",
"3@	c #9D706A",
"4@	c #9A6F68",
"5@	c #966D69",
"6@	c #896360",
"7@	c #946C6A",
"8@	c #986D6C",
"9@	c #9D6E6D",
"0@	c #936461",
"a@	c #956660",
"b@	c #9A6A62",
"c@	c #936358",
"d@	c #855C4F",
"e@	c #7E5D4E",
"f@	c #6D5044",
"g@	c #6E5448",
"h@	c #B6877B",
"i@	c #B38379",
"j@	c #AD8078",
"k@	c #AA817A",
"l@	c #AC847E",
"m@	c #AA7C78",
"n@	c #A4746E",
"o@	c #9E6F66",
"p@	c #A1736B",
"q@	c #986F65",
"r@	c #996C63",
"s@	c #A3716A",
"t@	c #98665C",
"u@	c #99695D",
"v@	c #9A6D5F",
"w@	c #926859",
"x@	c #886251",
"y@	c #836353",
"z@	c #B0867A",
"A@	c #A97F6F",
"B@	c #A67B6A",
"C@	c #9E7563",
"D@	c #9D7261",
"E@	c #A17565",
"F@	c #A57267",
"G@	c #9F6C61",
"H@	c #A07163",
"I@	c #9B7361",
"                    . + @ # $ % & * = - ; > , ' ) !         ",
"              ~ { ] ^ / ( _ : < [ } | 1 2 3 4 5 6 7 8 9     ",
"        0 a b { c d e f g h i j k l m n o p q r s t u v w   ",
"    x y z A B C D E F G H I J K L M N O P Q R S T U V W X   ",
"  Y Z `  ...+.@.#.$.%.&.*.=.-.;.>.,.'.).!.~.{.].^./.(._.:.<.",
"[.}.|.1.2.3.4.5.6.7.8.9.0.a.b.c.d.e.f.g.h.i.j.k.l.m.n.o.p.q.",
"r.s.t.u.v.w.x.y.z.A.B.C.D.E.F.G.H.I.J.K.L.M.N.O.P.Q.R.S.T.U.",
"V.W.X.Y.Z.`. +.+++@+#+$+%+&+*+=+-+;+>+,+'+)+!+~+{+]+^+/+(+_+",
":+<+[+}+|+1+2+3+4+5+6+7+8+9+0+a+b+c+d+e+f+g+h+i+j+k+l+m+n+o+",
"p+q+r+s+t+u+v+w+x+y+z+A+B+C+D+E+F+G+H+I+J+K+L+M+N+O+P+Q+R+  ",
"S+T+U+V+W+X+Y+Z+`+ @.@+@@@#@$@%@&@*@=@-@;@>@,@'@)@!@~@{@]@  ",
"    ^@/@(@_@:@<@[@}@|@1@2@3@4@5@6@7@8@9@0@a@b@c@d@e@f@g@    ",
"              h@i@j@k@l@m@n@o@p@q@r@o@s@t@u@v@w@x@y@        ",
"                          z@A@B@C@D@E@F@G@H@I@              ",
"                                                            "};
