/* XPM */
static char *logout_xpm[] = {
/* columns rows colors chars-per-pixel */
"32 32 155 2",
"   c #00550069004E",
".  c #073D091D0691",
"X  c #08570A9F07AA",
"o  c #0AF30D170A17",
"O  c #169300000000",
"+  c #1C8A0E910E50",
"@  c #13B9173E1208",
"#  c #14EF1A5812D1",
"$  c #190F1FDD16E5",
"%  c #1C3E1C241BA5",
"&  c #193B20371727",
"*  c #1DA7256D1AC2",
"=  c #1FEC289D1D19",
"-  c #28770B3304A6",
";  c #257C183A14F8",
":  c #303802B602B6",
">  c #20EB23C71EBE",
",  c #22192B201F13",
"<  c #25BF2556243F",
"1  c #24AE2BC221BD",
"2  c #2CD62CA62B81",
"3  c #26DA31C923B6",
"4  c #296F32E525D1",
"5  c #2F6F3C212B28",
"6  c #3CBA25B425B4",
"7  c #30A03D8F2C55",
"8  c #331732B431B2",
"9  c #35F739883404",
"0  c #3C9D3C303A6D",
"q  c #33B241D52F6B",
"w  c #37A7426B337D",
"e  c #3FA848153B13",
"r  c #3C984C943770",
"t  c #526201970197",
"y  c #5C46029D0294",
"u  c #53781AD40DE3",
"i  c #4BEE3E323C52",
"p  c #63FC03800356",
"a  c #633E11BA11BA",
"s  c #69E712C312C3",
"d  c #7D6600000000",
"f  c #7F071E6D1612",
"g  c #4C79412F3FA2",
"h  c #45E258063F98",
"j  c #466A455B41EF",
"k  c #4ABD49BF45C2",
"l  c #46D058C7405F",
"z  c #4AB652964658",
"x  c #51C445574441",
"c  c #53134C4849EC",
"v  c #555854234FA1",
"b  c #55FB54C051B1",
"n  c #5C9352D050AB",
"m  c #5C265A9456B8",
"M  c #5FBF5E905BA5",
"N  c #4DAD61E346BB",
"B  c #543E64944DC5",
"V  c #58286EE25023",
"C  c #5965705F5159",
"Z  c #6A164B084B08",
"A  c #6300565450C2",
"S  c #66B95A7955A9",
"D  c #6AA65E9D5B28",
"F  c #7C7856D156D1",
"G  c #7E5B5C195BF4",
"H  c #644A62E95E64",
"J  c #62F9694A5D19",
"K  c #6CF960845C23",
"L  c #67F3664F6121",
"P  c #6A9E69DF64FD",
"I  c #6F886DE46939",
"U  c #686D7C1360A9",
"Y  c #708B6568617D",
"T  c #70D96FE06D4A",
"R  c #7619749E6E9F",
"E  c #760A78E56FB5",
"W  c #770A761E728F",
"Q  c #78A5777772A0",
"!  c #7BC97B5A731D",
"~  c #7F6989C878FA",
"^  c #971700000000",
"/  c #99F50073005A",
"(  c #A08B089105A6",
")  c #9ED10D7F0C45",
"_  c #86592BD31706",
"`  c #87C12CF218A7",
"'  c #8D352EF51982",
"]  c #8C7832831DC6",
"[  c #89DF35F02266",
"{  c #A0BC09C2070D",
"}  c #A1630AAF082C",
"|  c #A25C124C124C",
" . c #A8E31A57179D",
".. c #934D46753535",
"X. c #97EA583349EE",
"o. c #9A2566335AA8",
"O. c #811A7FE47BBD",
"+. c #9D4C75566C43",
"@. c #965676BA71C4",
"#. c #9E2F7A577214",
"$. c #A1CF7CD37463",
"%. c #E0CC49E32768",
"&. c #DC6E4B412BA6",
"*. c #DC314EAE31AA",
"=. c #DCEA524F34D9",
"-. c #DD57565E3AC2",
";. c #DDD358C13DA0",
":. c #E1B24F412DB8",
">. c #E40F55BD3518",
",. c #E4545B523C3E",
"<. c #E92E5C2D3BEE",
"1. c #DEC35D6941DE",
"2. c #DF1E60C646C5",
"3. c #DCCC61EB4929",
"4. c #E4795F1C4092",
"5. c #E988601E40AB",
"6. c #E56D62A94485",
"7. c #E2F966B84B22",
"8. c #E73B6AA04DCA",
"9. c #EFBD661346D5",
"0. c #8443829C7CAD",
"q. c #88D586E57F95",
"w. c #87438747837A",
"e. c #8B908A8A83AA",
"r. c #8FC390158D4A",
"t. c #91D88FED8AC4",
"y. c #93B9920E8C3B",
"u. c #932793D39192",
"i. c #9C959AB794BB",
"p. c #9EF09E249976",
"a. c #97BBA32F9177",
"s. c #9FC4A1F599E9",
"d. c #A1E1A0189A60",
"f. c #A5D0A3F99E1B",
"g. c #A8B2A6AEA09E",
"h. c #A764A689A492",
"j. c #A985A7F1A335",
"k. c #ACADAB1CA5E3",
"l. c #AF93AE40AA32",
"z. c #B219B03BAACE",
"x. c #B4A3B36AAE2E",
"c. c #B6FBB5C9B231",
"v. c #B95BB7B1B326",
"b. c #BC1FBB04B6B8",
"n. c #BED1BE24BAD7",
"m. c #D42C96518844",
"M. c #C182C02ABC45",
"N. c #C337C204BE02",
"B. c #C748C643C28B",
"V. c #C984C82AC45E",
"C. c #CAE7CA26C6C2",
"Z. c #CF85CE4BCB0C",
"A. c #D0FCCFCECC0E",
"S. c #D3BDD2B6CF63",
"D. c None",
/* pixels */
"D.D.D.D.D.D.D.D.    D.D.D.D.D.D.D.D.D.D.D.D.D.D.D.D.D.D.D.D.    ",
"D.D.D.D.D.D.D.                                                  ",
"D.D.D.D.D.D.D.    o 0 0 8 8 2 < < > > % # @                     ",
"D.D.D.D.D.D.D.    % h.k.y.! W T P L m c k i .                   ",
"D.D.D.D.D.D.D.    % b.C.c.f.r.0.W I L S b j .                   ",
"D.D.D.D.D.D.      % n.Z.B.b.k.f.r.O.R T L b o       .     .     ",
"D.D.D.D.D.D.      % n.A.V.N.x.z.h.i.e.O.W H @ X o o o o o o     ",
"D.D.D.D.D.D.  u - % b.A.V.N.n.x.h.d.y.e.0.R $ @ # # @ # # #     ",
"D.D.D.D.D.D.  ..` ; v.Z.V.N.n.x.l.f.i.y.e.! = $ & & & & * &     ",
"D.D.D.D.D.D.  X.&.` Y n.B.N.n.x.z.k.f.i.y.0.< $ & & & & * # .   ",
"              o.>.%.' K b.n.n.c.z.k.f.f.f.0.1 $ & & & & * &     ",
"  D $.#.#.#.#.m.,.>.=.] K c.b.c.z.k.f.j.W P 1 $ & & & & * & .   ",
"  $.9.<.<.<.5.,.>.,.,.>.] S l.c.z.k.f.i.M j * $ $ $ $ $ & &     ",
"  +.>.:.:.:.>.>.,.,.6.6.4.[ S j.l.k.f.f.b k = $ $ $ $ $ * &     ",
"  +.<.&.>.>.,.,.,.6.6.7.8.7.[ A f.f.f.T S E , $ $ & $ $ * & .   ",
"  @.,.&.&.*.=.-.;.;.1.3.3.7.3.f n f.i.t.y.q.1 * & * * * = ,     ",
"  G  .( ( ( ( ( ( ( } } } } } p c p.f.d.i.q.5 > * * * * , , .   ",
"  F | ^ / / / ^ ^ / / ^ / ^ y i q.p.d.d.i.q.4 > * * * * , * .   ",
"  F | / / / / / / / / / ^ y g w.i.f.f.d.i.q.3 * * * * * = =     ",
"  Z ) / / ^ / / / / ^ ^ p x w.p.f.k.f.d.i.q., > * * , * , = .   ",
"  6 t t t t t d / / ^ p x u.h.l.z.k.g.d.i.q., , * * * * , *     ",
"  X           a / / p x u.h.x.c.z.l.g.d.d.q.4 > * * * * = =     ",
"              s / p c i.z.v.b.b.x.k.g.f.i.! , , , , , , , = X   ",
"              s p + u.c.M.N.M.v.x.l.g.y.J w 4 4 3 3 1 4 5 4 .   ",
"              : O @ h.V.V.V.M.v.x.s.E e 4 3 4 4 4 3 3 3 q 5 .   ",
"D.D.D.D.D.D.      % c.Z.C.B.M.c.e.z 4 3 3 3 3 3 3 3 3 3 q q X   ",
"D.D.D.D.D.        % n.S.C.N.s.C w 5 7 7 7 5 7 7 7 7 7 q r r o   ",
"D.D.D.D.D.        % N.S.b.~ B l h h l l l l l l h h h h N h o   ",
"D.D.D.D.D.D.      % x.a.U V V V C C C C V V V C C V V V V N o   ",
"D.D.D.D.D.D.D.    X 9 1 , , , , , , , , , , , , , , , , , = .   ",
"D.D.D.D.D.D.D.                                                  ",
"D.D.D.D.D.D.D.                                                  "
};
