/* XPM */
static char *menu_xpm[] = {
/* columns rows colors chars-per-pixel */
"22 22 240 2",
"   c black",
".  c #117B117B117B",
"X  c #15E415E415E4",
"o  c #18EC18EC18EC",
"O  c #192419241924",
"+  c #1EF71EF71EF8",
"@  c #1F9B1F4B1EEA",
"#  c #1F521F4E1F49",
"$  c #148221EA3252",
"%  c #198D2AB03FAA",
"&  c #206A1FB21ED1",
"*  c #2077200A1F85",
"=  c #20F120341F4F",
"-  c #226322632263",
";  c #259F259F259F",
":  c #26F726FC2703",
">  c #28FE28FE28FE",
",  c #382E382E382E",
"<  c #3C293C293C29",
"1  c #3D003D003D00",
"2  c #3D273D353D46",
"3  c #3E353E353E35",
"4  c #3F343E643D64",
"5  c #3F053F093F0E",
"6  c #3F413EF63E9A",
"7  c #204A3646512F",
"8  c #288943D86544",
"9  c #2B364F967C1B",
"0  c #417F3FDA3DD7",
"q  c #4058400E3FB2",
"w  c #438941EA3FED",
"e  c #43F9424B403D",
"r  c #428C4197406B",
"t  c #469246924692",
"y  c #47F147F147F1",
"u  c #4E644E644E64",
"i  c #501F501F501F",
"p  c #50F950F950F9",
"a  c #51D151D151D1",
"s  c #52C552C552C5",
"d  c #538B538B538B",
"f  c #716F6F3C6C8B",
"g  c #7C0B7BDD7BA4",
"h  c #33D65D9F90C3",
"j  c #52AE6EC19124",
"k  c #554B74999AF0",
"l  c #42A66E7CA422",
"z  c #49DE7A4CB591",
"x  c #5A0F7C38A60B",
"c  c #6BD27659833B",
"v  c #6E318AF9AE35",
"b  c #70019157BA26",
"n  c #804895FEB091",
"m  c #7F18964BB2B0",
"M  c #7F2B965EB2C2",
"N  c #7F7596A8B30D",
"B  c #7C2C97FBBA05",
"V  c #7DCC98B7B9AC",
"C  c #7D009940BBD2",
"Z  c #7D7799B6BC49",
"A  c #7E229A61BCF4",
"S  c #569E8FFFD5EA",
"D  c #587D8EF3D19B",
"F  c #5DF895C5DA11",
"G  c #6A0C945DC82D",
"H  c #6E4B9AF3D1A0",
"J  c #6C6BA07AE030",
"K  c #73E397FCC42A",
"L  c #764C9A19C5EB",
"P  c #76CE9A9CC66E",
"I  c #77679B35C707",
"U  c #77EB9BB9C78B",
"Y  c #71409A8ACD13",
"T  c #73029C3DCEB4",
"R  c #74569E27D153",
"E  c #743BA06CD681",
"W  c #76F4A02FD2A6",
"Q  c #7730A06BD2E1",
"!  c #61879ED9E9CE",
"~  c #77D5A10FD386",
"^  c #75DBA12BD62D",
"/  c #756DA17ED76B",
"(  c #757FA18FD77C",
")  c #75A4A1B4D7A2",
"_  c #7617A227D814",
"`  c #70EFA19CDD2F",
"'  c #73ABA385DE14",
"]  c #7366A3D8DF23",
"[  c #73FBA46DDFB8",
"{  c #73C0A47AE01C",
"}  c #641CA216EDEE",
"|  c #6BA9A1EFE418",
" . c #6B45A6B9EF7D",
".. c #6AA3A7B4F271",
"X. c #840681C67F06",
"o. c #8DE38DE38DE3",
"O. c #9DA09DA59DAC",
"+. c #9EB59EB89EBC",
"@. c #A054A054A054",
"#. c #82FD93E9A89F",
"$. c #8500923FA276",
"%. c #87C194F6A521",
"&. c #824194BFAB5F",
"*. c #82EB94B3AA75",
"=. c #83AA9627ACC7",
"-. c #845896D5AD75",
";. c #855297CFAE6F",
":. c #88A195F1A63A",
">. c #8B9D98D2A8FD",
",. c #809997CCB431",
"<. c #82779911B4B9",
"1. c #A1B1A1B1A1B1",
"2. c #A30EA30EA30E",
"3. c #A458A458A458",
"4. c #A55DA395A167",
"5. c #A4ABA4ABA4AB",
"6. c #A5EFA5EFA5EF",
"7. c #A6AFA6AFA6AF",
"8. c #AA13AA13AA13",
"9. c #AB69AB69AB69",
"0. c #AC3DAC3DAC3D",
"q. c #AFCEADFCABC3",
"w. c #ACEFACEFACEF",
"e. c #B559B3C0B1CC",
"r. c #BC05BB84BAE6",
"t. c #BC6FBBC0BAE9",
"y. c #BD49BD49BD49",
"u. c #BEC4BEC4BEC4",
"i. c #8879B02CE0C1",
"p. c #905DAECCD40C",
"a. c #8E20B16ADCA2",
"s. c #9358B143D5E6",
"d. c #9149B226DA64",
"f. c #9EEBBA5ADBF1",
"g. c #8AC7B4C2E82A",
"h. c #8A66B654EC1E",
"j. c #8FE6B921EB98",
"k. c #9574B8E1E43C",
"l. c #9B7DBB4EE243",
"z. c #A6B8B302C20B",
"x. c #B63CC03FCC80",
"c. c #BBF0C8CAD885",
"v. c #C26DC02EBD6D",
"b. c #C47CC240BF86",
"n. c #C4C0C28DBFDB",
"m. c #C561C32EC07E",
"M. c #C640C411C164",
"N. c #C769C537C287",
"B. c #C84AC616C364",
"V. c #C809C7D2C78F",
"C. c #C3D3C667C98F",
"Z. c #C937C703C451",
"A. c #C9A8C77CC4D3",
"S. c #CA4DC819C567",
"D. c #CA40CA40CA40",
"F. c #CC38CC38CC38",
"G. c #CF24CD27CABA",
"H. c #CD1BCD1BCD1B",
"J. c #CE3ECDB0CD02",
"K. c #CE1DCE1DCE1D",
"L. c #CF53CF53CF53",
"P. c #D097D097D097",
"I. c #CB70D41FDEC1",
"U. c #D188D188D188",
"Y. c #D21ED21ED21E",
"T. c #D6BAD491D1EB",
"R. c #D54AD4E0D45E",
"E. c #D73CD57ED35C",
"W. c #D88ED6DAD4C3",
"Q. c #D560D560D560",
"!. c #D8C1D8C1D8C1",
"~. c #D878DBC2DFCB",
"^. c #D99ED830D671",
"/. c #DA70D949D7DF",
"(. c #DAE2D9BBD851",
"). c #DB9ADA73D90A",
"_. c #DCA8DB81DA18",
"`. c #DC54DC54DC54",
"'. c #DD7EDC7EDB45",
"]. c #DE8ADD62DBF9",
"[. c #DF55DE2EDCC4",
"{. c #DD43DD43DD43",
"}. c #DE71DDC3DCEF",
"|. c #DEEBDE3EDD6A",
" X c #E002DEDBDD72",
".X c #DFBBDF0DDE39",
"XX c #E0AEE001DF2E",
"oX c #D44CE0CCF013",
"OX c #C917E13BFE9D",
"+X c #CBB0E28EFE8B",
"@X c #CC4FE3D2FFFF",
"#X c #CFBDE7F3FFFF",
"$X c #D4E4E141F062",
"%X c #DF0DE5F6EE6D",
"&X c #D578E24AF1FC",
"*X c #D702E351F261",
"=X c #D70FE442F454",
"-X c #D130E7CFFFFF",
";X c #E0FEDF69DD7B",
":X c #E17EE0E3E026",
">X c #E496E24FDF86",
",X c #E28FE1E2E10E",
"<X c #E270E270E270",
"1X c #E34DE2A0E1CC",
"2X c #E3C8E31BE247",
"3X c #E3F5E348E274",
"4X c #E468E468E468",
"5X c #E859E773E659",
"6X c #E790E790E790",
"7X c #E895E895E895",
"8X c #E1D8E6E3ED10",
"9X c #E7C1EA24ED10",
"0X c #E92DE92DE92D",
"qX c #EA92EA80EA6B",
"wX c #EBB7EBB7EBB7",
"eX c #EC37EC37EC37",
"rX c #EBE9EE0DF0AC",
"tX c #ECF5ECD6ECB0",
"yX c #ED5CED5CED5C",
"uX c #EE45EE45EE45",
"iX c #EF1BEEF9EECF",
"pX c #EF80EF80EF80",
"aX c #E335EA3EF2DA",
"sX c #E2B9EDBFFB3D",
"dX c #E869F55CFFFF",
"fX c #F140F0DCF062",
"gX c #F2D6F224F14B",
"hX c #F39EF39EF39E",
"jX c #F782F782F782",
"kX c #F8A9F8A9F8A9",
"lX c #F3C2F820FD79",
"zX c #F968F8ADF7C8",
"xX c #FA43FA43FA43",
"cX c #FB30FB30FB30",
"vX c #FA7DFE6EFFFF",
"bX c #FEE9FEE9FEE9",
"nX c #FFEEFFB5FF6F",
"mX c #FFF9FFFFFFFF",
"MX c #FFFFFFFFFFE1",
"NX c gray100",
/* pixels */
". > + + + + + + + + + + + # # # & + ; X     ",
"> {.wXwX7XwXwXwXwXwXyXyXyXyXpXyXpXyX:Xy     ",
"+ 6XP.+.y.).D.F.F.K.K.K.P.P.P.P.P.6XgX<     ",
"+ wXy.y o.D.7.8.8.8.0.w.w.w.w.w.9.R.kX<     ",
"+ wXG.X.q.T.v.b.M.N.N.B.S.A.S.S.B.>XzX<     ",
"+ %Xp.9 v f.K L L L I L U U U L K k.sX0     ",
"& oXF 8 x a.V C A C C C B A A A C | OX6     ",
"& oX! l G g.E ^ ) ) ) ) ) ) ) ^ ^  .+Xw     ",
"# &XD % j s.&.;.-.-.;.;.&.&.&.&.&.] +Xw     ",
"# 9XI.e.V.~.W./.).)._._.'.'. X X{.%XlX1     ",
"# yXr.: g B.+.1.1.7.1.7.7.7.7.+.+.T.nX6     ",
"* yXXXr.K.:X'. X{.{.{.:X;X:X3X:X3XgXnX1     ",
"# rXz.$ c c.$.%.%.%.%.%.%.%.%.%.$.c.nXw     ",
"- &X} z H h.] ] [ ] ] [ [ ] ] [ '  .#Xe     ",
"= =XS 7 k d.<.N N N N N N N N N -.! #Xr     ",
"& aXi.h b l.R W W W W W W T T T Y j.dXr     ",
"+ gXT.f 4.W.b.N.N.N.B.S.A.M.N.M.v.5XnX1     ",
"- ~.kXnXxXxXnXnXnXnXnXnXnXnXnXnXnXnX6X,     ",
"o s u s u s s i s s s s s s d d d s y o     ",
"                                            ",
"                                            ",
"                                            "
};
