/* XPM */
static char * minimize_xpm[] = {
/* columns rows colors chars-per-pixel */
"16 14 2 1",
"  c None",
". c #000000",
"                ",
"                ",
"                ",
"                ",
"                ",
"                ",
"                ",
"                ",
"                ",
"                ",
"   ........     ",
"   ........     ",
"                ",
"                "};
