/* XPM */
static char * paint_xpm[] = {
"20 20 238 2",
"   c #000000000001",
".  c #017300000000",
"X  c #0289009D003B",
"o  c #0234012900E5",
"O  c #033001D70165",
"+  c #03D2024301A6",
"@  c #02AA028402AA",
"#  c #03FD02940244",
"$  c #0440035B032D",
"%  c #069B045003DB",
"&  c #07A404EE03FB",
"*  c #0AD505E50468",
"=  c #0CA2078605DD",
"-  c #0C9A082D063F",
";  c #09BD085B0821",
":  c #0B7C0AC90AA6",
">  c #0EE309F00838",
",  c #0FF30A6D081D",
"<  c #0E3A0D580D2B",
"1  c #0E6914ED1771",
"2  c #130E00000000",
"3  c #134400000000",
"4  c #101F0AEF091F",
"5  c #13D60F0F0D7C",
"6  c #14E10CB709FD",
"7  c #154E0DDE0C0C",
"8  c #17CB0C1C0EE9",
"9  c #1EB90FE40B54",
"0  c #1C150F7B1139",
"q  c #1D710EC811B7",
"w  c #1F720DB0120F",
"e  c #1EE60EF5126F",
"r  c #1F390F361299",
"t  c #141013F913FF",
"y  c #140914131415",
"u  c #1552154B154A",
"i  c #16A416AC16AE",
"p  c #1C3D191C1822",
"a  c #1F5E1F5E1F5E",
"s  c #2A5E13BD0CDE",
"d  c #2218114F1428",
"f  c #231211D4151A",
"g  c #21D5147D105E",
"h  c #212320001FC6",
"j  c #2D77172310A7",
"k  c #2A181AED1648",
"l  c #289C18F11A9C",
"z  c #305F16990F86",
"x  c #341817751009",
"c  c #389F17280DA2",
"v  c #351318001052",
"b  c #335B195111D5",
"n  c #35A2188F1065",
"m  c #31D91AE51EAA",
"M  c #32DF1B2E1F10",
"N  c #3B011B7812E8",
"B  c #3BE51B0C1282",
"V  c #3D341B6A12DD",
"C  c #22272009203E",
"Z  c #3B5A24011CA4",
"A  c #21AC21B421B3",
"S  c #226E226E226E",
"D  c #238E23A223A9",
"F  c #25CF23F62397",
"G  c #2778229522B4",
"H  c #2468246A246A",
"J  c #25F524FC24E8",
"K  c #25992599259A",
"L  c #26B728012844",
"P  c #287328732873",
"I  c #2920292C2930",
"U  c #2A1D2A1D2A1D",
"Y  c #2B9E2B9E2B9E",
"T  c #2D1A2D1A2D1A",
"R  c #2DB82DB82DB8",
"E  c #2E4B2E172E14",
"W  c #3001303A304C",
"Q  c #318A2C1128ED",
"!  c #36B92FE92D2A",
"~  c #315431543154",
"^  c #337433733373",
"/  c #34C434C634C7",
"(  c #35B434FE34DA",
")  c #357D357D357D",
"_  c #38DB38DB38DB",
"`  c #38D23938395C",
"'  c #39F039F039F0",
"]  c #3A573A593A59",
"[  c #402D402F402F",
"{  c #40BA1DB31467",
"}  c #419D1E191452",
"|  c #43461E1E14FD",
" . c #43E91F951586",
".. c #47A71FD015F3",
"X. c #471F2093159F",
"o. c #473D215E1723",
"O. c #4860227A17B9",
"+. c #4D12223516EB",
"@. c #4EE2221414B6",
"#. c #4EE121F2186B",
"$. c #4ED4234D187E",
"%. c #4FA6224E18AE",
"&. c #4FED23B818BA",
"*. c #4FA524351906",
"=. c #4CA128721DBA",
"-. c #50812527199C",
";. c #522F24FA196F",
":. c #53A0255219C5",
">. c #565B25361A0C",
",. c #571C26091A8C",
"<. c #5A3628D81BF9",
"1. c #43B5257E29AE",
"2. c #496F28B52D26",
"3. c #4ACE2AAC2E30",
"4. c #41E1393F3A42",
"5. c #5EE737323ADA",
"6. c #667C3E554131",
"7. c #6BC2402B42EC",
"8. c #5AB444803C2B",
"9. c #409340934093",
"0. c #41EA41EB41EB",
"q. c #454345364531",
"w. c #457F45614557",
"e. c #486B48504842",
"r. c #49D449DD49E0",
"t. c #4B9E4B724B7A",
"y. c #4CBC4CBD4CBE",
"u. c #4E424E414E41",
"i. c #53D146504103",
"p. c #5EBC420D42F5",
"a. c #524C524C524C",
"s. c #538A537D5373",
"d. c #558B55875587",
"f. c #56F856F956F9",
"g. c #581D58165817",
"h. c #58C958CC58CC",
"j. c #5D5B5D495D43",
"k. c #5D6E5D2F5D1A",
"l. c #5DD85DDC5DDE",
"z. c #5F535F3B5F2F",
"x. c #65EE4C40473D",
"c. c #6D1841784415",
"v. c #6D5B47584124",
"b. c #768D489C4A87",
"n. c #7A594D4F439A",
"m. c #7B554FAB459E",
"M. c #729D57575108",
"N. c #7DC0543C5542",
"B. c #6F0660725FB9",
"V. c #700761715F20",
"C. c #61E761E761E7",
"Z. c #642E63D463B6",
"A. c #65EA65E665E6",
"S. c #66FE66FF6701",
"D. c #676D676D676D",
"F. c #69D069F169EF",
"G. c #6AE26A296A29",
"H. c #70996C526AE6",
"J. c #7B3469486628",
"K. c #761E761F761F",
"L. c #772A772E772F",
"P. c #781E781E781F",
"I. c #79CB74CC73CC",
"U. c #78C47667759A",
"Y. c #7B697764760D",
"T. c #7D6E7B6C7B0F",
"R. c #7E1A7E1B7E1B",
"E. c #81423B952922",
"W. c #89C33FB12B9C",
"Q. c #886745603063",
"!. c #8857461D31E2",
"~. c #8D6F478A31B7",
"^. c #8A734D1634D6",
"/. c #8C7D4F8F3777",
"(. c #90454FDC3ADA",
"). c #95BE4CDF3787",
"_. c #9F144E70389A",
"`. c #87B45854480B",
"'. c #8BF256B245F4",
"]. c #9A52563E40B8",
"[. c #98BF5D1E45D0",
"{. c #8543643A5467",
"}. c #8D4C6B6A5DED",
"|. c #9F0364774ED5",
" X c #88D66274620D",
".X c #8ABD6FB16A92",
"XX c #8BFB70776B79",
"oX c #91C86F64627C",
"OX c #98E879B66D68",
"+X c #9742744D724F",
"@X c #9DC07442720A",
"#X c #99E880457DDB",
"$X c #A7805E3F473B",
"%X c #AB2571175AC0",
"&X c #B5FD62ED4BB0",
"*X c #B4E26DB057CE",
"=X c #C58276297AFB",
"-X c #83BA81398063",
";X c #9F6E82757EE1",
":X c #E3119E507D87",
">X c #E4A7A00E7F84",
",X c #820380DC80E4",
"<X c #842484218420",
"1X c #86778349823B",
"2X c #85EE85EB85EB",
"3X c #877F864585DC",
"4X c #8952890388E8",
"5X c #8CC48C808C69",
"6X c #8FC18F458F1C",
"7X c #9088901D9000",
"8X c #93D5932D92F6",
"9X c #9C7D9C409C28",
"0X c #9F8B9F869F84",
"qX c #A7358C25880B",
"wX c #A142A141A141",
"eX c #A422A2B3A239",
"rX c #A766A3DEA391",
"tX c #A60CA5B4A597",
"yX c #A60EA607A605",
"uX c #A6B2A6B2A6B2",
"iX c #AB91AB97AB99",
"pX c #ABB1AB45AB45",
"aX c #AE48AE34AE2D",
"sX c #B20DB1FDB1FD",
"dX c #BCEFBCC9BCBD",
"fX c #C061BE06BD3C",
"gX c #DE3AA24286A6",
"hX c #C4F6C3EBC39C",
"jX c #C997C932C911",
"kX c #CDF4CE33CE35",
"lX c #D867D850D848",
"zX c #D948D948D948",
"xX c #DC03DC08DC09",
"cX c #DE81DE8ADE8B",
"vX c #DFA3DF9EDFA0",
"bX c #E0D2E0D6E0D7",
"nX c #E815E829E82E",
"mX c None",
/* pixels */
"mXmXmXmXmXmXmXmXmXmXmXmXn.v.XXqX@Xb.c.mX",
"mXmXmXmXmXmXmXmXmXmXmXmXx..X;X+XN.5.1.mX",
"mXmXmXmXmXmXmXmXmXmXmXT.B.J.#X X6.3.M 8 ",
"mXmXmXmXmXmXmXmXmXmXY.6XhXrXB.p.3.M d q ",
"mXmXmXmXmXmXmXmXmX  4XdXnXkX-X4.l d q q ",
"mXmXmXmXmXmXmXmXmX3XaXbXzXwXF.t.G q w mX",
"mXmXmXmXmXmXmXmXG.rXlXcXuXD.h.g.E h mXmX",
"mXmXmXmXmXmXmXmX8XjXcXpXD.d.h./ H mXmXmX",
"mXmXmXmXmXmXmXP.iXxXsXF.d.g./ S mXmXmXmX",
"mXmXmXmXmXS z.9XuXuXK.g.d._ P mXmXmXmXmX",
"mXmXmXmXmXq.k.3X9Xz.y.s._ S mXmXmXmXmXmX",
"mXmXmXmX_ z.6Xu.e.s./ ^ H mXmXmXmXmXmXmX",
"mXmXmXmX9.R.K.H i h / P mXmXmXmXmXmXmXmX",
"mXmXmXL z.<X_ i < *   mXmXmXmXmXmXmXmXmX",
"mXmXmXt.Z.q.i : +   + +   - 4 *   mXmXmX",
">XgXi./ W t ; + * = - 6 g j b B %.,.mXmX",
":X{.! F p 5 4 7 g k Z =.O.O.-.-.-.#.mXmX",
"Q 1 8.oXOX}.`.'.].$X*X&XE.:...{  .mXmXmX",
"mXmX^.[.%X|.(.!.!.~.)._.W.<.V mXmXmXmXmX",
"mXmX3   c @.X.n s j N @.-.{ v mXmXmXmXmX"
};
