/* XPM */
static char *paper_xpm[] = {
/* columns rows colors chars-per-pixel */
"18 20 168 2",
"   c black",
".  c #013001300130",
"X  c #03970397038D",
"o  c #091009100910",
"O  c #0B710B710B62",
"+  c #0CEA0CEA0CEA",
"@  c #0F830F830F8B",
"#  c #122012201228",
"$  c #145514551447",
"%  c #188918891873",
"&  c #19401940192B",
"*  c #1A861A861A94",
"=  c #1B571B571B5A",
"-  c #1E041E041E0E",
";  c #1FFE1FFE1FFD",
":  c #21C51DCE19B4",
">  c #20C520C520BA",
",  c #401D3BC2373F",
"<  c #20DC3476494D",
"1  c #274E3F79592A",
"2  c #328C458059D8",
"3  c #3AA249645911",
"4  c #301E4D286B4D",
"5  c #340E4D1E6709",
"6  c #30994DC16BF8",
"7  c #31314E4D6C6B",
"8  c #32D04EE46BF3",
"9  c #30A94E086C72",
"0  c #31344E546C75",
"q  c #34664F866B9D",
"w  c #36CA52176E56",
"e  c #41EE41EE41EE",
"r  c #425B50E16054",
"t  c #55DA53EA51DB",
"y  c #50AC573B5E01",
"u  c #5CD35B0B5928",
"i  c #436B55AC6914",
"p  c #56906496739B",
"a  c #6D546D546D55",
"s  c #70AA70AA7056",
"d  c #77E377A87768",
"f  c #780178017801",
"g  c #7B877B877B82",
"h  c #7CD47CD47C09",
"j  c #7ECB7ECB7E69",
"k  c #7B9885BF908A",
"l  c #89EF89EF8921",
"z  c #8BC48BC48B55",
"x  c #91459145904B",
"c  c #93CE97D29C42",
"v  c #A0EFA0EFA008",
"b  c #A429A429A411",
"n  c #A96DAA5FAB6B",
"m  c #A8C1AA75AC5E",
"M  c #AD32AD32ABCE",
"N  c #AD5DAEB2B02F",
"B  c #AEDFAEDFAD8F",
"V  c #B031B031AF36",
"C  c #B06DB20EB3DC",
"Z  c #B0B5B0A4B090",
"A  c #B152B152B03F",
"S  c #B363B363B243",
"D  c #B354B34DB33F",
"F  c #B4A1B4A1B38E",
"G  c #B43FB43EB3ED",
"H  c #B2CFB435B5AC",
"J  c #B4C8B443B3B5",
"K  c #B595B595B431",
"L  c #B6ABB6ABB5C5",
"P  c #B703B703B666",
"I  c #B7DBB90EBA5F",
"U  c #B811BA4DBCA0",
"Y  c #B8EEB8EEB7C6",
"T  c #BA23BA23B956",
"R  c #BB1ABB1ABA66",
"E  c #BB50BB31BB10",
"W  c #BC16BC16BB5D",
"Q  c #BDD5BDD5BD5C",
"!  c #BF20BF20BE76",
"~  c #C048C048BFC7",
"^  c #C0E2C0E2C01F",
"/  c #C178C178C160",
"(  c #C1C0C1E1C205",
")  c #C287C287C26B",
"_  c #C37EC37EC317",
"`  c #C3CCC3CCC349",
"'  c #C47EC476C46B",
"]  c #C538C52DC512",
"[  c #C5F7C5F7C5B2",
"{  c #C777C777C753",
"}  c #C8AFC8AFC887",
"|  c #C8E7C8E7C8B9",
" . c #C9FEC9FEC9C0",
".. c #CA58CA58CA46",
"X. c #CB2BCB2BCB2B",
"o. c #CBF6CBF5CBF3",
"O. c #CD94CD71CD4E",
"+. c #CE0ECE55CEA6",
"@. c #D22BD22BD0AF",
"#. c #D47FD47FD338",
"$. c #D54BD547D542",
"%. c #D686D686D56C",
"&. c #D6F9D6F9D5E3",
"*. c #DAD8DAD8D9FB",
"=. c #DBA2DBA2DAD4",
"-. c #DEC2DEC2DE2D",
";. c #DF31DF31DEA1",
":. c #E1A1E1A1E135",
">. c #E20FE20FE1AC",
",. c #E45FE45FE27D",
"<. c #E39CE39CE325",
"1. c #E468E468E35D",
"2. c #E498E498E459",
"3. c #E571E571E385",
"4. c #E5BCE5BCE414",
"5. c #E664E664E466",
"6. c #E5AFE5AFE596",
"7. c #E639E639E55E",
"8. c #E757E757E56C",
"9. c #E77CE77CE5F4",
"0. c #E83FE83FE67D",
"q. c #E75BE75BE75C",
"w. c #E89DE89DE748",
"e. c #E840E840E840",
"r. c #E937E937E7B4",
"t. c #E9B6E9B6E816",
"y. c #EA45EA45E8C8",
"u. c #EB32EB32E9D4",
"i. c #EB9FEB9FEA44",
"p. c #EC07EC07EAC1",
"a. c #EC7CEC7CEB54",
"s. c #ED0AED0AEBA6",
"d. c #ED6FED6FEC27",
"f. c #ECF8ECF7ECF5",
"g. c #EE68EE68ED52",
"h. c #EF9DEF9DEE74",
"j. c #EF4BEF4BEF4B",
"k. c #F046F046EEFA",
"l. c #F0F3F0F3EFD4",
"z. c #F178F178F096",
"x. c #F119F119F119",
"c. c #F27AF27AF19D",
"v. c #F310F310F23F",
"b. c #F3BEF3BEF314",
"n. c #F430F430F393",
"m. c #F4FBF4FBF3E3",
"M. c #F535F535F49E",
"N. c #F5ADF5ADF518",
"B. c #F60EF60EF551",
"V. c #F72BF72BF690",
"C. c #F7E6F7E6F76C",
"Z. c #F8ADF8ADF84F",
"A. c #F95DF95DF8C8",
"S. c #F983F983F91E",
"D. c #FA1AFA1AF986",
"F. c #FA95FA95FA38",
"G. c #FB0CFB0CFAB5",
"H. c #FBB1FBB1FB60",
"J. c #FBFDFBFDFB87",
"K. c #FCABFCABFC69",
"L. c #FD08FD08FC8A",
"P. c #FDD1FDD1FDAA",
"I. c #FE14FE14FDDC",
"U. c #FE89FE89FE78",
"Y. c #FF21FF21FEEB",
"T. c #FFB1FFB1FFAC",
"R. c gray100",
"E. c None",
/* pixels */
"E.E.0 0 6 6 6 0 0 0 0 0 0 0 E.E.E.E.",
"E.E.0 0 6 4 6 0 0 0 0 0 0 0 E.E.E.E.",
"E.E.0 4 5 E.0 0 0 E.E.0 0 0 E.E.E.E.",
"e t 3 2 i u y 0 q , E.0 0 0 E.E.E.E.",
"b $.+.I U E H i p f : 5 0 0 E.E.E.E.",
"] T.f.D +.o.( m N D D k 1 <     E.E.",
"] T.e.X.T.f.G ] ] ` ] D c n D f   E.",
"] T.q.X.T.e.X.T.T.T.T.T.T.T.l.X.a   ",
"( T.q.X.T.q.X.T.T.T.T.T.H.T.<.D h = ",
"( T.<.X.T.q.X.T.T.T.H.G.G.G.n.<.b = ",
"^ J.<.{ T.3.X.T.G.G.G.G.C.V.V.V.^ > ",
"! G.;.] J.:.{ T.G.C.V.V.n.l.l.l.Y > ",
"Q m.=.] G.;.{ J.A.m.m.l.l.k.f.k.Y > ",
"E f.$.` V.=.] A.m.m.k.k.f.f.p.f.Y > ",
"Y p.#.^ k.&.( V.l.f.p.p.p.w.w.y.Y > ",
"Y w.@.^ p.#.^ k.p.y.w.3.q.3.3.q.V - ",
"s l h K f.#.^ p.w.3.3.3.3.3.,.3.V > ",
"    # j v x Y p.w.w.w.3.3.3.3.w.K > ",
"E.E.      @ z K D M M V V V V V l % ",
"E.E.E.E.E.O % * = $ * * = * * * $ X "
};
