/* XPM */
static char *paste_xpm[] = {
/* columns rows colors chars-per-pixel */
"22 22 245 2",
"   c black",
".  c #4BAE474C29BD",
"X  c #5CA54F61387B",
"o  c #5D4950C63B44",
"O  c #68AB5552310D",
"+  c #77A671961DC7",
"@  c #6F0D6F0D3BD5",
"#  c #766662F420FB",
"$  c #7CA7642C356C",
"%  c #6E035E6B4604",
"&  c #751D65E04F26",
"*  c #7E4D6BDC4F22",
"=  c #738C6B486000",
"-  c #7AA46B3353E3",
";  c #7ABC6DB959EC",
":  c #7CEB740E643F",
">  c #70F971AE72C7",
",  c #7E6D7B717729",
"<  c #7B247B197B5C",
"1  c #86306E4420C7",
"2  c #8C3E74B824B4",
"3  c #907D7B6C229C",
"4  c #8A9570773FD4",
"5  c #A0746B772876",
"6  c #93F57D742B8B",
"7  c #B4684B8901D5",
"8  c #BA4A44D30421",
"9  c #A2EC7E433DE7",
"0  c #82016D0C4BE0",
"q  c #8AC870A3448B",
"w  c #8D68759B4A8D",
"e  c #97467AAA4527",
"r  c #98037F9452FB",
"t  c #817F779265ED",
"y  c #85C67AB066C6",
"u  c #80CF7AD86F51",
"i  c #88C37CBA6663",
"p  c #8BB27F286942",
"a  c #84187EDD7520",
"s  c #93F671926249",
"d  c #CB52620A3F07",
"f  c #837983593EA3",
"g  c #8EB78EC3327E",
"h  c #9BF885E631C1",
"j  c #9EF69EF5301A",
"k  c #988298823296",
"l  c #9B439B963A81",
"z  c #A5368FCE3768",
"x  c #AF3D823F30D9",
"c  c #AA7683E43CD2",
"v  c #B0549B492F9B",
"b  c #AF269AF93D6F",
"n  c #B2F0868D357D",
"m  c #B6C18B7E3DB2",
"M  c #B7A59D2C3CDD",
"N  c #A3C4A3C41C74",
"B  c #BB3CBB3C163C",
"V  c #BC12BC121BE4",
"C  c #A5F3A5F326AC",
"Z  c #AE48AE482C11",
"A  c #A927A9273483",
"S  c #B6ACB6AC2521",
"D  c #B5A5B5A52FA0",
"F  c #B18CB18C39D8",
"G  c #B99CB99C30D4",
"H  c #9CF684685890",
"J  c #9937993758E1",
"K  c #8AF18AF16077",
"L  c #8C238C237730",
"P  c #8F478F477EFE",
"I  c #910B89607C38",
"U  c #941E941E772C",
"Y  c #9C0590D67C2E",
"T  c #A7408285435F",
"R  c #A65B83D34A06",
"E  c #ABAC874149CC",
"W  c #A240852C570A",
"Q  c #A22089665DD4",
"!  c #AE158AE5508D",
"~  c #B9BB8F754387",
"^  c #BC5F930847E1",
"/  c #BE3D95C34C70",
"(  c #B4DE936F56FF",
")  c #B57492DE59C8",
"_  c #BD0F9B525FCC",
"`  c #A6F48E2962B9",
"'  c #AB92927B6758",
"]  c #B00497706BE1",
"[  c #B46E9BEB7080",
"{  c #B6B69E017CA4",
"}  c #B90BA03D74E2",
"|  c #AEFAAEFA55D3",
" . c #B8CBA5604502",
".. c #BEBAAA9C4280",
"X. c #C046C046432F",
"o. c #BDFDBDFC4F31",
"O. c #BD21A4537900",
"+. c #C28C9A7B553C",
"@. c #C6789E765BFF",
"#. c #C889A0776066",
"$. c #C806A0C75F6A",
"%. c #C57AB373404D",
"&. c #C4E2B17948B5",
"*. c #CA7CB72C4D3A",
"=. c #C83EBC9850AD",
"-. c #CDE8B1B8593E",
";. c #CB12A4326525",
":. c #CC71A7D76AB5",
">. c #CF71A95C6DA6",
",. c #C178A85E7CC7",
"<. c #C539AA4D77DB",
"1. c #C57EAC3A8058",
"2. c #CFDCABF773F2",
"3. c #CCCEAD7C7BF1",
"4. c #D0F4AB2C6F8F",
"5. c #D2BDADF274BC",
"6. c #D5BEB2797BD7",
"7. c #D73CD73C1FC5",
"8. c #CD37CD372B13",
"9. c #C7CEC7CE3C3A",
"0. c #D02AD02A32CF",
"q. c #D4A7D4A72AE8",
"w. c #D445D4453B69",
"e. c #DCF3DCF33155",
"r. c #D955D9553F79",
"t. c #EA23EA232C12",
"y. c #EF04EF043795",
"u. c #EC04EC043E5B",
"i. c #F6CCF6CC2A3C",
"p. c #FFA3FFA323AE",
"a. c #F8FDF8FD30FF",
"s. c #C741C8CF4349",
"d. c #C8A8C8A85789",
"f. c #CB5EC90957F9",
"g. c #DC23DC1F421C",
"h. c #D99BD99B4A47",
"j. c #D23CD23C51B0",
"k. c #DDF4DE3C54B1",
"l. c #C62CC62A68AD",
"z. c #CB02CB0263D8",
"x. c #CB89CB62704B",
"c. c #D7BFD7BF623A",
"v. c #D30AD2AF79BB",
"b. c #DED5DFBF72FB",
"n. c #E4C5E4C541EE",
"m. c #EE6CEE6C4B18",
"M. c #E1C3E1C3561D",
"N. c #EB89EB89565E",
"B. c #ED65ED655BA2",
"V. c #F54FF54F4371",
"C. c #FE25FE254B94",
"Z. c #F397F397525E",
"A. c #E0FFE0FF6197",
"S. c #E5E6E5E66A8B",
"D. c #ECECECED61FB",
"F. c #ED9CEDA06C5D",
"G. c #EF6EEF71777C",
"H. c #FFFFFFFF6A5B",
"J. c #FFFFFFFF773C",
"K. c #8747885C89DC",
"L. c #8F1D8E548C9F",
"P. c #92678FA98AFB",
"I. c #92B892CF8228",
"U. c #94EF94EF8F4E",
"Y. c #9BF297048E37",
"T. c #923E92B6936C",
"R. c #9B909B909693",
"E. c #9ED39F1C9DD3",
"W. c #A47DA47D9E49",
"Q. c #AFACA7F69983",
"!. c #B1CCA6C189B2",
"~. c #B53EAB3F99E2",
"^. c #BDD9AFD49483",
"/. c #BB2FAF2899F6",
"(. c #BD32B0BA987E",
"). c #BED9B1B99A01",
"_. c #A44EA45CA417",
"`. c #AB55AADCA688",
"'. c #AD84ADDDAE67",
"]. c #B0B5B09DB08F",
"[. c #B7F2B221A758",
"{. c #B546B545AB13",
"}. c #B20FB20FB2F1",
"|. c #BC93BCA2B63E",
" X c #BBD1BC08BC4A",
".X c #C225A9B38A27",
"XX c #CA20B0CC852D",
"oX c #C42DB52A9A17",
"OX c #C8EAB8769A1D",
"+X c #CBA4BA4D9A3B",
"@X c #D60EB5A083FA",
"#X c #D925B62B8313",
"$X c #DBA7BBC18BDE",
"%X c #DB51BF589472",
"&X c #C870BC51A551",
"*X c #DD61C1289441",
"=X c #DC39DBFC887D",
"-X c #D6B0C62AA6F4",
";X c #D683C688A92B",
":X c #DA1DCF96BAB9",
">X c #DF6ED44EBE29",
",X c #E318C18793FC",
"<X c #E450C67F9C46",
"1X c #E45ACA6FA40A",
"2X c #E75ACE75AB6F",
"3X c #E939C96AA0CB",
"4X c #EAA5D2E9B28C",
"5X c #EDD0D76DB9DD",
"6X c #E68DE81F8DE9",
"7X c #E315E3509533",
"8X c #F391F38C8801",
"9X c #F124F1678DEA",
"0X c #FC98FCA0826E",
"qX c #FFFFFFFF8B9D",
"wX c #F3EEF4879925",
"eX c #FFFFFFFF9595",
"rX c #FFFFFFFF9D80",
"tX c #E907E968A1F5",
"yX c #EC30ECBAAC2B",
"uX c #EE7BEF53B3CB",
"iX c #F524F5B6A538",
"pX c #FFFFFFFFA6C6",
"aX c #FFFFFFFFAE77",
"sX c #F1C9F2C6BB87",
"dX c #FFFFFFFFB7AD",
"fX c #C38BC39FC422",
"gX c #CC76CC95CD63",
"hX c #D436D03BC878",
"jX c #D314D314CC51",
"kX c #D45ED467D450",
"lX c #DE61D9E9D177",
"zX c #DCBFDC5DDBB2",
"xX c #E5BBDADEC65A",
"cX c #E7F1DFCACF52",
"vX c #E5CADE47DC81",
"bX c #F14ADC8BC287",
"nX c #ED00E5AFD7D3",
"mX c #F379F459C36C",
"MX c #E727E6D4E69E",
"NX c #EB70EBE2EC5A",
"BX c #F60DF320ED09",
"VX c #F508F526F57C",
"CX c #F777F7E0F915",
"ZX c #FF1BFF27FF3C",
"AX c None",
/* pixels */
"AXAXAXAXAXAXAXCXfX'.`.E.zXZXZXZXZXZXAXAXAXAX",
"AXAXAXZXBXcX>X:XL.E._.< I &X^./.lXCXZXAXAXAX",
"AXAXZXxX<._ ) e , gXjXE.X q ) ! w hXZXZXAXAX",
"AXAXnX<.%X3X.X, '.gXgXfXK.& 6.5.R Y VXZXAXAX",
"AXZX-X1.bX<X{ P.fX'.E.T.> % 5.:.! p NXZXAXAX",
"AXZXOXXX5X,X{ = : ; - 0 0 W ;.;.E y NXZXAXAX",
"AXZXOXXX4X$X#X3.2.2.5.4.>.:.@.@.T y MXZXAXAX",
"AXZXOX,.2X#X6.6.5.-.*.*.%.M M +.9 y NXZXAXAX",
"AXZXOXO.1X6.5.2.:.%.6XiXwX9Xb.v 5 : NXZXAXAX",
"AXZX).} <X5.:.:.#...sXdXpXrXeX*.8 s NXZXAXAX",
"AXZX/.[ %X:.:.;.#. .mXaXrXeXqXf.7 d vXZXAXAX",
"AXZX/.] $X;.#.@._ b sX9Xc.d.o.l + 3 !.VXZXAX",
"AXZX/.' @X@.+.+./ z uX8XS.F.F.D.k.s.f kXZXAX",
"AXZX/.` 6.+./ / ~ h yX8Xc.j.s.F A g.g |.CXAX",
"AXZX~.Q 2.^ ^ ~ ~ 6 tXG.k.k.N.Z.m.V.j {.CXAX",
"AXZX~.H :.~ ~ m x 2 7X0XB.h.9.D C e.Z `.VXAX",
"AXZXQ.r ;.m n n x 1 =XF.w.g.n.u.y.a.S W.VXAX",
"AXZX[.w :._ / m c # v.J.Z.n.0.S N 7.V R.VXAX",
"AXZXMXi 4 e $ O X . x.B.8.8.q.t.i.p.B U.VXAX",
"AXAXZXzXU.L I.`.fXI.l.H.C.C.V.w.G k @ _.VXZX",
"AXAXZXZXVXNXVXVXZX{.| z.| J K L R.}.gXMXCXZX",
"AXAXAXAXZXZXZXZXZXjXU P E. XkXMXVXCXZXZXZXAX"
};
