/* XPM */
static char *pdf_xpm[] = {
/* columns rows colors chars-per-pixel */
"22 22 173 2",
"   c black",
".  c red",
"X  c #FC0700",
"o  c #FF0505",
"O  c #FE0900",
"+  c #FF0808",
"@  c #FF0C0C",
"#  c #FE1700",
"$  c #FC1E00",
"%  c #FE1F00",
"&  c #FF1414",
"*  c #FF1919",
"=  c #F92500",
"-  c #F73512",
";  c #F53718",
":  c #F93614",
">  c #F93817",
",  c #F83F1E",
"<  c #FF2121",
"1  c #FF2526",
"2  c #FF2C2C",
"3  c #FF2E2E",
"4  c #FF3838",
"5  c #FF3939",
"6  c #F74425",
"7  c #F84122",
"8  c #FA4727",
"9  c #FD4B2D",
"0  c #F24D31",
"q  c #F35136",
"w  c #F35237",
"e  c #F3583C",
"r  c #FE563A",
"t  c #FF593B",
"y  c #FF4242",
"u  c #FF4B4B",
"i  c #F15A40",
"p  c #FF5555",
"a  c #EE6A52",
"s  c #EF6C55",
"d  c #EE6D56",
"f  c #EF6C57",
"g  c #EF6F5A",
"h  c #F16047",
"j  c #FD694F",
"k  c #FC6A4F",
"l  c #F16B54",
"z  c #F06E59",
"x  c #EF7762",
"c  c #E97B68",
"v  c #E97B69",
"b  c #FF6565",
"n  c #F07964",
"m  c #FA7F6A",
"M  c #FF7E68",
"N  c #EE836F",
"B  c #E78979",
"V  c #F58E7D",
"C  c #FC8A76",
"Z  c #FA8D7A",
"A  c #FF8D7A",
"S  c #979797",
"D  c #EA9788",
"F  c #ED9D8D",
"G  c #FF8A8A",
"H  c #FC9683",
"J  c #F99989",
"K  c #FA9B8B",
"L  c #FF9E9E",
"P  c #FF9F9F",
"I  c #EDA397",
"U  c #EAAA9E",
"Y  c #FEA091",
"T  c #F8AC9F",
"R  c #FFB1B1",
"E  c #FFBEBE",
"W  c #F7C7BF",
"Q  c #DFD1CE",
"!  c #EBC9C2",
"~  c #EECAC5",
"^  c #E7D4D1",
"/  c #EEDAD6",
"(  c #EDDCD9",
")  c #EDDDDB",
"_  c #FFC6C6",
"`  c #FFCEC5",
"'  c #FED5CF",
"]  c #F4D5D0",
"[  c #F3DBD8",
"{  c #F7DFDB",
"}  c #F9DAD4",
"|  c #FFD9D1",
" . c #E7E3E2",
".. c #E4E4E4",
"X. c #E7E8E8",
"o. c #E9E9E9",
"O. c #EAEAEA",
"+. c gray92",
"@. c gray93",
"#. c #EEEEEE",
"$. c #EFEFEF",
"%. c #EFF5F7",
"&. c #EEFFFF",
"*. c #EFFFFF",
"=. c #F5E7E7",
"-. c #F7E8E8",
";. c #F8E9E9",
":. c #FAEBEB",
">. c #FBEDE9",
",. c #FAEDED",
"<. c #FCEEEE",
"1. c #FDEFEF",
"2. c gray94",
"3. c #F0F0F1",
"4. c #F1F1F1",
"5. c gray95",
"6. c #F3F3F3",
"7. c #F0F4F5",
"8. c #F4F3F3",
"9. c #F4F4F4",
"0. c #F4F4F5",
"q. c #F5F4F4",
"w. c gray96",
"e. c gray97",
"r. c #F0F8F9",
"t. c #F3F9F9",
"y. c #F2FBFC",
"u. c azure",
"i. c #F4F9F9",
"p. c #F4FAFA",
"a. c #F5FAFA",
"s. c #F7F8F8",
"d. c #F4FBFC",
"f. c #F5FDFE",
"g. c #F4FEFF",
"h. c #F4FFFF",
"j. c #F5FFFF",
"k. c #F7FFFF",
"l. c #FEF1F1",
"z. c #FFF4F4",
"x. c #FFF5F5",
"c. c #FFF7F7",
"v. c #F8F8F8",
"b. c #F9F9F9",
"n. c #F8F9FA",
"m. c #F9FBFB",
"M. c gray98",
"N. c #FAFBFB",
"B. c #FBFBFB",
"V. c #F8FCFC",
"C. c #F9FDFD",
"Z. c #F9FDFE",
"A. c #F9FEFE",
"S. c #F9FFFF",
"D. c #FAFDFD",
"F. c #FBFDFE",
"G. c #FAFEFF",
"H. c #FBFFFF",
"J. c #FFF8F8",
"K. c #FFF9F9",
"L. c snow",
"P. c #FDFCFB",
"I. c gray99",
"U. c #FDFDFC",
"Y. c #FDFDFD",
"T. c #FDFDFE",
"R. c #FCFFFF",
"E. c #FFFCFC",
"W. c #FFFCFD",
"Q. c #FEFEFE",
"!. c #FEFFFF",
"~. c gray100",
"^. c None",
/* pixels */
"^.S S S S S S S S S S S S S S S S S S S S ^.",
"^.S _ R E L 4 2 * & o . . . . . . . . u S ^.",
"^.S G L L b y 4 3 1 * @ o o o o o o . p S ^.",
"^.S L.L.c.L.L.c.~.L.z.l.1.<.,.,.-.=.=.c.S ^.",
"^.S ~.~.~.~.~.~.| t T D.~.D.D.D.a.s.t.D.S ^.",
"^.S ~.~.~.~.~.~.M X f j.D.M.s.e.w.7.6.e.S ^.",
"^.S ~.~.~.~.~.~.A O z j.D.M.s.e.w.7.o.w.S ^.",
"^.S ~.~.~.~.~.~.` # N j.M.M.e.w.7.,.o.M.S ^.",
"^.S ~.~.~.~.~.~.~.r z D.D.s.s.w.,.O.O.a.S ^.",
"^.S ~.~.~.~.~.~.~.9 = [ D.s.8.%.@.@.@.j.S ^.",
"^.S ~.~.~.~.~.~.' 7 w i %.M.%.+.+.$.$.D.S ^.",
"^.S ~.~.~.~.~.~.K i ~ = I u.7.8.%.;.%.~.S ^.",
"^.S M.D.~.~.B.D.j B *.J - ! ] [ %.%.,.~.S ^.",
"^.S ,.%.8.8.t.{ w Q W V : $ 6 , ^ s.6.~.S ^.",
"^.S 7.9.w.d.j.J ; s x U ) Z 8 v o.s.w.~.S ^.",
"^.S e.M.j.} m : D / y.j.D.j.S S S S S S S ^.",
"^.S M.D.H s 0 c *.D.D.M.M.w.S L.~.~.~.S   ^.",
"^.S D.C a F s  .D.M.M.M.B.w.S w.~.~.S   ^.^.",
"^.S P.j e x ( D.D.L.M.~.~.M.S %.M.S   ^.^.^.",
"^.S ~.~.>.D.~.~.~.~.~.~.~.B.S ..S   ^.^.^.^.",
"^.S ~.~.~.~.~.~.~.~.~.~.~.~.S S   ^.^.^.^.^.",
"^.S S S S S S S S S S S S S S   ^.^.^.^.^.^."
};
