/* XPM */
static char *postscript_xpm[] = {
/* columns rows colors chars-per-pixel */
"22 22 133 2",
"   c black",
".  c gray17",
"X  c gray32",
"o  c gray37",
"O  c #6D6D6D",
"+  c gray43",
"@  c gray45",
"#  c gray46",
"$  c #767676",
"%  c gray47",
"&  c #797979",
"*  c gray49",
"=  c red",
"-  c #FF0202",
";  c #FF0303",
":  c #FF0D0D",
">  c #FF1010",
",  c #FF1818",
"<  c #FF1B1B",
"1  c #FF2525",
"2  c #FF2727",
"3  c #FF3030",
"4  c #FF3333",
"5  c #FF3B3B",
"6  c #FF3E3E",
"7  c #FF4545",
"8  c #FF4D4D",
"9  c #FF6F6F",
"0  c #FF7373",
"q  c #818181",
"w  c #848484",
"e  c gray52",
"r  c #979797",
"t  c #A0A0A0",
"y  c gray64",
"u  c #A9A9A9",
"i  c #B1B1B1",
"p  c #B4B4B4",
"a  c #B7B7B7",
"s  c gray72",
"d  c #B9B9B9",
"f  c #BBBBBB",
"g  c gray74",
"h  c #8DDC8D",
"j  c #FF8686",
"k  c #FFA1A1",
"l  c #C1C1C1",
"z  c gray77",
"x  c gray78",
"c  c #C8C8C8",
"v  c gray79",
"b  c #CBCBCB",
"n  c gray80",
"m  c gray81",
"M  c #CCDFCC",
"N  c gray82",
"B  c #D2D2D2",
"V  c #D5D5D5",
"C  c gray84",
"Z  c #D7D7D7",
"A  c #D7DDD7",
"S  c #D6DBDB",
"D  c #D8D8D8",
"F  c gray85",
"G  c gray86",
"H  c gainsboro",
"J  c #DDDDDD",
"K  c gray87",
"L  c #DFDFDF",
"P  c #D1E7D1",
"I  c #DEE1E1",
"U  c #FFC2C2",
"Y  c #FFC9C9",
"T  c #E0DEE0",
"R  c gray88",
"E  c #E1E1E1",
"W  c #E2E2E2",
"Q  c gray89",
"!  c #E1E6E6",
"~  c #E1E7E7",
"^  c gray90",
"/  c #E6E6E6",
"(  c #E7E7E7",
")  c #E5EAEA",
"_  c #E7EBEB",
"`  c gray91",
"'  c #E9E9E9",
"]  c #EAE8EA",
"[  c #EAEAEA",
"{  c gray92",
"}  c #E8ECEC",
"|  c #ECECEC",
" . c gray93",
".. c #EEEEEE",
"X. c #F5E3E3",
"o. c #F6E5E5",
"O. c #F7E6E6",
"+. c #F8E8E8",
"@. c #F8E9E9",
"#. c #FAE9E9",
"$. c #FAEAEA",
"%. c #FCE9E9",
"&. c gray94",
"*. c #F1F1F1",
"=. c #F1F3F1",
"-. c gray95",
";. c #F3F3F3",
":. c #F4F2F4",
">. c #F4F4F4",
",. c gray96",
"<. c #F6F6F6",
"1. c gray97",
"2. c #F3F8F8",
"3. c #F4FAFA",
"4. c #F5FBFB",
"5. c #F7FCFC",
"6. c #FFF1F1",
"7. c #FFF3F3",
"8. c #FFF5F5",
"9. c #FFF6F6",
"0. c #FFF7F7",
"q. c #F8F8F8",
"w. c gray98",
"e. c #FBFBFB",
"r. c gray99",
"t. c #FDFDFD",
"y. c #FDFEFD",
"u. c #FCFFFF",
"i. c #FEFDFE",
"p. c #FEFEFE",
"a. c #FEFFFE",
"s. c gray100",
"d. c None",
/* pixels */
"d.r r r r r r r r r r r r r r r r r r r r d.",
"d.r U Y 0 7 6 4 2 < : ; ; ; ; ; ; ; ; ; r d.",
"d.r j k 9 8 7 5 3 2 , : ; ; ; ; ; ; ; ; r d.",
"d.r 9.7.9.9.9.7.@.@.O.O.X.X.%.O.O.O.X.X.r d.",
"d.r s.s.s.s.s.K } ) ) ) ! S ! s.4.4.4.2.r d.",
"d.r s.s.s.s.s.( s.s.s.s.:.L Z e.e.;.:.&.r d.",
"d.r s.s.s.s.s.' s.s.e.*.' V G s.e.;.;.' r d.",
"d.r s.s.s.s.s.{ s.s.>.' R N R e.;.;.{ ' r d.",
"d.r s.s.s.s.' x G N x l d u d *.e.*.' ' r d.",
"d.r s.s.s.;.Z R R R G N x g a N { ' { ' r d.",
"d.r s.s.A M s.s.s.s.s.s.s.s.s.e.' V { *.r d.",
"d.r s.' P h s.s.s.s.s.s.s.s.s.s.s.' R ;.r d.",
"d.r e.D ' *.e.;.;.;.;.e.;.;.;.e.;.' G ;.r d.",
"d.r *.x V L ( ( ' ' ' ' ' ( ( ( J N V ;.r d.",
"d.r q.n x y @ @ @ @ @ @ @ @ @ @ u x J s.r d.",
"d.r e.J d o   + w w w * & & r r r r r r r d.",
"d.r e.;.G d a s.s.s.s.s.e.{ r J s.s.s.r r d.",
"d.r q.e.s.*.G e.e.;.{ ( J V r J s.s.r y   d.",
"d.r e.e.e.e.*.*.*.*.*...*.*.r J e.r w   d.d.",
"d.r s.s.e.s.s.s.s.s.s.s.s.s.r R r O   d.d.d.",
"d.r s.s.s.s.s.s.s.s.s.s.s.s.r r X   d.d.d.d.",
"d.r r r r r r r r r r r r r r .   d.d.d.d.d."
};
