/* XPM */
static char *printer_xpm[] = {
/* columns rows colors chars-per-pixel */
"20 20 118 2",
"   c black",
".  c #15D115D11382",
"X  c #215C215C1F4A",
"o  c #23942394300F",
"O  c #289E289E270A",
"+  c #2E472E472CA9",
"@  c #34AB34AB3588",
"#  c #394A394A37A5",
"$  c #396C396C389B",
"%  c #44FF44FF5034",
"&  c #53D553D55435",
"*  c #591859185B66",
"=  c #5DE05DDE6170",
"-  c #633F633C65A0",
";  c #65B265B26C60",
":  c #698669866EE5",
">  c #6F0D6EE37366",
",  c #7398738A7679",
"<  c #76BF76BF79C3",
"1  c #7B967AF37EA1",
"2  c #7E8C7E8C8318",
"3  c #7F597F5988DF",
"4  c #0009937BFFFF",
"5  c #0F8E9A67FFFF",
"6  c #14F68BF7EA0F",
"7  c #1D3687FDF991",
"8  c #201689A6F9CA",
"9  c #27338DC2FA1F",
"0  c #28F38EA3FA11",
"q  c #2E009159FA38",
"w  c #3F5191EEEB42",
"e  c #31959342FA40",
"r  c #32739F6BF561",
"t  c #3FF79693F2E5",
"y  c #71B78FC9BC34",
"u  c #780C936FBCB2",
"i  c #4737B4E6FEA8",
"p  c #4A5CB5D1FE29",
"a  c #5D95AA7AE2B5",
"s  c #7964BAE1EB57",
"d  c #650CC119FE6F",
"f  c #82E282E286A4",
"g  c #8AD88AD98E10",
"h  c #8FD18FD1982A",
"j  c #95CE95CE99C0",
"k  c #9C279C27A09C",
"l  c #87B39C7BBD6C",
"z  c #8B8D9E6CBD4E",
"x  c #95539553A8B2",
"c  c #9B029B03A2E3",
"v  c #A080A080B212",
"b  c #96AFA463BDA5",
"n  c #9FFAA8B4BC81",
"m  c #A150A150A5A8",
"M  c #A3B4A39DAB76",
"N  c #ACD3ACD3AD08",
"B  c #A498A448B269",
"V  c #A7E3A9B1B80F",
"C  c #A474A9C0BA8A",
"Z  c #A8ABA8A7B7B2",
"A  c #AC0BABFAB443",
"S  c #AE61AE55BCC2",
"D  c #B7DDB7DDB791",
"F  c #B456B4CEBE9C",
"G  c #B8C2B8C2B86D",
"H  c #B984B97CBCD8",
"J  c #9933BAE4DD6C",
"K  c #A147BCCFE0A9",
"L  c #B562B55FC5B7",
"P  c #BC3FBC81C467",
"I  c #BEC3BEC3CCE6",
"U  c #B243BFE0D334",
"Y  c #A181C0B5E6BC",
"T  c #8370CE52FFFF",
"R  c #9E35C589EA21",
"E  c #9F41D516FA8F",
"W  c #A6B7C5DADF58",
"Q  c #A9EEC3BBDDD1",
"!  c #ABBBC8E9E0C6",
"~  c #B253C406C65F",
"^  c #BDA4C7A1D6F8",
"/  c #BF81C996D4C9",
"(  c #A555D810FA4D",
")  c #AD43DB36FAE9",
"_  c #B605DEB7FB0F",
"`  c #BEE1E2C7FBBA",
"'  c #C4B8C4B5CCB1",
"]  c #C91AC91AD016",
"[  c #C5DCC5BBD36E",
"{  c #C4ACCA39D51E",
"}  c #CC33CC59D4FC",
"|  c #CFAFCF9FDB02",
" . c #D057D1F6DC7E",
".. c #D1CBD1CBD82D",
"X. c #D4A0D4E0DD39",
"o. c #D8FBD8FCE0CA",
"O. c #C88AD6B0E99E",
"+. c #D7ABD7A7E0E6",
"@. c #D805D8DBE232",
"#. c #DB9FDBD8E30B",
"$. c #E071E071E988",
"%. c #C5F4E68FFCC2",
"&. c #DCB1E214EB92",
"*. c #D79FE383F227",
"=. c #DAE8E64CF35F",
"-. c #E184E184E87C",
";. c #E4E1E4C3EB4F",
":. c #E99AE749EBB5",
">. c #EB32EB45EF22",
",. c #E5FDECD9F56A",
"<. c #EE38EF9EF3DD",
"1. c #EC34F223F861",
"2. c #EFD8F511FA7A",
"3. c #F65DF65DF714",
"4. c #F42EF7FEFBAE",
"5. c #F80FFAACFD30",
"6. c #FE70FEC0FF38",
"7. c None",
/* pixels */
"7.7.7.7.7.I | #.o.o.o.o.o.} Z 7.7.7.7.7.",
"7.7.7.7.7.X.>.6.6.6.6.5.5.;.L 7.7.7.7.7.",
"7.7.7.7.7.X.3.6.6.6.6.5.3.-.F 7.7.7.7.7.",
"7.7.7.7.7.| >.6.6.6.5.4.4.&.S 7.7.7.7.7.",
"7.7.7.7.7.} >.6.5.5.4.2.4.#.A 7.7.7.7.7.",
"7.7.7.7.7.P >.6.5.4.2.1.,.X.M 7.7.7.7.7.",
"7.$ @ - k H >.5.5.2.1.,.,.X.M g & O X 7.",
"< j ] ] ] P &.2.1.,.&.*.&.{ H ] ' [ f * ",
"< X.;.;. .^ *.=.=.*.=.*.*.O.^ | | | P > ",
"j ;.;.>.^ ! %.` ` ` ) ( ( E W ] ~ { | = ",
"H >.>.>.W s T s i p i i i i a U @.@.@.> ",
"A ;.;.:.R r 5 4 4 4 4 4 4 4 6 J :.#.@.2 ",
"y D ] o.R t e 0 9 7 9 0 q e w J X.[ L ; ",
"< D L S B V C b l y u z b C Z Z L L L - ",
"2 I [ c = , 1 1 1 1 1 1 1 1 > : M [ I = ",
"< [ | m < N D D D D D D D D m 1 F | L = ",
"3 L -.} } 3.3.3.3.3.3.3.3.3.>.] ..;.m - ",
"2 g k A :.6.6.6.6.6.6.6.6.6.6.X.M j , * ",
"7.# ; ' 3.6.6.6.6.6.6.6.5.3.3.#.m @ + 7.",
"7.7.x I -.-.-.-.-.-.-.-.-.o.o...h o 7.7."
};
