/* XPM */
static char * print_xpm[] = {
"20 20 174 2",
"  	c None",
". 	c #B0B0B0",
"+ 	c #8F8F8F",
"@ 	c #929292",
"# 	c #969696",
"$ 	c #999999",
"% 	c #A5A5A5",
"& 	c #A3A3A3",
"* 	c #AAAAAA",
"= 	c #747473",
"- 	c #A6A6A6",
"; 	c #F4F4F4",
"> 	c #F5F5F5",
", 	c #F1F1F1",
"' 	c #EAEAEA",
") 	c #E4E4E4",
"! 	c #E1E1E1",
"~ 	c #E2E2E2",
"{ 	c #DBDBDB",
"] 	c #C9C9C8",
"^ 	c #575654",
"/ 	c #9D9D9D",
"( 	c #E3E3E3",
"_ 	c #CFCFCF",
": 	c #C5C5C5",
"< 	c #C9C9C9",
"[ 	c #CACACA",
"} 	c #A2A2A1",
"| 	c #575554",
"1 	c #767675",
"2 	c #EFEFEF",
"3 	c #F3F3F3",
"4 	c #F2F2F2",
"5 	c #D8D8D8",
"6 	c #AAA9A9",
"7 	c #A2A1A1",
"8 	c #C7C7C7",
"9 	c #D4D4D4",
"0 	c #D5D5D5",
"a 	c #DCDCDC",
"b 	c #B0B0AE",
"c 	c #888787",
"d 	c #DDDCDC",
"e 	c #C6C6C6",
"f 	c #858484",
"g 	c #E8E8E8",
"h 	c #E6E6E6",
"i 	c #666461",
"j 	c #AAA9A6",
"k 	c #6B6A6A",
"l 	c #787670",
"m 	c #625F5A",
"n 	c #53524F",
"o 	c #939595",
"p 	c #6A6A6B",
"q 	c #5E5F5F",
"r 	c #5A5B5B",
"s 	c #5D5E5E",
"t 	c #626263",
"u 	c #696969",
"v 	c #585654",
"w 	c #565453",
"x 	c #817E7A",
"y 	c #908D86",
"z 	c #77746E",
"A 	c #4C4944",
"B 	c #585852",
"C 	c #5B5B5A",
"D 	c #C5C7CA",
"E 	c #E3E6E9",
"F 	c #D3D6D8",
"G 	c #C2C3C4",
"H 	c #C3C4C5",
"I 	c #BDBEBF",
"J 	c #B3B4B5",
"K 	c #7D7C79",
"L 	c #6B6964",
"M 	c #6F6C65",
"N 	c #8C8983",
"O 	c #A5A29C",
"P 	c #41403D",
"Q 	c #504F4B",
"R 	c #898886",
"S 	c #868784",
"T 	c #8A8985",
"U 	c #807E7B",
"V 	c #767572",
"W 	c #71706E",
"X 	c #716F6D",
"Y 	c #767571",
"Z 	c #6B6C6A",
"` 	c #72716C",
" .	c #9B9992",
"..	c #B7B4AF",
"+.	c #6F6D66",
"@.	c #403F3C",
"#.	c #8F8E8A",
"$.	c #D5D4D0",
"%.	c #D7D6D0",
"&.	c #D4D2CB",
"*.	c #C7C4BD",
"=.	c #C9C6BF",
"-.	c #C7C5BE",
";.	c #C4C2BB",
">.	c #BFBDB6",
",.	c #BCBAB3",
"'.	c #BDBAB3",
").	c #B9B6AF",
"!.	c #A3A09A",
"~.	c #81807D",
"{.	c #A6A39C",
"].	c #6F6C66",
"^.	c #3D3D3A",
"/.	c #7D7C7A",
"(.	c #CAC8C3",
"_.	c #B8B5AE",
":.	c #B7B4AD",
"<.	c #B4B1AA",
"[.	c #B0ADA6",
"}.	c #ADAAA3",
"|.	c #A4A19A",
"1.	c #A5A29B",
"2.	c #9EB592",
"3.	c #96948E",
"4.	c #767673",
"5.	c #79766F",
"6.	c #58564F",
"7.	c #32312D",
"8.	c #7F7F7F",
"9.	c #696965",
"0.	c #AFACA7",
"a.	c #AFADA6",
"b.	c #ABA8A1",
"c.	c #A3A19A",
"d.	c #64615B",
"e.	c #74716A",
"f.	c #8EF27A",
"g.	c #89867F",
"h.	c #838079",
"i.	c #737069",
"j.	c #69665F",
"k.	c #41403B",
"l.	c #6F6F6F",
"m.	c #66635F",
"n.	c #A9A8A1",
"o.	c #A7A59E",
"p.	c #9E9C95",
"q.	c #9F9D96",
"r.	c #99B08C",
"s.	c #A29F98",
"t.	c #94918A",
"u.	c #484743",
"v.	c #686868",
"w.	c #6D6A66",
"x.	c #75736F",
"y.	c #797671",
"z.	c #7C7974",
"A.	c #7F7C76",
"B.	c #83807B",
"C.	c #807D77",
"D.	c #87847F",
"E.	c #86837E",
"F.	c #918E88",
"G.	c #96948D",
"H.	c #5A5856",
"I.	c #676767",
"J.	c #7F7F7B",
"K.	c #7F7F7C",
"L.	c #797877",
"M.	c #72726F",
"N.	c #757572",
"O.	c #6B6B6A",
"P.	c #666665",
"Q.	c #797979",
"                                        ",
"                                        ",
"          . + @ # $ % & & * =           ",
"          - ; > , ' ) ! ~ { ] ^         ",
"          / ( _ : < < _ [ < } |         ",
"        1 _ 2 3 3 3 3 3 4 5 6 7         ",
"        @ 8 ~ 9 0 0 0 a ! b c d e       ",
"        f g ' h ) ( ( ) h 9 i j k l m   ",
"      n 1 o p q r r s t u v w x y z A   ",
"    B C D E F G H H H I J K L M N O P   ",
"  Q R S T U V W W X X X Y Z `  ...+.@.  ",
"  #.$.%.&.*.=.-.;.>.,.'.,.).!.~.{.].^.  ",
"  /.(.,.)._.:.<.[.}.|.1.2.1.3.4.5.6.7.8.",
"  9.0.a.a.a.b.1.1.c.d.e.f.g.h.i.j.k.l.8.",
"  m.n.o.o.b.|.|.|.|.p.q.r.s.t.M u.v.8.8.",
"  w.x.y.y.z.A.B.C.C.C.D.E.F.G.H.I.8.8.  ",
"        J.J.J.K.J.J.J.L.M.N.O.P.Q.      ",
"                                        ",
"                                        ",
"                                        "};
