/* XPM */
static char *question_xpm[] = {
/* columns rows colors chars-per-pixel */
"46 36 65 1",
"  c #30C241035965",
". c #30C249245965",
"X c #38E34D345965",
"o c #38E351446185",
"O c #410351446185",
"+ c #410359656185",
"@ c #4924596569A6",
"# c #4924596571C6",
"$ c #4924618569A6",
"% c #4924618571C6",
"& c #514469A679E7",
"* c #596569A671C6",
"= c #59656DB679E7",
"- c #596571C68617",
"; c #596571C68E38",
": c #596579E78E38",
"> c #618579E78E38",
", c #69A679E78617",
"< c #618582079658",
"1 c #69A682079658",
"2 c #69A682079E79",
"3 c #69A68A289E79",
"4 c #71C682078E38",
"5 c #71C68A288E38",
"6 c #71C68A289E79",
"7 c #79E78A289658",
"8 c #79E78E389E79",
"9 c #79E79248A699",
"0 c #86179248AEBA",
"q c #86179A69AEBA",
"w c #8E389A69AEBA",
"e c #8E38A289AEBA",
"r c #8E38A289B6DA",
"t c #8E38AAAAB6DA",
"y c #9658A699AEBA",
"u c #9658AAAAB6DA",
"i c #9E79AAAAB6DA",
"p c #9E79AAAABEFB",
"a c #9E79B2CABEFB",
"s c #A699AAAAB6DA",
"d c #A699B2CABEFB",
"f c #A699B2CAC71B",
"g c #A699BAEAC71B",
"h c #AEBABAEAC71B",
"j c #AEBABAEACF3C",
"k c #AEBAC30BCF3C",
"l c #B6DAC71BCF3C",
"z c #B6DAC30BD75C",
"x c #B6DACB2BD75C",
"c c #BEFBCB2BD75C",
"v c #BEFBCB2BDF7D",
"b c #BEFBD34CDF7D",
"n c #C71BCB2BD75C",
"m c #C71BD34CD75C",
"M c #C71BD34CDF7D",
"N c #C71BD75CDF7D",
"B c #C71BDB6CE79D",
"V c #CF3CDB6CE79D",
"C c #CF3CE38DE79D",
"Z c #D75CE38DE79D",
"A c #DF7DE38DE79D",
"S c #E79DEBADEFBE",
"D c #FFFFFBEEFFFF",
"F c gray100",
"G c None",
/* pixels */
"GGGGGGGGGGGGGGGGGGGGGGGGGGGGGGGGGGGGGGGGGGGGGG",
"GGGGGGGGGVmMNNVVVVNMMbccxzkkjkjklznmGGGGGGGGGG",
"GGGGGGGGVVZZZVVVVMMMcccxzkkjhgfaapphcmGGGGGGGG",
"GGGGGGGVVZZZZVVVMMbbvcxzlkjhgfaapputrhmGGGGGGG",
"GGGGGGVZVVVVVVVMMMdi55448ehhfaappurrwwqkGGGGGG",
"GGGGGVmZVVZVVVh4*  $,,,,=  =wapiurrwqqq&sGGGGG",
"GGGGGVmZVVVVVM8osADDDDDDDDl$ -iurrwwwqq6olGGGG",
"GGGGVmZZVVVVMMi,DDDDDDDDDDDDs >rrweqqq99O,GGGG",
"GGGGVmZVVVNMMMf=DDDDSSSDDDDDDs 0ewqqq996* lGGG",
"GGGGVZVVVNMMcvx8hVkhhhfhSDDDDD$>qqq99966- yGGG",
"GGGGVCVBBMMbvcxzkkhhhfaapnDDDDy%qq999663> 7GGG",
"GGGGCVBBMMcccxkkkjhffaappiDDDDs%q99966221 *GGG",
"GGGGVVBMMbcxzkkkjhffaapiuyDDDDs=99966221<X+GGG",
"GGGGVMMMccczzkjhhfaappiuwyDDDD,69663321>>o GGG",
"GGGGMMMccxxkljhhfaaapprr@DDDDD%9963221<>>o GGG",
"GGGGMbccxzkkjjhffaaputw%yDDDDy6866221>>>;o GGG",
"GGGGbccxzkkjhhfaaapuur%=DDDDS6863212>>:;;@ GGG",
"GGGGccxzkkjhhfaaapiur6 ADDDDq66322<>>>;;-+ GGG",
"GGGGxxzkkjhgfaappurrw@5DDDD083322<>>:;;-;+ GGG",
"GGGGxkkkjhgfaapputrw9 ADDDu86322<>>;;;--&+ GGG",
"GGGGkljkhgfaapuurrwe=$DDDM66321>>>;;;----# GGG",
"GGGGkkhhfaaappureewq@yDDDq6221>>>:;;----;o GGG",
"GGGGkhhfaaapuurrwwqq%yDDD3212>>::;;-----;o GGG",
"GGGGhhfaaaputreeeqq991>>>222>>::;-;-----;o GGG",
"GGGGffaappuurweqqq99966321<>>::;---------..GGG",
"GGGGfaaapurrewqqq996@+OO%<>>::;----------..GGG",
"GGGGhapputrwwwqq998==AAAl-:>;-----------%  GGG",
"GGGGhpiutrrwqqq9996*sDDDDw>;------------# *GGG",
"GGGGliurrewqqq99666%sDDDDe;-----------&-O ,GGG",
"GGGGmprwewqqq996632=sDDDDw;------------&  wGGG",
"GGGGGzrwwqqq9966331<-MSSh--------------o XlGGG",
"GGGGGGhwqq99966331<>>:;;--------------O  8GGGG",
"GGGGGGGlw99966322<>>::;-------------&X  ,GGGGG",
"GGGGGGGGmw-16221<<>:;;-----------&%o   4GGGGGG",
"GGGGGGGGGms= Xoo@%%@@@@@++@+ooXX     ,dGGGGGGG",
"GGGGGGGGGGGmmiy77****X     X****77wiGGGGGGGGGG"
};
