/* XPM */
static char *reboot_xpm[] = {
/* columns rows colors chars-per-pixel */
"32 32 115 2",
"   c #0389643C0389",
".  c #022570300225",
"X  c #0DB663AE0DB6",
"o  c #01FE721901FE",
"O  c #030E7B63030E",
"+  c #0D7A72BC0D7A",
"@  c #0BD87C8E0BD8",
"#  c #11F365FD11F3",
"$  c #107076FA1070",
"%  c #16507A401650",
"&  c #19E6710A19E6",
"*  c #18AE7A1918AE",
"=  c #263377F52633",
"-  c #270378832703",
";  c #310379743103",
":  c #4B757E1C4B75",
">  c #03EA825203EA",
",  c #024F8C4E024F",
"<  c #0D1B84F10D1B",
"1  c #043497630434",
"2  c #02309C520230",
"3  c #0D3692630D36",
"4  c #128986271289",
"5  c #16FC8A2416FC",
"6  c #19BC8B4719BC",
"7  c #1503947F1503",
"8  c #167E9EEF167E",
"9  c #1C2A959E1C2A",
"0  c #1C7C9A4C1C7C",
"q  c #0E8BA78E0E8B",
"w  c #0CD7ADEB0CD7",
"e  c #0E58B2FF0E58",
"r  c #14E0A2FE14E0",
"t  c #1489AC8E1489",
"y  c #1B2BA8081B2B",
"u  c #1AE9ADA41AE9",
"i  c #1433B24B1433",
"p  c #2498867F2498",
"a  c #250C8D1F250C",
"s  c #25BD969125BD",
"d  c #2621990C2621",
"f  c #2D0896B12D08",
"g  c #2C569A162C56",
"h  c #36DA8ED236DA",
"j  c #31E4978C31E4",
"k  c #33F49A1033F4",
"l  c #3CC89F113CC8",
"z  c #2713A1FC2713",
"x  c #229FACC9229F",
"c  c #2D02A6212D02",
"v  c #2CCBAB7C2CCB",
"b  c #2355B4D52355",
"n  c #2C10B3352C10",
"m  c #2873BA622873",
"M  c #3478A3393478",
"N  c #33A1A9DA33A1",
"B  c #3CCBA2703CCB",
"V  c #3ACDADE33ACD",
"C  c #423A9E63423A",
"Z  c #4469A2A84469",
"A  c #4B86A5C64B86",
"S  c #4B38B4B14B38",
"D  c #4DB4BF384DB4",
"F  c #509EA853509E",
"G  c #551BAAD6551B",
"H  c #5BE5AE235BE5",
"J  c #559DBDCC559D",
"K  c #5E97B1C15E97",
"L  c #5C8EBBE65C8E",
"P  c #60B5AF9260B5",
"I  c #6686B41C6686",
"U  c #6C95B6FD6C95",
"Y  c #6969C0AB6969",
"T  c #7155B8B17155",
"R  c #7599BB437599",
"E  c #7A7FBDD17A7F",
"W  c #54C8C49C54C8",
"Q  c #59B2C21C59B2",
"!  c #6682C1936682",
"~  c #76C0C5AA76C0",
"^  c #76D0CD5C76D0",
"/  c #7CACC2097CAC",
"(  c #7AB5CEE67AB5",
")  c #818BC02B818B",
"_  c #84B6C25B84B6",
"`  c #85DDCEA185DD",
"'  c #8B75C6248B75",
"]  c #8C89C9418C89",
"[  c #8B9FD24A8B9F",
"{  c #90EBC88C90EB",
"}  c #9458CA089458",
"|  c #9846D1599846",
" . c #9BCED4229BCE",
".. c #9CD7DAED9CD7",
"X. c #9F08E1609F08",
"o. c #A508D596A508",
"O. c #A2FADA11A2FA",
"+. c #ACB4D66AACB4",
"@. c #AA25DA52AA25",
"#. c #B45BDA16B45B",
"$. c #BA10DD31BA10",
"%. c #AAE3E1A5AAE3",
"&. c #C286E157C286",
"*. c #CF21E88BCF21",
"=. c #C959EEB1C959",
"-. c #D56DEDD3D56D",
";. c #DDAEE4F1DDAE",
":. c #DDCBEEFFDDCB",
">. c #D8A7F49CD8A7",
",. c #DA56F1B7DA56",
"<. c #E259ED36E259",
"1. c #EE5DEE9BEE5D",
"2. c #E557F2AFE557",
"3. c #EE1FF719EE1F",
"4. c gray100",
/* pixels */
"1.<.R Z Z Z k k k k k k k k k k k k d d d f a d s 6 6 6 5 A <.1.",
"<.P I R R I I H G G G A F F A A A Z Z A Z l C l l k f s p * ; ;.",
"R R `  .[ ` R R R U I I P P P H G G G H G G G Z Z l l k s p & & ",
"F R ` o.O.[ / R R R U U U U U U U U P H G G G G A Z l k f p %   ",
"A R [ ..[ [ / E E U I P P I +.3.3.@.G H G G G A A Z Z l j p * X ",
"Z R ` [ [ / E R U U I U I G #.4.4.#.A A F A A Z Z Z l k j p * X ",
"Z I / ` / E E U P U H H G F #.4.4.#.C l C Z Z k k k h k j p * X ",
"k I R / E R U &.2.E G G G Z +.4.4.o.l l k j H :.+.j j j j p * X ",
"l G U R E U I :.4.2.E A A Z #.4.4.o.k k f H :.4.*.s k d k p * X ",
"l G I R U I I E 2.4.<.R Z l @.4.4.o.j f H :.4.-.G f f f f p * X ",
"k G I U U U I G E 2.4.:.E l K _ E H f P :.4.-.G s d d f f p * X ",
"k A I I P U H H G E :.4.] l l k k k f ) 4.-.H 9 d d d d f p * X ",
"k A H H P I G G G A R } P Z Z k j k k A / K 9 d s s d s s s * X ",
"f A G G G G H G G Z Z Z Z Z l k j k M g s 9 0 0 7 7 9 9 s a * X ",
"d Z G H o.#.$.#.#.#.I A A Z l l M M M M z S  ...|  . .' f a * # ",
"d l G G 2.4.4.4.4.4._ Z A Z l l k M N c z Y 4.4.4.4.4.2.s 9 * X ",
"d l A H 2.4.4.4.4.4.) A A Z l M j k v x g U 4.4.4.4.4.:.d 9 % X ",
"d l Z F o.#.#.#.#.#.U A A l Z l M M N v c S ........| [ s 8 * X ",
"d l A A F A F A A A Z Z Z Z l B N N N v x u u u t t 8 8 9 9 * X ",
"9 j Z A G F G A F A E ] I Z Z B B M N D ( J y x u u u 8 8 7 * X ",
"6 j l Z A G A G A R :.4.] Z B M M M c ` 4.-.W u u u e e 8 4 % X ",
"6 f l l A A A A R :.4.:.R l L ( ~ J v ! >.4.-.D e i i e q 3 %   ",
"5 s k l Z A A T :.4.<.R l B @.4.4.O.n v W -.4.,.W w e w 3 3 %   ",
"< s j l C Z Z -.4.2.U l l V @.4.4.O.v m u W ,.4.=.e e w q 3 %   ",
"< 9 f k l l Z #.:.U l Z l k @.4.4.o.c n m b D -.X.e e w q 1 $   ",
"< 6 s f k k Z l l l C l l N O.4.4.O.v m u x x t e e w w 2 , $   ",
"< 5 a s k k l l l l l l M c o.4.4.O.x x v u u e e e w 2 2 , O   ",
"> 5 6 s s f f k j j j j k f ] 2.2.[ y u x u e e w w 2 q 2 , O   ",
"@ 4 5 5 p s s f j f s s s f s s s d s 8 r t 8 q 3 2 2 2 , > .   ",
"C $ @ % % p p p p p p p p 6 6 6 6 6 9 7 4 3 3 3 3 3 , , O .   h ",
";.= # + + + % % * * * * * * * % * @ @ @ @ @ @ O O O O . .   - ;.",
"1.;.: X X X X X X X # X X X   X X X   X                 X j ;.1."
};
