/* XPM */
static char * record_xpm[] = {
"24 24 177 2",
"  	c None",
". 	c #000000",
"+ 	c #070201",
"@ 	c #5E2416",
"# 	c #92301A",
"$ 	c #A53116",
"% 	c #A43016",
"& 	c #912F19",
"* 	c #5A1F12",
"= 	c #070200",
"- 	c #1D1D1D",
"; 	c #340E06",
"> 	c #9E2D14",
", 	c #C57361",
"' 	c #DCA397",
") 	c #E5B7AD",
"! 	c #DBA296",
"~ 	c #C37160",
"{ 	c #9B2914",
"] 	c #330D06",
"^ 	c #2D2D2D",
"/ 	c #330E06",
"( 	c #A02B13",
"_ 	c #CF877A",
": 	c #E1ABA1",
"< 	c #E3ADA2",
"[ 	c #E5ADA2",
"} 	c #E5ACA2",
"| 	c #E3ABA1",
"1 	c #DFAAA1",
"2 	c #CC8678",
"3 	c #9B2611",
"4 	c #310C05",
"5 	c #535353",
"6 	c #070100",
"7 	c #982712",
"8 	c #C06756",
"9 	c #DB9D91",
"0 	c #E09D91",
"a 	c #E29E91",
"b 	c #E49E91",
"c 	c #E39D91",
"d 	c #E29D91",
"e 	c #DF9C90",
"f 	c #D99B90",
"g 	c #BB6255",
"h 	c #92220F",
"i 	c #ACACAC",
"j 	c #551B10",
"k 	c #9F2611",
"l 	c #CD7E70",
"m 	c #D88B7D",
"n 	c #DD8B7D",
"o 	c #DE8B7D",
"p 	c #DF8B7D",
"q 	c #DD8A7D",
"r 	c #DA897D",
"s 	c #D6877C",
"t 	c #CA7B6F",
"u 	c #981F0E",
"v 	c #561C13",
"w 	c #686868",
"x 	c #852514",
"y 	c #A22310",
"z 	c #CD7567",
"A 	c #D47768",
"B 	c #D67768",
"C 	c #D77768",
"D 	c #D77668",
"E 	c #D77568",
"F 	c #D67467",
"G 	c #D57467",
"H 	c #CF7366",
"I 	c #C97166",
"J 	c #9B1C0D",
"K 	c #832315",
"L 	c #262626",
"M 	c #FFFFFF",
"N 	c #921F0E",
"O 	c #A3200E",
"P 	c #C35748",
"Q 	c #CC6051",
"R 	c #CE6050",
"S 	c #CE5F50",
"T 	c #CE5E50",
"U 	c #CE5D50",
"V 	c #CC5D50",
"W 	c #C95B50",
"X 	c #BE5146",
"Y 	c #9B190B",
"Z 	c #8A170A",
"` 	c #050505",
" .	c #8E1B0C",
"..	c #9F1C0C",
"+.	c #B23020",
"@.	c #C04437",
"#.	c #C34537",
"$.	c #C44437",
"%.	c #C34437",
"&.	c #C14236",
"*.	c #BF4235",
"=.	c #BD4135",
"-.	c #AC291E",
";.	c #971509",
">.	c #86140A",
",.	c #7C1D11",
"'.	c #96170A",
").	c #A3190B",
"!.	c #B02215",
"~.	c #B7291B",
"{.	c #B7281A",
"].	c #B8271A",
"^.	c #B7261A",
"/.	c #B62619",
"(.	c #B32519",
"_.	c #AA1E13",
":.	c #9D1208",
"<.	c #8E1007",
"[.	c #7B1C14",
"}.	c #4E150D",
"|.	c #8A1208",
"1.	c #981308",
"2.	c #A31409",
"3.	c #AA170B",
"4.	c #AE1A0E",
"5.	c #AE1A0F",
"6.	c #AE190F",
"7.	c #AC180D",
"8.	c #A61309",
"9.	c #9D0F06",
"0.	c #910D05",
"a.	c #830C05",
"b.	c #4F1610",
"c.	c #060100",
"d.	c #7E0E06",
"e.	c #8A0E06",
"f.	c #950E06",
"g.	c #A20F06",
"h.	c #A30E06",
"i.	c #A20D05",
"j.	c #9F0D05",
"k.	c #990B05",
"l.	c #900A04",
"m.	c #840804",
"n.	c #790A04",
"o.	c #060000",
"p.	c #C7C7C7",
"q.	c #1A1A1A",
"r.	c #2A0401",
"s.	c #7D0904",
"t.	c #850904",
"u.	c #8D0A04",
"v.	c #930904",
"w.	c #970903",
"x.	c #960803",
"y.	c #900803",
"z.	c #890602",
"A.	c #810502",
"B.	c #770402",
"C.	c #280301",
"D.	c #2C2C2C",
"E.	c #290301",
"F.	c #760703",
"G.	c #7C0502",
"H.	c #810401",
"I.	c #860401",
"J.	c #850301",
"K.	c #800300",
"L.	c #790200",
"M.	c #720302",
"N.	c #270200",
"O.	c #474747",
"P.	c #4B120F",
"Q.	c #6E0F0C",
"R.	c #730202",
"S.	c #70120F",
"T.	c #050000",
"                                                ",
"                                                ",
"                                                ",
"                  . . . . . .                   ",
"              . + @ # $ % & * = -               ",
"            . ; > , ' ) ) ! ~ { ] ^             ",
"          . / ( _ : < [ } | 1 2 3 4 5           ",
"          6 7 8 9 0 a b c d e f g h 6 i         ",
"        . j k l m n o p o q r s t u v w         ",
"        . x y z A B C D E F G H I J K L M       ",
"        . N O P Q R R S T U V W X Y Z ` M       ",
"        .  ...+.@.#.$.$.%.&.*.=.-.;.>.` M       ",
"        . ,.'.).!.~.{.].^./.(._.:.<.[.L M       ",
"        . }.|.1.2.3.4.5.6.7.8.9.0.a.b.w M       ",
"          c.d.e.f.9.g.h.i.j.k.l.m.n.o.p.M       ",
"          q.r.s.t.u.v.w.x.y.z.A.B.C.w M         ",
"            D.E.F.G.H.I.J.K.L.M.N.O.M M         ",
"              5 o.P.Q.R.R.S.P.T.w M M           ",
"                i w L ` ` L w p.M M             ",
"                    M M M M M M                 ",
"                                                ",
"                                                ",
"                                                ",
"                                                "};
