/* XPM */
static char *remote_xpm[] = {
/* columns rows colors chars-per-pixel */
"16 16 159 2",
"   c #000400040004",
".  c #020F020F020F",
"X  c #09EE09EE09EE",
"o  c #0DCE0DCE0DCE",
"O  c #191E191E191E",
"+  c #308E308E3094",
"@  c #4DB94DB44DAB",
"#  c #4F714F714F71",
"$  c #54A754A754A7",
"%  c #5A915A915A91",
"&  c #61FC61FC61FC",
"*  c #63C3638F6330",
"=  c #64E964E964E9",
"-  c #6A2A6A2A6A2A",
";  c #6ADF6ADF6ADF",
":  c #6E426E426E42",
">  c #729072907290",
",  c #74F174F174F1",
"<  c #766776677667",
"1  c #770D76EB76B7",
"2  c #78E378E378E3",
"3  c #79E779E779E7",
"4  c #7B907B907B90",
"5  c #7D317D317D31",
"6  c #7F7E7F7E7F7E",
"7  c #7FAD7FAD7FAD",
"8  c #2CE16A04C42E",
"9  c #3E2A7925CC4C",
"0  c #3ECB7B85CE02",
"q  c #4583784EC876",
"w  c #40577F5CCF84",
"e  c #48B87724C5D8",
"r  c #53B48C0DD5CF",
"t  c #5BC39419DA9B",
"y  c #5A8F98A2DDD8",
"u  c #6D7E9343CEB5",
"i  c #6285921AD58F",
"p  c #6C239795D69A",
"a  c #732B93A6CB68",
"s  c #76F092AEC93C",
"d  c #766F9567CABC",
"f  c #73F299A7D55E",
"g  c #77649EA5D6EC",
"h  c #71029F1CDC6D",
"j  c #7C3F9D51D0D5",
"k  c #7E109DDDD175",
"l  c #7A8DA466DCE8",
"z  c #810081008100",
"x  c #81CD81CD81CD",
"c  c #83FC83FC83FC",
"v  c #850085008500",
"b  c #860B860B860B",
"n  c #86C786C786C7",
"m  c #893E893E893E",
"M  c #8A3F8A3F8A3F",
"N  c #8ABF8ABF8ABF",
"B  c #8C508C508C50",
"V  c #905090509050",
"C  c #913A913A913A",
"Z  c #92329233922C",
"A  c #952595399555",
"S  c #98FA98FA98FA",
"D  c #9AFB9AFB9AFB",
"F  c #A3F6A3F6A3F6",
"G  c #A695A695A695",
"H  c #A819A819A819",
"J  c #ABD1ABCEABC6",
"K  c #ACD1AB7AA9C4",
"L  c #AEB9ADF8ACEC",
"P  c #AF68AF68AF68",
"I  c #B26DB156AF9F",
"U  c #B135B135B135",
"Y  c #B489B391B1DB",
"T  c #B69BB57DB3D1",
"R  c #B61CB61CB61C",
"E  c #B876B876B876",
"W  c #B8DEB994BAB0",
"Q  c #BBB3BB8BBB51",
"!  c #BC29BC29BC29",
"~  c #BA7FBC1ABE5A",
"^  c #BD1ABD1ABD1A",
"/  c #BE78BE78BE78",
"(  c #BEFCBE02BCBF",
")  c #BF11BEDFBE93",
"_  c #8426A4BCD309",
"`  c #86DDADA9DF77",
"'  c #8BB1AEBBE074",
"]  c #8DFEADE7DBB0",
"[  c #A095B57ED5B1",
"{  c #8664B037E363",
"}  c #8905B19DE33E",
"|  c #8F10B293E31D",
" . c #8CA3B633E61C",
".. c #8E9EB637E4FD",
"X. c #9A4BBA2EE5BC",
"o. c #A189BF18E758",
"O. c #A5A1BE36E22F",
"+. c #95A0C1CEEE1F",
"@. c #9FE0C333EC8C",
"#. c #9EB3C4A3ED48",
"$. c #BF79CE5AE04B",
"%. c #A57BC567EC86",
"&. c #ACDECBCFEFBD",
"*. c #A68ECCDFF1EF",
"=. c #C2E3BFA0BC2E",
"-. c #C1C8C018BD62",
";. c #C187C187C187",
":. c #C25BC25BC25B",
">. c #C389C389C389",
",. c #C854C4FFC1E0",
"<. c #C5BDC5BDC5BD",
"1. c #C87CC87CC87C",
"2. c #C97DC603C23A",
"3. c #CA6AC708C29E",
"4. c #CB57CB56CB54",
"5. c #CAC3CC4CCE24",
"6. c #CE1ECE1ECE1E",
"7. c #CFB1CFB1CFB1",
"8. c #D067D05DD050",
"9. c #D12ED12ED12E",
"0. c #D2D0D2D0D2D0",
"q. c #D335D333D32B",
"w. c #D337D384D448",
"e. c #D377D3E2D49C",
"r. c #D3F3D3D2D3AC",
"t. c #D437D437D437",
"y. c #D58FD58FD58F",
"u. c #D790D790D790",
"i. c #D68BD823D9E3",
"p. c #D92BD92BD92B",
"a. c #DA9EDA9EDA9E",
"s. c #DB52DB55DB5F",
"d. c #DC1ADD97DF02",
"f. c #DD19DCF8DCD2",
"g. c #DD60DD59DD58",
"h. c #DE39DE39DE38",
"j. c #DF01DF29DFD1",
"k. c #E041DFF6DF85",
"l. c #E0B2E0B2E0B2",
"z. c #C34FD187E158",
"x. c #C67ED554E494",
"c. c #CF3FD752E2CF",
"v. c #CAEDD8E6E67A",
"b. c #CD13DB24E7DE",
"n. c #CEA2DC54E888",
"m. c #D41DDB9DE613",
"M. c #DE7FDFE8E167",
"N. c #E13AE13AE13A",
"B. c #E263E253E242",
"V. c #E21EE39AE540",
"C. c #E5FAE5E8E5ED",
"Z. c #E8E3E8E3E8E3",
"A. c #EA10EA10EA10",
"S. c #ECA6ECA4ECA6",
"D. c #EBA2EC71ED80",
"F. c #F0F6F0F6F0F6",
"G. c #F7BCF7BCF7BC",
"H. c gray100",
"J. c None",
/* pixels */
"c v J.J.J.J.> B 2 J.J.J.J.J.J.J.",
"E ! M J.J.D 1.p.L J.J.J.J.J.J.J.",
"G ) c - c E 6.s.!   J.J.J.J.J.J.",
"$ < # 6 ) <.! p.R   J.J.J.J.J.J.",
"J.& : ! B.u.u.h.K =.<.<.3.3.-.A ",
"J.M ! ) s.h.h.c.z.v.b.b.x.$.m.! ",
"2 p.u.h.h.w.M._ } #.*.X.y w ] ) ",
") G.A.9.) L w.j | %.&.%.t w j R ",
"1.A.1.G v # w.d f ' X.o.p e s Y ",
"c M 2 % O 1 p.u 8 0 r h i q d I ",
"      J.U 5.C.O.l {  . .` g [ L ",
"J.J.J.M p.F.D.D.V.M.d.i.5.~ E Z ",
"J.J.J.D 9.u.9.6.h.k.B.h.t.E = + ",
"J.J.J.> M v v Z 9.B.h.h.h.1.- J.",
"J.J.J.J.        = M Z Z 7 #   J.",
"J.J.J.J.J.J.J.J.J.        J.J.J."
};
