/* XPM */
static char * resize_xpm[] = {
"20 20 5 1",
" 	c None",
".	c #000000",
"+	c #FFFFFF",
"@	c #4C4C4C",
"#	c #4B4B4B",
"                    ",
" .................. ",
" . + + + + +   + +. ",
" .+ + + + + +@    . ",
" . + + + + + @+ + . ",
" .+ + + + + +     . ",
" . + + + + + @ + +. ",
" .+ + + + + +@    . ",
" . + + + + +  + + . ",
" .+ + + + + +@    . ",
" . + + + + + @ + +. ",
" .+ + + + + +     . ",
" . + + + + + @  . . ",
" . ## ## ## @.. . . ",
" .  +   +    .... . ",
" .+   +   +   ... . ",
" .  +   +   ..... . ",
" .+   +   +       . ",
" .................. ",
"                    "};
