/* XPM */
static char * restore_xpm[] = {
/* columns rows colors chars-per-pixel */
"16 16 3 1",
" 	c None",
".	c #C0C0C0",
"+	c #000000",
"                ",
"                ",
"     +++++++++  ",
"     +++++++++  ",
"     +       +  ",
"     +       +  ",
"  +++++++++  +  ",
"  +++++++++  +  ",
"  +       +  +  ",
"  +       ++++  ",
"  +       +     ",
"  +       +     ",
"  +       +     ",
"  +++++++++     ",
"                ",
"                "};
