/* XPM */
static char * save_xpm[] = {
"20 20 171 2",
"  	c None",
". 	c #9C9B9A",
"+ 	c #757979",
"@ 	c #916251",
"# 	c #E7734B",
"$ 	c #EB7951",
"% 	c #ADA19B",
"& 	c #9C9E9D",
"* 	c #BBB7A8",
"= 	c #D58F85",
"- 	c #C27373",
"; 	c #9E7566",
"> 	c #E3744E",
", 	c #EC835E",
"' 	c #E6C6BA",
") 	c #E2E1E0",
"! 	c #D9D9D8",
"~ 	c #A2A28A",
"{ 	c #BAB6AB",
"] 	c #9B8073",
"^ 	c #8C5752",
"/ 	c #83716A",
"( 	c #CB8B71",
"_ 	c #EB784F",
": 	c #EC8560",
"< 	c #E8C0B3",
"[ 	c #E1E0DF",
"} 	c #E1E1E0",
"| 	c #C3C3AC",
"1 	c #A6A67E",
"2 	c #797865",
"3 	c #8E8B81",
"4 	c #818686",
"5 	c #BD9281",
"6 	c #EF7B51",
"7 	c #EBA38B",
"8 	c #E9D2CA",
"9 	c #E4E3E1",
"0 	c #E0DFDE",
"a 	c #E4E3E2",
"b 	c #E0DFDC",
"c 	c #BCBCA0",
"d 	c #A7A77E",
"e 	c #6C6C55",
"f 	c #676859",
"g 	c #959A9C",
"h 	c #8C8F8F",
"i 	c #CFCDCC",
"j 	c #E8E7E6",
"k 	c #E3E2E1",
"l 	c #E2E1E1",
"m 	c #E6E4E3",
"n 	c #BBBA9F",
"o 	c #979773",
"p 	c #666651",
"q 	c #767667",
"r 	c #B0B2B1",
"s 	c #8A9294",
"t 	c #76797B",
"u 	c #919697",
"v 	c #999E9F",
"w 	c #E1E1E1",
"x 	c #EAE9E6",
"y 	c #DEDDCF",
"z 	c #A6A67C",
"A 	c #61614D",
"B 	c #939388",
"C 	c #E1E0E0",
"D 	c #E3E2E2",
"E 	c #8F9597",
"F 	c #777E81",
"G 	c #8C9394",
"H 	c #8C9294",
"I 	c #C2C3C3",
"J 	c #E9E8E7",
"K 	c #DDDDD0",
"L 	c #BABAAA",
"M 	c #60604D",
"N 	c #9F9F95",
"O 	c #DEDDDC",
"P 	c #BEC0C0",
"Q 	c #828B8E",
"R 	c #878F93",
"S 	c #595D5E",
"T 	c #909798",
"U 	c #979D9E",
"V 	c #E7E6E4",
"W 	c #76766F",
"X 	c #ADADA4",
"Y 	c #D1D0CC",
"Z 	c #B8BABB",
"` 	c #919899",
" .	c #7F878B",
"..	c #7D878B",
"+.	c #7A8387",
"@.	c #838A8C",
"#.	c #8A9193",
"$.	c #ACB0B0",
"%.	c #DDDDD5",
"&.	c #D8D8D5",
"*.	c #BCBEBF",
"=.	c #848C8E",
"-.	c #80878B",
";.	c #7C8587",
">.	c #737B80",
",.	c #7A8589",
"'.	c #858F94",
").	c #626363",
"!.	c #888E90",
"~.	c #BABDBD",
"{.	c #A6AAAB",
"].	c #909698",
"^.	c #8D9396",
"/.	c #8E9497",
"(.	c #9DA2A3",
"_.	c #9AA0A1",
":.	c #767F82",
"<.	c #7F8A90",
"[.	c #7B858B",
"}.	c #6D7679",
"|.	c #73797A",
"1.	c #8C9393",
"2.	c #8A9092",
"3.	c #868E8F",
"4.	c #D1D5D7",
"5.	c #F7F7F7",
"6.	c #D3D8D9",
"7.	c #9CA0A2",
"8.	c #858A8B",
"9.	c #82898B",
"0.	c #747F82",
"a.	c #788387",
"b.	c #768084",
"c.	c #3E4141",
"d.	c #878F90",
"e.	c #858C8E",
"f.	c #949899",
"g.	c #C2C6C8",
"h.	c #D9DDDE",
"i.	c #EAECED",
"j.	c #E4E9EB",
"k.	c #AEB2B4",
"l.	c #83888A",
"m.	c #8B9091",
"n.	c #575D5E",
"o.	c #515C5F",
"p.	c #2A3033",
"q.	c #62696C",
"r.	c #868F92",
"s.	c #949A9B",
"t.	c #B9BDBF",
"u.	c #969DA0",
"v.	c #C8CCCE",
"w.	c #B0B4B6",
"x.	c #5F6365",
"y.	c #4F5456",
"z.	c #2C2D2D",
"A.	c #7F7F7F",
"B.	c #363A3C",
"C.	c #7A8185",
"D.	c #838B8F",
"E.	c #A6ABAD",
"F.	c #A9AEB0",
"G.	c #8F9496",
"H.	c #5C5F61",
"I.	c #424648",
"J.	c #737A7C",
"K.	c #5C6365",
"L.	c #888888",
"M.	c #787776",
"N.	c #38393A",
"                                        ",
"                                        ",
"                        . +             ",
"                  @ # $ % & * = -       ",
"              ; > , ' ) ! ~ { ] ^       ",
"        / ( _ : < [ } } | 1 2 3         ",
"    4 5 6 7 8 9 0 a b c d e f           ",
"    g h i j k l m j n o p q r s         ",
"    t u v w a m x y z A B C D E F       ",
"      G H I J J K L M N O 0 P Q R       ",
"      S T U 0 V W X Y 0 Z ` Q  ...+.    ",
"        @.#.$.D %.&.*.#.=.-.;.>.,.'.    ",
"        ).G !.~.{.].^./.].(._.:.<.[.}.  ",
"          |.1.2.3.T 4.5.6.7.8.9.0.a.b.  ",
"          c.d.e.f.g.h.i.j.k.l.m.n.o.p.  ",
"            q.r.s.t.T u.v.w.x.y.z.A.A.A.",
"            B.C.D.E.F.l.G.H.z.A.A.A.A.A.",
"              I.J.K.L.M.z.A.A.A.A.      ",
"                  z.N.                  ",
"                                        "};
