/* XPM */
static char *screensaver_xpm[] = {
/* columns rows colors chars-per-pixel */
"22 22 193 2 ",
"   c None",
".  c #00000D",
"X  c #02050C",
"o  c #030615",
"O  c #040619",
"+  c #020C1F",
"@  c #000424",
"#  c #00012B",
"$  c #030829",
"%  c #0B0F2A",
"&  c #0B1026",
"*  c #000432",
"=  c #000433",
"-  c #01063D",
";  c #000B3E",
":  c #011136",
">  c #0B1630",
",  c #101632",
"<  c #212328",
"1  c #222A32",
"2  c #29333F",
"3  c #040945",
"4  c #0E1142",
"5  c #051F4F",
"6  c #151B49",
"7  c #000F5A",
"8  c #000D5E",
"9  c #031355",
"0  c #001C51",
"q  c #001F5F",
"w  c #111750",
"e  c #12195C",
"r  c #0F204F",
"t  c #0C244F",
"y  c #192146",
"u  c #152A4E",
"i  c #1B2D48",
"p  c #07235A",
"a  c #00225F",
"s  c #07255E",
"d  c #07265F",
"f  c #182756",
"g  c #102954",
"h  c #1F265F",
"j  c #2B3240",
"k  c #2B3047",
"l  c #2E3843",
"z  c #27324F",
"x  c #2F3A49",
"c  c #323C4A",
"v  c #2A3851",
"b  c #29345A",
"n  c #011C6F",
"m  c #061E6C",
"M  c #00216A",
"N  c #032769",
"B  c #0F2F69",
"V  c #182B6B",
"C  c #1D3665",
"Z  c #052A70",
"A  c #032A77",
"S  c #082D72",
"D  c #002678",
"F  c #09297F",
"G  c #1A3E7C",
"H  c #2D3E78",
"J  c #34404E",
"K  c #354151",
"L  c #354155",
"P  c #36435C",
"I  c #3C495C",
"U  c #3E4D62",
"Y  c #3D4C65",
"T  c #3E4D66",
"R  c #34406F",
"E  c #3F4F68",
"W  c #3C4C7C",
"Q  c #434843",
"!  c #565A4E",
"~  c #464E51",
"^  c #565F5F",
"/  c #42536A",
"(  c #45546D",
")  c #45576F",
"_  c #4D586F",
"`  c #414E76",
"'  c #404C79",
"]  c #465873",
"[  c #475873",
"{  c #4A5973",
"}  c #4C5D79",
"|  c #4B5D7C",
" . c #002F89",
".. c #063D92",
"X. c #04379B",
"o. c #133C99",
"O. c #1B479F",
"+. c #214789",
"@. c #23408D",
"#. c #27509C",
"$. c #3E5E99",
"%. c #0046AE",
"&. c #1E59AC",
"*. c #2B56AB",
"=. c #415981",
"-. c #455D8C",
";. c #405795",
":. c #4F6482",
">. c #506787",
",. c #556987",
"<. c #5A6D87",
"1. c #556A8C",
"2. c #576D8C",
"3. c #586988",
"4. c #5F6D8E",
"5. c #43639D",
"6. c #5F6F96",
"7. c #576B9E",
"8. c #5D7093",
"9. c #5F779A",
"0. c #607086",
"q. c #657293",
"w. c #637199",
"e. c #637A9D",
"r. c #717F9C",
"t. c #4571B7",
"y. c #065EC9",
"u. c #0464CC",
"i. c #0C65D1",
"p. c #1A7FE2",
"a. c #6C819F",
"s. c #79849D",
"d. c #6E86A3",
"f. c #7281A0",
"g. c #7683A0",
"h. c #7086A2",
"j. c #7487A2",
"k. c #7388A2",
"l. c #748AA7",
"z. c #7F8EA7",
"x. c #788CAD",
"c. c #7890AF",
"v. c #7B91B1",
"b. c #889498",
"n. c #B1B594",
"m. c #8395AF",
"M. c #8897AC",
"N. c #8999AF",
"B. c #8395B1",
"V. c #8F9FB5",
"C. c #8F9FB9",
"Z. c #8FA0B8",
"A. c #96A6BB",
"S. c #91A3BC",
"D. c #9CAABF",
"F. c #B4BAA1",
"G. c #98AAC2",
"H. c #A1AFC2",
"J. c #A3B0C0",
"K. c #A7B1C1",
"L. c #A2B1C6",
"P. c #ABB6C6",
"I. c #A5B5C8",
"U. c #B0B9C5",
"Y. c #B1BCCB",
"T. c #B1BECE",
"R. c #B0BED2",
"E. c #B3C0D0",
"W. c #B6C1D1",
"Q. c #BDC1D3",
"!. c #BCC4D5",
"~. c #BECAD8",
"^. c #CBCEDB",
"/. c #CDD6DF",
"(. c #D0D4DF",
"). c #CFD7E1",
"_. c #CDD6E2",
"`. c #CFD9E4",
"'. c #D3D9E2",
"]. c #D2DAE3",
"[. c #D4DBE4",
"{. c #D5DDE5",
"}. c #D6DDE4",
"|. c #D6DDE5",
" X c #DBE2EA",
".X c #DDE3EB",
"XX c #DEE4EA",
"oX c #E5EAEF",
"OX c #E6EBF0",
"+X c #E9EDF0",
"@X c #EBEEF1",
"#X c #ECEFF2",
"$X c #ECEFF3",
/* pixels */
"                                            ",
"                                            ",
"                                            ",
"          +X$X                              ",
"        +XOX!.Q.^.(.[.|.|.|./.              ",
"        $XY.H o.O.@.;.7.w.g.C.D.K.W.Z.      ",
"        .Xf.F i.p.%. .D M q p r 6 s.v.      ",
"      XX~.W X.y.u.&.5.S G B 0 ; 4 z.e.      ",
"       XV.V *.t...+.-.d =.b.u = k m.:.      ",
"      _.4.m #.$.Z a C t g F.^ # _ j.U       ",
"    ].T.R n A N d 5 { v i n.Q $ 3.<.        ",
"    ].N.w 8 7 9 f : > + ~ ! X , 8.(         ",
"    _.P.q.' h e 3 - = @ & o . z 1.L         ",
"      H.I.L.S.B.r.6.` b y % O P } j         ",
"            0.h.c.l.k.d.9.2.| >.I           ",
"              G.E.A.,.E T / ( T c           ",
"              R.oX`.x.] K x 2 <             ",
"              M.U.J.a.] J l 1               ",
"                                            ",
"                                            ",
"                                            ",
"                                            "
};
