/* XPM */
static char *setting_xpm[] = {
/* columns rows colors chars-per-pixel */
"48 48 185 2",
"   c black",
".  c #160D06",
"X  c #101015",
"o  c #1A1A25",
"O  c #27180B",
"+  c #301F0C",
"@  c #20202C",
"#  c #252533",
"$  c #2E2E3C",
"%  c #36363C",
"&  c #333342",
"*  c #3B3B51",
"=  c #412713",
"-  c #472C13",
";  c #613B1C",
":  c #6C441E",
">  c #72471F",
",  c #754A1F",
"<  c #794E1E",
"1  c #7E511F",
"2  c #6B4120",
"3  c #774921",
"4  c #7C4C23",
"5  c #47474D",
"6  c #444455",
"7  c #43435B",
"8  c #4D4D5B",
"9  c #51515C",
"0  c #545463",
"q  c #50506C",
"w  c #595967",
"e  c #5E5E6C",
"r  c #535371",
"t  c #5D5D7D",
"y  c #685A60",
"u  c #61616D",
"i  c #656571",
"p  c #62627E",
"a  c #696974",
"s  c #6B6B7A",
"d  c #70707B",
"f  c #646483",
"g  c #6A6A86",
"h  c #6C6C8A",
"j  c #72728E",
"k  c #7C7C85",
"l  c #7D7D8A",
"z  c #757591",
"x  c #7A7A93",
"c  c #7E7E99",
"v  c #80531F",
"b  c #814E26",
"n  c #845323",
"m  c #875820",
"M  c #8B5626",
"N  c #8B5B20",
"B  c #905B26",
"V  c #975F28",
"C  c #9D5E21",
"Z  c #936220",
"A  c #9A6323",
"S  c #9B6228",
"D  c #9D6821",
"F  c #AC651D",
"G  c #BB6D19",
"H  c #A36522",
"J  c #A06628",
"K  c #A36B22",
"L  c #A46A28",
"P  c #AB6D24",
"I  c #AA6E29",
"U  c #A57021",
"Y  c #AF7225",
"T  c #AD7029",
"R  c #B37524",
"E  c #B27429",
"W  c #B67A26",
"Q  c #B77829",
"!  c #B97D26",
"~  c #BB7B2A",
"^  c #84684A",
"/  c #C27117",
"(  c #C47418",
")  c #C87B1A",
"_  c #D47F16",
"`  c #E07F0B",
"'  c #BD8128",
"]  c #CC861E",
"[  c #C28429",
"{  c #C58A29",
"}  c #C88421",
"|  c #CA872A",
" . c #CC8C2A",
".. c #C48635",
"X. c #CA8C35",
"o. c #CD932B",
"O. c #D28E2A",
"+. c #D08F31",
"@. c #D3932B",
"#. c #D59B2D",
"$. c #D9932B",
"%. c #D9982C",
"&. c #D29135",
"*. c #DBA32E",
"=. c #E4840B",
"-. c #E48A0E",
";. c #E88C0E",
":. c #E18310",
">. c #E49112",
",. c #E69815",
"<. c #EA9411",
"1. c #EA9C15",
"2. c #FF8501",
"3. c #FF8E06",
"4. c #F88F0A",
"5. c #FD940A",
"6. c #FE990D",
"7. c #FD9D10",
"8. c #EFA316",
"9. c #EBA41A",
"0. c #EBAB1E",
"q. c #EFB01E",
"w. c #F3AB19",
"e. c #FEA414",
"r. c #FFA916",
"t. c #FEAC19",
"y. c #F3B31D",
"u. c #F6B81E",
"i. c #FEB31D",
"p. c #F8BA1E",
"a. c #FEBA21",
"s. c #F2CA2E",
"d. c #FEC125",
"f. c #FEC628",
"g. c #FDCB2B",
"h. c #F3CD30",
"j. c #FCD22D",
"k. c #F3D332",
"l. c #F4D936",
"z. c #FFD430",
"x. c #FDDA34",
"c. c #F7E73C",
"v. c #FCE336",
"b. c #FFE33A",
"n. c #FCEA39",
"m. c #FCF33E",
"M. c #FFEE41",
"N. c #80808B",
"B. c #868696",
"V. c #83839C",
"C. c #8B8BA2",
"Z. c #9191A6",
"A. c #9494AA",
"S. c #9999AE",
"D. c #9D9DB1",
"F. c #A39695",
"G. c #A2A2B4",
"H. c #A6A6B8",
"J. c #A8A8B5",
"K. c #ABABBB",
"L. c #BEB2AC",
"P. c #B0B0BF",
"I. c #AFAFC0",
"U. c #B4B4C3",
"Y. c #B8B8C6",
"T. c #BCBCCA",
"R. c #CFC2B7",
"E. c #D2C5BA",
"W. c #D7CBBF",
"Q. c #C1C1CD",
"!. c #C5C5D1",
"~. c #CACAD5",
"^. c #CECED8",
"/. c #D9CCC1",
"(. c #D4D4DD",
"). c #D8D8DF",
"_. c #DBDBE2",
"`. c #E0E0E6",
"'. c #E4E4E9",
"]. c #E8E8EC",
"[. c #EDEDF1",
"{. c #F2F2F5",
"}. c #F6F6F8",
"|. c #FDFDFD",
" X c None",
/* pixels */
" X X X X X X X XU.Y.Y.T.T.T.Y.U.J.k    X X X X X X X X X X X X X X X X X X X X X X X X X X X X X",
" X X X X X X XY.Y.(._.[.[.[.'.(.T.Y.G.     X X X X X X X X X X X X X X X X X X X X X X X X X X X",
" X X X X X X Xl K.Q.|.|.|.|.|.|.|.'.Y.K.N.     X X X X X X X X X X X X X X X X X X X X X X X X X",
" X X X X X X X  5 K.T.|.|.|.|.|.|.|.|.Q.K.d      X X X X X X X X X X X X X X X X X X X X X X X X",
" X X X X X X X X  d K.Y.|.|.|.|.|.|.|.|.~.K.%    X X X X X X X X X X X X X X X X X X X X X X X X",
" X X X X X X X X X  a G.Y.|.|.|.|.|.|.|.}.Y.Z.     X X X X X X X X X X X X X X X X X X X X X X X",
" X X X X X X X X X    i D.U.}.|.|.|.|.|.|.].G.u      X X X X X X X X X X X X X X X X X X X X X X",
" X X X X X X X X X X    u S.I.}.|.|.|.|.|.}.T.B.     X X X X X X X X X X X X X X X X X X X X X X",
"S.S.l      X X X X X X    u S.~.|.|.|.|.|.}._.S.     X X X X X X X X X X X X X X X X X X X X X X",
"Z.D.A.e      X X X X X X  Z.D._.|.|.|.|.|.|.].A.9      X X X X X X X X X X X X X X X X X X X X X",
"Z.~.Y.C.w      X X X X XC.S._.}.}.}.|.}.}.|.].D.u      X X X X X X X X X X X X X X X X X X X X X",
"C._.{.Y.C.w      X X XC.Z._.{.}.}.}.}.}.{.}.].G.s      X X X X X X X X X X X X X X X X X X X X X",
"C._.{.[.I.C.0      XV.Z.(.[.{.{.{.}.{.{.{.{._.D.s      X X X X X X X X X X X X X X X X X X X X X",
"C.^.[.[.[.H.V.0   V.C.(.[.[.[.[.[.[.[.[.[.[._.A.8      X X X X X X X X X X X X X X X X X X X X X",
"x Y.[.[.[.'.H.c x C.~.].[.[.[.[.[.[.[.[.[.[.~.V.&      X X X X X X X X X X X X X X X X X X X X X",
"z G._.[.].]._.G.V.!.'.].].].].].'.'.].].]._.H.x        X X X X X X X X X X X X X X X X X X X X X",
"h c (._.'.].]._._._.'.].'.].'.].'.'.'.].'.'.P.z %      X X X X X X X X X X X X X X X X X X X X X",
"  z H._._.'._._._.'._.'._.'._._._.'.'._.~.T._.G.z 6    .O.     X X X X X X X X X X X X X X X X X",
"  p z Q._._._._._._._._._._._._._._._.(.U.U.Q._.S.h ^ $.$.!      X X X X X X X X X X X X X X X X",
" X  h c T._._._._._._._._._._._._._.~.Y.T.T.T.!._.F. .%.*.$.U      X X X X X X X X X X X X X X X",
" X  % f x Y.^._._.(._.(._._.(._.).~.T.Q.Q.!.Q.~.R.&.@.c.m.*.O.K      X X X X X X X X X X X X X X",
" X X  7 p j G.T.~._.(.^.^._.^.^.(.~.!.~.~.~.(.E.&.@.l.>.0.m.*. .F      X X X X X X X X X X X X X",
" X X X  @ q f z A.H.I.I.I.H.D.A.!.^.^.^.(.(.E.X.o.l.>.` ` 0.n.#. .D      X X X X X X X X X X X X",
" X X X      & q t t h h h f f f j !.^.(.(.W.X. .k.,.=.5.3.;.0.n.#.{ D      X X X X X X X X X X X",
" X X X X X        & * 7 7 & # X r h Q.^./.X.{ h.1.-.5.6.6.7.;.0.v.o.{ A      X X X X X X X X X X",
" X X X X X X                    o r h L...{ h.8.>.7.e.e.7.7.7.<.q.x.@.[ Z      X X X X X X X X X",
" X X X X X X X X X                o y ~ [ s.8.>.e.e.e.e.r.e.e.e.<.y.x. .[ Z      X X X X X X X X",
" X X X X X X X X X X X X X X X X XL ~ [ s.9.1.t.t.t.t.t.t.t.t.i.r.1.y.k. .~ Z      X X X X X X X",
" X X X X X X X X X X X X X X X X XE ~ { j.y.t.i.i.i.i.a.a.i.t.i.a.t.8.a.j. .[ v      X X X X X X",
" X X X X X X X X X X X X X X X X X  D Q { g.d.p.a.a.a.a.a.a.a.a.p.p.p.w.y.g.{ W N      X X X X X",
" X X X X X X X X X X X X X X X X X    N E [ s.f.a.a.a.f.f.a.a.a.d.d.d.d.y.u.s.' Q m      X X X X",
" X X X X X X X X X X X X X X X X X X    M E ~ f.f.f.f.f.f.f.f.g.f.f.d.f.d.y.a.d.[ E m      X X X",
" X X X X X X X X X X X X X X X X X X X    m T ' d.f.g.g.g.g.z.g.g.g.f.f.a.a.a.a.a.' I v      X X",
" X X X X X X X X X X X X X X X X X X X X    n I ! p.g.z.z.z.z.z.z.f.a.a.a.a.a.a.a.a.~ I 1      X",
" X X X X X X X X X X X X X X X X X X X X X    v I ! p.g.x.x.x.x.g.i.i.i.i.t.t.i.a.a.y.Q L +    X",
" X X X X X X X X X X X X X X X X X X X X X X    1 S W i.g.b.b.b.a.i.t.t.5.3.2.2.e.t.i.9.L <     ",
" X X X X X X X X X X X X X X X X X X X X X X X    1 J R t.z.b.b.t.t.t.e.6.5.e.7.2.r.t.i.R N     ",
" X X X X X X X X X X X X X X X X X X X X X X X X    < S Y w.z.M.t.e.t.a.2.3.7.t.3.6.r.r.} S     ",
" X X X X X X X X X X X X X X X X X X X X X X X X X    , S P e.j.e.e.t.g.2.2.3.7.5.5.e.r.] S     ",
" X X X X X X X X X X X X X X X X X X X X X X X X X X    , V P 8.e.e.e.x.e.2.2.5.6.6.e.e.R M     ",
" X X X X X X X X X X X X X X X X X X X X X X X X X X X    > V K 7.7.6.a.b.a.i.r.6.6.6.6.A 3     ",
" X X X X X X X X X X X X X X X X X X X X X X X X X X X X    : B J 5.6.6.e.i.r.e.6.6.6.) M -     ",
" X X X X X X X X X X X X X X X X X X X X X X X X X X X X X    : M H 5.5.5.5.5.5.6.6.] M 1       ",
" X X X X X X X X X X X X X X X X X X X X X X X X X X X X X X    : n A =.5.5.3.5.5.( v n .       ",
" X X X X X X X X X X X X X X X X X X X X X X X X X X X X X X X    ; b n C G / H M n 3 .        X",
" X X X X X X X X X X X X X X X X X X X X X X X X X X X X X X X X    O ; 4 b b 4 2 =          X X",
" X X X X X X X X X X X X X X X X X X X X X X X X X X X X X X X X X                         X X X",
" X X X X X X X X X X X X X X X X X X X X X X X X X X X X X X X X X X X                   X X X X"
};
