/* XPM */
static char *snapshot_xpm[] = {
/* columns rows colors chars-per-pixel */
"51 26 257 2",
"   c #000000",
".  c #15130D",
"X  c #1A180F",
"o  c #18160D",
"O  c #161513",
"+  c #211E14",
"@  c #3A201F",
"#  c #28251B",
"$  c #2C2924",
"%  c #302E29",
"&  c #3D2629",
"*  c #3C2B2E",
"=  c #3C2E31",
"-  c #34322D",
";  c #432C2B",
":  c #432B25",
">  c #422D31",
",  c #4A2E32",
"<  c #412531",
"1  c #45312D",
"2  c #4B332D",
"3  c #4C392C",
"4  c #433234",
"5  c #433439",
"6  c #423C36",
"7  c #443B3C",
"8  c #4B3334",
"9  c #49353B",
"0  c #4B3934",
"q  c #493B3B",
"w  c #513433",
"e  c #523D34",
"r  c #543C3C",
"t  c #593C3D",
"y  c #443740",
"u  c #4A3C43",
"i  c #453C41",
"p  c #563E48",
"a  c #593C41",
"s  c #563D41",
"d  c #4E413F",
"f  c #554233",
"g  c #54423B",
"h  c #5D4336",
"j  c #5A443C",
"k  c #63463C",
"l  c #67483B",
"z  c #4D4344",
"x  c #4B4943",
"c  c #544242",
"v  c #57484F",
"b  c #5C4343",
"n  c #5A4449",
"m  c #5C4B4B",
"M  c #55444B",
"N  c #5F4B58",
"B  c #564852",
"V  c #5C5354",
"C  c #5C5A54",
"Z  c #5C5D58",
"A  c #5E6460",
"S  c #634643",
"D  c #634A43",
"F  c #624C4B",
"G  c #684742",
"H  c #6A4C42",
"J  c #694E4B",
"K  c #654C50",
"L  c #665044",
"P  c #6D5245",
"I  c #6B524A",
"U  c #6A554C",
"Y  c #665857",
"T  c #645A59",
"R  c #6A5A5B",
"E  c #695552",
"W  c #714D44",
"Q  c #72544B",
"!  c #73584C",
"~  c #7A564D",
"^  c #7A594D",
"/  c #755A53",
"(  c #725C5B",
")  c #795652",
"_  c #7B5C53",
"`  c #7B5D5B",
"'  c #735752",
"]  c #725D60",
"[  c #64625D",
"{  c #7B6153",
"}  c #7C605A",
"|  c #756258",
" . c #6A6263",
".. c #706061",
"X. c #74686D",
"o. c #7A6260",
"O. c #796966",
"+. c #7C6D6B",
"@. c #726869",
"#. c #796C71",
"$. c #76716E",
"%. c #7A7774",
"&. c #82574D",
"*. c #835B4D",
"=. c #885C4E",
"-. c #835C53",
";. c #885C52",
":. c #925C53",
">. c #85604E",
",. c #846254",
"<. c #82625A",
"1. c #85695D",
"2. c #8B6154",
"3. c #8A645C",
"4. c #8B695D",
"5. c #94635C",
"6. c #926A5B",
"7. c #99655C",
"8. c #996A5E",
"9. c #98705F",
"0. c #836362",
"q. c #826865",
"w. c #856D6B",
"e. c #8B6561",
"r. c #8C6B63",
"t. c #8A6D6C",
"y. c #8C7165",
"u. c #8B716B",
"i. c #84726F",
"p. c #8D7272",
"a. c #897875",
"s. c #8B7C79",
"d. c #837675",
"f. c #946662",
"g. c #95656A",
"h. c #926C64",
"j. c #936C6A",
"k. c #9B6464",
"l. c #9A6C62",
"z. c #9B6C6A",
"x. c #9B6569",
"c. c #957066",
"v. c #94716B",
"b. c #9B7264",
"n. c #9B736A",
"m. c #9B796D",
"M. c #937372",
"N. c #937778",
"B. c #937D7C",
"V. c #9C7470",
"C. c #9C7972",
"Z. c #9C7B79",
"A. c #A16D63",
"S. c #A26D6A",
"D. c #A27365",
"F. c #A3736B",
"G. c #A27866",
"H. c #A57B6A",
"J. c #A97469",
"K. c #AB7B6C",
"L. c #A47672",
"P. c #A27C73",
"I. c #A47D7A",
"U. c #A87572",
"Y. c #AB7B73",
"T. c #AA7E78",
"R. c #B17D6E",
"E. c #B27E70",
"W. c #B87F7D",
"Q. c #B27C78",
"!. c #847D83",
"~. c #967F81",
"^. c #8D807C",
"/. c #95827D",
"(. c #9B827C",
"). c #9E897F",
"_. c #AD806F",
"`. c #A38175",
"'. c #A4837B",
"]. c #A3887D",
"[. c #AC8474",
"{. c #AB837B",
"}. c #AA8877",
"|. c #AC8A7C",
" X c #B38374",
".X c #B3847A",
"XX c #B68B7C",
"oX c #B98575",
"OX c #B8847B",
"+X c #BB8B7D",
"@X c #BF907B",
"#X c #C18E7A",
"$X c #C1957F",
"%X c #8C8084",
"&X c #8E9895",
"*X c #928484",
"=X c #948887",
"-X c #948E8B",
";X c #9C8581",
":X c #9B8982",
">X c #9A8C8B",
",X c #998388",
"<X c #948A90",
"1X c #949895",
"2X c #9C9B9A",
"3X c #979398",
"4X c #A38B82",
"5X c #A58C8D",
"6X c #AA8680",
"7X c #AA8B82",
"8X c #A58485",
"9X c #AD8E91",
"0X c #A89288",
"qX c #A39C9C",
"wX c #AD9A9C",
"eX c #A69395",
"rX c #B28D85",
"tX c #BC8D80",
"yX c #B58785",
"uX c #B59388",
"iX c #BE9184",
"pX c #B9978E",
"aX c #B49186",
"sX c #B09690",
"dX c #B89E9E",
"fX c #B59A9A",
"gX c #AB9FA0",
"hX c #A29EA4",
"jX c #B29FA1",
"kX c #A2A9A9",
"lX c #AAA4A4",
"zX c #ADA8A7",
"xX c #ACABAA",
"cX c #A6A4A5",
"vX c #AEAFB0",
"bX c #B4ADAD",
"nX c #BCAFAF",
"mX c #B1A6A5",
"MX c #B5B2B5",
"NX c #BEBABD",
"BX c #C29484",
"VX c #C69789",
"CX c #C49983",
"ZX c #C5998B",
"AX c #CA9D8C",
"SX c #CC9984",
"DX c #C99F93",
"FX c #CDA289",
"GX c #CBA092",
"HX c #C2B3B3",
"JX c #C2BFBF",
"KX c #C6C6C8",
"LX c #CFCCCC",
"PX c #C9C4C5",
"IX c #D2D2D3",
"UX c gray96",
"YX c None",
/* pixels */
"YXYXYXYXYXYXYXYXYXYXYXYXYXYX7X].P.P.'.H.b.b.j.n.V.C.C.'.`.C.m.m.m.C.(.}.}.H.n.b.b.5.;.=.2.*.YXYXYXYXYX",
"YXYXYXYXYXYXYXYXYXYXYX|.|.`.P.V.h.h.4.r.v.m.m.C.I.6X4X].|.).v.6.r.r.4.n.m.m.D.b.b.4.2.*.*.;.2.4.YXYXYX",
"YXYXYXYXYXYXYXYXrXrX7XP.(.v.r.4.3.j.n.V.`.'.Z.Z.7XsX0X4X:X4X4XN.h.r.4.r.6.4.6.h.9.6.1.^ ^ ,.3.1.<.YXYX",
"YXYXYXYXYXYXuXpXuX7XZ.C.c.c.r.r.n.{.].7X].)./.a.%X=X>X:X^.a.s.a.p.<.q.u.v.1.-.1.,.4.4.,.,.,.-.-.-.{ YX",
"YXYXYXYX|.}.|.uX|.`.C.v.4.h.m.C.P.4X4X;X/.^.+.V V  .X.X. .T T Y ` ( o.w.t.} <._ ! { { { ,.^ ^ ^ _ _ YX",
"YXYXYX XXX[._.|.P.n.n.c.h.c.m.'.7X(./.s.+.@.#. .= i 9 7 4 * 5 7 q M Y O.} ` <.1.| / U U _ { -._ ~ ^ Q ",
"YX[._. X X[.b.9.6.3.6.c.n.m.6.C.;Xi. .m 6 = V d.i 7 5 4 = * 5 z q 5 = 7 c m E o.} q./ I J _ _ ^ ~ ! Q ",
"K. XK.K.D.H.b.b.c.c.m.m.C.m._ / ( F q 0 9 9 u = 5 5 8 4 4 = * z  . .Z z = 4 r n m o./ U S H / _ Q Q I ",
" XR.K.K.D.D.A.n.n.G.m.`.C.y.H j c u 8 * 9 u p 2X<X< , ; ; 8 = 6 $.&X3X!.X.M , & s b J I e c D ' _ _ U ",
"[.R.J.K.K.J.D.D.b.}.`.C.u.| | a.#.M 4 8 lXIXUXcX2X2XMX%., 4 4 q A &XkXvXbX*Xm , & & c c g g U F _ / ! ",
"oX_.R.R.Y.K.J.K.H.H.l.r.o.O.<XlX-Xv 9 r C C bXZ z $ $ o 2 1 4 d Z 1XkXxXxXwXs.R p > ; 2 * 0 D ! ` ' Q ",
"CXoX XoXoXR.K.OXG.8.3.t.~.mXJXNX<Xz 4 r x 6   # %.O - . ; & ; 0 [ 1XxXvXxXqX*X#.] F t 2 @ 2 j Q ^ ~ Q ",
"BX+XoXoXR.J.J.A.:.7.I.fXHXLXLXKXhXN = r 5 % [ x $ . % o w 2 0 0 %.2XcXlXlX>X~.w.o.0.K t ; 1 j U Q G J ",
"+X@X#XoXJ.A.S.:.A.F.yXjXHXPXIXIXMX#.6 r a p K O . o + E w w 2 d -XcXlXmXwX,XN.w.` ` ) J 1 f g U J G D ",
"$X$XSXR.7.7.BXW.Q.U.I.9XwXHXPXPXMX~.n 8 a a b 9 > 8 w 2 3 1 8 R qXbXbXmXeXB.p.0.0.<.` S 3 3 f h l ' ! ",
"$XFXFXK.7.:.W.W.U.k.x.g.I.~.8XwXgX~.( b b w t b a , 2 2 : 0 E s.qXwXwX5XN.t.` 0.<.` S g 1 f f l ! 4.1.",
"CXCX+XK.A.:.:.:.k.k.x.x.z.z.V.M.p.t.g.] ) ) 0.'.p.S S I F ( +.^.3X,X~.N.e.-.) Q W G G k f f f P { 4.r.",
"AX+X X XR.J.J.G.J.S.S.x.S.U.U.L.V.M.g.M.j.r.v.(.Z.p.t.t.t.t.u./.B.p.N.t.t.e.~ W Q W W G l l h ! 1.,.YX",
"VXZXBXtXBXBX@XoXE.U.U.Y.U.U.U.U.C.yXL.V.h.n.v.c.u.v.N.q.t.t.v.p.j.0.r.j.g.h.3.;.&.&.&.W l P P P ,.4.YX",
"iXGXDXAXDXSX+XOXoXW.OX.XQ.U.Y.U.U.U.T.I.L.n.n.l.h.n.z.) f.M.j.j.j.g.g.f.7.g.z.7.=.=.&.^ W l U ! _ YXYX",
"YXDXDXGXZXVXBXtXOXW. XXX.X[.OXQ.F.L.U.T.L.L.L.z.S.n.z.3.j.j.g.n.U.L.f.:.7.8.8.8.=.=.,.,.! P P ! YXYXYX",
"YXYXYXYXZXZXtX+XOXtXXXOXXXOX.X{.T.T.{.6X6XL.L.7.l.S.H.n.h.l.l.A.J.D.7.5.7.8.9.6.2.>.,.,.^ P U YXYXYXYX",
"YXYXYXYXYXYXYXYXYXoXYXOXOX.X[.[.T.T.{.6X.XT.yXY.F.D.H.9.9.8.8.D.A.A.7.7.8.9.b.9.8.6.>.>.{ YXYXYXYXYXYX",
"YXYXYXYXYXYXYXYXYXYXYXYXYXYXY.Y.[.'.T.{.T.6X{.XX[.H._.b.G.b.b.D.D.J.A.D.D.b.b.9.6.6.YXYXYXYXYXYXYXYXYX",
"YXYXYXYXYXYXYXYXYXYXYXYXYXYXYXYXYXYXYXYXYXYX}..X[.H.H.H.H.H.G.G.G.J.J.z.G.F.b.YXYXYXYXYXYXYXYXYXYXYXYX",
"YXYXYXYXYXYXYXYXYXYXYXYXYXYXYXYXYXYXYXYXYXYXYXYXYXYXYXYXYXYXYXYXYXYXYXYXYXYXYXYXYXYXYXYXYXYXYXYXYXYXYX"
};
