/* XPM */
static char *start_xpm[] = {
/* columns rows colors chars-per-pixel */
"48 48 144 2",
"   c #000000",
".  c #080200",
"X  c #150400",
"o  c #210F00",
"O  c #2A0D00",
"+  c #3A0D00",
"@  c #301100",
"#  c #441400",
"$  c #531500",
"%  c #521900",
"&  c #5C1A00",
"*  c #462700",
"=  c #552400",
"-  c #542E00",
";  c #641E00",
":  c #721D00",
">  c #7F1C00",
",  c #6F2A00",
"<  c #882200",
"1  c #8D2A00",
"2  c #853000",
"3  c #902B00",
"4  c #993F00",
"5  c #A12E00",
"6  c #AA2F00",
"7  c #B22700",
"8  c #B22A00",
"9  c #824D00",
"0  c #9C4700",
"q  c #AE5500",
"w  c #BC4600",
"e  c #B75600",
"r  c #CC2C00",
"t  c #C63500",
"y  c #CA3100",
"u  c #CB3900",
"i  c #D32C00",
"p  c #D43200",
"a  c #DB3300",
"s  c #DD3C00",
"d  c #E43300",
"f  c #E33B00",
"g  c #EE3C00",
"h  c #F53100",
"j  c #CD4400",
"k  c #CB4E00",
"l  c #C75500",
"z  c #DD4100",
"x  c #CD6800",
"c  c #D36A00",
"v  c #DE6B00",
"b  c #E44300",
"n  c #E64900",
"m  c #EA4200",
"M  c #EA4C00",
"N  c #EC5200",
"B  c #EB5E00",
"V  c #F34500",
"C  c #F44B00",
"Z  c #F94500",
"A  c #FB4900",
"S  c #F35400",
"D  c #F45A00",
"F  c #FD5500",
"G  c #FC5A00",
"H  c #E36200",
"J  c #EC6400",
"K  c #F46200",
"L  c #FD6200",
"P  c #FE6B00",
"I  c #F77100",
"U  c #FE7300",
"Y  c #FE7B00",
"T  c #FE8400",
"R  c #FE8A00",
"E  c #FE9300",
"W  c #FE9A00",
"Q  c #FC9E18",
"!  c #FEA300",
"~  c #FEAC00",
"^  c #FEB400",
"/  c #FEBB00",
"(  c #FFAD29",
")  c #FEC300",
"_  c #FEC900",
"`  c #FECD0B",
"'  c #FECB13",
"]  c #FEC81F",
"[  c #FED200",
"{  c #FFD10B",
"}  c #FEDC00",
"|  c #FED113",
" . c #FED319",
".. c #FFDE15",
"X. c #FEDB1D",
"o. c #FECD21",
"O. c #FFCD3A",
"+. c #FED222",
"@. c #FED93C",
"#. c #FEE201",
"$. c #FEE806",
"%. c #FEED0A",
"&. c #FEE116",
"*. c #FFE61C",
"=. c #FEEC1E",
"-. c #FEF60C",
";. c #FEFE03",
":. c #FEFC0C",
">. c #FEF510",
",. c #FEFC13",
"<. c #FEFE1A",
"1. c #FEE924",
"2. c #FFF421",
"3. c #FEFE23",
"4. c #FEFE2B",
"5. c #FEFE34",
"6. c #FEFE3E",
"7. c #FFD35A",
"8. c #FEEB53",
"9. c #FEFE48",
"0. c #FEFE5E",
"q. c #FEEC62",
"w. c #FEEF68",
"e. c #FEFF62",
"r. c #FEFE6D",
"t. c #FEF270",
"y. c #FEFC75",
"u. c #FEFF7A",
"i. c #FFF48C",
"p. c #FEFF84",
"a. c #FEFF8C",
"s. c #FEFB93",
"d. c #FEFE9C",
"f. c #FEFFAD",
"g. c #FEFEB4",
"h. c #FEFFBB",
"j. c #FEFFC1",
"k. c #FEFFD2",
"l. c #FEFFDB",
"z. c #FEFFE4",
"x. c #FEFFEB",
"c. c #FEFFF0",
"v. c #FEFFFE",
"b. c None",
/* pixels */
"b.b.b.b.b.b.b.b.b.b.b.b.b.b.b.b.b.b.b.b.b.b.b.b.b.b.b.b.b.b.b.b.b.b.b.b.b.b.b.b.b.b.b.b.b.b.b.b.",
"b.b.b.b.b.b.b.b.b.b.b.b.b.b.b.b.b.b.b.b.b.b.b.b.b.b.b.b.b.b.b.b.b.b.b.b.b.b.b.b.b.b.b.b.b.b.b.b.",
"b.b.b.b.b.b.b.b.b.b.b.b.b.b.b.b.b.b.b.b.b.b.b.b.b.b.b.b.b.b.b.b.b.b.b.b.b.b.b.b.b.b.b.b.b.b.b.b.",
"b.b.b.b.b.b.b.b.b.b.b.b.b.b.b.b.b.b.b.b.b.b.b.Y U b.b.b.b.b.b.b.b.b.b.b.b.b.b.b.b.b.b.b.b.b.b.b.",
"b.b.b.b.b.b.b.b.b.b.b.b.b.b.b.b.b.b.b.b.b.b.! R T q   b.b.b.b.b.b.b.b.b.b.b.b.b.b.b.b.b.b.b.b.b.",
"b.b.b.b.b.b.b.b.b.b.b.b.b.b.b.b.b.b.b.b.b.b.R Y Y T     b.b.b.b.b.b.b.b.b.b.b.b.b.b.b.b.b.b.b.b.",
"b.b.b.b.b.b.b.b.b.b.b.b.b.b.b.b.b.b.b.b.b.b.T W W T =   b.b.b.b.b.b.b.b.b.b.b.b.b.b.b.b.b.b.b.b.",
"b.b.b.b.b.b.b.b.b.b.b.b.b.b.b.b.b.b.b.b.b.R P q.q.P I   b.b.b.b.b.b.b.b.b.b.b.b.b.b.b.b.b.b.b.b.",
"b.b.b.b.b.b.b.b.b.b.b.b.b.b.b.b.b.b.b.b.b.T P v.v.P Y o   b.b.b.b.b.b.b.b.b.b.b.b.b.b.b.b.b.b.b.",
"b.b.b.b.b.b.b.b.b.b.b.b.b.b.b.b.b.b.b.b.E I o.l.x.] P H   b.b.b.b.b.b.b.b.b.b.b.b.b.b.b.b.b.b.b.",
"b.b.b.b.b.b.b.b.b.b.b.b.b.b.b.b.b.b.b.b.R L x.r.a.x.F U     b.b.b.b.b.b.b.b.b.b.b.b.b.b.b.b.b.b.",
"b.b.b.b.b.b.b.b.b.b.b.b.b.b.b.b.b.b.b.W U ^ v.3.6.v.! P l   b.b.b.b.b.b.b.b.b.b.b.b.b.b.b.b.b.b.",
"b.b.b.b.b.b.b.b.b.b.b.b.b.b.b.b.b.b.b.R L f.d.<.<.g.f.F P     b.b.b.b.b.b.b.b.b.b.b.b.b.b.b.b.b.",
"b.b.b.b.b.b.b.b.b.b.b.b.b.b.b.b.b.b.E Y E v.5.4.3.0.v.T P 4   b.b.b.b.b.b.b.b.b.b.b.b.b.b.b.b.b.",
"b.b.b.b.b.b.b.b.b.b.b.b.b.b.b.b.b.b.R P y.h.<.4.4.,.l.t.F B     b.b.b.b.b.b.b.b.b.b.b.b.b.b.b.b.",
"b.b.b.b.b.b.b.b.b.b.b.b.b.b.b.b.b.b.Y U v.e.3.4.4.<.u.v.L L =   b.b.b.b.b.b.b.b.b.b.b.b.b.b.b.b.",
"b.b.b.b.b.b.b.b.b.b.b.b.b.b.b.b.b.R P @.z.,.4.4.4.4.<.x.O.F k b.b.b.b.b.b.b.b.b.b.b.b.b.b.b.b.b.",
"b.b.b.b.b.b.b.b.^ E W E E E E R T U L x.r.3.4.4.4.4.<.d.x.C F L L G L F G S N F b.b.b.b.b.b.b.b.",
"b.b.E ~ ~ ! ! W R T Y U U P P Y W R w.x.<.4.4.4.4.4.4.3.v.q.I Y S f f f f a f f C A A V V Z b.  ",
"b.b.R W R E ~ ! ' o.8.a.p.v.v.v.v.v.v.d.3.4.4.4.4.4.4.<.g.v.v.v.v.v.v.i.s.7.( Q J J z s s Z     ",
"b.b.x W R { v.v.v.v.v.k.g.g.r.y.9.6.5.<.3.4.4.4.4.3.4.3.<.5.6.6.9.y.y.u.g.j.j.x.z.j.T s m $     ",
"b.b.b.9 E R ^ z.p.;.:.:.:.:.<.,.<.<.<.3.3.3.<.3.3.3.3.3.3.<.<.<.<.,.<.,.,.:.:.,.-.B a f O       ",
"b.b.b.b.* W R E z.4.,.<.<.<.<.<.<.<.<.<.<.<.<.<.<.<.<.<.<.<.<.<.<.<.<.<.<.<.1.2.b a m         b.",
"b.b.b.b.b.- R R R k.,.,.<.<.<.<.<.<.<.<.<.<.<.<.<.<.<.<.<.<.<.<.<.<.<.<.=.1.&.n f s .       b.b.",
"b.b.b.b.b.b.b.R T U s.;.,.,.<.,.,.>.,.,.,.,.,.,.,.,.,.,.,.>.,.,.,.,.>.+.1.{ a f u         b.b.b.",
"b.b.b.b.b.b.b.b.T T U e.:.-.-.-.>.>.>.>.>.>.>.>.-.-.>.>.>.>.>.>.:.&.X.*.` s m u       b.b.b.b.b.",
"b.b.b.b.b.b.b.b.b.c T L  .-.%.%.%.%.%.%.%.%.%.%.%.%.%.%.%.%.%.%. . .=.W i V 1       b.b.b.b.b.b.",
"b.b.b.b.b.b.b.b.b.b.v Y L ) -.$.$.$.$.$.$.$.$.$.$.$.$.$.$.$.$.' | &.W a V 3       b.b.b.b.b.b.b.",
"b.b.b.b.b.b.b.b.b.b.b.e Y G ^ $.#.} #.#.#.#.#.#.#.#.#.#.} #.$.` { R a V ;       b.b.b.b.b.b.b.b.",
"b.b.b.b.b.b.b.b.b.b.b.b.0 U F $.} } } } } } } } } } } } } } } _ { i b #       b.b.b.b.b.b.b.b.b.",
"b.b.b.b.b.b.b.b.b.b.b.b.b.Y I #.[ } [ } } } } } } [ } [ } } } _ _ M V       b.b.b.b.b.b.b.b.b.b.",
"b.b.b.b.b.b.b.b.b.b.b.b.T P R #._ [ _ _ _ [ _ _ [ _ [ _ _ _ [ _ ^ K m &   b.b.b.b.b.b.b.b.b.b.b.",
"b.b.b.b.b.b.b.b.b.b.b.b.Y L ! _ _ _ _ _ _ _ _ _ _ _ _ _ _ _ _ _ ^ T f 6   b.b.b.b.b.b.b.b.b.b.b.",
"b.b.b.b.b.b.b.b.b.b.b.b.U L ^ _ ) ) ) / _ / / _ ) ) / ) ) ) ) ) ^ E p t     b.b.b.b.b.b.b.b.b.b.",
"b.b.b.b.b.b.b.b.b.b.b.b.U D _ / / / / ) ^ W W ! / / / / / / / / ^ ~ r f     b.b.b.b.b.b.b.b.b.b.",
"b.b.b.b.b.b.b.b.b.b.b.b.P U ) ^ ^ ^ / ~ E W W E E ~ / / ^ ^ ^ ^ ^ W n g X   b.b.b.b.b.b.b.b.b.b.",
"b.b.b.b.b.b.b.b.b.b.b.U D R ^ ~ ~ ^ W R R E P b s L E ^ ^ ~ ~ ^ ^ R L a :   b.b.b.b.b.b.b.b.b.b.",
"b.b.b.b.b.b.b.b.b.b.b.U D W ~ ~ ~ R R R Y M M S S b z P E ~ ~ ~ ^ R U r 8     b.b.b.b.b.b.b.b.b.",
"b.b.b.b.b.b.b.b.b.b.b.U D ! ~ W Y R Y G N G j     j C z M U W ! ~ E T r y     b.b.b.b.b.b.b.b.b.",
"b.b.b.b.b.b.b.b.b.b.b.U L ~ R Y Y L N G N @         % m m p C T E E T p d     b.b.b.b.b.b.b.b.b.",
"b.b.b.b.b.b.b.b.b.b.Y L P T U P D D G 2         b.b.    5 m s p F T T b a +   b.b.b.b.b.b.b.b.b.",
"b.b.b.b.b.b.b.b.b.b.P K P P D D G w .         b.b.b.b.b.    t f p r P F r <   b.b.b.b.b.b.b.b.b.",
"b.b.b.b.b.b.b.b.b.b.P K G B L N @         b.b.b.b.b.b.b.b.b.  $ p a r a r 7     b.b.b.b.b.b.b.b.",
"b.b.b.b.b.b.b.b.b.b.U D L L ,         b.b.b.b.b.b.b.b.b.b.b.b.    < a a r r     b.b.b.b.b.b.b.b.",
"b.b.b.b.b.b.b.b.b.b.Y P w           b.b.b.b.b.b.b.b.b.b.b.b.b.b.b.    8 d h     b.b.b.b.b.b.b.b.",
"b.b.b.b.b.b.b.b.b.b.b.          b.b.b.b.b.b.b.b.b.b.b.b.b.b.b.b.b.b.b.          b.b.b.b.b.b.b.b.",
"b.b.b.b.b.b.b.b.b.b.        b.b.b.b.b.b.b.b.b.b.b.b.b.b.b.b.b.b.b.b.b.b.        b.b.b.b.b.b.b.b.",
"b.b.b.b.b.b.b.b.b.b.b.b.b.b.b.b.b.b.b.b.b.b.b.b.b.b.b.b.b.b.b.b.b.b.b.b.b.b.b.b.b.b.b.b.b.b.b.b."
};
