/* XPM */
static char *suspend_xpm[] = {
/* columns rows colors chars-per-pixel */
"32 32 257 2",
"   c #000F00050000",
".  c #0B9B03D80000",
"X  c #1037067A0000",
"o  c #168D08F80000",
"O  c #27600E5A0000",
"+  c #298E0F1D0000",
"@  c #2B8A11790000",
"#  c #34FB00000000",
"$  c #36FE15A90000",
"%  c #391316EE0000",
"&  c #3FCD1BB80000",
"*  c #3DC7425242A4",
"=  c #426D1AA10000",
"-  c #4CD21F5B0000",
";  c #6F102F980000",
":  c #7E0B392D0094",
">  c #4DC9458A398C",
",  c #607447702CD3",
"<  c #6E35521A3089",
"1  c #6A7B54513DE7",
"2  c #472947AF43F4",
"3  c #46B14AD74A62",
"4  c #50254DA44805",
"5  c #4B2C4EC24D75",
"6  c #4FDA52DA504C",
"7  c #4E20529E527E",
"8  c #51EE52AF4FF9",
"9  c #541A58D0594B",
"0  c #58ED5D055C71",
"q  c #611863C65D13",
"w  c #73A060664E43",
"e  c #68126C566B1D",
"r  c #6AEE6E296C42",
"t  c #7027745A7355",
"y  c #78E07C3078BA",
"u  c #7E35832481E6",
"i  c #68808966A0E0",
"p  c #956000000000",
"a  c #84DE3CA301C1",
"s  c #A33A203E0000",
"d  c #AEF12B2F0000",
"f  c #B72E2EC50000",
"g  c #8F8942F4035F",
"h  c #848650751CAA",
"j  c #987249280774",
"k  c #9F0A4D210810",
"l  c #96635ECA22CD",
"z  c #A6C94F0306BC",
"x  c #A58351B60902",
"c  c #AE745307079F",
"v  c #A8FB536D097C",
"b  c #AC775E2612A9",
"n  c #BFD25C6E0A4D",
"m  c #A5C965921DE1",
"M  c #BD8F68821985",
"N  c #C3693EED0000",
"B  c #C82C4E6A0000",
"V  c #C92C47C40000",
"C  c #CAF04F350000",
"Z  c #C68C55F20000",
"A  c #C26B5A370000",
"S  c #CBAF53CC0000",
"D  c #CF375C57006B",
"F  c #D0F25ED001A4",
"G  c #CF93609705A6",
"H  c #C67F61E70C65",
"J  c #C15567151BED",
"K  c #C56A6A9615E0",
"L  c #CACA6E1417F3",
"P  c #CF9672D919E9",
"I  c #D16762B30655",
"U  c #D23764B40A4A",
"Y  c #D3F1695E0E32",
"T  c #D6F86E9F156D",
"R  c #D6A76FAE1899",
"E  c #DCCA73030976",
"W  c #D7B970FF172D",
"Q  c #D77973041A52",
"!  c #D77978831BC9",
"~  c #DA5075CD1BF0",
"^  c #CACC73EF27F3",
"/  c #C2D8737A2C54",
"(  c #DA5C78762333",
")  c #DBA67ABB23A0",
"_  c #DCC17E612916",
"`  c #EFFF7658015D",
"'  c #F0E57AAF060F",
"]  c #E9AF7FC014C6",
"[  c #F76E7F1505DC",
"{  c #B98387395BE9",
"}  c #A9208D20707A",
"|  c #BCE495EB6ECE",
" . c #B3AB969573E2",
".. c #BB069FAB75F2",
"X. c #CEA085033FC4",
"o. c #DD7184A32C39",
"O. c #DB1A84BD2A0D",
"+. c #D7E484953871",
"@. c #DDBE869C33FB",
"#. c #E05291023DF2",
"$. c #F708854A0D88",
"%. c #F90284F50BFB",
"&. c #F7D78BD414E5",
"*. c #F4C78F6A1AFA",
"=. c #F39E866F115A",
"-. c #F76A92441DAF",
";. c #F97292A51C26",
":. c #E7608532189F",
">. c #E20786982BCD",
",. c #E43A89792798",
"<. c #E4CE8B102BE8",
"1. c #E9238DF12737",
"2. c #E59E8D3432F0",
"3. c #E3EA8D913AC5",
"4. c #EFB59462266E",
"5. c #EEE696E22D34",
"6. c #E87F931235FE",
"7. c #E6D191E83BE5",
"8. c #EBE694F931C9",
"9. c #E959960C3DBA",
"0. c #EEF898EB33AE",
"q. c #EAEF9E5A3A49",
"w. c #F5489425202C",
"e. c #F17096BD29B6",
"r. c #F61498AB2598",
"t. c #F6FF9E582CDF",
"y. c #F950968B2132",
"u. c #FA129B3426C3",
"i. c #FAB3A0202C41",
"p. c #F596A056346C",
"a. c #F10B9DAC39D7",
"s. c #F72AA14A2F64",
"d. c #FAECA0C92CBF",
"f. c #F7A6A37F3503",
"g. c #F6C4A55F3D50",
"h. c #F880A8D23FE8",
"j. c #FC0EAA04375D",
"k. c #FAF5AB063FDD",
"l. c #FB58A4DF31A0",
"z. c #CC2C898F4A24",
"x. c #C7068E985825",
"c. c #CDF38FEF54D0",
"v. c #D09D926A56C7",
"b. c #CDBF950C5DD4",
"n. c #D4BB8F474D5B",
"m. c #DDEC93B54740",
"M. c #DC4192774A67",
"N. c #D5739393541D",
"B. c #D58296E6586C",
"V. c #DC6895A655E2",
"C. c #DFB297AD589C",
"Z. c #DFF09D4C55A5",
"A. c #CDD99745624F",
"S. c #D0B79A8C639A",
"D. c #CD5C9D616DD5",
"F. c #CBF0A0167594",
"G. c #C2529B907407",
"H. c #D10D9A62634B",
"J. c #C338A1D37E34",
"K. c #CC97A24D767F",
"L. c #E5BD95264378",
"P. c #E7C9982748B5",
"I. c #E6EB9A394CB8",
"U. c #EBED9BBE44C4",
"Y. c #EA979DDF4D6D",
"T. c #E35099CF5A9B",
"R. c #EDA0A3384C6F",
"E. c #EC86A33C5537",
"W. c #EF44AEBB54C7",
"Q. c #EEEDAAF05D59",
"!. c #F509A616444A",
"~. c #F2A5A7024D83",
"^. c #F85DAAFF46A3",
"/. c #F54AAA314D28",
"(. c #FA75AC7F443D",
"). c #FB19AF6F49CB",
"_. c #F4FAAC90546D",
"`. c #F348ACD55AB0",
"'. c #F3C7A18D5237",
"]. c #FC83B29F4D46",
"[. c #F6D2B17A5B73",
"{. c #FC32B5155402",
"}. c #FAEEB6605BB6",
"|. c #FCBCB9AB5C2C",
" X c #F25EAF81621B",
".X c #F60CB46D62DE",
"XX c #F98DBA0365B3",
"oX c #858487FF83B2",
"OX c #86C888C783C6",
"+X c #866F8A5689D4",
"@X c #88FD8B1C862E",
"#X c #90EE92D28E18",
"$X c #9ED593C28711",
"%X c #9AAA973F8D28",
"&X c #92DB96BA9593",
"*X c #9B229BA59683",
"=X c #9D859EB298D8",
"-X c #9FB4A3799F61",
";X c #A4359F2B925A",
":X c #A6A9A2069408",
">X c #A37BA3A09C3D",
",X c #AEA5A99B9ED2",
"<X c #BEC3A4A98541",
"1X c #B955AAAB962B",
"2X c #A469A739A313",
"3X c #A687A9B0A57A",
"4X c #A9D0AC60A6CB",
"5X c #AD15AF4EAA33",
"6X c #AEF3B1D1ACFB",
"7X c #B611AF76A405",
"8X c #B875B26FA53F",
"9X c #B2A6B27DAD8E",
"0X c #B952B1C4A50D",
"qX c #BAA8B56CAAB9",
"wX c #B58AB6E7B37E",
"eX c #B8A7BA95B59A",
"rX c #BBD4BE35B82D",
"tX c #BCD6BEC6BA45",
"yX c #BF95C23EBC15",
"uX c #C769AE1B8F79",
"iX c #CB70AAD78708",
"pX c #CAC8AE0E8DD5",
"aX c #C32DA49E8397",
"sX c #C75BB2DF9675",
"dX c #C2A3B39B9F0C",
"fX c #CBAEB2019312",
"gX c #CB09B7489C86",
"hX c #C6B4B9DDA4E9",
"jX c #C566BF3EAD38",
"kX c #CB78BC1AA4A4",
"lX c #CAF2BFC4AB3E",
"zX c #C76EC19AAFF9",
"xX c #CB3FC26FAFC3",
"cX c #C677C424B4BB",
"vX c #C2B5C4AEBCC3",
"bX c #C6E1CA36BEE7",
"nX c #C9AAC815BA29",
"mX c #C511C788C23D",
"MX c #C6FECB52C4C3",
"NX c #CA7FCEC7C6E2",
"BX c #CD30CED8CB05",
"VX c #CC2AD178C880",
"CX c #CF14D3F3CC1A",
"ZX c #D268D62CCF21",
"AX c #D4DFD76DD301",
"SX c #D6A5DA7DD37D",
"DX c #DA35DD0BD753",
"FX c #DCD2DF2CDB0A",
"GX c #DEAAE1D7DC26",
"HX c #E218E467DFEB",
"JX c #E530E684E3A9",
"KX c #E79DEA06E5D9",
"LX c #EC75ED2FEB9F",
"PX c #F0CBF240F1CE",
"IX c #F1A2F230F035",
"UX c #F54CF5F4F4F9",
"YX c None",
/* pixels */
"YXYXYXYXYXYXYXYXYXYXYXS D D D D D M *XeXwXwXwX;Xy #X9XwXwXwX3X+X",
"YXYXYXYXYXYXYXYX# V U W >.I.E.E.E.T.qXUXIXIXUXwXq *XLXPXPXUXAX+X",
"YXYXYXYXYXYXYXS G _ Y..XXX{.{.).].W.qXLXJXJXLXwXw *XJXJXJXLXBXOX",
"YXYXYXYXYXYXS T I..X|.k.p.e.1.,.1.o.0XLXHXHXLX7XJ $XJXJXHXLXBXOX",
"YXYXYXYXYXD ( Q.}.(.e.>.X.x...<XJ.| 9XKXFXFXJXqXT.} JXFXFXJXBXoX",
"YXYXYXYXS _  X{.f.,.z.aXdXpXD.v.K.bX9XJXDXDXHX7X X<XFXFXDXFXBXoX",
"YXYXYXB Q  X{.f.O.G.dXD.@.,.5.4.n.ZX9XGXAXAXFX7X9.G.FXAXAXDXmXoX",
"YXYXYXT Y.}.f.O.aXuX+.] -.i.j.s.N.ZX9XDXZXZXDX7X_ | AXAXBXAXmXoX",
"YXYXD @.XXk.@.J.pX! [ &.;.u.l.s.V.DXwXAXBXBXAX5X| } AXBXBXCXyX+X",
"YXp T Q.{.0.b.1X/ ` [ $.;.;.d.t.V.FX5XBXMXMXCX5XjX2XBXNXNXBXtXoX",
"YXN >.XX(.@.hX,X1 b ` %.&.;.r.r.V.JX5XBXMXmXNX4XBX4XMXmXmXMXeXoX",
"YXS P.|.a.b.VXZX-X4 h E %.*.-.-.C.JX4XmXvXvXMX3XBX4XyXmXvXmXwXoX",
"YXT `.{.6.iXAXSXZX3X3 , M =.-.-.C.LX3XmXyXyXjX2XVX3XrXyXtXmX5X@X",
"YXQ .X).3.gXZXZXDXGX2X7 > l :.&.T.PX2X2X2X2X3X-XZX4X-X:X;X:X%X@X",
"YXQ .X).M.lXZXZXDXGXGX3X7 2 < m { PXLXJXGXGXZXSXSXCXhXn.R.Q.^ i ",
"YXR .X(.n.xXCXZXDXGXJXKX2X7 * 3 8 &XBXDXGXGXGXGXSXSXxXM.(.[.R YX",
"YXW [.).m.xXVXSXSXGXGXKXKX+X5 r 8 * 7 5 9 e u 3XCXZXgXm.)._.Q YX",
"YXW _.].9.fXCXZXSXGXGXGXKXmX6 6 3 3 0 e y u &X6XCXZXfX7.]./.T YX",
"YXU R.].U.K.NXVXZXSXGXGXGXGX2Xt +XMXDXDXSXGXGXGXZXCXK.R.{.L.U YX",
"YXS @.{./.v.bXVXCXSXSXGXGXJXHXGXHXHXHXHXGXGXZXZXCXbXN.^.].>.Z YX",
"YXN ( /.{.L.uXNXVXZXSXSXGXGXGXGXHXFXGXGXDXAXAXCXCXiXL.].~.( N YX",
"YXYXU 9.]._.n.zXVXVXCXSXZXGXSXSXDXDXDXZXZXZXCXVXcXn._.).6.F YXYX",
"YXYXS Q /.].R.b.nXNXVXCXZXZXZXSXAXAXAXAXCXVXVXnXb.R.].!.W C YXYX",
"YXYXYXI ,.).W.R.b.zXNXVXVXVXZXVXCXCXCXVXVXVXcXS.I.{.^.>.D YXYXYX",
"YXYXYXf U 6.(.}.R.N.sXbXMXMXNXNXVXNXNXNXbXsXN.Y.{.^.<.G s YXYXYX",
"YXYX    ; H 2.(.{.`.M.A.uXzXcXbXvXcXjXuXb.M.`.{.(.<.n -       YX",
"YX        % c O.!.).}.`.I.n.B.H.H.B.M.I.`.}.).g._ z @           ",
"YX          o g L 8.(.).|.}.[._.`.[.}.{.).g.6.L a o             ",
"YX              = k L o.0.f.g.(.(.h.f.8.,.K j %               YX",
"YX                  - a v K P ! ! Q K x : =                   YX",
"YXYXYX                  . + % = = $ O .                   YXYXYX",
"YXYXYXYXYXYX                                          YXYXYXYXYX"
};
