/* XPM */
static char *symlink_xpm[] = {
/* columns rows colors chars-per-pixel */
"20 20 61 1",
"  c black",
". c #08E808E808E8",
"X c #0BC20BC20BC2",
"o c #0D020D020D02",
"O c #0E590E590E59",
"+ c #28B928B928B9",
"@ c #2AB42AB42AB4",
"# c #2D162D162D16",
"$ c #2D9E2D9E2D9E",
"% c #2EC12EC12EC1",
"& c #2F7E2F7E2F7E",
"* c #386638663866",
"= c #3CA93CA93CA9",
"- c #3D7B3D7B3D7B",
"; c #3EF33EF33EF3",
": c #401540154015",
"> c #419241924192",
", c #681868186818",
"< c #6AD26AD26AD2",
"1 c #6C1D6C1D6C1D",
"2 c #6F836F836F83",
"3 c #710C710C710C",
"4 c #71DF71DF71DF",
"5 c #734A734A734A",
"6 c #8F078F078F07",
"7 c #8F938F938F93",
"8 c #91E791E791E7",
"9 c #935A935A935A",
"0 c #93A493A493A4",
"q c #969896989698",
"w c #BF60BF60BF60",
"e c #C0AFC0AFC0AF",
"r c #C0D2C0D2C0D2",
"t c #C22FC22FC22F",
"y c #C3DCC3DCC3DC",
"u c #C558C558C558",
"i c #C69DC69DC69D",
"p c #C72DC72DC72D",
"a c #C83BC83BC83B",
"s c #C9A3C9A3C9A3",
"d c #CE43CE43CE43",
"f c #CFAECFAECFAE",
"g c #D081D081D081",
"h c #D178D178D178",
"j c #D261D261D261",
"k c #D33BD33BD33B",
"l c #D443D443D443",
"z c #D5AED5AED5AE",
"x c #D76BD76BD76B",
"c c #D80AD80AD80A",
"v c #D975D975D975",
"b c #DA5FDA5FDA5F",
"n c #F02DF02DF02D",
"m c #F192F192F192",
"M c #F289F289F289",
"N c #F486F486F486",
"B c #F57EF57EF57E",
"V c #F62DF62DF62D",
"C c #F889F889F889",
"Z c #F9F4F9F4F9F4",
"A c gray100",
/* pixels */
"                    ",
" O#;::::::::::;;;@O ",
" @6uuuuuuuuuuewee9# ",
" ;eCvaaaaaaaukmAAw; ",
" ;ev5;:::::;*<kAAw; ",
" :ua:      O@1fAAw* ",
" :ua:      #9vmAAw; ",
" :ua:      #qvBAAe* ",
" :ua:      O#5kAAw; ",
" :ua:        #9vCe; ",
" :ua:        X@5vu: ",
" :ua:X@;:&O    :au: ",
" :uu;+6aaq#    :au: ",
" ;ul<,fAAe;    :au: ",
" *eBkfmAAe;    :au; ",
" ;wAAAAAAk1;;:;5lu; ",
" ;wAAAAAAmlaauuvCe; ",
" #9eewwwwweuuuuau9# ",
" O#;;;*;;;;;::::;#O ",
"                    "
};
