/* XPM */
static char *thumbnail_xpm[] = {
/* columns rows colors chars-per-pixel */
"16 16 191 2",
"   c #000600060006",
".  c #02EA03000309",
"X  c #032E032C0333",
"o  c #084508450845",
"O  c #0C750C7F0C80",
"+  c #0D530D530D51",
"@  c #110A1109110A",
"#  c #1E1F1DE31DE4",
"$  c #1F311F641F8C",
"%  c #27BA27D52814",
"&  c #27E427F9283A",
"*  c #288F28A728E2",
"=  c #28D128FA294F",
"-  c #2954297329C0",
";  c #2C8D2C8B2CB0",
":  c #2FE72FDD2FE3",
">  c #306D30823097",
",  c #315931453142",
"<  c #32F332E432E3",
"1  c #349634963498",
"2  c #365036543654",
"3  c #37E137E137DF",
"4  c #38843880387F",
"5  c #388D395839B0",
"6  c #395D39543952",
"7  c #46E746E546F6",
"8  c #4B244B1C4B2F",
"9  c #5EE85EEB5F1F",
"0  c #61C7615D612B",
"q  c #659F65AA65D7",
"w  c #6A666ACB6B04",
"e  c #6AE76C026C7C",
"r  c #709D70EA7164",
"t  c #74E674E474F9",
"y  c #239D5939A12D",
"u  c #2D50675DAC23",
"i  c #281962E0B5BC",
"p  c #39707600BB92",
"a  c #377478E2C959",
"s  c #3AB37EBDC998",
"d  c #40AD86AFCE54",
"f  c #4E4C9009D31D",
"g  c #49C59557D35C",
"h  c #51699087D376",
"j  c #5ACE9696D5A3",
"k  c #5D11A460D559",
"l  c #5F33A7FAD187",
"z  c #5F76AAF0E30B",
"x  c #63A7A763D665",
"c  c #7376AA06CF78",
"v  c #75BDB4FDD51C",
"b  c #7C25B23ED42A",
"n  c #6ED1B2F1E1CF",
"m  c #6C47BC36EBB4",
"M  c #6660C21CF2EB",
"N  c #879D87CA87C8",
"B  c #868C8BA48E24",
"V  c #88DB89F98A70",
"C  c #A843A86FA8A0",
"Z  c #AA81AC74AD48",
"A  c #AEABAF98B026",
"S  c #B84BB9EEBA34",
"D  c #BAE2BB3DBB96",
"F  c #BF45BE0DBC99",
"G  c #BEF2BE4EBE6A",
"H  c #855EBCC5D74C",
"J  c #9050BC33DDCC",
"K  c #9977C058DB75",
"L  c #84A2BB4DE1F2",
"P  c #94A1B83EE17F",
"I  c #C016C084C0CD",
"U  c #978CC48FD97D",
"Y  c #9803CA0EEB3B",
"T  c #9CB9CF43ED88",
"R  c #98BFD5D6F546",
"E  c #A863CBADDB3A",
"W  c #C057C126C19A",
"Q  c #BA6FC736CDF5",
"!  c #BF97C942CF68",
"~  c #B9A8D1F1DCC8",
"^  c #A2A9CBFDE4AF",
"/  c #A5F3C90BE989",
"(  c #AAC8CE34E263",
")  c #A7C5DC20F80B",
"_  c #B497CBD6E47C",
"`  c #B41ECCB3E59E",
"'  c #B50BCCA6E522",
"]  c #B593CE0FE794",
"[  c #B594CFE9E94B",
"{  c #B488D149E92D",
"}  c #C085D682E676",
"|  c #BA3AD4DDE982",
" . c #B5CCDB1CF20F",
".. c #B61EDC5AF25E",
"X. c #B4FDE130F79B",
"o. c #B43CE554FB7B",
"O. c #C2EAC1B6C04A",
"+. c #C389C20DC08E",
"@. c #C23BC240C23D",
"#. c #C150C23AC2F8",
"$. c #C1C8C278C307",
"%. c #C23EC2DDC384",
"&. c #C30BC283C245",
"*. c #C389C349C325",
"=. c #C4A0C487C481",
"-. c #C674C430C27E",
";. c #C741C57AC3B6",
":. c #C660C6BDC6DF",
">. c #C85CC662C4F4",
",. c #C874C73EC66A",
"<. c #C6E3C6DBC6DB",
"1. c #C405CBCFCFA9",
"2. c #C64FC94DCAC4",
"3. c #C8D3C75BC671",
"4. c #C8E4C859C830",
"5. c #C9E4C980C950",
"6. c #CD1DCCDDCCC1",
"7. c #C57FCD5AD1A0",
"8. c #C66BCEABD136",
"9. c #C9ECD0A1D414",
"0. c #C863D6A9DC8B",
"q. c #CC95D283D569",
"w. c #CDBBD0D3D211",
"e. c #CD95D25DD499",
"r. c #D046D181D22D",
"t. c #D0AFD1F3D23D",
"y. c #D0DDD215D239",
"u. c #D28ED295D2AD",
"i. c #D303D39ED3F1",
"p. c #D457D45ED458",
"a. c #D0DCD45DD602",
"s. c #D35BD4A8D53E",
"d. c #D60DD615D614",
"f. c #D6F8D6E1D6CF",
"g. c #D8B8D770D6D1",
"h. c #D76CD769D75D",
"j. c #D8A4D8B8D8C5",
"k. c #D3D4D93FDCE3",
"l. c #D895D8F0D912",
"z. c #D94ED7D4D70B",
"x. c #D8FCD904D907",
"c. c #DA8DDA6DDA5D",
"v. c #DBCBDBD0DBD1",
"b. c #DC8DDB72DAE7",
"n. c #DE4FDDE5DDB8",
"m. c #CBA6DEDFE8C0",
"M. c #D28DDEA3EB99",
"N. c #C683E1EAF4DA",
"B. c #C8A2ED85FD76",
"V. c #CD03E99CF86D",
"C. c #CB82ECE5FBC0",
"Z. c #DDACE29CE54B",
"A. c #DF15EAFFEEFC",
"S. c #D275E9FCF857",
"D. c #D960F2ABFCE4",
"F. c #D977F351FE3B",
"G. c #DC77F443FE43",
"H. c #E0E0DFB2DF08",
"J. c #E124E01ADF80",
"K. c #E1B5E246E29E",
"L. c #E2F9E3A9E418",
"P. c #E4FBE57EE5CA",
"I. c #E8D3E8CEE8DA",
"U. c #EAA3EB42EBA3",
"Y. c #EA00EB52EC00",
"T. c #EC6DEC34EC1A",
"R. c #EB6CECD7ED9C",
"E. c #ED55ED4EED51",
"W. c #EDFFEDC3EDAD",
"Q. c #EE04EE90EEDA",
"!. c #EE05EED9EF90",
"~. c #EFBCEF1AEED0",
"^. c #EFF8EFAEEF94",
"/. c #F05CF052F04A",
"(. c #E654F827FE28",
"). c #E903FA24FED9",
"_. c #F14DF069EFF5",
"`. c #F1D1F1D1F1D1",
"'. c #F116F1ACF21D",
"]. c #F177F1F8F23B",
"[. c #F262F1BDF16B",
"{. c #F2C0F2C6F2BF",
"}. c #F3EAF3C6F3B2",
"|. c #F54FF54EF548",
" X c #F8C8F859F81F",
".X c #FA2FFA22FA15",
"XX c #FB8DFB84FB7C",
"oX c #FCF5FCA4FC7C",
"OX c #FDA9FDAAFDA9",
"+X c #FE26FE24FE1F",
"@X c None",
/* pixels */
"e :.c.c.j.c.c.#.N 3 o   @X@X@X@X",
"5 h.+X+XT./..Xj.Z q @   @X@X@X@X",
"3 h.+X`.#.5.|.T.A 9 O   @X@X@X@X",
"5 h.+X.Xh.v. X}.i.t 3 0 b.z.z.h.",
"3 h.XX`.Q.`.Q.T.L.:.#.n.n.n.5.8 ",
"3 h.|.`.L.i.s.e.9.q.9.7.1.k.#.; ",
"5 h.`.Q.2.7.0.~ E U H v l ^ %.- ",
"3 h.`._.9.Y.F.F.C.o.R m M ) #.- ",
"3 p.T._.9.m.T V.D.C.Y s z X.#.- ",
"6 9.P.T.i.( n  .(.).K y p  .G - ",
"7 C D U.1.b l L N.S.J u i / G - ",
"* 6 w I.Q c x g h j f d a P G * ",
"    r _.Z.} | [ { ' ' ' ` M.D & ",
"  X V 3.6.3.3.3.;.-.+.#.G S B # ",
"    O 1 3 , < < < , : : : , # X ",
"@X                              "
};
