/* XPM */
static char *usbdrive_xpm[] = {
/* columns rows colors chars-per-pixel */
"48 48 257 2",
"   c #000000",
".  c #03070A",
"X  c #0B0C0D",
"o  c #040C12",
"O  c #111112",
"+  c #19191A",
"@  c #0E2737",
"#  c #12242E",
"$  c #212121",
"%  c #28282B",
"&  c #343434",
"*  c #1E3A48",
"=  c #133C58",
"-  c #193E54",
";  c #233C45",
":  c #233F4A",
">  c #3C3C43",
",  c #1E445A",
"<  c #1E4865",
"1  c #1F5476",
"2  c #22495E",
"3  c #284A59",
"4  c #255876",
"5  c #2C5D79",
"6  c #245673",
"7  c #4C4C54",
"8  c #515151",
"9  c gray35",
"0  c #464646",
"q  c #5A5A68",
"w  c #5F5F73",
"e  c #656565",
"r  c #67677C",
"t  c #777777",
"y  c #797979",
"u  c blue",
"i  c #1F5980",
"p  c #286388",
"a  c #2C6484",
"s  c #286F9D",
"d  c #2B6D96",
"f  c #326783",
"g  c #346C8A",
"h  c #3B728C",
"j  c #3E7C9C",
"k  c #2876AB",
"l  c #2878AE",
"z  c #2377B1",
"x  c #5555AA",
"c  c #6C6C84",
"v  c #73738E",
"b  c #767694",
"n  c #75759A",
"m  c #7A7A96",
"M  c #7C7C99",
"N  c #3B81AA",
"B  c #3182B5",
"V  c #3086BE",
"C  c #3E8FBF",
"Z  c #3D82B5",
"A  c #0981E2",
"S  c #1187E3",
"D  c #1B8CE4",
"F  c #168BE4",
"G  c #1E90E5",
"H  c #258BDF",
"J  c #288DD6",
"K  c #3A93CB",
"L  c #208BE1",
"P  c #2393E5",
"I  c #2A95E6",
"U  c #2998E7",
"Y  c #2D9BE8",
"T  c #379DE0",
"R  c #319DE8",
"E  c #3E9EE4",
"W  c #3F9BE8",
"Q  c #35A0E9",
"!  c #3BA4E9",
"~  c #3FA8EB",
"^  c #51889D",
"/  c #4991B6",
"(  c #5496B2",
")  c #449ED3",
"_  c #409DE6",
"`  c #44A2DB",
"'  c #56A0DD",
"]  c #5FB2D9",
"[  c #44A3EA",
"{  c #43AAEB",
"}  c #4BA7EA",
"|  c #49ADEB",
" . c #4DB1EC",
".. c #51A1E4",
"X. c #55ABEB",
"o. c #5AA6E3",
"O. c #5BAEEC",
"+. c #57B2E4",
"@. c #52B5ED",
"#. c #56B8EE",
"$. c #5ABAEF",
"%. c #5DBDF0",
"&. c #6AAEDF",
"*. c #65B2D2",
"=. c #76BFD6",
"-. c #76B4DD",
";. c #60AFED",
":. c #63B3EC",
">. c #6DB6EE",
",. c #64BBEB",
"<. c #60BFF0",
"1. c #75B9EF",
"2. c #7CB6E1",
"3. c #79BBEF",
"4. c #7CBCF0",
"5. c #64C2F0",
"6. c #6AC5F1",
"7. c #6DC8F2",
"8. c #7FC0E3",
"9. c #73CCF2",
"0. c #7FCDF3",
"q. c #77D0F4",
"w. c #7BD2F4",
"e. c #808080",
"r. c #888888",
"t. c #818094",
"y. c #82829C",
"u. c #88869A",
"i. c #8B8B97",
"p. c #8B8A9D",
"a. c #969697",
"s. c #95959C",
"d. c #9B9B9B",
"f. c #8585A1",
"g. c #8080AA",
"h. c #8886A1",
"j. c #8A8AA2",
"k. c #8F91A7",
"l. c #908EA2",
"z. c #9492A4",
"x. c #9494AA",
"c. c #9897A7",
"v. c #9997A8",
"b. c #9B9AAB",
"n. c #9A9AA5",
"m. c #9C9DB1",
"M. c #9CA1B2",
"N. c #A09FAE",
"B. c #A3A3A3",
"V. c #A2A1AD",
"C. c #ABABAC",
"Z. c #A4A3B3",
"A. c #A5A6B8",
"S. c #A5A8B9",
"D. c #A8A7B4",
"F. c #AAA9B5",
"G. c #ADACBB",
"H. c #AFB0BE",
"J. c #B0AFBB",
"K. c #B3B3B3",
"L. c #B2B2BC",
"P. c #BCBCBC",
"I. c #84B5DA",
"U. c #8DBADD",
"Y. c #9FAFC0",
"T. c #97B8CF",
"R. c #9CBBCB",
"E. c #91B6D5",
"W. c #93BBDB",
"Q. c #98BEDD",
"!. c #95BBD2",
"~. c #8BBAE0",
"^. c #80BFF0",
"/. c #AEAFC0",
"(. c #A7B0C1",
"). c #A0B8C5",
"_. c #A3BBC9",
"`. c #ACB3C3",
"'. c #B2B3C2",
"]. c #B7B8C2",
"[. c #B4BBC9",
"{. c #B8B7C2",
"}. c #BABAC4",
"|. c #BCBCC9",
" X c #95C2DB",
".X c #9FC1D5",
"XX c #9DCCDB",
"oX c #89CAE5",
"OX c #87C2F1",
"+X c #8CC4F1",
"@X c #81CCF3",
"#X c #8AD5EF",
"$X c #84D3F4",
"%X c #84D9F6",
"&X c #8BD4F5",
"*X c #8ADDF7",
"=X c #9CC1E0",
"-X c #91C6F2",
";X c #97CAF3",
":X c #9FDDEE",
">X c #91DCF6",
",X c #9ADCF6",
"<X c #8EE0F8",
"1X c #93E3F8",
"2X c #9CE4F8",
"3X c #9CEAF9",
"4X c #A0C4D2",
"5X c #A6C2D9",
"6X c #A9C0D2",
"7X c #B6C4D3",
"8X c #B3C8DC",
"9X c #BCCBD8",
"0X c #AAC7E1",
"qX c #A1CFF4",
"wX c #A6D9E4",
"eX c #A8D3F5",
"rX c #B0D7F6",
"tX c #B6DAF6",
"yX c #BFDEF7",
"uX c #ADE5EC",
"iX c #A4E3F8",
"pX c #A4ECFA",
"aX c #A9EBFA",
"sX c #A6F1FB",
"dX c #ACF4FB",
"fX c #C0BFC8",
"gX c #C2C2C2",
"hX c #C3C3CB",
"jX c #C8C7CF",
"kX c #C9C9CA",
"lX c #C5C5D0",
"zX c #C7C9D1",
"xX c #C8C7D0",
"cX c #CBCBD2",
"vX c #CECED8",
"bX c #CED2D7",
"nX c #D0CFD6",
"mX c #D2D2D4",
"MX c #D3D3D9",
"NX c #D8D7DE",
"BX c #DADADD",
"VX c #DCDCE1",
"CX c #C7E2F8",
"ZX c #CEE6F9",
"AX c #D7EAFA",
"SX c #E0DFE3",
"DX c #E3E3E4",
"FX c #E6E5E9",
"GX c #EAEAEC",
"HX c #EEEEF0",
"JX c #EFF7FD",
"KX c #E6F2FC",
"LX c #F0EFF1",
"PX c #F2F2F3",
"IX c #F7F6F8",
"UX c #FBFBFB",
"YX c None",
/* pixels */
"YXYXYXYXy.m m m n m m m x YXYXYXYXYXYXYXYXYXYXYXYXYXYXYXYXYXYXYXYXYXYXYXYXYXYXYXYXYXYXYXYXYXYXYX",
"YXYXm j.y.x.m.b.b.v.k.y.M M m m YXYXYXYXYXYXYXYXYXYXYXYXYXYXYXYXYXYXYXYXYXYXYXYXYXYXYXYXYXYXYXYX",
"YXy.j.zXBXBXvXW.I.U.Q.5X|.A.l.u.M y.m YXYXYXYXYXYXYXYXYXYXYXYXYXYXYXYXYXYXYXYXYXYXYXYXYXYXYXYXYX",
"M x.GXFX5X..3.+X-X+X1.O.[ W o.E.F.v.z.^ m x YXYXYXYXYXYXYXYXYXYXYXYXYXYXYXYXYXYXYXYXYXYXYXYXYXYX",
"^ zXGXDXW UXKXZXtXqX+X4.:.X.[ R _ &.`./.m.f.M t.YXYXYXYXYXYXYXYXYXYXYXYXYXYXYXYXYXYXYXYXYXYXYXYX",
"Z.FXDXDXo.JXAXyXeX;X^.>.O.} ! Y W _ ~ 2.[.fX'.h.M YXYXYXYXYXYXYXYXYXYXYXYXYXYXYXYXYXYXYXYXYXYXYX",
"v.LXSXBXQ.3.CXrX;XOX1.:.Z W Y R R { { |  .I.[.nXS.f.M YXYXYXYXYXYXYXYXYXYXYXYXYXYXYXYXYXYXYXYXYX",
"v.GXDXcXNX' W OX+X4.:.X.< o z R T l | |  .#.,.E.|.cXj.f.M YXYXYXYXYXYXYXYXYXYXYXYXYXYXYXYXYXYXYX",
"x.NXFXnXkXbXH A F I I I P J = l s . <  .@.#.%.5.2.(.jX'.^ m YXYXYXYXYXYXYXYXYXYXYXYXYXYXYXYXYXYX",
"M fXFXMX|.kX9XD S F D P U Y R 4 1 K 4 a @.%.<.5.7.9.!.G.mXl.u.YXYXYXYXYXYXYXYXYXYXYXYXYXYXYXYXYX",
"M /.GXSXjX].hX8XD D D P U Y k K B , ` N 2 <.5.6.7.9.w.oXS.fXN.h.e.YXYXYXYXYXYXYXYXYXYXYXYXYXYXYX",
"x N.GXSXBXhXL.zX0XD P U U U k @ d ` , N 5 j 5.7.9.9.w.%X&X(.fXG.u.u.YXYXYXYXYXYXYXYXYXYXYXYXYXYX",
"YXv.DXDXDXnXhX'.nX XP I Y Q ! ~ p 6  .5 # 5 7.7.9.q.w.%X&X>XR.L.lX^ t.YXYXYXYXYXYXYXYXYXYXYXYXYX",
"YXx.cXDXDXDXMXhX'.nX~.Y R Q ~ { { C 5 h g * *.7.9.q.%X%X>X1X1XXXD.MXp.M YXYXYXYXYXYXYXYXYXYXYXYX",
"YXm G.DXDXDXGXVXlX/.vX2.R ! ~ { |  .#.+./ h 3 ( q.w.%X*X<X1X3X3X4Xb.vXj.m YXYXYXYXYXYXYXYXYXYXYX",
"YXu x.SXDXDXLXPXVX|./.xX~.~ ~ {  .#.#.%.,.6.6.3 ; ^ %X*X1X1X3XpXsX).v.MXj.m YXYXYXYXYXYXYXYXYXYX",
"YXYXx.lXDXFXHXLXHXVX|./.hX5X| |  .@.#.<.5.6.9.*.; o =.*X1X3X3XpXdXdXM.c.mXk.m YXYXYXYXYXYXYXYXYX",
"YXYXf.b.SXFXHXHXHXGXVX|.S.}.7XO.@.%.%.5.6.6.9.q.w.%X*X*X1X3XpXsXdXuXn.z.z.MXz.M YXYXYXYXYXYXYXYX",
"YXYXYXk.nXFXHXHXHXGXGXMX|.A./.zX X>.0.$X&X&X&X*X2XiXiXpXaXaXpXwX_.c.z.z.j.l.cXj.M YXYXYXYXYXYXYX",
"YXYXYXm b.FXHXHXGXGXGXFXvX[.A.S.lX7X8.0.&X,XiXrXiXiXiX:XXX_.V.b.b.c.z.z.c.L.jXGXZ.n YXYXYXYXYXYX",
"YXYXYXYXf.vXHXHXGXFXFXFXDXvX].m.m.|.fX6X X X X4X_.H.G.F.D.Z.V.N.L.hXNXPXPXNXfXG.Z.n YXYXYXYXYXYX",
"YXYXYXYXn j.FXHXFXFXFXVXSXVXvX].M.b.|.|.|.{.{.L.L.J.F.L.hXNXGXUXLXvX{.V.c.b.b.Z.j.M YXYXYXYXYXYX",
"YXYXYXYXYXM m.GXFXFXVXVXBXBXNXnX'.m.k.].}.{.{.zXNXFXIXUXFXzXG.c.z.z.v.b.V.Z.D.D.j.n YXYXYXYXYXYX",
"YXYXYXYXYXYXM [.FXSXFXVXBXBXNXMXzX`.m.j.MXHXUXUXVXfXZ.p.p.p.z.c.v.x.z.u.M y.D.L.j.b YXYXYXYXYXYX",
"YXYXYXYXYXYXe.f.cXVXVXBXNXMXnXnXcXlX/.}.FX}.b.u.u.u.p.z.z.l.u.y.m j.F.kXGXBXi.D.j.y.YXYXYXYXYXYX",
"YXYXYXYXYXYXYXn f.cXVXNXNXMXvXcXcXlXhXBXl.t.u.p.p.j.y.y.M u.i.a.C.K.P.kXmXSXDXn.y.u YXYXYXYXYXYX",
"YXYXYXYXYXYXYXYXb f.cXNXMXnXnXcXjXhXfXcXu.u.u.y.y.p.s.a.a.a.a.a.d.B.B.K.K.P.kXmXb.M y.YXYXYXYXYX",
"YXYXYXYXYXYXYXYXYXM f.cXvXnXkXjXjXhXfXhXz.u.vXK.K.K.C.B.B.a.a.a.a.a.d.d.B.r.8 & B.C.M m YXYXYXYX",
"YXYXYXYXYXYXYXYXYXYXm j.nXnXcXjXhXhXfXfXc.j.UXDXP.P.K.C.B.d.d.a.a.a.d.a.a.e.O   + B.C.M b YXYXYX",
"YXYXYXYXYXYXYXYXYXYXYXM p.cXcXjXjXhXfX}.V.j.UXUXDXP.K.K.B.t r.d.a.a.a.a.a.a.r.y a.B.B.B.u.M YXYX",
"YXYXYXYXYXYXYXYXYXYXYXYXM l.jXcXjXhXfX}.D.z.UXUXUXmXP.y     X e.d.a.a.a.a.a.a.a.a.a.a.a.a.M M x ",
"YXYXYXYXYXYXYXYXYXYXYXYXYXy.j.hXjXhXfX{.G.c.FXPXPXIXgXgXe $ 8 e.B.d.d.a.a.a.a.a.a.a.a.a.a.a.n.M ",
"YXYXYXYXYXYXYXYXYXYXYXYXYXYXM j.hXhXfXP.L.{.x.DXFXFXPXK.gXP.K.K.C.B.B.a.a.a.a.a.a.a.B.C.K.B.9 M ",
"YXYXYXYXYXYXYXYXYXYXYXYXYXYXYXM h.fXfX|.fXhX|.v.BXBXBXBXC.gXP.K.K.C.B.B.d.a.a.C.K.C.e.&     X M ",
"YXYXYXYXYXYXYXYXYXYXYXYXYXYXYXYXM y.{.lXzXcXnXhXn.mXmXmXfXK.gXgXP.K.C.K.K.K.d.8 X           X t.",
"YXYXYXYXYXYXYXYXYXYXYXYXYXYXYXYXYXM M L.cXL.m.h.M c.kXkXkXK.C.fXkXP.C.t %                   X t.",
"YXYXYXYXYXYXYXYXYXYXYXYXYXYXYXYXYXYXn M M M m b YXy.N.P.P.fXK.C.0 X                     + > w M ",
"YXYXYXYXYXYXYXYXYXYXYXYXYXYXYXYXYXYXYXYXYXYXYXYXYXYXu.C.K.K.K.$                 . % 7 c M m t.YX",
"YXYXYXYXYXYXYXYXYXYXYXYXYXYXYXYXYXYXYXYXYXYXYXYXYXYXYX^ V.C.K.$           O > q m m m e.YXYXYXYX",
"YXYXYXYXYXYXYXYXYXYXYXYXYXYXYXYXYXYXYXYXYXYXYXYXYXYXYXYXh.N.C.$     % 8 r u.M M YXYXYXYXYXYXYXYX",
"YXYXYXYXYXYXYXYXYXYXYXYXYXYXYXYXYXYXYXYXYXYXYXYXYXYXYXYXYXy.V.7 q b u.m v YXYXYXYXYXYXYXYXYXYXYX",
"YXYXYXYXYXYXYXYXYXYXYXYXYXYXYXYXYXYXYXYXYXYXYXYXYXYXYXYXYXYXj.f.b YXYXYXYXYXYXYXYXYXYXYXYXYXYXYX",
"YXYXYXYXYXYXYXYXYXYXYXYXYXYXYXYXYXYXYXYXYXYXYXYXYXYXYXYXYXYXYXYXYXYXYXYXYXYXYXYXYXYXYXYXYXYXYXYX",
"YXYXYXYXYXYXYXYXYXYXYXYXYXYXYXYXYXYXYXYXYXYXYXYXYXYXYXYXYXYXYXYXYXYXYXYXYXYXYXYXYXYXYXYXYXYXYXYX",
"YXYXYXYXYXYXYXYXYXYXYXYXYXYXYXYXYXYXYXYXYXYXYXYXYXYXYXYXYXYXYXYXYXYXYXYXYXYXYXYXYXYXYXYXYXYXYXYX",
"YXYXYXYXYXYXYXYXYXYXYXYXYXYXYXYXYXYXYXYXYXYXYXYXYXYXYXYXYXYXYXYXYXYXYXYXYXYXYXYXYXYXYXYXYXYXYXYX",
"YXYXYXYXYXYXYXYXYXYXYXYXYXYXYXYXYXYXYXYXYXYXYXYXYXYXYXYXYXYXYXYXYXYXYXYXYXYXYXYXYXYXYXYXYXYXYXYX",
"YXYXYXYXYXYXYXYXYXYXYXYXYXYXYXYXYXYXYXYXYXYXYXYXYXYXYXYXYXYXYXYXYXYXYXYXYXYXYXYXYXYXYXYXYXYXYXYX"
};
