/* XPM */
static char * video_xpm[] = {
"16 16 9 1",
" 	c None",
".	c #7F7F7F",
"+	c #FFFFFF",
"@	c #BFBFBF",
"#	c #000000",
"$	c #007F7F",
"%	c #00FFFF",
"&	c #FF0000",
"*	c #00007F",
"    .........   ",
"    .+++++++@.  ",
"    .+++++++@+. ",
"    .+++++++####",
"    .+++++++++@#",
"$   .+++++++++@#",
"$$%$$$$$$$++..@#",
"$##%%%#%%$#$.#@#",
"# ####%%%$#%@#@#",
"  $%%%%%%$##$#@#",
"  $&%%#%#*#+##@#",
"  ######*##+++@#",
"    .+++++++++@#",
"    .+++++++++@#",
"    .@@@@@@@@@@#",
"    ############"};
