/* XPM */
static char *visible_xpm[] = {
/* columns rows colors chars-per-pixel */
"16 16 78 1",
"  c #000000010000",
". c #000004730000",
"X c #07B307B307B3",
"o c #0A3E0A3E0A3E",
"O c #0F940F940F94",
"+ c #00001E3F0000",
"@ c #0DE4149E0DE4",
"# c #17DF17DF17DF",
"$ c #197F197F197F",
"% c #1B811B811B81",
"& c #000021740000",
"* c #030E2705030E",
"= c #00002F540000",
"- c #000037FB0000",
"; c #04A63C9D04A6",
": c #246224622462",
"> c #2D842D7E2D84",
", c #31F131F131F1",
"< c #326732673267",
"1 c #375937593759",
"2 c #3BA13BA13BA1",
"3 c #00004D250000",
"4 c #00004DDD0000",
"5 c #07704ACD0770",
"6 c #08924BE40892",
"7 c #140F5FB2140F",
"8 c #000066150000",
"9 c #00006B2E0000",
"0 c #0000722B0000",
"q c #000075CD0000",
"w c #3DA44B4D3DA4",
"e c #3A365B4C3A36",
"r c #450045004500",
"t c #457245724572",
"y c #46C546C546C5",
"u c #4F714F714F71",
"i c #4DE755DB4DE7",
"p c #5FB55FB55FB5",
"a c #5B8C6EB35B8C",
"s c #609960996099",
"d c #643C6457643C",
"f c #65B665B665B6",
"g c #6F566D0A6F56",
"h c #6F156F156F15",
"j c #765176517651",
"k c #000088570000",
"l c #00008BFA0000",
"z c #00008F310000",
"x c #000093480000",
"c c #000095E90000",
"v c #00009AD20000",
"b c #0000A6B30000",
"n c #0000A93B0000",
"m c #0000AB940000",
"M c #0000AFA00000",
"N c #0000B74A0000",
"B c #8A7E88C48A7E",
"V c #8EA994EF8EA9",
"C c #9E879BAC9E87",
"Z c #A10E9F9DA10E",
"A c #A840A4B5A840",
"S c #A7BFA7BFA7BF",
"D c #B891BA78B891",
"F c #C7FAC751C7FA",
"G c #C99DC989C99D",
"H c #CA2CC8E2CA2C",
"J c #CA5ACA46CA5A",
"K c #D68FD68FD68F",
"L c #D7D6D7E0D7D6",
"P c #DD1EDC1DDD1E",
"I c #E44AE443E44A",
"U c #F09BF09BF09B",
"Y c #F7ACF62CF7AC",
"T c #F7D2F7D2F7D2",
"R c #FAF4FAE5FAF4",
"E c #FB5CFB5CFB5C",
"W c gray100",
"Q c None",
/* pixels */
"QQQQQQQQQQQQQQQQ",
"QQQQQQQQQQQQQQQQ",
"      QQQQQQQQQQ",
"         QQQQQQQ",
"          QQQQQQ",
"Q Og*9=z-.   QQQ",
"QQ%A;m&8Nl@>% QQ",
"QQ%A;m3+vbiIjy Q",
"QQ#HaqMcb7DWRLu ",
"QQ fC5zx0wTWWUs ",
"QQ ,HV63ePRTSgoQ",
"QQQ yHZBFLfp: QQ",
"QQQQ 1yy2,X  QQQ",
"QQQQQ      QQQQQ",
"QQQQQQQQQQQQQQQQ",
"QQQQQQQQQQQQQQQQ"
};
