/* XPM */
static char *vspacer_xpm[] = {
/* columns rows colors chars-per-pixel */
"54 154 131 2",
"   c #010101",
".  c #020202",
"X  c #030303",
"o  c #040404",
"O  c #050505",
"+  c #060606",
"@  c #080808",
"#  c #090909",
"$  c #0A0A0A",
"%  c #0C0C0C",
"&  c #0D0D0D",
"*  c #0E0E0E",
"=  c #101010",
"-  c #111111",
";  c #121212",
":  c #141414",
">  c #151515",
",  c #161616",
"<  c #191919",
"1  c #1A1A1A",
"2  c #1B1B1B",
"3  c #1D1D1D",
"4  c #1E1E1E",
"5  c #1F1F1F",
"6  c #212121",
"7  c #222222",
"8  c #232323",
"9  c #242424",
"0  c #252525",
"q  c #262626",
"w  c #272727",
"e  c #282828",
"r  c #292929",
"t  c #2A2A2A",
"y  c #2C2C2C",
"u  c #2D2D2D",
"i  c #2E2E2E",
"p  c #2F2F2F",
"a  c #303030",
"s  c #313131",
"d  c #323232",
"f  c #333333",
"g  c #343434",
"h  c #353535",
"j  c #363636",
"k  c #373737",
"l  c #383838",
"z  c #393939",
"x  c #3A3A3A",
"c  c #3B3B3B",
"v  c #3C3C3C",
"b  c #3D3D3D",
"n  c #3E3E3E",
"m  c #3F3F3F",
"M  c #404040",
"N  c #414141",
"B  c #424242",
"V  c #434343",
"C  c #444444",
"Z  c #454545",
"A  c #464646",
"S  c #474747",
"D  c #484848",
"F  c #494949",
"G  c #4A4A4A",
"H  c #4B4B4B",
"J  c #4C4C4C",
"K  c #4D4D4D",
"L  c #4E4E4E",
"P  c #4F4F4F",
"I  c #505050",
"U  c #515151",
"Y  c #525252",
"T  c #535353",
"R  c #545454",
"E  c #555555",
"W  c #565656",
"Q  c #575757",
"!  c #585858",
"~  c #595959",
"^  c #5A5A5A",
"/  c #5B5B5B",
"(  c #5C5C5C",
")  c #5D5D5D",
"_  c #5E5E5E",
"`  c #5F5F5F",
"'  c #606060",
"]  c #616161",
"[  c #626262",
"{  c #636363",
"}  c #646464",
"|  c #656565",
" . c #666666",
".. c #676767",
"X. c #686868",
"o. c DimGray",
"O. c #6A6A6A",
"+. c #6B6B6B",
"@. c #6C6C6C",
"#. c #6D6D6D",
"$. c #6E6E6E",
"%. c #6F6F6F",
"&. c #707070",
"*. c #717171",
"=. c #727272",
"-. c #737373",
";. c #747474",
":. c #757575",
">. c #767676",
",. c #777777",
"<. c #787878",
"1. c #797979",
"2. c #7A7A7A",
"3. c #7B7B7B",
"4. c #7C7C7C",
"5. c #7D7D7D",
"6. c #7E7E7E",
"7. c #7F7F7F",
"8. c #808080",
"9. c #818181",
"0. c #828282",
"q. c #838383",
"w. c #848484",
"e. c #858585",
"r. c #868686",
"t. c #878787",
"y. c #888888",
"u. c #898989",
"i. c #8A8A8A",
"p. c #8B8B8B",
"a. c #8C8C8C",
/* pixels */
"u.u.u.u.u.u.u.u.u.u.u.u.u.u.u.u.u.u.u.u.u.u.u.u.u.u.u.u.u.u.u.u.u.u.u.u.u.u.u.u.u.u.u.u.u.u.u.u.t.u.p.u.t.u.",
"u.u.u.u.u.u.u.u.u.u.u.u.u.u.u.u.u.u.u.u.u.u.u.u.u.u.u.u.u.u.u.u.u.u.u.u.u.u.u.u.u.u.u.u.u.u.u.u.t.u.p.u.t.t.",
"u.u.u.u.u.u.u.u.u.u.u.u.u.u.u.u.u.u.u.u.u.u.u.u.u.u.u.u.u.u.u.u.u.u.u.u.u.u.u.u.u.u.u.u.u.u.u.u.0.u.p.u.t.u.",
"u.u.u.u.u.u.u.u.u.u.u.u.u.u.u.u.u.u.u.u.u.u.u.u.u.u.u.u.u.u.u.u.u.u.u.u.u.u.u.u.u.u.u.u.u.u.u.u.t.u.p.u.t.t.",
"u.u.u.u.u.u.u.u.u.u.u.u.u.u.u.u.u.u.u.u.u.u.u.u.u.u.u.u.u.u.u.u.u.u.u.u.u.u.u.u.u.u.u.u.u.u.u.u.t.u.p.u.t.t.",
"u.u.u.u.u.u.u.u.u.u.u.u.u.u.u.u.u.u.u.u.u.u.u.u.u.u.u.u.u.u.u.u.u.u.u.u.u.u.u.u.u.u.u.u.u.u.u.u.t.u.p.u.0.u.",
"u.u.u.u.u.u.u.u.u.u.u.u.u.u.u.u.u.u.u.u.u.u.u.u.u.u.u.u.u.u.u.u.u.u.u.u.u.u.u.u.u.u.u.u.u.u.u.u.t.u.p.u.t.t.",
"u.u.u.u.u.u.u.u.u.u.u.u.u.u.u.u.u.u.u.u.u.u.u.u.u.u.u.u.u.u.u.u.u.u.u.u.u.u.u.u.u.u.u.u.u.u.u.u.t.u.u.t.t.u.",
"u.u.u.u.u.u.u.u.u.u.u.u.u.u.u.u.u.u.u.u.u.u.u.u.u.u.u.u.u.u.u.u.u.u.u.u.u.u.u.u.u.u.u.u.u.u.u.u.0.u.p.u.t.t.",
"u.u.u.u.u.u.u.u.u.u.u.u.u.u.u.u.u.u.u.u.u.u.u.u.u.u.u.u.u.u.u.u.u.u.u.u.u.u.u.u.u.u.u.u.u.u.u.u.t.u.p.u.t.t.",
"u.u.u.u.u.u.u.u.u.u.u.u.u.u.u.u.u.u.u.u.u.u.u.u.u.u.u.u.u.u.u.u.u.u.u.u.u.u.u.u.u.u.u.u.u.u.u.u.t.u.p.u.t.t.",
"u.u.u.u.u.u.u.u.u.u.u.u.u.u.u.u.u.u.u.u.u.u.u.u.u.u.u.u.u.u.u.u.u.u.u.u.u.u.u.u.u.u.u.u.u.u.u.u.t.u.p.u.t.t.",
"u.u.u.u.u.u.u.u.u.u.u.u.u.u.u.u.u.u.u.u.u.u.u.u.u.u.u.u.u.u.u.u.u.u.u.u.u.u.u.u.u.u.u.u.u.u.u.u.t.u.p.u.t.u.",
"u.u.u.u.u.u.u.u.u.u.u.u.u.u.u.u.u.u.u.u.u.u.u.u.u.u.u.u.u.u.u.u.u.u.u.u.u.u.u.u.u.u.u.u.u.u.u.u.t.u.u.u.t.u.",
"u.u.u.u.u.u.u.u.u.u.u.u.u.u.u.u.u.u.u.u.u.u.u.u.u.u.u.u.u.u.u.u.u.u.u.u.u.u.u.u.u.u.u.u.u.u.u.u.0.u.p.u.t.t.",
"u.u.u.u.u.u.u.u.u.u.u.u.u.u.u.u.u.u.u.u.u.u.u.u.u.u.u.u.u.u.u.u.u.u.u.u.u.u.u.u.u.u.u.u.u.u.u.u.t.u.p.u.t.t.",
"u.u.u.u.u.u.u.u.u.u.u.u.u.u.u.u.u.u.u.u.u.u.u.u.u.u.u.u.u.u.u.u.u.u.u.u.u.u.u.u.u.u.u.u.u.u.u.u.t.p.u.u.t.u.",
"u.u.u.u.u.u.u.u.u.u.u.u.u.u.u.u.u.u.u.u.u.u.u.u.u.u.u.u.u.u.u.u.u.u.u.u.u.u.u.u.u.u.u.u.u.u.u.u.t.u.p.u.t.t.",
"u.u.u.u.u.u.u.u.u.u.u.u.u.u.u.u.u.u.u.u.u.u.u.u.u.u.u.u.u.u.u.u.u.u.u.u.u.u.u.u.u.u.u.u.u.u.u.u.t.u.p.u.t.t.",
"u.u.u.u.u.u.u.u.u.u.u.u.u.u.u.u.u.u.u.u.u.u.u.u.u.u.u.u.u.u.u.u.u.u.u.u.u.u.u.u.u.u.u.u.u.u.u.u.t.u.u.t.t.t.",
"u.u.u.u.u.u.u.u.u.u.u.u.u.u.u.u.u.u.u.u.u.u.u.u.u.u.u.u.u.u.u.u.u.u.u.u.u.u.u.u.u.u.u.u.u.u.u.u.0.u.p.u.t.t.",
"u.u.u.u.u.u.u.u.u.u.u.u.u.u.u.u.u.u.u.u.u.u.u.u.u.u.u.u.u.u.u.u.u.u.u.u.u.u.u.u.u.u.u.u.u.u.u.u.t.u.u.u.t.t.",
"u.u.u.u.u.u.u.u.u.u.u.u.u.u.u.u.u.u.u.u.u.u.u.u.u.u.u.u.u.u.u.u.u.u.u.u.u.u.u.u.u.u.u.u.u.u.u.u.t.u.p.u.t.t.",
"u.u.u.u.u.u.u.u.u.u.u.u.u.u.u.u.u.u.u.u.u.u.u.u.u.u.u.u.u.u.u.u.u.u.u.u.u.u.u.u.u.u.u.u.u.u.u.u.t.u.p.u.t.t.",
"u.u.u.u.u.u.u.u.u.u.u.u.u.u.u.u.u.u.u.u.u.u.u.u.u.u.u.u.u.u.u.u.u.u.u.u.u.u.u.u.u.u.u.u.u.u.u.u.t.u.p.u.t.u.",
"u.u.u.u.u.u.u.u.u.u.u.u.u.u.u.u.u.u.u.u.u.u.u.u.u.u.u.u.u.u.u.u.u.u.u.u.u.u.u.u.u.u.u.u.u.u.u.u.t.u.p.u.t.t.",
"u.u.u.u.u.u.u.u.u.u.u.u.u.u.u.u.u.u.u.u.u.u.u.u.u.u.u.u.u.u.u.u.u.u.u.u.u.u.u.u.u.u.u.u.u.u.u.u.0.u.p.u.t.u.",
"u.u.u.u.u.u.u.u.u.u.u.u.u.u.u.u.u.u.u.u.u.u.u.u.u.u.u.u.u.u.u.u.u.u.u.u.u.u.u.u.u.u.u.u.u.u.u.u.t.u.p.u.t.t.",
"u.u.u.u.u.u.u.u.u.u.u.u.u.u.u.u.u.u.u.u.u.u.u.u.u.u.u.u.u.u.u.u.u.u.u.u.u.u.u.u.u.u.u.u.u.u.u.u.t.u.p.u.t.t.",
"u.u.u.u.u.u.u.u.u.u.u.u.u.u.u.u.u.u.u.u.u.u.u.u.u.u.u.u.u.u.u.u.u.u.u.u.u.u.u.u.u.u.u.u.u.u.u.u.t.u.p.u.0.u.",
"u.u.u.u.u.u.u.u.u.u.u.u.u.u.u.u.u.u.u.u.u.u.u.u.u.u.u.u.u.u.u.u.u.u.u.u.u.u.u.u.u.u.u.u.u.u.u.u.t.u.p.u.t.t.",
"u.u.u.u.u.u.u.u.u.u.u.u.u.u.u.u.u.u.u.u.u.u.u.u.u.u.u.u.u.u.u.u.u.u.u.u.u.u.u.u.u.u.u.u.u.u.u.t.t.u.u.t.t.u.",
"u.u.u.u.u.u.u.u.u.u.u.u.u.u.u.u.u.u.u.u.u.u.u.u.u.u.u.u.u.u.u.u.u.u.u.u.u.u.u.u.u.u.u.u.u.u.u.u.t.u.u.u.t.t.",
"u.u.u.t.u.t.t.u.u.t.u.t.t.u.u.t.t.u.u.t.t.u.t.u.u.t.t.u.t.u.u.t.u.t.t.u.t.u.u.t.t.u.t.u.u.t.t.u.t.u.u.u.t.t.",
"u.t.t.u.t.u.t.t.t.u.t.u.u.t.t.u.t.t.t.t.u.t.u.t.t.u.u.t.u.t.t.t.t.u.u.t.u.t.t.t.u.t.u.t.t.u.u.t.t.t.u.t.t.t.",
"t.t.t.t.t.t.t.t.t.t.t.t.t.t.t.t.t.t.t.t.t.t.t.t.t.t.t.t.t.t.t.t.t.t.t.t.t.t.t.t.t.t.t.t.t.t.t.t.0.u.u.t.0.t.",
"t.t.t.t.t.t.t.t.t.t.t.t.t.t.t.t.t.t.t.t.t.t.t.t.t.t.t.t.t.t.t.t.t.t.t.t.t.t.t.t.t.t.t.t.t.t.t.t.0.u.u.t.0.t.",
"t.t.t.t.t.t.t.t.t.t.0.t.t.t.0.t.t.t.t.t.t.t.0.t.t.t.t.0.t.t.t.t.t.t.t.0.t.t.t.t.t.0.t.t.t.t.t.t.0.t.u.t.t.0.",
"t.t.0.t.0.t.t.t.t.t.t.t.0.t.t.t.t.0.t.t.t.t.t.t.t.t.t.t.t.t.0.t.t.t.t.t.t.t.0.t.t.t.t.t.t.t.0.t.0.t.u.0.0.0.",
"0.t.t.0.t.0.t.0.t.0.t.0.t.t.t.0.t.t.0.0.t.0.t.0.0.t.0.t.0.t.t.0.0.t.0.t.0.t.t.0.t.0.0.t.0.t.0.t.0.t.t.t.0.t.",
"t.0.0.0.0.t.0.t.0.0.0.t.0.0.t.0.t.0.0.0.t.0.0.t.t.0.t.0.t.0.0.t.t.0.t.0.0.0.0.t.0.0.t.0.0.0.t.0.7.t.t.0.0.0.",
"0.0.t.t.0.0.0.0.t.0.0.0.0.t.0.0.0.0.t.0.0.0.0.t.0.0.0.0.0.t.0.0.0.0.0.0.t.t.0.0.0.t.0.0.t.0.0.0.0.0.t.0.7.0.",
"0.0.0.0.0.0.0.0.0.0.0.0.0.0.0.0.0.0.0.0.0.0.0.0.0.0.0.0.0.0.0.0.0.0.0.0.0.0.0.0.0.0.0.0.0.0.0.0.7.0.0.0.7.0.",
"0.0.0.0.0.0.0.0.0.0.0.0.0.0.0.0.0.0.0.0.0.0.0.0.0.0.0.0.0.0.0.0.0.0.0.0.0.0.0.0.0.0.0.0.0.0.0.0.7.0.t.0.7.0.",
"7.7.7.0.7.0.7.7.0.7.7.7.0.0.7.7.7.7.0.0.7.7.7.7.7.7.0.7.7.7.7.7.7.7.0.7.0.7.7.7.7.0.0.7.0.7.7.0.7.0.0.7.7.7.",
"7.0.7.7.7.7.7.0.7.7.0.7.7.7.7.0.7.7.7.7.0.0.7.7.0.7.0.7.7.7.0.7.0.7.0.7.7.7.0.7.7.7.7.7.7.0.7.7.3.0.0.7.3.7.",
"7.7.7.7.7.7.7.7.7.7.7.7.7.7.7.7.7.7.7.7.7.7.7.7.7.7.7.7.7.7.7.7.7.7.7.7.7.7.7.7.7.7.7.7.7.7.7.7.3.7.7.7.3.7.",
"7.7.7.7.7.3.7.7.7.7.7.3.7.7.7.7.7.7.3.7.7.7.7.7.3.7.7.7.7.7.7.7.3.7.7.7.3.7.7.7.7.7.3.7.7.7.7.7.3.7.0.7.3.7.",
"3.3.3.3.7.3.7.3.3.3.3.3.3.7.3.3.3.7.3.3.3.3.3.7.7.3.3.3.3.3.3.3.3.3.3.3.3.3.3.7.7.3.7.3.7.3.7.3.3.7.7.3.3.3.",
"3.3.3.3.3.3.3.3.7.3.7.3.3.3.3.3.3.3.3.3.7.3.3.3.3.3.3.7.3.7.7.3.3.7.7.3.7.3.3.3.3.7.3.7.3.7.3.7.>.3.7.3.>.3.",
"3.3.3.3.3.3.3.3.3.3.3.3.3.3.3.3.3.3.3.3.3.3.3.3.3.3.3.3.3.3.3.3.3.3.3.3.3.3.3.3.3.3.7.3.3.7.3.3.>.7.7.3.>.3.",
"3.3.3.3.3.3.3.3.>.3.3.3.3.3.3.3.3.3.3.3.3.3.3.3.3.>.3.3.3.3.3.>.3.3.3.>.3.3.3.3.3.3.3.3.3.3.3.3.>.3.3.3.>.3.",
">.3.3.>.>.3.>.>.>.3.>.3.>.3.>.3.3.>.3.>.>.>.3.>.>.>.3.3.>.3.3.>.3.>.3.>.>.>.3.>.3.>.3.3.>.3.>.3.>.3.3.>.>.>.",
">.>.>.>.>.>.3.>.3.>.>.>.>.>.>.>.>.>.>.3.>.>.>.>.3.>.>.>.>.>.>.>.>.>.>.3.>.>.>.>.3.>.>.>.3.>.3.3.-.>.3.>.>.>.",
">.>.>.>.>.>.>.>.>.>.>.>.>.>.>.>.>.>.>.>.>.>.>.>.>.>.>.>.>.>.>.>.>.>.>.>.>.>.>.>.3.>.>.3.>.>.>.>.-.>.3.>.-.>.",
">.>.>.>.>.>.>.>.>.>.>.>.>.>.>.>.>.>.>.>.>.>.>.>.>.>.>.>.>.>.>.>.>.>.>.>.>.>.>.>.>.>.>.>.>.>.>.>.-.>.>.>.-.-.",
">.>.-.-.-.-.>.>.-.-.-.>.-.>.-.-.-.-.>.-.>.-.-.-.>.>.-.-.-.-.>.>.-.-.>.-.>.-.-.-.>.>.-.-.-.-.>.>.-.>.>.>.-.-.",
"-.-.-.>.>.-.-.-.-.>.-.-.-.>.-.>.>.-.>.-.-.-.>.-.-.-.-.>.>.-.-.-.>.-.>.-.-.-.>.-.-.-.-.>.>.-.-.-.#.>.>.-.#.-.",
"-.-.-.-.-.-.-.-.-.-.-.-.-.-.-.-.-.-.-.-.-.-.-.-.-.-.-.-.-.-.-.-.-.-.-.-.-.-.-.-.-.-.-.-.-.-.-.-.#.-.>.-.-.-.",
"-.-.-.-.-.#.-.-.-.-.-.-.#.-.-.-.#.-.-.-.-.-.-.-.-.-.-.-.-.#.-.-.#.-.-.-.-.-.-.-.-.-.-.-.-.#.-.-.#.-.-.-.#.-.",
"#.#.#.-.#.-.-.-.#.#.-.#.-.#.#.-.-.#.#.-.#.-.-.#.#.#.#.-.#.-.-.-.-.#.#.-.#.-.-.#.#.#.#.-.#.-.-.-.#.-.-.#.#.-.",
"-.#.-.#.#.#.#.#.#.-.#.-.-.#.-.#.-.#.-.#.#.#.#.#.-.#.-.#.#.#.#.#.-.#.-.#.#.#.#.-.-.#.-.#.#.#.#.#.#.#.-.#.#.#.",
"#.#.-.#.-.#.#.#.#.-.#.#.#.#.#.#.#.#.#.#.#.#.#.-.#.#.-.#.-.#.#.#.#.#.#.#.#.#.#.#.#.#.-.#.-.#.#.#.+.-.-.#.#.#.",
"#.#.#.#.#.#.#.-.#.#.#.#.#.#.-.#.#.#.-.#.-.#.#.#.#.#.#.#.#.#.#.-.#.#.#.-.-.#.#.#.#.#.#.#.#.#.#.-.+.#.#.#.+.+.",
"..+...+...+...+...+...+...+...+...+...+...+...+...+...+...+...+...+...+...+...+...+...+...+...+.+.+.+.+...+.",
"+.+.+.+.+.+.+.+.+.+.+.+.+.+.+.+.+.+.+.+.+.+.+.+.+.+.+.+.+.+.+.+.+.+.+.+.+.+.+.+.+.+.+.+.+.+.+.+...+.+.......",
"..+...+...+...+...+...+...+...+...+...+...+...+...+...+...+...+...+...+...+...+...+...+...+...+...+.+.......",
"....+...............+...............+...............+...............+...............+...........{ ..+...{ ..",
"................................................................................................{ ..+.{ { { ",
"..{ { { { ..{ ....{ { { { ..{ ....{ { { { ..{ ....{ { { { ..{ ....{ { { { ..{ ....{ { { { ..{ ..{ ....{ { { ",
"{ ..{ ..{ { { ..{ ..{ ..{ { { ..{ ..{ ..{ { { ..{ ..{ ..{ { { ..{ ..{ ..{ { { ..{ ..{ ..{ { { ..` ....{ { { ",
"{ { { { ..{ { { { { { { ..{ { { { { { { ..{ { { { { { { ..{ { { { { { { ..{ { { { { { { ..{ { { { { ..{ { { ",
"{ ` { ` { ` { ` { ` { ` { ` { ` { ` { ` { ` { ` { ` { ` { ` { ` { ` { ` { ` { ` { ` { ` { ` { ` ` { { { ` ` ",
"` { ` ` ` { ` { ` ` ` { ` { ` ` ` { ` ` ` { ` { ` ` ` { ` { ` ` ` { ` ` ` { ` { ` ` ` { ` { ` ` ` ` { { ` ` ",
"` ` ` ` ` ` ` ` ` ` ` ` ` ` ` ` ` ` ` ` ` ` ` ` ` ` ` ` ` ` ` ` ` ` ` ` ` ` ` ` ` ` ` { ` ` ` ` ! { { ` ! ` ",
"` ` ` ` ` ` ` ` ` ` ` ` ` ` ` ` ` ` ` ` ` ` ` ` ` ` ` ` ` ` ` ` ` ` ` ` ` ` ` ` ` ` ` ` ` ` ` ` ! { ` ! ! ` ",
"` ` ` ` ! ! ` ! ! ` ! ` ` ` ` ` ` ` ` ` ! ! ` ! ! ` ! ` ` ` ` ` ` ` ` ` ! ! ` ! ` ! ` ! ! ` ! ` ! ` ` ` ! ! ",
"! ! ! ! ! ` ! ` ` ` ` ! ! ! ! ! ! ! ! ! ! ` ! ` ` ` ` ! ! ! ! ! ! ! ! ! ! ` ! ` ! ` ! ` ` ! ` ` E ! ` ! ! ` ",
"! ! ! ` ! ! ! ! ! ! ! ` ! ! ` ! ! ! ! ` ! ! ! ! ! ! ! ` ! ! ` ! ! ! ` ! ! ! ! ! ! ! ! ! ! ! ! ! E ` ` E E ! ",
"! ! ! ! ! ` ! ! ! ! ! ! ! ! ! ! ! ! ! ! ! ` ! ! ! ! ! ! ! ! ! ! ! ! ! ! ! ! ` ! ! ! ` ! ! ! ! ! E ! ` ! E ! ",
"! ! E E E E E E ! E ! E E E ! E E E ! ! E E E E E E ! E ! E E E ! ! E E E E E E ! E ! E E E ! E E ! ! E U E ",
"E E E ! E E ! E ! E E E ! E ! E E E E E E ! E E ! E ! E E E ! E E E E ! E E ! E ! E E E ! E ! E E E ! E U E ",
"E E E E E E E E E E E E E E E E E E E E E E E E E E E E E U U E E E E E E E E E E E E E E E E E U E ! U U U ",
"U U E U E U U U U E U U U U E U U E U U E U U E U U E U E U E E U U E U E U U U U E U U U U E U U E E U U U ",
"U U U U U U U U U U U U U U U U U U U U U U U U U U U U U U U U U U U U U U U U U U U U U U U U K E U U K U ",
"U U U U U K U U K U U U U U K U U U U U U U U U U U U U U U U U U U U U U K U U K U U U U U K U K U U U K K ",
"K U K U K U K U K K U K U K K K K K K K K K K K K K U K K K U K K U K U K U K U K K U K U K K K K K U K F K ",
"K K K K K K K K K U K K K K K U K U K U K K K K K K K K K K K K K K K K K K K K K U K K K K K U K K U K F K ",
"K F K F K F K F K F K F K F K F F K F K F K F K F K F K F K F K K F K F K F K F K F K F K F K F F K K F F F ",
"F K F K F K F K F K F K F K F K K F K F K F K F K F K F K F K F F K F K F K F K F K F K F K F K F K K F Z F ",
"F F F F F F F F F F F F F F F F F F F F F F F F F F F F F F F F F F F F F F F F F F F F F F F F Z K K F Z F ",
"F F Z F F F F F F F F Z Z F F F F F F F F Z F F Z F F F Z F F F F F Z F F F F F F F F Z Z F F F Z F F Z Z F ",
"Z Z Z Z F Z Z Z Z Z F Z Z Z F Z F Z Z Z Z Z F Z Z Z F Z Z Z F Z Z Z Z Z F Z Z Z Z Z F Z Z Z F Z Z F F Z M Z ",
"Z Z Z Z Z Z Z Z Z Z Z Z Z Z Z Z Z Z Z Z Z Z Z Z Z Z Z Z Z Z Z Z Z Z Z Z Z Z Z Z Z Z Z Z Z Z Z Z M Z Z Z M Z ",
"Z Z Z Z Z M M Z Z M Z M M Z Z M Z M M Z Z M Z M M Z Z M M Z Z M Z Z Z Z Z M M Z Z M Z M M Z Z M M Z F M M Z ",
"M M Z M M Z Z M Z Z Z M Z Z M Z M Z Z M Z Z Z M Z Z M Z Z M Z Z M M Z M M Z Z M Z Z Z M Z Z M Z M Z Z M M M ",
"M M b M M M b M b M M M b M M M b b M M M M b b M M b M M M b M M M b b M M b M M M b M b M M M b M M M M M ",
"M b M M b M b M M b b M b M b b M M M b b b M M M b M M b M b M b M M M M b M M b M b M M b b M b M M M b b ",
"b b b b b b b b b b b b b b b b b b b b b b b b b b b b b b b b b b b b b b b b b b b b b b b b b b M b b b ",
"b b b l b b b b b b b b b b b b l b b b b b b b b b b l b b b b b l b b b b b l b b b b b b b b l b b b b l ",
"l b b l l l b l b l l l l b l b l b b l b l b l l b b l l l b l b l b b l b b l l l l b l b b l l l b b l l ",
"l l l l l l l l l l l b l l l l l l l l l l l l l l l l l l l l l l l l l l l l l l l l l l l l l l l l l l ",
"l l l l l g l l l l l g l l l g l g l g l l l l l l l l l g l l l g l l l l l l l l g l l l l l l l l l l g ",
"g l g l l l l l g l l l l l l l l l l l l l g l g l g l l l l l l l g l g l g l l l l l l g l g g l l l l g ",
"g g g g g g g g g g g g g g g g g g g g g g g g g g g g g g g g g g g g g g g g l g l g l g l g g g g g g g ",
"g g g g g g g g g g g g g g g g g g g g g g g g g g g g g g g g g g g g g g g g g g g g g g g g g g g g g g ",
"g a g a g a a g g a g a g a a g a g g g a g g g g g a g g a g a g g g a a g g g g g g a g g g a g g a g a g ",
"a g a a a g a a a g a a a g a a a a a a a a a a a a a a a g a a a a a a a a a a g a g a g a g a a a a a g a ",
"a a a y a a a y a a a y a a a y a a a y a a a a a a y a a a a y a y a a y a a a a a a a a a a a a a a a a a ",
"a y a y a y a y a y a y a y a y y a y a y a y y y y a a y a y a a y y a a a y a a y a a a a a a y y y a y y ",
"y y y y y y y y y y y y y y y y y y y y y y y y y y y y y y y y y y y y y y y y y y y y y y y y y y y y y y ",
"y y y y y y y y y y y y y y y y y y y y y y y y y y y y y y y y y y y y y y y y y a y y y a y y y y y y y y ",
"y e y e y e y e e y e y y e y e y e y e y e y e y e y e y e y e y e y e y e y e y e y e e y e y e y e e e e ",
"e y e e e y e e y e y e e y e e e y e y e e e y e y e e e y e y e e e y e y e e e y e y y e y e e e e e e e ",
"e e e e e e e e e e e e e e e e e e e e e e e e e e e e e e e e e e e e e e e e e e e e e e e q e e q e e e ",
"e e e e e e q q q e q e e e q q q e e e e q q q e e e e e e e e e q q q e e e e e e e e q e q q q q q q q q ",
"q q 6 q q q q q q q q q q q q q q q q q q 6 q q 6 q q q q q q q q q q q 6 q q q q q q q 6 q q q q q 6 q q q ",
"q q 6 q 6 q 6 q q 6 q 6 6 q 6 q 6 q q q 6 q 6 q q q 6 q q 6 q 6 6 q 6 q q q 6 q q 6 q q 6 q q q 6 q 6 6 6 6 ",
"6 6 6 6 q 6 6 q 6 6 6 6 6 q 6 6 6 q 6 6 6 6 6 q 6 6 q 6 6 q 6 6 q 6 6 q 6 6 6 6 6 6 q 6 6 q 6 6 6 6 6 6 6 6 ",
"6 6 q 6 6 6 6 6 6 q 6 6 6 6 6 6 6 6 6 6 6 q 6 6 6 6 6 6 6 6 6 6 6 6 6 6 6 6 6 5 6 6 6 6 6 6 6 6 6 6 6 6 6 5 ",
"6 6 5 5 5 5 5 5 5 5 5 5 5 5 5 5 5 5 5 5 5 5 5 5 6 5 5 5 5 5 5 5 5 5 5 5 5 5 5 5 5 5 5 5 5 5 5 5 6 5 5 5 5 5 ",
"5 5 5 5 5 5 5 5 5 5 5 5 5 5 5 5 5 5 5 5 5 5 5 5 5 5 5 5 5 5 5 5 5 5 5 5 5 5 5 5 5 5 5 5 5 5 5 5 5 5 5 5 5 5 ",
"5 5 5 5 2 5 5 2 5 5 5 5 5 5 2 5 2 5 5 5 2 5 5 5 5 5 2 5 5 5 5 5 5 5 5 5 2 5 5 5 5 5 5 5 5 5 5 5 5 5 2 5 5 5 ",
"5 2 2 5 5 5 2 5 2 5 2 2 2 5 5 2 5 2 5 2 5 2 5 2 5 5 5 2 2 5 2 2 5 2 2 5 5 2 2 5 2 2 2 5 2 2 2 5 5 5 5 2 2 2 ",
"2 2 2 2 2 2 2 2 2 2 2 2 2 2 2 2 2 2 2 2 2 2 2 2 2 2 2 2 2 2 2 2 2 2 2 2 2 2 2 2 2 2 2 2 2 2 2 2 2 2 2 2 2 2 ",
", 2 2 2 2 , 2 2 , 2 2 2 2 2 2 2 2 2 2 , , 2 2 2 2 2 2 2 2 2 2 , 2 2 2 , 2 2 , 2 2 2 2 2 2 2 2 , 2 2 , 2 2 2 ",
"2 , , 2 2 , , 2 2 2 2 2 , 2 2 , , 2 2 , 2 2 2 2 , 2 2 , , 2 2 , , 2 2 , , 2 2 2 2 2 , 2 , 2 2 , , 2 2 2 2 2 ",
"2 2 2 , 2 2 , 2 , 2 , , 2 , 2 , 2 2 , 2 , 2 , , 2 , 2 , 2 2 , 2 2 , 2 2 , 2 , 2 , , 2 , 2 , 2 2 , 2 , 2 , , ",
", , , , , , , , , , , , , , , , , , , , , , , , , , , , , , , , , , , , , , , , , , , , , , , , , , , , , , ",
", , , , , , , , , , , , , , , , , , , , , , , , , , , , , , , , , , , , , , , , , , , , , , , , , , , , , , ",
", , ; , , ; ; , , , , , , , , , , , , , , , ; , , , , , , , , , , , ; , , , , , , , , , , , ; , , , , , , , ",
"; ; , ; , ; , , ; , ; ; ; ; , ; ; , ; ; ; , , ; ; , ; ; ; , ; ; ; , , ; ; , ; ; ; , ; ; ; , , ; ; , ; ; ; , ",
"; ; ; ; ; ; ; ; ; ; ; ; ; ; ; ; ; ; ; ; ; ; ; ; ; ; ; ; ; ; ; ; ; ; ; ; ; ; ; ; ; ; ; ; ; ; ; ; ; ; ; ; ; ; ",
"; ; * ; ; ; * ; * ; ; ; ; ; * ; ; ; * ; ; * ; ; ; ; ; ; ; ; ; ; ; * ; ; ; ; ; * ; ; * ; ; * ; ; ; ; ; ; ; ; ",
"* ; * ; * ; * ; ; * ; * ; * ; * * ; * ; * ; * ; * * ; * * * ; * * ; * ; * ; * ; * ; * ; * ; * ; * * ; * * * ",
"; * ; * ; * ; * * ; * ; * ; * ; ; * ; * ; * ; * * ; * ; * ; * ; ; * ; * ; * ; * ; * ; * ; * ; * * ; * ; * ; ",
"* * * * * * * * * * * * * * * * * * * * * * * * * * * * * * * * * * * * * * * * * * * * * * * * * * * * * * ",
"$ * * * $ * * * * * $ * * * $ * * * $ * * * * * * $ * * * $ * * * * * $ * * $ * * * * $ * * $ * * $ * * * $ ",
"* $ * $ * $ * $ $ * $ * * $ * $ $ * $ * $ $ * $ $ * $ * $ * $ * $ * $ * $ * $ * $ * $ * $ * $ * $ * $ * $ * ",
"$ * $ * $ * $ * * $ * $ $ * $ * * $ * $ $ * $ * * $ * $ * $ * $ * $ * $ * $ * $ * $ * $ * $ * $ * $ * $ * $ ",
"$ $ $ $ $ $ $ $ $ $ $ $ $ $ $ $ $ $ $ $ $ $ $ $ $ $ $ $ $ $ $ $ $ $ $ $ $ $ $ $ $ $ $ $ $ $ $ $ $ $ $ $ $ $ ",
"$ $ $ $ $ $ $ $ $ $ $ $ $ $ $ $ $ $ $ $ $ $ $ $ $ $ $ $ $ $ $ $ $ $ $ $ $ $ $ $ $ $ $ $ $ $ $ $ $ $ $ $ $ $ ",
"$ $ $ $ $ + + $ $ + $ $ $ $ $ $ $ $ $ $ + $ $ $ $ $ $ $ $ $ $ $ $ $ + $ $ $ + $ $ $ + $ $ $ + $ $ $ $ $ $ $ ",
"+ + $ + $ + $ $ + $ + $ + + $ + + $ + + $ + $ + + $ + + + $ + + + $ $ + + $ $ + + $ $ + + $ $ + + $ + + $ + ",
"+ + + + + + + + + + + + + + + + + + + + + + + + + + + + + + + + + + + + + + + + + + + + + + + + + + + + + + ",
"+ + X + + + + X X + + + + X X + + + + X + X + + X + + + + X X + X + + X + + X + X + + X + + X + + + + X X + ",
"+ + + + + + + X + + + + + + + + X + X + X + X + + + + + + + + + + + + + X + + + + + + + X + + + + + + X + + ",
"X X X X X X + X X X X X X X X X X + X + X + X X X X X X X X X X X X X + X X X X X X X + X X X X X X + X X X ",
"X X X X X X + X X X X X X X X X X X X X + X X + X X X X X X X X X + X X X X X X X + X X X X X X X X X X X X ",
"X X X X X X X X X X X X X X X X X X X X X X X X X X X X X X X X X X X X X X X X X X X X X X X X X X X X X X ",
"X X X X X X X X X X X X X X X X X X X X X X X X X X X X X X X X X X X X X X X X X X X X X X X X X X X X X X ",
"X X X X X X X X X X X X X X X X X X X X X X X X X X X X X X X X X X X X X X X X X X X X X X X X X X X X X X ",
"X X X X X X X X X X X X X X X X X X X X X X X X X X X X X X X X X X X X X X X X X X X X X X X X X X X X X X ",
"X X X X X X X X X X X X X X X X X X X X X X X X X X X X X X X X X X X X X X X X X X X X X X X X X X X X X X "
};
