/* XPM */
static char *wallpaper_xpm[] = {
/* columns rows colors chars-per-pixel */
"22 22 184 2",
"   c black",
".  c #06B0093402D3",
"X  c #0B5F04E20000",
"o  c #0B7A0E6407D5",
"O  c #0EC30F700DFB",
"+  c #1B400E790000",
"@  c #145214A813D9",
"#  c #1A5A19A1194F",
"$  c #1DB31ECB2085",
"%  c #27A21E111FB2",
"&  c #22201FF421AD",
"*  c #2C521E8E2034",
"=  c #2AD0213622E1",
"-  c #29EF2B33280F",
";  c #2E172EC42D0B",
":  c #3FCD41183E85",
">  c #5E7E3AC3055F",
",  c #656B3FE10690",
"<  c #6FF026C32632",
"1  c #6AA439E83906",
"2  c #421343423FB0",
"3  c #73C75F013ACD",
"4  c #45804772440A",
"5  c #4730491E45B9",
"6  c #4C234D764A2E",
"7  c #55034CD84B65",
"8  c #536E56584F30",
"9  c #552756B552E6",
"0  c #5DE05EC259DC",
"q  c #603461775E50",
"w  c #650E5EBE5C7A",
"e  c #636862D85F5A",
"r  c #644D65CE6222",
"t  c #675C69776741",
"y  c #608068FB6E97",
"u  c #6A0C63846173",
"i  c #6B276C536728",
"p  c #6D0A6E776AA1",
"a  c #70D7614D60A9",
"s  c #7E7570CD6CE5",
"d  c #74E676317301",
"f  c #77CE7A1075FD",
"g  c #7A377BDE7568",
"h  c #7B637DD97B09",
"j  c #7F2B81A17D07",
"k  c #7DAC82FD8194",
"l  c #83FE259C268E",
"z  c #823529412A0A",
"x  c #8FD0280B28E6",
"c  c #8BC735F2353D",
"v  c #9EDB26B72765",
"b  c #AEDD0E8A0E9D",
"n  c #B6D316151612",
"m  c #B3C81A1B1A00",
"M  c #BC3910C710D7",
"N  c #A6EF27DB2787",
"B  c #BEF7280726EE",
"V  c #BB262AAC2938",
"C  c #80E8650B35E9",
"Z  c #92DA70F63820",
"A  c #AC337F123721",
"S  c #8F3661AA60B4",
"D  c #8E3A7E1079A4",
"F  c #98826E9A6AB0",
"G  c #9D85671D638D",
"H  c #94F873CF6FAE",
"J  c #90B17D1E7962",
"K  c #B45F45DA43D0",
"L  c #B5C64CFC4B44",
"P  c #BCF553CD5262",
"I  c #A13D692265BA",
"U  c #AC8B6A9D67D7",
"Y  c #A5B47DB47C46",
"T  c #B5406F6C6D12",
"R  c #B499731E70AF",
"E  c #BDE575FF73C7",
"W  c #C5EA0968096F",
"Q  c #CE1B03900391",
"!  c #CE2A0D740D40",
"~  c #C1131C561C5C",
"^  c #CFA813D613EE",
"/  c #D0E901620177",
"(  c #DA070EEF0EF2",
")  c #D9AE14551449",
"_  c #C2902CB32BEA",
"`  c #C4D03DF03D64",
"'  c #CDC136C6369E",
"]  c #D8422F3A2EFE",
"[  c #DAA926362616",
"{  c #D58B3106309B",
"}  c #E4F71BDC1BDE",
"|  c #E3FF225D2249",
" . c #EF1E272E2730",
".. c #EDC62DDD2DC8",
"X. c #C3E0444542F9",
"o. c #C84D56EF55BB",
"O. c #CCEC635061C5",
"+. c #CC906BD56A33",
"@. c #D72E62C661ED",
"#. c #DB8B6468634A",
"$. c #E125531A524D",
"%. c #B83A88433C55",
"&. c #B78A88D73ECB",
"*. c #8B9C82E16EE3",
"=. c #8867822C7211",
"-. c #82E583C57F88",
";. c #9A63885169F0",
":. c #9C6691767930",
">. c #A627827F482D",
",. c #A751845C4A8E",
"<. c #A6B6888455FC",
"1. c #A9B08B41581B",
"2. c #B6028CE44B51",
"3. c #A4A699587FDE",
"4. c #B37D9CFB773D",
"5. c #BF58A3FF7718",
"6. c #BEC5A56B7BFA",
"7. c #CB92989347E1",
"8. c #D0259CFF4C3E",
"9. c #C2C29B4F5C8D",
"0. c #CEAE9F5A54F0",
"q. c #CE62A19D5A9E",
"w. c #D265A29B5722",
"e. c #D4AEA64F5CF6",
"r. c #DA8AAA815EB5",
"t. c #C61BA9B37BDF",
"y. c #DF4AAEBC628C",
"u. c #E197B3D06BF7",
"i. c #83C686AB81EE",
"p. c #87C48AF085D7",
"a. c #8AB886FB8214",
"s. c #89248B168655",
"d. c #8BEE8EB18CCE",
"f. c #8F2791998CE0",
"g. c #902F932992A2",
"h. c #95F38D398B76",
"j. c #91D3932F8F94",
"k. c #9442961292DC",
"l. c #971C99C095CE",
"z. c #9DF39EE79BF4",
"x. c #A048A12D9D09",
"c. c #AFF3894A867F",
"v. c #AD0F8E568BAB",
"b. c #A6C09BBF8283",
"n. c #A2AF96C39354",
"m. c #A60A9E589B91",
"M. c #A2F0A3259F8B",
"N. c #BD32A7978333",
"B. c #BCEDB10D9B62",
"V. c #A49AA5D7A295",
"C. c #A5B5AA22A60E",
"Z. c #ABE6AA1DA698",
"A. c #AD77AF01ABEA",
"S. c #B20FB2E9AF85",
"D. c #B425B604B2DD",
"F. c #B804B96DB77B",
"G. c #B8E9B55AB250",
"H. c #B9C9BADBB7D2",
"J. c #BA4FBCADBA26",
"K. c #C2998DED8C22",
"L. c #CDCA84B182D7",
"P. c #CCCE8C4A8AEB",
"I. c #C5F5AC3281C4",
"U. c #CB33B9A39BA8",
"Y. c #DF73B86DB6DA",
"T. c #DFD9B90EB7AD",
"R. c #DC2FBCF0BB29",
"E. c #C87BC10FB230",
"W. c #C649C73AC47D",
"Q. c #C857C90DC68C",
"!. c #C9DCCA69C7D6",
"~. c #CD8BCDE3CB69",
"^. c #D05AD126CEB9",
"/. c #D0CED439D1ED",
"(. c #DB22C4A2C2BD",
"). c #D18CD233CFC4",
"_. c #D40ED5A2D35A",
"`. c #D97CDAD0D705",
"'. c #DE0DDE42DBBF",
"]. c #E15CD75DD53C",
"[. c #E485E557E346",
"{. c #E9FBEA57E81D",
"}. c #FFFFFFFFFFFF",
"|. c None",
/* pixels */
"8 V.!._.).)._.`._._._._.).)._._._.).).).Q.V.",
"-.~.{.^.).).).E.T.T.T.T.T.T.Y.Y.R.~.~.).{.Q.",
"s._.Q.k.V.M.M.o.] [ [ [ [ [ [ [ { v.V.j.~.).",
"s._.Q.V.H.H.H.#.$... . . . . . . .L.J.M.~.).",
"s._.!.z.S.S.S.+.+.| } } } } } } } O.D.z.~.).",
"s.`.!.l.Z.Z.Z.E E ) ( ( ( ( ( ( ( X.z.d.~.).",
"s._.Q.j.C.V.M.R T ^ ! Q Q Q Q Q / B s.h ~.^.",
"s._.Q.d.x.z.z.Y U B L W Q Q Q Q / _ -.j ~.^.",
"s._.W.s.l.l.l.l.U K J N b n m ~ M _ D j ~.^.",
"s._.W.-.f.f.f.f.G G i.1 l v x z N z s j !.^.",
"s.`.W.j s.s.s.s.F H s.: * * & $ % # e -.!.).",
"s._.W.h -.h h k i.a.p.0 4 5 5 4 4 2 i j !.).",
"s._.J.h d.d.g.d.k h s.*.b.h.3.3.3.:.*.s.).).",
"s.~.A.l.7 7 w a Y V.[.I.y.y.r.r.r.w.U.[.{.~.",
"-.F.V.).P.` ` { P h.^.B.<.>.%.A ,.1.E._._.F.",
"g d l.W.m.@.^ K n.t d x.z.;.0.%.3 d.k.j.j.s.",
"|.  V.).l.S m c.C.h.k ~.).6.r.7.Z y ; |.|.|.",
"|.o A.`.[.h.< n.V.h z.[.'.t.y.8.4.F.j.      ",
"|.. S.`.{.(.c e t f !._.).5.u.w.N._.V.O     ",
"|.  A.'.{.].K.G.S.k.p p t C 9.2.3 h d @     ",
"|.|.s.A.W.~.W.F.x.q       + , > X         |.",
"|.|.|.- 9 r q 6 #           |.|.|.|.|.|.|.|."
};
