/* XPM */
static char *warning_xpm[] = {
/* columns rows colors chars-per-pixel */
"46 39 61 1",
"  c #79E775D638E3",
". c #410351445965",
"X c #492459655965",
"o c #59655D754924",
"O c #49245D756185",
"+ c #596569A671C6",
"@ c #69A671C64924",
"# c #79E779E74924",
"$ c #618571C679E7",
"% c #71C682078E38",
"& c #8E3879E70820",
"* c #861779E738E3",
"= c #965882070820",
"- c #965882071861",
"; c #9E798A281040",
": c #8E38861738E3",
"> c #96588A2828A2",
", c #AEBA92481040",
"< c #B6DA9A691861",
"1 c #A699965828A2",
"2 c #B6DAA2891861",
"3 c #BEFBA2891861",
"4 c #BEFBAAAA1861",
"5 c #B6DAA2892081",
"6 c #AEBA9E794103",
"7 c #BEFBB2CA6185",
"8 c #C71BAAAA1861",
"9 c #CF3CB2CA1861",
"0 c #D75CBAEA1861",
"q c #DF7DBAEA1861",
"w c #C71BAAAA2081",
"e c #CF3CB2CA28A2",
"r c #CF3CBAEA28A2",
"t c #CF3CBAEA38E3",
"y c #D75CBAEA2081",
"u c #D75CBAEA28A2",
"i c #DF7DBAEA2081",
"p c #DF7DC30B2081",
"a c #DF7DC71B28A2",
"s c #E79DC30B2081",
"d c #E79DCB2B2081",
"f c #D75CC71B4103",
"g c #D75CC30B5965",
"h c #DF7DCB2B5144",
"j c #D75CC71B69A6",
"k c #D75CC71B71C6",
"l c #8E389A699E79",
"z c #9E79AEBAAEBA",
"x c #C71BBAEA8617",
"c c #CF3CCB2B9658",
"v c #D75CCB2B8617",
"b c #D75CCF3C8E38",
"n c #CF3CCB2BA699",
"m c #C71BCB2BBEFB",
"M c #CF3CCB2BB6DA",
"N c #DF7DDB6CBEFB",
"B c #E79DDB6C8E38",
"V c #EFBEEBADCF3C",
"C c #FFFFFBEEFFFF",
"Z c gray100",
"A c None",
/* pixels */
"AAAAAAAAAAAAAAAAAAAnjhhkAAAAAAAAAAAAAAAAAAAAAA",
"AAAAAAAAAAAAAAAAAAcdddddaMAAAAAAAAAAAAAAAAAAAA",
"AAAAAAAAAAAAAAAAAcdddddddu%AAAAAAAAAAAAAAAAAAA",
"AAAAAAAAAAAAAAAAAaddddddss6OAAAAAAAAAAAAAAAAAA",
"AAAAAAAAAAAAAAAAjddddddspppo+AAAAAAAAAAAAAAAAA",
"AAAAAAAAAAAAAAAMddq999999qpe.lAAAAAAAAAAAAAAAA",
"AAAAAAAAAAAAAAAhdd=&&&&&&,pp:OAAAAAAAAAAAAAAAA",
"AAAAAAAAAAAAAAnddd&&nNNNN7ppeo%AAAAAAAAAAAAAAA",
"AAAAAAAAAAAAAAfdds&6CCCCCViii:.AAAAAAAAAAAAAAA",
"AAAAAAAAAAAAAkddpp&6CCCCCViyqyo$AAAAAAAAAAAAAA",
"AAAAAAAAAAAAAapppp&6CCCCCbqyyy1ozAAAAAAAAAAAAA",
"AAAAAAAAAAAAgdpppp&&CCCCCByyyyy@OAAAAAAAAAAAAA",
"AAAAAAAAAAAnsppppp;&CCCCCByyyyr5.lAAAAAAAAAAAA",
"AAAAAAAAAAAhpppppp;&CCCCCByyyyyr>OAAAAAAAAAAAA",
"AAAAAAAAAAcppppppy;&CCCCCByyy099wX%AAAAAAAAAAA",
"AAAAAAAAAAappppppp;&CCCCCgyy99998:OzAAAAAAAAAA",
"AAAAAAAAAkppppiiyy;&VCCCCg999999r8o$AAAAAAAAAA",
"AAAAAAAAApppipiyyy,&NCCCCg9999w98y1.lAAAAAAAAA",
"AAAAAAAAgpppiiyyyy<&NCCCCh99w99w988@OAAAAAAAAA",
"AAAAAAAnppiiiiyyyy<&NCCCCg9999w98885olAAAAAAAA",
"AAAAAAAfipiyyyyyyy<&NCCCC9w99w988888 OAAAAAAAA",
"AAAAAAvpiiiyyyyyyy<&nCCCC99w988888885X%AAAAAAA",
"AAAAAAuiqiqyyyyyy92&xCCCC8w9888888888>.zAAAAAA",
"AAAAAjuiyyyyyyy0r94&xCCCC9988888888844o+AAAAAA",
"AAAAmiiyyyyyyy99998&7CCCV88888888884441.lAAAAA",
"AAAAfyiyyyyy0r999998,kBBt88888888444433@OAAAAA",
"AAAnyyyyyyyy9999998988888888888444433335o%AAAA",
"AAAtyyyyyyy999999w9333333888888434433333*.AAAA",
"AAvyyyyyy999999999,&-7xx7<888844334333232X$AAA",
"AAtyyy0r9999999ww9;&7CCCCk484443333333<22*.AAA",
"AAq0q009999yw9w988;&xCCCCb4444333333222<<>.$AA",
"AA09r09999w99w898w;&xCCCCb84333333<32222<<..AA",
"AAyr999r9w9w99w888;&xCCCCk4333333322<<<<<1..AA",
"AAr99999w9w99888884,1bbbv333333<2222<<<<<>..AA",
"AAA999999w988888888888343333333<222<<<<<1X..AA",
"AAAAt9889888888888884334333333<<<22<<<<>X..+AA",
"AAAAAA#**>*****************          oX...OAAA",
"AAAAAAAl$O.............................O$lAAAA",
"AAAAAAAAAAAAAAAAAAAAAAAAAAAAAAAAAAAAAAAAAAAAAA"
};
